# https://github.com/mikedh/trimesh
v -0.04914107 -0.07768688 -0.44972968
v -0.06334601 -0.05749560 -0.45671740
v -0.06064646 -0.06333511 -0.44738756
v -0.04124404 -0.06730482 -0.45687717
v -0.05432316 -0.01438394 -0.45244259
v -0.05833657 -0.02851758 -0.44576402
v -0.04517199 -0.04319959 -0.44164744
v -0.03515249 -0.02304817 -0.45223134
v -0.03874000 -0.05407462 -0.44863806
v -0.05263159 -0.00370313 -0.45675257
v -0.04873774 0.00942992 -0.43762836
v -0.03071619 -0.01089117 -0.45643496
v -0.03485111 -0.01812245 -0.43314125
v -0.02628572 0.01432211 -0.45668540
v -0.03039568 -0.01065486 -0.40991070
v -0.02574053 0.01228328 -0.43526621
v -0.04573418 -0.00810062 -0.42741102
v -0.04776328 0.00432619 -0.41008825
v -0.04243433 -0.01117336 -0.40936824
v -0.02796852 0.01945874 -0.41707467
v -0.06311391 -0.00677626 -0.39777373
v -0.04826387 -0.03497651 -0.39205391
v -0.04157140 -0.03189344 -0.40394339
v -0.06541236 -0.00726536 -0.37773687
v -0.05894820 -0.00584389 -0.34988583
v -0.03930046 -0.03819996 -0.39004162
v -0.01579098 -0.00791648 -0.39991146
v -0.01448694 -0.01058449 -0.36801879
v -0.04861466 -0.02673900 -0.34538543
v -0.03628798 -0.02912999 -0.35296238
v -0.02142249 -0.02347761 -0.34365417
v -0.06609887 0.00323608 -0.32354859
v -0.04794203 -0.03168945 -0.31826252
v -0.05990523 -0.00545181 -0.30629400
v -0.05597034 -0.01128980 -0.29406768
v -0.06455020 0.00289384 -0.28090090
v -0.06080912 -0.02384578 -0.26943841
v -0.05267061 -0.02283833 -0.28204388
v -0.05258740 -0.03561304 -0.30818094
v -0.03276191 -0.04145881 -0.30711492
v -0.02584751 -0.02725405 -0.31698562
v -0.05671995 -0.03139275 -0.29430272
v -0.04746227 -0.03736236 -0.29004078
v -0.02646887 -0.03873213 -0.29671812
v -0.02879882 -0.02655017 -0.28559856
v -0.02118013 -0.02811799 -0.32476266
v -0.02467682 -0.02296787 -0.28440023
v -0.03528557 -0.03567454 -0.26071550
v -0.06107016 -0.01554097 -0.22452474
v -0.06371873 0.01173145 -0.24686036
v -0.05064774 -0.02753383 -0.22241424
v -0.06720857 0.00942024 -0.23019712
v -0.07283226 0.01347996 -0.21823877
v -0.01878263 -0.03736020 -0.25643792
v -0.04869488 -0.03163534 -0.24688052
v -0.02424190 -0.03301765 -0.22021040
v -0.04444503 -0.03756300 -0.18672758
v -0.06584247 -0.02876689 -0.18581049
v -0.07916098 0.01842125 -0.18924172
v -0.04964636 -0.03500586 -0.14917311
v -0.07814906 -0.01140500 -0.15226691
v -0.06003747 -0.02889914 -0.15416725
v -0.06116085 -0.03150260 -0.14236707
v -0.02748516 -0.03057419 -0.15880712
v -0.05994554 -0.03309240 -0.08081473
v -0.08376302 0.01938066 -0.13212783
v -0.06920163 -0.02602839 -0.10399173
v -0.05436975 -0.03166676 -0.11166428
v -0.07644115 -0.01274162 -0.07030538
v -0.08492684 0.01177210 -0.07041546
v -0.06132977 -0.02611674 -0.08055219
v -0.07551119 -0.00587884 -0.08006489
v -0.04082122 -0.03639815 -0.08235845
v -0.02442198 -0.04024493 -0.12041241
v -0.03340423 -0.04097709 -0.08202814
v -0.04016575 -0.03746070 -0.08047621
v -0.02266389 -0.05673619 -0.07357863
v -0.19728080 -0.03142001 0.10192560
v -0.19355397 -0.04430993 0.10743732
v -0.18827718 -0.04309372 0.13658218
v -0.19956353 -0.02670702 0.11331343
v -0.19126982 -0.04346806 0.10831569
v -0.19861155 -0.03143717 0.10454696
v -0.18563655 -0.04355097 0.13383850
v -0.19208461 -0.03429195 0.14027452
v -0.18262857 -0.00621553 0.08043714
v -0.19111987 0.00214991 0.09628037
v -0.19882539 -0.00844758 0.11257327
v -0.19772595 -0.00246369 0.10326629
v -0.18761966 0.00152943 0.13446033
v -0.17275582 -0.03902056 0.08725118
v -0.14889319 -0.03880893 0.08255723
v -0.17480856 -0.03716146 0.08758842
v -0.14607853 -0.03661147 0.08306928
v -0.16169659 -0.04231341 0.09666410
v -0.17067045 -0.04222454 0.09826360
v -0.17141247 -0.04208514 0.11522482
v -0.16464363 -0.04162473 0.12685801
v -0.15542589 -0.03685166 0.10895525
v -0.15214145 -0.03482497 0.12392686
v -0.14913597 -0.02662024 0.12526520
v -0.16505775 -0.00488980 0.07197998
v -0.17886504 -0.00827133 0.07846652
v -0.17308802 0.00553492 0.08376406
v -0.15187971 -0.01367064 0.07281698
v -0.15263052 -0.00421869 0.06990626
v -0.15317304 -0.00473670 0.07383731
v -0.19095652 -0.03297576 0.14272979
v -0.19160051 -0.00550655 0.14311751
v -0.19247945 -0.01153950 0.14237228
v -0.16583982 -0.04778294 0.14031066
v -0.16698493 -0.03278482 0.15939955
v -0.16033452 -0.05130784 0.15868023
v -0.16252125 -0.04943589 0.14433254
v -0.14870514 -0.04335712 0.13681955
v -0.16018786 -0.04980481 0.15589915
v -0.16867388 -0.01951935 0.15849685
v -0.17747465 -0.01027646 0.15069535
v -0.15886550 -0.02383121 0.16438038
v -0.17225760 0.00659054 0.13360633
v -0.17283124 0.00701316 0.13355775
v -0.16239678 -0.01048476 0.15155321
v -0.16082532 -0.01317612 0.15501808
v -0.14958393 -0.00543770 0.13608894
v -0.08985452 -0.02624124 -0.05409197
v -0.09996709 0.00975758 -0.04414091
v -0.09513784 -0.00616061 -0.04482165
v -0.09448048 0.00872246 -0.04835321
v -0.08901206 0.00119223 -0.01710164
v -0.06184715 -0.06344064 0.02676621
v -0.03589151 -0.07242980 0.02435133
v -0.03342275 -0.06676848 -0.00666163
v -0.04761676 -0.06085914 -0.00619759
v -0.03474767 -0.07271514 0.02938872
v -0.03504240 -0.06612199 -0.00686908
v 0.00325952 -0.06884707 0.02292174
v -0.05268300 -0.06698592 0.08255510
v -0.04712643 -0.06719997 0.02642883
v -0.03985703 -0.07193519 0.08413126
v -0.03537740 -0.07440166 0.08352406
v -0.02462577 -0.07322474 0.08391370
v -0.07063752 -0.05221012 -0.06306424
v -0.06887938 -0.05566406 -0.04411895
v -0.08941446 -0.02877811 -0.05144024
v -0.07042568 -0.05087600 -0.06360032
v -0.08430062 -0.03050889 -0.03498879
v -0.06657031 -0.05543586 -0.03812316
v -0.05326664 -0.05764270 -0.06412518
v -0.05214603 -0.05900781 -0.04426894
v -0.08456953 -0.00008794 -0.06477751
v -0.07920330 -0.03148053 -0.01694750
v -0.07909041 -0.03174377 -0.00910023
v -0.06195373 -0.05686373 -0.01251055
v -0.06264682 -0.05595066 -0.00719302
v -0.08708988 0.01868526 -0.04968377
v -0.08843102 -0.00173497 -0.01100511
v -0.04036763 -0.06070027 -0.07352800
v -0.04005179 -0.06009993 -0.07285132
v -0.03924349 -0.06414893 -0.04620889
v -0.03740864 -0.06508748 -0.03539350
v -0.01912244 -0.05791119 -0.07327647
v -0.01830880 -0.06465243 -0.04045590
v -0.01114773 -0.06453459 -0.03930653
v -0.07908251 -0.03839244 0.02692928
v -0.07894506 -0.03783805 0.02277024
v -0.06242904 -0.06248864 0.02354419
v -0.07914970 -0.03989116 0.09120588
v -0.06348996 -0.06365677 0.08049577
v -0.06503481 -0.06135991 0.08452081
v -0.05789885 -0.06588647 0.08305249
v -0.08956953 -0.00350431 0.07852649
v -0.08896613 -0.00335440 0.08875567
v -0.12167686 -0.04170075 0.08339348
v -0.11382038 -0.04972886 0.08399647
v -0.13444218 -0.03868336 0.10175648
v -0.13715288 -0.03883139 0.10412889
v -0.13967815 -0.03673396 0.12051868
v -0.13524536 -0.03970421 0.11726356
v -0.12363720 -0.04506599 0.09251409
v -0.12199983 -0.00101911 0.09016175
v -0.12179995 -0.00187262 0.08962485
v -0.12015849 -0.01012906 0.07907857
v -0.12198095 -0.01172414 0.07990138
v -0.09953963 -0.04796226 0.08439854
v -0.08687306 -0.06541600 0.08791179
v -0.08567124 -0.03113236 0.08450020
v -0.10249488 -0.05354811 0.09298456
v -0.08855351 -0.05702472 0.08830666
v -0.10181264 -0.00398956 0.07906845
v -0.09199890 -0.01275363 0.08012243
v -0.09272999 -0.02157872 0.08264195
v -0.10129460 -0.04875820 0.10743109
v -0.10446848 -0.04617352 0.10908618
v -0.10579041 -0.03777439 0.12089242
v -0.11009316 -0.03489353 0.12492583
v -0.08138072 -0.04865527 0.12331605
v -0.09052174 0.00906105 0.08202090
v -0.14335287 -0.05680366 0.14842857
v -0.14195901 -0.05650472 0.15589062
v -0.14436977 -0.04730681 0.14288337
v -0.13951508 -0.03501323 0.13782298
v -0.14025038 -0.02998675 0.12625714
v -0.14176116 -0.03155431 0.13535334
v -0.12846121 -0.05403347 0.15590141
v -0.12484028 -0.05636369 0.15921960
v -0.11646429 -0.03640554 0.15430137
v -0.13407301 -0.05008436 0.17395537
v -0.13490442 -0.05316923 0.17358163
v -0.13392452 -0.02987922 0.17794755
v -0.11828506 -0.05811435 0.17153899
v -0.11448367 -0.05780976 0.17939240
v -0.11973190 -0.05484138 0.18549276
v -0.11244759 -0.06586047 0.18838646
v -0.11381581 -0.04079173 0.19295414
v -0.14324406 -0.02131970 0.13153309
v -0.13640415 -0.01617484 0.14689538
v -0.14709722 -0.00594888 0.13873474
v -0.14484573 -0.00870333 0.12703701
v -0.14254324 -0.01994782 0.13539193
v -0.14273983 -0.00072938 0.12877682
v -0.15233289 0.01075000 0.12031932
v -0.12787437 -0.01653803 0.15954563
v -0.13715443 -0.02123837 0.12808127
v -0.13239786 -0.01782742 0.12980231
v -0.10861439 -0.01593290 0.13655485
v -0.13844210 -0.01389484 0.12813897
v -0.11706117 0.00593386 0.13298868
v -0.11040556 0.00917798 0.13518689
v -0.13061435 -0.02876218 0.17921832
v -0.11514342 -0.01750853 0.16325132
v -0.11014108 -0.02058015 0.17308604
v -0.11567657 -0.03872226 0.15541790
v -0.08855116 -0.04478293 0.13514667
v -0.08721600 -0.03854346 0.14387543
v -0.08724419 -0.03726586 0.14352145
v -0.11232250 -0.05418357 0.17277482
v -0.09561914 -0.06178974 0.18462078
v -0.11030510 -0.04054352 0.16691006
v -0.11083054 -0.04332602 0.18238669
v -0.10416751 -0.04416344 0.17671846
v -0.11003234 -0.03554990 0.16770061
v -0.12079901 -0.03576192 0.18710046
v -0.10219586 -0.03104021 0.18287112
v -0.08579033 -0.04933595 0.18341559
v -0.09997396 -0.03694329 0.18542685
v -0.08006226 -0.03371098 0.19312465
v -0.09737864 -0.01527416 0.14180258
v -0.09136284 -0.01487884 0.14436976
v -0.11352722 -0.02361987 0.17425072
v -0.09992405 -0.03176109 0.18646100
v -0.02117974 -0.07104510 0.06873671
v -0.02016868 -0.07205227 0.07011816
v -0.02356891 -0.07304672 0.08436448
v -0.03308244 -0.06158455 0.11008713
v -0.02400280 -0.06427798 0.09787077
v -0.07598196 -0.04987127 0.08839334
v -0.07979441 -0.03852031 0.08344776
v -0.07739863 -0.06393961 0.09392999
v -0.07450796 -0.06098446 0.11017768
v -0.09005172 -0.05923622 0.09431507
v -0.07607017 -0.05989873 0.11129528
v -0.07968836 -0.04857492 0.12321002
v -0.03413436 -0.06020010 0.11273355
v -0.04800123 -0.04959122 0.12525627
v -0.03113487 -0.04867927 0.13146755
v -0.01878721 -0.06002939 0.11069673
v -0.03177497 -0.05703200 0.12693905
v -0.02162425 -0.05275958 0.11866486
v -0.08268771 -0.04696682 0.13571862
v -0.04474662 -0.04869256 0.14166183
v -0.04583579 -0.03237073 0.16260043
v -0.06420638 -0.02736597 0.15456371
v -0.04668704 -0.04739540 0.14273336
v -0.04817410 -0.03847737 0.15710913
v -0.04905985 -0.02766462 0.16660390
v -0.06697815 -0.02227845 0.15346293
v -0.07081466 0.02087256 0.14857879
v -0.07338671 0.03304897 0.14508032
v -0.04823837 -0.01854463 0.16757273
v -0.05330081 0.00463349 0.16297417
v -0.03743039 -0.04807048 0.14477912
v -0.03602151 -0.04153714 0.14806987
v -0.02979165 -0.06596898 0.13364888
v -0.02497046 -0.06432141 0.13122532
v -0.03150722 -0.05965034 0.13981616
v -0.04431577 -0.04997416 0.16256195
v -0.03082824 -0.05941912 0.15401736
v -0.03063966 -0.05572421 0.15326072
v -0.04306135 -0.04572882 0.16287548
v -0.02495703 -0.05748829 0.14328995
v -0.03798786 -0.04830840 0.16942564
v -0.02350827 -0.04925427 0.15209639
v -0.03762127 -0.04138834 0.16868363
v -0.02741071 -0.04116405 0.16374008
v -0.02610733 -0.04262326 0.16456574
v -0.04712587 0.00492946 0.17549128
v -0.04469418 -0.00270118 0.17636712
v -0.03986258 -0.00464278 0.17830164
v -0.02597831 -0.01131037 0.16903642
v -0.02798515 0.01399113 0.17089479
v -0.03619012 -0.00556307 0.17554423
v -0.02396922 -0.00021115 0.17006771
v -0.02952882 -0.00324038 0.17328710
v -0.09473745 -0.04309296 0.20720862
v -0.09071838 -0.06115883 0.20698302
v -0.08232289 -0.06708674 0.20238592
v -0.07751343 -0.07112693 0.22066586
v -0.06393482 -0.07718941 0.21942909
v -0.05432615 -0.08001435 0.23236800
v -0.05231241 -0.05149250 0.22886807
v -0.03798256 -0.08252649 0.23276138
v -0.03287037 -0.05960462 0.24203264
v -0.03027774 -0.05991531 0.23548243
v -0.02588661 -0.07146919 0.24062500
v -0.07546236 -0.05128726 0.19647376
v -0.07288743 -0.04296076 0.21751064
v -0.07482015 -0.03900040 0.19785072
v -0.06084572 -0.04439703 0.20335485
v -0.04231308 -0.04173153 0.22095636
v -0.05309750 -0.04986649 0.22153991
v -0.03146279 0.00412560 0.21001650
v -0.02837912 -0.02950664 0.23197841
v -0.02075302 -0.03167159 0.20990780
v -0.02500134 -0.03692478 0.22546426
v -0.03176471 0.00592222 0.21095168
v -0.02861103 0.01462943 0.20199548
v -0.02936032 -0.02521898 0.23181801
v -0.02576725 -0.02480294 0.25209157
v -0.03789349 0.02158965 0.23722270
v -0.03792086 0.02305749 0.22825058
v -0.03146795 -0.00784912 0.27054599
v -0.03163925 -0.00752684 0.27028627
v -0.03795301 0.01306806 0.25030959
v -0.03747055 0.02248836 0.25714069
v -0.01603310 -0.03183181 0.25541438
v -0.02532598 -0.02431102 0.27456006
v -0.02467840 -0.01848337 0.27417429
v -0.04478200 0.02682570 -0.45678143
v -0.03489707 0.02876398 -0.45599381
v -0.02445287 0.02541276 -0.40504187
v -0.03703674 0.02427927 -0.40968350
v -0.06095626 0.01602815 -0.39223939
v -0.06187407 0.01265238 -0.37207973
v -0.04873894 0.02290142 -0.40421710
v -0.03787116 0.04849957 -0.39071725
v -0.03576690 0.03979653 -0.40222543
v -0.05907673 0.01333093 -0.34553241
v -0.05396461 0.02798551 -0.33915213
v -0.04095139 0.03990664 -0.36164614
v -0.02342336 0.03301729 -0.35218328
v -0.01524341 0.02401834 -0.30980475
v -0.05936489 0.01215482 -0.31016384
v -0.05897190 0.01292888 -0.29266842
v -0.06371054 0.01940352 -0.27562724
v -0.05247826 0.02472428 -0.31235412
v -0.03472126 0.02902960 -0.31547377
v -0.04957888 0.02837327 -0.29435554
v -0.03330506 0.03396220 -0.29225929
v -0.04947572 0.03537690 -0.25855321
v -0.03790241 0.04233832 -0.27992778
v -0.01995246 0.03890083 -0.27812689
v -0.05874791 0.02834888 -0.23185211
v -0.06886255 0.04398341 -0.18764961
v -0.04936979 0.03847323 -0.22343410
v -0.03353166 0.04025176 -0.25485493
v -0.03838557 0.04285851 -0.23965505
v -0.01499527 0.03326675 -0.25215912
v -0.03300948 0.05987150 -0.18453346
v -0.01834074 0.03909788 -0.21909227
v -0.07502999 0.04080292 -0.16312063
v -0.08156713 0.02912523 -0.12655943
v -0.05275185 0.05698397 -0.18471195
v -0.06167432 0.06054917 -0.15810491
v -0.06081258 0.05562246 -0.13002391
v -0.01942143 0.05366517 -0.18711611
v -0.03441105 0.06805173 -0.14016582
v -0.01962206 0.05543336 -0.14159341
v -0.08635468 0.03074229 -0.06298458
v -0.08091909 0.02624946 -0.08051630
v -0.07960845 0.03730457 -0.07497694
v -0.06122996 0.05112575 -0.06391693
v -0.04823338 0.06095763 -0.08061780
v -0.00391290 0.06386036 -0.08060803
v -0.04359980 0.07015380 -0.12336473
v -0.04967967 0.07001412 -0.07012323
v -0.04812882 0.07059408 -0.07417391
v -0.01711103 0.06900215 -0.12433854
v -0.02170524 0.06901794 -0.06189810
v 0.00292430 0.06992302 -0.07564603
v -0.18056856 0.01348377 0.10139931
v -0.14745284 0.01044170 0.09492295
v -0.14648505 0.00822151 0.09054369
v -0.17875759 0.01281951 0.10464087
v -0.15316607 0.01262473 0.10669896
v -0.15215661 0.01199689 0.11956622
v -0.08820253 0.02090676 -0.05190309
v -0.09353956 0.01931998 -0.03307200
v -0.09150631 0.02309476 -0.02458430
v -0.08689858 0.02576287 -0.07517690
v -0.07675376 0.02832174 -0.03459913
v -0.07799211 0.02638662 -0.03420665
v -0.09024721 0.02410840 -0.02092620
v -0.07246969 0.04263133 -0.01714475
v -0.06980082 0.04495850 -0.01591071
v -0.06225477 0.04986184 -0.06111660
v -0.05737174 0.04265288 -0.03499082
v -0.05725130 0.04262206 -0.03328782
v -0.05839878 0.04509949 -0.02014402
v -0.06716892 0.05427743 -0.00640769
v -0.05488764 0.04548502 -0.01917656
v -0.05397440 0.07176609 -0.01130018
v -0.04946170 0.06521322 -0.05275401
v -0.04845940 0.06377417 -0.04613232
v -0.01044913 0.06084009 -0.03848639
v -0.00089736 0.06044368 -0.03802427
v -0.04592683 0.05957321 -0.03301343
v -0.04503955 0.06389459 -0.01989711
v -0.04326657 0.06377692 -0.01848512
v -0.05253807 0.06943812 -0.01193749
v -0.02154558 0.06425854 -0.00897926
v -0.02778752 0.06335849 -0.00861954
v -0.09002394 0.01578474 0.02484250
v -0.08874852 0.01828985 0.02156924
v -0.08840017 0.01724812 0.08821717
v -0.08915183 0.01518947 0.09710456
v -0.08397580 0.02309065 0.08410351
v -0.06862334 0.04444176 0.08309525
v -0.06698143 0.04853685 0.02633590
v -0.05310191 0.06689974 0.01675659
v -0.05165324 0.06689866 0.02299775
v -0.05180076 0.06475274 0.06416344
v -0.03851269 0.07110071 -0.00062812
v -0.01587567 0.06495165 0.05168177
v -0.01986737 0.07180358 -0.00420707
v -0.01262886 0.06686291 0.02234225
v -0.01122755 0.06688436 0.02248015
v -0.05223908 0.06484219 0.06756537
v -0.01894391 0.06508381 0.05142663
v -0.11969412 0.02191098 0.11072466
v -0.12016263 0.01634186 0.09970480
v -0.11763907 0.02102895 0.11429530
v -0.11674388 0.01663067 0.12618235
v -0.11929520 0.01920402 0.12464869
v -0.09873304 0.01947949 0.09260094
v -0.11700681 0.01523703 0.09661770
v -0.09751821 0.02628924 0.09462517
v -0.09838685 0.03564509 0.10981153
v -0.09734382 0.04022953 0.11907769
v -0.09494467 0.03374860 0.13432814
v -0.08526868 0.03379926 0.10719571
v -0.08359647 0.04304200 0.12227930
v -0.09464964 0.03532414 0.13469464
v -0.08355662 0.04141502 0.12245794
v -0.06771696 0.04578011 0.08433827
v -0.07475072 0.04546681 0.10294400
v -0.04350273 0.05695938 0.08445540
v -0.04485734 0.05750471 0.08428610
v -0.07610510 0.05155269 0.12172331
v -0.07416675 0.05234384 0.12239420
v -0.05584315 0.05226221 0.10677133
v -0.05678048 0.05216395 0.10558075
v -0.05843124 0.05604667 0.12497561
v -0.05749260 0.05399081 0.12137192
v -0.02848305 0.05707217 0.06833718
v -0.02885488 0.05731174 0.06850060
v 0.00263161 0.05726456 0.08402860
v -0.01610022 0.05730915 0.08488903
v -0.04455018 0.06655235 0.10498293
v -0.04335703 0.06716973 0.10462496
v -0.05540164 0.07215432 0.12391261
v -0.00608271 0.06590447 0.10136770
v -0.06980292 0.04590081 0.14025144
v -0.05607746 0.03389966 0.15475776
v -0.06856716 0.04666013 0.13992332
v -0.05362746 0.04668716 0.14798712
v -0.05206443 0.05444789 0.14893916
v -0.05374624 0.02492708 0.15953388
v -0.05126532 0.02520095 0.16793305
v -0.04828732 0.02533807 0.16958632
v -0.03248688 0.03761972 0.17165654
v -0.02340380 -0.00505370 0.17891895
v -0.03406326 0.03721532 0.17081007
v -0.04631160 0.04673943 0.15954552
v -0.04682362 0.05544872 0.15349537
v -0.05611357 0.07435956 0.12270484
v -0.02964298 0.06513325 0.15434687
v -0.02932677 0.06520045 0.15530388
v -0.02156419 0.05346907 0.17351794
v -0.02472224 0.05248513 0.17479655
v -0.04621600 0.07924533 0.12680559
v -0.03353142 0.07708888 0.10977854
v -0.03125444 0.07974779 0.10957140
v -0.04624020 0.07794378 0.12737444
v -0.01661924 0.08000155 0.11869235
v -0.01058888 0.08029744 0.11887496
v -0.02822975 0.01377330 0.20222342
v -0.03363376 0.05219271 0.22417623
v -0.01772730 0.04060862 0.20138074
v -0.03646835 0.04613965 0.25672546
v -0.01647332 0.04194440 0.20078536
v -0.03328035 0.05430245 0.22435472
v -0.01999301 0.05272123 0.21640180
v -0.01602329 0.05179656 0.21498778
v -0.03543794 0.05423012 0.25376319
v -0.02913596 0.07184060 0.24793946
v -0.02727722 0.07378342 0.24978982
v -0.02249936 0.03336284 0.29179520
v -0.02240605 0.03917158 0.29117405
v -0.02084690 0.07408845 0.26683949
v 0.03252359 -0.00854326 -0.45676739
v 0.02938292 -0.00734268 -0.43266979
v 0.02622252 0.00736661 -0.45675002
v 0.05317495 -0.01674640 -0.45650758
v 0.03002023 -0.00452007 -0.41045112
v 0.04675555 -0.01401863 -0.41268370
v -0.01062326 0.01510636 -0.39249108
v -0.01028812 0.00602699 -0.36101077
v -0.01295923 0.01184144 -0.34396504
v 0.02050100 -0.00938215 -0.39287542
v 0.02058439 -0.01019115 -0.36698763
v 0.04414671 -0.02952108 -0.40339700
v 0.04370432 -0.03668033 -0.39287536
v 0.04242797 -0.02920618 -0.35174347
v 0.02392076 0.01336216 -0.40381061
v 0.01602465 0.01374808 -0.36463099
v 0.01906946 0.01189485 -0.34375980
v 0.02681475 -0.02687853 -0.32827592
v 0.05842186 0.00907366 -0.45680548
v 0.07028215 -0.02133927 -0.44253697
v 0.06476192 -0.01767298 -0.45204983
v 0.06735170 0.00621702 -0.45190984
v 0.05703649 -0.01437530 -0.42575757
v 0.05335438 -0.02031886 -0.40679341
v 0.06196763 -0.00585609 -0.43053303
v 0.07710700 -0.01248840 -0.43978227
v 0.06260526 -0.00390067 -0.40472699
v 0.05470038 0.00618726 -0.40952194
v 0.05611469 0.00608586 -0.43360818
v 0.10023302 -0.03072129 -0.45672340
v 0.11050455 -0.03063571 -0.44902175
v 0.10093664 -0.00076601 -0.45652066
v 0.08869116 0.00090815 -0.44672380
v 0.11446196 -0.01941918 -0.44887027
v 0.05498441 -0.03471733 -0.39182217
v 0.07054207 -0.00736881 -0.39290244
v 0.07095734 -0.00774470 -0.37603067
v 0.05501595 -0.02696156 -0.33454416
v 0.06555227 -0.00669686 -0.35742016
v 0.07149541 0.00151385 -0.32585828
v -0.01470978 0.00469392 -0.30971172
v -0.01089053 -0.00426322 -0.32504692
v -0.01396151 -0.00237910 -0.27726395
v -0.01723448 -0.00058163 -0.29177134
v 0.03490726 -0.03145013 -0.31467946
v 0.03025257 -0.03361241 -0.30062079
v 0.04115461 -0.04321222 -0.29702326
v 0.03488838 -0.02496665 -0.28457749
v 0.01708749 -0.00567570 -0.32465588
v 0.02521135 -0.01010958 -0.31207804
v 0.04427369 -0.03218502 -0.31801470
v 0.02560550 -0.00636802 -0.29428482
v 0.02933310 -0.02113174 -0.28340126
v 0.01687601 -0.00710569 -0.26003470
v -0.01027217 -0.00537246 -0.25827181
v -0.01410237 -0.02213058 -0.24203171
v -0.01066276 0.00405273 -0.24313440
v -0.01007066 -0.02600380 -0.21610450
v -0.00603707 -0.02547679 -0.18336975
v -0.00760449 0.02605939 -0.22864905
v 0.02328391 -0.03619509 -0.25421948
v 0.05196177 -0.03362896 -0.25844340
v 0.02688598 -0.03738832 -0.24687447
v 0.03130514 -0.03306831 -0.22214542
v 0.01643265 0.00689852 -0.24320667
v 0.01706635 -0.02648285 -0.22320461
v 0.01197972 -0.02593300 -0.18213930
v 0.01293856 0.02614004 -0.22116387
v 0.03487678 -0.03402320 -0.18819897
v 0.05937866 -0.03499338 -0.30874981
v 0.05476942 -0.03054524 -0.31537689
v 0.06152602 -0.03511327 -0.29452839
v 0.05419894 -0.03143165 -0.28717724
v 0.06303249 -0.01213735 -0.30539057
v 0.06746050 -0.00142095 -0.31075816
v 0.05917140 -0.02296198 -0.28101379
v 0.06700322 -0.02309031 -0.26962503
v 0.06746427 0.00481530 -0.29275189
v 0.07030675 0.00175464 -0.28039021
v 0.06726744 -0.01566261 -0.22538144
v 0.06980503 0.01069588 -0.24477365
v 0.05694021 -0.02756577 -0.22187554
v 0.05294069 -0.03705960 -0.18718999
v 0.07165142 -0.02897445 -0.18621233
v 0.07680895 0.01344902 -0.22320479
v 0.08497465 -0.00851343 -0.15357464
v -0.01192254 -0.03682344 -0.14260280
v -0.01015924 -0.02833185 -0.15957157
v 0.00290560 -0.04747767 -0.14290671
v -0.00202985 -0.01044691 -0.18458019
v 0.00772430 -0.01414730 -0.18323968
v -0.00161174 0.02751218 -0.19369853
v 0.01779445 -0.03686972 -0.14341421
v 0.01705705 -0.02823653 -0.15884616
v 0.03390735 -0.03907615 -0.13087611
v 0.03383413 -0.03041796 -0.15900729
v 0.05095519 -0.03468942 -0.14777179
v 0.00563672 0.01440457 -0.18804323
v 0.00290849 -0.04642638 -0.11874350
v 0.01091564 -0.04379927 -0.12115566
v 0.00522570 -0.03801556 -0.09915694
v -0.00529408 -0.03885530 -0.08384282
v -0.01804360 -0.03925672 -0.08188365
v -0.00033846 -0.04991553 -0.07945558
v 0.00304906 -0.05501035 -0.07855944
v 0.03729505 -0.03954015 -0.08697780
v 0.02055197 -0.03848694 -0.08992098
v 0.00534938 -0.05212426 -0.07737275
v 0.01045932 -0.04436975 -0.08063267
v 0.04188301 -0.04551561 -0.07854831
v 0.05157241 -0.03549385 -0.08061814
v 0.06046703 -0.03394293 -0.15786353
v 0.06710943 -0.03153191 -0.14173691
v 0.07862923 -0.02055690 -0.13064749
v 0.08967556 0.01825379 -0.13338673
v 0.05859107 -0.03236754 -0.11753497
v 0.06648328 -0.03266541 -0.08000848
v 0.07538691 -0.01599969 -0.07988282
v 0.07691663 0.03845434 -0.08049924
v 0.07519926 -0.02651612 -0.09944931
v 0.08197232 -0.01309913 -0.07505689
v 0.09056633 0.01004376 -0.07055970
v 0.11977012 -0.01097724 -0.16544577
v 0.12972057 -0.01985621 -0.16282127
v 0.11540911 0.00118134 -0.15551900
v 0.12197323 0.00490192 -0.15680569
v 0.13276985 -0.01947447 -0.13641309
v 0.13149147 -0.01039863 -0.16364740
v 0.13945574 -0.01262554 -0.11636274
v 0.12304267 -0.02687302 -0.10759671
v 0.11788913 0.00623895 -0.13053318
v 0.11704979 -0.00023684 -0.10202587
v 0.13399242 -0.03148607 -0.13904207
v 0.12817983 -0.03007130 -0.12723225
v 0.12583926 0.01158676 -0.12685400
v 0.12958359 0.00416922 -0.09702436
v 0.11262313 -0.02611820 -0.09793179
v 0.11339453 -0.02673680 -0.08136779
v 0.11137106 -0.00897573 -0.09858276
v 0.11011470 -0.00679169 -0.08037019
v 0.12010890 -0.01839024 -0.09932846
v 0.11982247 -0.02169651 -0.08060706
v 0.11138946 -0.01075576 -0.07803410
v 0.13474867 -0.01770932 -0.08941944
v 0.13283979 0.00880356 -0.08252030
v 0.12962172 -0.01633310 -0.07616693
v -0.00340854 -0.06409257 -0.00503522
v 0.00370919 -0.06940468 0.02598873
v 0.00237154 -0.07043495 0.06028847
v 0.00028067 -0.07040330 0.06675559
v 0.04036471 -0.07259840 0.02519415
v 0.02021253 -0.06559234 -0.00566964
v 0.04138532 -0.06637443 -0.00679890
v 0.04116041 -0.07271362 0.02576511
v 0.04118847 -0.06616591 -0.00568378
v 0.02855478 -0.07293006 0.06729846
v 0.00302320 -0.06080428 -0.04907845
v 0.00274077 -0.05471917 -0.07395338
v 0.00292640 -0.05796891 -0.05119287
v 0.00313748 -0.05306720 -0.06687377
v 0.00290533 -0.06278607 -0.00844110
v 0.00312150 -0.05760933 -0.00853847
v 0.00311786 0.05735661 -0.00876995
v 0.00322153 0.06344196 -0.07238360
v 0.02858771 -0.05800374 -0.07345457
v 0.02815524 -0.05685687 -0.07267849
v 0.01401317 -0.06308530 -0.04898451
v 0.02111099 -0.06401986 -0.04843996
v 0.04628582 -0.06073857 -0.07326249
v 0.04465557 -0.06049384 -0.07234898
v 0.04376155 -0.06472575 -0.03922679
v 0.04424337 -0.06385063 -0.04651952
v 0.01127058 -0.06448446 -0.00420456
v 0.06836396 -0.05673591 -0.00480686
v 0.06886051 -0.06204095 0.02260445
v 0.06754245 -0.06261391 0.02531856
v 0.05577261 -0.06800747 0.08254915
v 0.05926684 -0.06657160 0.08414101
v 0.06246032 -0.05646574 -0.06623295
v 0.07646890 -0.05187858 -0.06036553
v 0.07703299 -0.05206609 -0.06333544
v 0.07365242 -0.05505823 -0.04143131
v 0.07413703 -0.05547500 -0.04152402
v 0.07451972 -0.04507617 -0.06788685
v 0.06850667 -0.05642934 -0.00571597
v 0.08940762 -0.00841274 -0.06288452
v 0.09629699 -0.02873052 -0.05189027
v 0.09623727 -0.02754701 -0.05048451
v 0.08497216 -0.03198583 -0.01458664
v 0.08564790 -0.03084006 -0.01553130
v 0.09393999 -0.01312575 -0.05812369
v 0.09204604 0.01550483 -0.07520948
v 0.09969359 -0.01744007 -0.04960355
v 0.09522390 0.01995175 -0.05055214
v 0.09229526 0.01759970 -0.05241629
v 0.10360706 0.00844638 -0.04441179
v 0.10528772 -0.00837709 -0.05516583
v 0.10562585 -0.01670097 -0.04640709
v 0.10552695 -0.00696444 -0.04951614
v 0.09293098 -0.01020170 -0.02011334
v 0.09500807 0.00162533 -0.01553881
v 0.10904316 -0.02901185 -0.01783260
v 0.10148628 -0.01170696 -0.01239801
v 0.10615761 -0.03820948 -0.00646980
v 0.10313388 -0.00187595 -0.01837814
v 0.09552270 -0.00000411 -0.01877968
v 0.10545786 -0.00987496 -0.03141169
v 0.10464889 -0.00119018 -0.03333676
v 0.10113329 -0.00049376 -0.00392960
v 0.10087710 -0.00435630 -0.00670831
v 0.09780089 0.00225361 -0.02102108
v 0.10518771 -0.00483992 -0.02099940
v 0.07525485 -0.06327226 0.07674506
v 0.07624273 -0.06282511 0.07880083
v 0.08211604 -0.05419044 0.05086654
v 0.08493201 -0.04167973 0.03445487
v 0.08532985 -0.03848480 0.02637526
v 0.10099002 -0.03152045 0.03179605
v 0.11855474 -0.03424502 0.03445187
v 0.09037659 -0.04507517 0.04526717
v 0.08737659 -0.05106272 0.06943434
v 0.09328144 -0.02965980 0.04015901
v 0.09379900 -0.04316768 0.05090235
v 0.08668471 -0.03892503 0.05261228
v 0.11234504 -0.03568525 0.04654086
v 0.09700146 -0.03135701 0.04309213
v 0.10739890 -0.03574214 0.04427828
v 0.09338609 -0.01158124 0.01123436
v 0.10797011 -0.03701170 -0.00698871
v 0.10152411 -0.03010555 0.02334394
v 0.10974015 -0.02674890 -0.01778076
v 0.09914035 -0.01601464 0.01363820
v 0.09473700 -0.01424528 0.03655258
v 0.09836164 -0.00747552 0.03186864
v 0.09735064 0.00096491 0.00822887
v 0.09456702 -0.01017888 0.05076497
v 0.10389322 -0.02645591 0.03343699
v -0.01737073 -0.04763776 0.10677219
v 0.01130379 -0.06796147 0.06952485
v 0.02591381 -0.07210069 0.06957175
v 0.02235828 -0.05559785 0.08289875
v 0.04166624 -0.07432618 0.08319834
v 0.03668159 -0.07489571 0.08336639
v 0.02992161 -0.07341230 0.08373604
v 0.02865957 -0.05816341 0.11078598
v 0.02691360 -0.06016578 0.10973186
v 0.04162086 -0.06231854 0.10786089
v -0.01743412 -0.05223201 0.08602623
v -0.01044462 -0.05224624 0.08398197
v 0.00154549 -0.04911612 0.08705514
v -0.01334709 -0.04305759 0.11156641
v -0.01170370 -0.05883168 0.12635714
v -0.01869639 -0.05808257 0.12234306
v -0.01081569 -0.05558065 0.11264878
v 0.02332446 -0.04890663 0.10857424
v 0.01884678 -0.05525276 0.11301765
v 0.01876892 -0.05848873 0.12469168
v 0.01627290 -0.05838059 0.12579021
v 0.01254405 -0.04435468 0.10029620
v 0.01988989 -0.04346467 0.11158376
v 0.02342606 -0.05147421 0.08655483
v 0.03476177 -0.06690253 0.13065908
v 0.04198606 -0.06126727 0.10998727
v 0.03438910 -0.06186987 0.12970860
v 0.04035724 -0.05593673 0.12184729
v 0.03567342 -0.04993666 0.12771268
v -0.01098547 -0.04984123 0.13973391
v -0.01178610 -0.05640627 0.12891772
v -0.01342011 -0.04850643 0.14220936
v 0.00031904 -0.04141386 0.16212541
v 0.01830421 -0.04896132 0.14171904
v 0.01872844 -0.04878501 0.14118128
v 0.00353891 -0.04303987 0.15864786
v -0.01327667 -0.04178427 0.16621369
v -0.01386166 -0.04258856 0.16730825
v 0.00228386 -0.02847082 0.17088161
v 0.01839546 -0.04270955 0.16453698
v -0.01186761 -0.02171227 0.17306615
v -0.01456196 -0.02365702 0.17679006
v -0.01445304 -0.02644563 0.19295331
v -0.01838688 -0.02802276 0.20474062
v -0.02385738 -0.00642875 0.18261873
v 0.01447102 -0.02833419 0.20032376
v 0.01808462 -0.02191377 0.17310961
v 0.01798546 -0.02395814 0.17836956
v 0.03426913 -0.06436323 0.14471129
v 0.03404246 -0.04334603 0.16435493
v 0.01920099 -0.04267683 0.16688722
v 0.02999178 -0.05782056 0.14258978
v 0.04120503 -0.05206452 0.13632350
v 0.03774799 -0.05521402 0.13835531
v 0.03454063 -0.04217703 0.16350104
v 0.03961315 -0.05704859 0.14725683
v 0.04890807 -0.03497764 0.15933590
v 0.04563497 -0.05190635 0.16296942
v 0.04396509 -0.04921074 0.16938402
v 0.02910718 -0.00798910 0.17801899
v 0.02656249 -0.02304355 0.20288909
v 0.03318411 -0.00785260 0.17095327
v 0.02991065 -0.00183474 0.16957047
v 0.04667687 -0.03105312 0.17183426
v 0.04100530 0.00602187 0.17460938
v 0.02637471 0.00985875 0.18173942
v 0.02991466 -0.00251183 0.18409392
v 0.08474879 -0.06480757 0.09982415
v 0.08986376 -0.06351552 0.10461156
v 0.05105520 -0.04970034 0.12633870
v 0.06970918 -0.06452706 0.12751972
v 0.06859160 -0.06481902 0.12235817
v 0.09298809 -0.05380246 0.08144377
v 0.08311032 -0.04595432 0.07153841
v 0.09003973 -0.04765911 0.06425682
v 0.11032058 -0.04907244 0.09463943
v 0.11265159 -0.04424654 0.07956158
v 0.09895963 -0.05763612 0.13398542
v 0.11303195 -0.05347712 0.11151226
v 0.11298109 -0.05549500 0.11172218
v 0.09575971 0.00889752 0.07012641
v 0.06236117 -0.05083781 0.13731703
v 0.04378469 -0.04701359 0.14772963
v 0.05183607 -0.04952662 0.16370506
v 0.06129370 -0.04839844 0.14055917
v 0.05385050 -0.03827065 0.15975530
v 0.07028254 -0.03963631 0.14981840
v 0.07477669 -0.05774163 0.13746253
v 0.07301591 -0.04266630 0.14761737
v 0.05356578 -0.00588064 0.17443379
v 0.07410812 -0.02479895 0.15259256
v 0.05656240 -0.02476815 0.16344324
v 0.07937467 0.01197982 0.14797351
v 0.05895976 0.01873398 0.16218351
v 0.05180413 0.00215306 0.17565337
v 0.04658397 -0.00151982 0.17824564
v 0.05771759 -0.01312553 0.16487881
v 0.08530099 -0.06127734 0.13574938
v 0.10894709 -0.05253878 0.13470062
v 0.09713517 -0.03756381 0.14144520
v 0.11508394 -0.04342143 0.13353944
v 0.09405319 -0.02802138 0.14288585
v 0.07931936 0.01072322 0.14827174
v 0.11784785 -0.02299350 0.13448152
v 0.11880171 -0.02686867 0.13452802
v 0.10957640 -0.02970638 -0.05916989
v 0.11858495 -0.02739777 -0.06745483
v 0.11026748 -0.02741653 -0.06066826
v 0.13379206 -0.02146361 -0.05284818
v 0.13314920 -0.01954846 -0.06426249
v 0.11489230 -0.00214271 -0.06177235
v 0.11861055 0.00509809 -0.05896308
v 0.12093712 -0.00810389 -0.07230007
v 0.12073376 0.00652912 -0.07195167
v 0.13361980 -0.00845026 -0.07212511
v 0.13045374 0.00465977 -0.07425167
v 0.13495029 -0.00557674 -0.05229392
v 0.13326341 0.00233248 -0.05025913
v 0.13690796 -0.01687677 -0.03957360
v 0.14064126 -0.01924687 -0.00921401
v 0.13002492 -0.02674754 -0.01385250
v 0.13435871 -0.02459803 -0.01190787
v 0.11049518 0.00680875 -0.01932043
v 0.14084318 -0.01720797 -0.00628117
v 0.14032321 -0.00261689 -0.02329741
v 0.13740215 0.01045233 -0.02789064
v 0.13864596 0.00179304 -0.00000325
v 0.11840046 -0.03632762 -0.00579161
v 0.11965653 -0.03575732 0.02096830
v 0.12208050 -0.03438595 0.04347659
v 0.13422133 -0.03738625 0.05922193
v 0.13138947 -0.02653987 0.04168365
v 0.12977920 -0.03783376 0.06497103
v 0.12568073 -0.03161966 -0.00210047
v 0.13660667 -0.02891131 0.00000997
v 0.14027361 -0.02338537 0.02456094
v 0.13165969 -0.02321882 0.04365539
v 0.14252775 -0.01875397 0.04796140
v 0.14351398 -0.01988159 0.04520057
v 0.13977827 -0.02553807 0.05552470
v 0.13750875 0.00654770 0.00770775
v 0.14500405 -0.00721694 0.04548468
v 0.14385770 0.00117265 0.05053091
v 0.11293366 -0.04495050 0.07917606
v 0.12848626 -0.03268163 0.08571923
v 0.12678101 -0.03411439 0.08712240
v 0.13636274 -0.01667407 0.09770709
v 0.12589346 -0.04045457 0.11329599
v 0.12850543 -0.03533995 0.11441923
v 0.13263594 -0.02292686 0.11214532
v 0.13834424 -0.01471438 0.08947158
v 0.13789802 0.00962041 0.08246902
v 0.12992770 0.00360875 0.11055589
v 0.13730441 0.01294077 0.08393294
v 0.12830544 0.01365757 0.10860554
v 0.11705533 0.01144578 0.12777589
v 0.11643325 0.01457998 0.12755049
v -0.01760116 -0.04313285 0.22917836
v 0.00286626 -0.04721224 0.20291581
v 0.00410113 -0.03307843 0.19879132
v 0.00298833 -0.04667203 0.20421830
v 0.00117793 -0.04848813 0.23077160
v 0.00898660 -0.04922583 0.22141387
v 0.01676132 -0.04575382 0.22689845
v 0.00277331 -0.05063555 0.24082090
v -0.00943151 -0.04152552 0.24463531
v 0.00280480 -0.03650028 0.25890929
v 0.00614243 -0.04518063 0.24501251
v 0.00271608 -0.03664029 0.25598639
v -0.01219566 -0.02898546 0.26873969
v 0.03191547 -0.03721942 0.22625017
v 0.02672788 -0.02742901 0.20481308
v 0.03301502 -0.03380355 0.22561002
v 0.01204612 -0.04260633 0.24560284
v 0.02725301 -0.03112581 0.25022160
v 0.02980674 -0.02851954 0.25242763
v 0.03758342 0.00323325 0.21074585
v 0.03879405 0.01187096 0.20981876
v 0.03377530 0.00772351 0.20131185
v 0.04481699 0.02001842 0.24407534
v 0.03876210 -0.00582865 0.26874449
v 0.04280228 0.00789325 0.25006181
v 0.03874053 -0.00834446 0.26816094
v -0.02398671 -0.04814544 0.28030155
v -0.00149862 -0.05433650 0.28573986
v -0.01608102 -0.03357602 0.27881351
v -0.00698659 -0.02300826 0.28421340
v 0.02743287 -0.02682289 0.27444531
v 0.01754364 -0.02851689 0.27937702
v 0.02791404 -0.04922072 0.28242587
v -0.01434121 -0.02961192 0.27356842
v -0.00876399 -0.01949712 0.28407280
v -0.01383568 0.00959248 0.29751773
v 0.01080675 -0.03085416 0.26941160
v 0.01033429 -0.02980587 0.27531666
v 0.00976222 -0.02125851 0.28444168
v -0.01188823 0.00744780 0.29857710
v 0.01201943 0.00595781 0.30009195
v 0.01175892 0.00645509 0.29980808
v 0.02642124 -0.01761773 0.28042364
v 0.03256524 -0.01947084 0.27348444
v 0.02820449 -0.02426147 0.26871063
v 0.02257854 -0.01483541 0.28365406
v 0.02750469 0.01231641 0.29303092
v 0.02738849 0.01250369 0.29275333
v 0.02870258 0.01032146 -0.43352125
v 0.03996635 0.01623941 -0.45520395
v 0.03110167 0.00727957 -0.41291037
v -0.01160166 0.02438925 -0.38910265
v 0.01707053 0.01967858 -0.39251514
v 0.02398848 0.02913967 -0.37599368
v 0.05904113 0.01385615 -0.40422429
v 0.05282012 0.02708732 -0.40188888
v 0.05098702 0.03542463 -0.39138221
v 0.02561728 0.03044776 -0.33680406
v 0.04605883 0.03911833 -0.35887562
v 0.07055249 0.00908134 -0.38889870
v 0.06131924 0.02494491 -0.39151671
v 0.06412138 0.01558476 -0.35241188
v 0.05846459 0.03032043 -0.34709582
v 0.03937820 0.02872573 -0.31534486
v -0.01143756 0.02201957 -0.32249612
v -0.01713840 0.02738059 -0.29206622
v -0.01306495 0.02658075 -0.27325398
v 0.01885416 0.02187866 -0.31713254
v 0.02289881 0.02571730 -0.30763113
v 0.02160252 0.02594910 -0.29333605
v 0.01882883 0.02370428 -0.27579032
v 0.02573322 0.03784264 -0.27928857
v 0.04264571 0.03368813 -0.29444406
v 0.04270978 0.04274102 -0.27900295
v 0.02379710 0.03773219 -0.22627720
v 0.01424101 0.02577108 -0.23951106
v 0.04035269 0.04028404 -0.25721308
v 0.04556652 0.04266452 -0.23831627
v 0.02731811 0.05416123 -0.18932613
v 0.05637971 0.03835772 -0.22294131
v 0.06434796 0.02460435 -0.32342251
v 0.06036595 0.02352550 -0.31045844
v 0.05792700 0.02578505 -0.29149057
v 0.06994782 0.02043911 -0.27086948
v 0.05377839 0.03667318 -0.26962009
v 0.06381950 0.02838522 -0.23402290
v 0.07589686 0.04384790 -0.18605581
v 0.00653906 0.03086296 -0.19033795
v -0.00613321 0.04106554 -0.18231557
v -0.00707034 0.04816123 -0.16423876
v 0.01335326 0.04657906 -0.17103298
v -0.01527572 0.05399316 -0.14891820
v 0.00930825 0.05262395 -0.15556099
v 0.03934719 0.06021186 -0.18392469
v 0.02600503 0.05669444 -0.14032462
v 0.04058934 0.06727501 -0.14359354
v 0.00862096 0.06653095 -0.08047001
v 0.05913485 0.05511214 -0.08055051
v 0.05548152 0.06874631 -0.07782453
v 0.00599694 0.07034956 -0.11838395
v 0.02469547 0.06903264 -0.12399699
v -0.00595114 0.07021301 -0.08512784
v 0.01364482 0.06961495 -0.08509019
v 0.00403552 0.07259423 -0.07307583
v 0.04849444 0.07068630 -0.12692434
v 0.02755940 0.06882320 -0.06070986
v 0.05639534 0.07002534 -0.06399230
v 0.05945757 0.05722805 -0.18286164
v 0.06804225 0.06042547 -0.15791374
v 0.06662694 0.05614739 -0.13075103
v 0.08516988 0.01770908 -0.18936286
v 0.08339278 0.03947889 -0.15109995
v 0.06910472 0.04907640 -0.07606684
v 0.06724121 0.05107922 -0.06161392
v 0.08782113 0.02859525 -0.12418680
v 0.08709851 0.02991121 -0.08011773
v 0.09281808 0.03019174 -0.06224388
v 0.11773949 0.00616609 -0.08074899
v 0.00337054 0.05876982 -0.05099233
v 0.00123839 0.06577749 -0.04902754
v -0.00298430 0.06923740 -0.05854979
v 0.00283531 0.06035359 -0.05159815
v 0.00823517 0.07040220 -0.06959450
v -0.00241827 0.06460907 -0.00728948
v 0.00821036 0.06034070 -0.03694255
v 0.01214901 0.06490811 -0.04904894
v 0.05270578 0.05928689 -0.03602979
v 0.05515913 0.06821487 -0.05904257
v 0.02958803 0.05982040 -0.03409603
v 0.01229066 0.06474485 -0.00877151
v 0.03299873 0.06374894 -0.00985252
v 0.03530073 0.06327303 -0.00818990
v 0.05280240 0.05968303 -0.03405629
v 0.04336696 0.06156045 -0.02583330
v 0.05214624 0.06679115 -0.01791550
v -0.00491583 0.07131723 0.00046752
v 0.01654607 0.07077436 -0.00113416
v 0.05192885 0.07145655 -0.00248812
v 0.02662056 0.06484135 0.05278416
v 0.05759208 0.06492430 0.06390021
v 0.01023693 0.07153208 -0.00217546
v 0.03813405 0.07094253 -0.00438964
v 0.02121544 0.06694800 0.02208624
v 0.02314871 0.06674254 0.02220283
v 0.05871167 0.07269400 -0.01111103
v 0.05918349 0.06686641 0.02285030
v 0.05757900 0.06650955 0.02315948
v 0.02656720 0.06505354 0.05267366
v 0.05816283 0.06514190 0.06690564
v 0.06754265 0.04847114 -0.05550408
v 0.09007962 0.03361100 -0.06593042
v 0.06512346 0.03997942 -0.03263173
v 0.06335413 0.04333000 -0.02240283
v 0.05750956 0.07125128 -0.00949836
v 0.05236619 0.06142686 -0.01921695
v 0.06159547 0.04279484 -0.02141784
v 0.08640061 0.02511306 -0.03523875
v 0.07561002 0.04735298 -0.01394224
v 0.07425188 0.04834303 -0.01550019
v 0.07115909 0.05722719 -0.00813299
v 0.08120096 0.04444817 -0.01033583
v 0.10497880 0.00603036 -0.04393131
v 0.10581974 0.00640176 -0.03541983
v 0.08122787 0.02960307 -0.03497684
v 0.09877753 0.02162080 -0.03106107
v 0.09090002 0.03196321 -0.01995924
v 0.09428773 0.02120007 0.00542432
v 0.10899047 0.00650906 0.00930671
v 0.07315985 0.04841676 0.02659212
v 0.07428800 0.04542338 0.08534615
v 0.09579607 0.01461657 0.04580483
v 0.09831684 0.00419007 0.04106263
v 0.09396109 0.01704393 0.07863100
v 0.10300920 0.00615896 0.04498665
v 0.11050631 0.01131817 0.04834778
v 0.11681510 0.01132724 0.04272423
v 0.09704430 0.01452490 0.06571559
v 0.00462171 0.05833817 0.06708282
v 0.00274918 0.05805651 0.06795653
v 0.02366703 0.05737517 0.08463550
v 0.00252945 0.06584920 0.10135066
v 0.03381525 0.05692182 0.06828988
v 0.03513799 0.05714432 0.06894084
v 0.04973497 0.05679107 0.08337980
v 0.05073300 0.05733667 0.08325402
v 0.02156476 0.06654884 0.10332266
v 0.04953527 0.06728800 0.10498249
v 0.05045958 0.06668945 0.10554917
v -0.01744874 0.02048743 0.17669716
v -0.01456049 0.03974763 0.17870639
v -0.01386312 0.03781531 0.18654492
v -0.01220544 0.03873576 0.17785802
v -0.01251329 0.03611425 0.18398141
v -0.00933507 0.06618146 0.15938919
v 0.00639580 0.06638939 0.16094600
v 0.01866798 0.03872772 0.17803894
v 0.02235840 0.04090686 0.17804961
v 0.02651202 0.05250567 0.17487238
v 0.01606297 0.06558458 0.16053931
v 0.03117766 0.05303271 0.17421610
v 0.02055807 0.03294407 0.18536617
v 0.02011345 0.03711884 0.18635135
v 0.02862428 0.01420757 0.17273988
v 0.04107325 0.04016250 0.17014745
v 0.04122425 0.04177152 0.16992828
v 0.03501799 0.06460111 0.15512728
v 0.03562662 0.06516999 0.15528418
v 0.05284495 0.06851428 0.14077335
v 0.00245804 0.08096253 0.10733044
v 0.00188025 0.08059022 0.10998159
v 0.00164809 0.07477259 0.13050051
v 0.01572338 0.08011724 0.11930775
v 0.01855790 0.08086911 0.11585097
v 0.03843817 0.07793567 0.11046884
v 0.03762670 0.07957027 0.10918652
v 0.05212302 0.07928044 0.12695204
v 0.05008451 0.07872693 0.12625009
v 0.06201694 0.05155591 0.10375044
v 0.07560140 0.04355202 0.08593407
v 0.06240693 0.05015928 0.09732721
v 0.05864770 0.07191023 0.11674737
v 0.06391310 0.05475849 0.11834954
v 0.06174169 0.07038300 0.12733447
v 0.06247715 0.07380998 0.12163789
v 0.06533854 0.05559796 0.12109042
v 0.08051401 0.05264785 0.12215567
v 0.09023240 0.02392081 0.08245059
v 0.11808236 0.02098956 0.07140427
v 0.11377966 0.02238239 0.07889933
v 0.09055004 0.03781986 0.11259975
v 0.09143442 0.04103333 0.12019234
v 0.10572871 0.03369867 0.10846738
v 0.11406783 0.03239787 0.10862009
v 0.09454874 0.03584376 0.12723260
v 0.08149298 0.05318223 0.12261166
v 0.08198445 0.03317815 0.14242182
v 0.06145302 0.02813923 0.15785782
v 0.07324130 0.04481298 0.14441915
v 0.05384069 0.03152434 0.16696410
v 0.05699150 0.02523096 0.16785135
v 0.05910276 0.04578747 0.14884800
v 0.05746418 0.05692569 0.14908823
v 0.06255629 0.04855880 0.14623796
v 0.07453372 0.04652856 0.14062058
v 0.11554225 0.01110343 -0.05069477
v 0.11748622 0.01381549 -0.03853972
v 0.11882668 0.01637418 -0.03126700
v 0.12614494 0.00799179 -0.05449905
v 0.13014325 0.00797704 -0.05196009
v 0.11614057 0.01007813 -0.00003330
v 0.12373999 0.01458377 -0.01831693
v 0.13348460 0.01298688 -0.02438052
v 0.13299290 0.01299549 0.00938315
v 0.12899420 0.01189192 0.00482382
v 0.13696289 0.01112545 0.04740170
v 0.13843122 0.01078855 0.04129048
v 0.12387376 0.01773932 0.06211420
v 0.12057297 0.02648451 0.10498970
v 0.01724571 0.04173549 0.19992896
v 0.02613998 0.04931336 0.21334026
v 0.01800256 0.05315797 0.21537209
v -0.00522863 0.06986396 0.22449362
v 0.00863516 0.07037026 0.22406997
v -0.01474322 0.06934955 0.22710357
v 0.03249989 0.03029497 0.20298777
v 0.03468522 0.02334942 0.20116231
v 0.04160539 0.03636338 0.22226756
v 0.04086638 0.04957824 0.22401206
v 0.04096354 0.04885825 0.22311912
v 0.03626860 0.06324645 0.22900739
v 0.02813320 0.06585450 0.22650249
v 0.03303076 0.07338923 0.24632995
v 0.04245370 0.05004118 0.25585658
v 0.02933124 0.07455104 0.26244528
v -0.01105232 0.03841725 0.29877243
v -0.00722396 0.04110167 0.29882340
v 0.01654157 0.04261503 0.29868524
v 0.02465244 0.03740535 0.29643251
v -0.02009440 0.07517437 0.26512146
v -0.01475677 0.06308433 0.28653600
v -0.01442665 0.06436308 0.28697572
v 0.01937171 0.06517947 0.28718657
v 0.02025713 0.06501438 0.28684566
v 0.04218827 0.04749539 0.25810506
v 0.02733821 0.04572442 0.29024846
v 0.03116603 0.07608730 0.25677531
v 0.00071821 0.08004471 0.26200714
v 0.00492575 0.07989393 0.26124455
v 0.04370465 0.02694520 0.23218330
v 0.04555994 0.01964724 0.23563808
f 3 2 1
f 1 2 4
f 3 6 2
f 2 6 5
f 3 1 7
f 2 5 4
f 3 7 6
f 4 9 1
f 7 1 9
f 5 8 4
f 5 6 11
f 4 13 9
f 4 8 13
f 5 10 12
f 8 5 12
f 12 10 14
f 12 15 13
f 8 12 13
f 6 7 13
f 6 17 11
f 6 13 17
f 17 19 18
f 17 18 11
f 7 9 13
f 12 16 15
f 17 13 19
f 13 15 19
f 21 22 24
f 22 21 23
f 23 26 22
f 23 21 19
f 19 21 18
f 26 23 27
f 26 27 28
f 19 15 23
f 24 22 29
f 22 26 29
f 26 30 29
f 24 29 25
f 26 28 30
f 25 29 32
f 32 29 33
f 36 38 37
f 39 33 40
f 40 33 41
f 42 39 43
f 39 40 43
f 40 44 43
f 43 44 45
f 33 29 30
f 32 33 34
f 30 46 33
f 33 46 41
f 39 42 34
f 34 33 39
f 42 43 38
f 42 38 35
f 34 42 35
f 38 36 35
f 43 45 38
f 47 38 45
f 47 48 38
f 37 50 36
f 37 49 50
f 49 52 50
f 52 49 53
f 48 54 56
f 37 48 55
f 48 37 38
f 37 55 49
f 48 56 55
f 55 51 49
f 55 56 51
f 49 51 58
f 58 59 49
f 49 59 53
f 61 58 62
f 60 62 58
f 58 61 59
f 61 62 63
f 57 60 58
f 51 57 58
f 51 56 57
f 62 60 63
f 57 64 60
f 63 68 61
f 68 67 61
f 61 67 66
f 67 69 70
f 67 68 65
f 67 65 69
f 63 74 68
f 63 60 74
f 68 74 73
f 74 75 73
f 68 73 65
f 81 78 79
f 84 82 85
f 79 80 81
f 82 83 85
f 78 89 86
f 83 87 88
f 78 81 89
f 88 87 90
f 78 91 79
f 82 96 93
f 79 91 95
f 79 95 97
f 82 98 96
f 82 84 98
f 93 96 94
f 96 98 99
f 95 100 97
f 99 98 101
f 91 78 86
f 91 86 102
f 103 83 93
f 87 103 104
f 93 105 103
f 91 102 92
f 105 107 103
f 103 107 104
f 93 83 82
f 103 87 83
f 80 108 81
f 81 108 109
f 83 88 85
f 85 88 110
f 81 109 89
f 110 88 90
f 79 97 80
f 97 111 80
f 85 112 84
f 98 84 114
f 97 100 111
f 84 116 114
f 84 112 116
f 111 113 80
f 108 117 109
f 108 80 117
f 85 110 118
f 85 118 119
f 110 90 118
f 90 120 118
f 117 121 109
f 117 122 121
f 85 119 112
f 118 120 123
f 123 120 124
f 80 113 117
f 119 118 123
f 131 130 133
f 135 134 136
f 130 131 137
f 138 139 134
f 125 142 143
f 143 146 125
f 145 147 148
f 142 149 143
f 65 73 142
f 144 147 145
f 144 151 147
f 143 153 146
f 143 149 153
f 146 153 152
f 147 151 154
f 142 125 69
f 125 146 126
f 144 145 150
f 70 69 125
f 144 155 127
f 128 127 155
f 65 142 69
f 72 150 71
f 71 150 145
f 144 127 151
f 126 146 129
f 146 152 129
f 151 127 156
f 149 142 157
f 149 157 160
f 158 148 159
f 71 145 148
f 71 148 76
f 142 75 157
f 142 73 75
f 148 158 76
f 158 159 77
f 157 75 161
f 157 161 162
f 157 162 160
f 77 159 163
f 76 158 77
f 153 149 133
f 147 154 148
f 160 133 149
f 160 132 133
f 148 135 159
f 164 153 130
f 152 153 164
f 154 151 165
f 154 165 166
f 168 164 130
f 167 169 166
f 165 167 166
f 152 164 129
f 151 156 165
f 171 129 164
f 165 156 167
f 156 172 167
f 130 153 133
f 166 138 154
f 135 148 154
f 154 138 135
f 133 132 131
f 134 135 138
f 166 170 138
f 91 92 95
f 175 96 99
f 94 96 175
f 95 92 176
f 95 176 100
f 99 177 175
f 100 176 178
f 94 179 173
f 175 179 94
f 105 93 94
f 92 102 106
f 94 183 105
f 92 106 182
f 105 183 107
f 107 183 181
f 106 180 182
f 99 101 177
f 187 188 184
f 174 186 185
f 173 184 189
f 174 190 186
f 92 174 192
f 92 192 176
f 173 187 184
f 173 179 187
f 175 193 179
f 178 176 192
f 175 177 193
f 178 192 195
f 193 177 194
f 174 185 192
f 187 179 193
f 192 196 195
f 92 182 174
f 173 183 94
f 183 173 189
f 182 171 174
f 174 171 190
f 184 191 189
f 182 197 171
f 191 172 189
f 183 189 181
f 114 116 199
f 198 111 115
f 198 113 111
f 199 200 114
f 100 115 111
f 200 201 98
f 100 178 202
f 98 114 200
f 199 204 200
f 200 204 206
f 200 206 201
f 198 203 205
f 115 203 198
f 116 207 199
f 198 208 113
f 116 112 207
f 112 119 207
f 207 119 209
f 198 205 210
f 198 210 208
f 199 211 204
f 211 199 212
f 212 199 207
f 98 201 101
f 202 115 100
f 101 201 216
f 101 216 124
f 101 124 218
f 215 217 219
f 123 124 222
f 220 122 217
f 222 124 216
f 215 203 202
f 101 218 177
f 215 202 217
f 215 226 223
f 223 226 202
f 219 223 224
f 202 224 223
f 177 218 225
f 216 201 206
f 217 202 226
f 217 226 220
f 224 226 219
f 226 224 228
f 219 217 203
f 119 123 209
f 122 117 229
f 113 229 117
f 113 208 229
f 209 123 222
f 122 229 230
f 208 214 229
f 230 217 122
f 178 195 202
f 205 203 232
f 204 211 236
f 208 210 213
f 213 210 237
f 212 239 211
f 211 239 240
f 204 236 206
f 205 238 210
f 205 232 238
f 206 236 241
f 207 209 212
f 212 209 242
f 210 238 244
f 240 236 211
f 237 210 244
f 236 240 241
f 240 243 241
f 239 245 240
f 239 243 245
f 240 245 243
f 244 238 246
f 202 195 224
f 177 225 194
f 195 247 224
f 203 217 230
f 218 227 225
f 224 247 228
f 194 225 233
f 233 225 235
f 225 248 235
f 216 206 222
f 232 230 238
f 241 249 206
f 230 231 238
f 203 230 232
f 206 249 222
f 209 249 242
f 209 222 249
f 230 229 231
f 243 242 249
f 231 229 250
f 249 241 243
f 238 231 246
f 231 250 246
f 131 140 137
f 134 139 141
f 141 251 134
f 140 252 253
f 137 140 254
f 140 253 254
f 185 168 137
f 184 188 191
f 185 186 256
f 164 168 257
f 130 137 168
f 170 166 169
f 185 256 168
f 168 256 257
f 192 185 259
f 188 187 260
f 260 187 261
f 187 193 261
f 258 169 260
f 260 261 258
f 260 169 188
f 192 259 196
f 188 167 191
f 256 186 257
f 193 194 262
f 193 262 261
f 137 259 185
f 188 169 167
f 169 258 170
f 259 254 196
f 171 164 257
f 257 186 171
f 171 186 190
f 191 167 172
f 170 139 138
f 170 258 263
f 259 137 254
f 258 261 263
f 196 254 264
f 170 263 139
f 139 255 141
f 139 263 255
f 254 267 264
f 263 268 255
f 254 266 267
f 196 269 195
f 233 262 194
f 195 269 234
f 262 233 273
f 261 265 263
f 261 262 265
f 262 273 265
f 196 264 269
f 269 264 270
f 269 270 234
f 233 235 271
f 235 272 271
f 233 271 273
f 234 270 274
f 234 247 195
f 234 276 247
f 235 248 272
f 234 274 276
f 247 276 277
f 248 278 272
f 274 275 276
f 270 281 274
f 273 271 282
f 264 267 270
f 263 265 268
f 284 265 290
f 286 283 287
f 267 283 281
f 285 265 282
f 288 290 285
f 270 267 281
f 273 282 265
f 288 282 289
f 283 286 281
f 285 282 288
f 286 291 275
f 275 274 286
f 287 291 286
f 286 274 281
f 289 282 271
f 289 293 288
f 289 271 293
f 288 294 290
f 293 294 288
f 287 292 295
f 291 287 295
f 276 275 280
f 271 272 279
f 275 296 280
f 293 301 300
f 293 302 294
f 271 279 293
f 279 301 293
f 275 291 296
f 296 291 298
f 299 298 291
f 295 299 291
f 293 300 302
f 279 297 301
f 299 303 298
f 213 214 208
f 212 242 239
f 213 304 214
f 242 243 239
f 305 213 306
f 213 305 304
f 214 304 250
f 229 214 250
f 306 308 307
f 308 309 307
f 308 311 309
f 311 313 314
f 311 314 309
f 309 314 312
f 306 213 237
f 306 237 315
f 244 315 237
f 306 307 305
f 305 307 316
f 304 246 250
f 244 317 315
f 244 246 317
f 305 316 304
f 246 304 317
f 308 306 318
f 306 315 318
f 315 317 318
f 317 319 318
f 317 304 316
f 316 319 317
f 307 310 316
f 309 310 307
f 316 310 319
f 318 320 308
f 318 319 320
f 308 320 311
f 309 312 310
f 310 320 319
f 311 320 313
f 320 310 313
f 314 313 312
f 310 312 313
f 321 323 322
f 326 323 321
f 324 329 327
f 321 322 330
f 324 325 329
f 322 333 330
f 327 334 332
f 328 332 337
f 328 327 332
f 322 336 331
f 331 333 322
f 5 11 10
f 10 11 338
f 10 338 14
f 12 14 16
f 338 339 14
f 16 14 20
f 14 339 20
f 15 16 20
f 20 340 15
f 11 341 338
f 338 341 339
f 339 341 20
f 11 18 341
f 341 340 20
f 21 24 342
f 24 343 342
f 24 25 343
f 344 21 342
f 18 21 344
f 344 342 345
f 341 18 344
f 341 346 340
f 25 347 343
f 343 347 342
f 347 348 342
f 344 345 346
f 344 346 341
f 342 349 345
f 342 348 349
f 350 345 349
f 25 32 347
f 32 34 352
f 347 32 348
f 34 353 352
f 35 36 353
f 36 354 353
f 32 355 348
f 32 352 355
f 348 355 356
f 34 35 353
f 352 357 355
f 352 353 357
f 357 356 355
f 357 358 356
f 353 354 357
f 349 348 356
f 349 356 351
f 354 359 360
f 357 354 360
f 357 360 358
f 36 50 354
f 50 52 362
f 52 53 362
f 53 363 362
f 363 364 362
f 50 362 354
f 354 362 359
f 359 365 360
f 360 365 361
f 359 366 365
f 359 364 366
f 362 364 359
f 364 369 366
f 364 368 369
f 53 59 363
f 59 61 66
f 59 66 370
f 66 371 370
f 59 370 363
f 370 371 373
f 363 370 372
f 370 373 372
f 364 363 372
f 372 368 364
f 369 368 375
f 373 368 372
f 373 376 368
f 373 374 376
f 66 378 371
f 66 67 70
f 66 70 378
f 373 371 374
f 371 378 374
f 378 381 374
f 380 379 382
f 71 382 72
f 72 382 379
f 382 71 383
f 374 384 376
f 374 381 385
f 376 384 387
f 374 385 384
f 384 388 387
f 385 388 384
f 382 389 386
f 86 390 102
f 104 107 391
f 102 390 392
f 86 89 390
f 87 104 393
f 87 393 90
f 104 391 393
f 390 394 392
f 390 121 394
f 393 391 221
f 120 393 221
f 394 121 395
f 89 109 390
f 390 109 121
f 393 120 90
f 121 220 395
f 122 220 121
f 126 396 125
f 127 128 397
f 126 129 398
f 126 398 396
f 72 399 150
f 72 379 399
f 70 125 396
f 150 155 144
f 150 399 155
f 70 396 378
f 379 380 399
f 399 380 155
f 155 380 401
f 127 397 402
f 127 402 156
f 155 397 128
f 396 398 400
f 400 398 403
f 155 401 397
f 396 400 378
f 397 404 402
f 397 401 404
f 382 405 380
f 380 405 401
f 381 378 407
f 378 400 407
f 401 405 406
f 403 408 400
f 401 410 404
f 400 408 407
f 398 411 403
f 382 386 405
f 386 412 405
f 381 407 413
f 413 414 388
f 406 410 401
f 405 416 406
f 405 412 416
f 407 417 413
f 407 408 417
f 404 410 418
f 408 403 417
f 404 418 419
f 406 416 410
f 410 416 418
f 413 417 414
f 414 417 420
f 415 416 412
f 416 415 418
f 129 422 398
f 402 172 156
f 129 197 422
f 402 423 425
f 422 197 424
f 423 426 425
f 426 423 427
f 398 422 428
f 402 409 423
f 404 409 402
f 398 428 411
f 409 429 423
f 404 419 409
f 428 430 411
f 423 429 427
f 429 431 427
f 421 432 418
f 381 413 385
f 413 388 385
f 403 411 417
f 409 419 429
f 411 430 434
f 419 432 429
f 419 418 432
f 417 411 434
f 417 434 420
f 432 436 429
f 430 435 434
f 437 438 430
f 429 436 431
f 435 430 438
f 431 436 433
f 106 102 180
f 107 181 391
f 102 392 180
f 394 395 439
f 391 181 440
f 394 439 392
f 391 441 221
f 391 440 441
f 221 441 442
f 182 180 197
f 392 445 180
f 189 444 181
f 181 444 440
f 180 445 446
f 392 439 445
f 446 439 448
f 445 439 446
f 180 446 197
f 189 425 444
f 189 172 425
f 440 444 447
f 197 446 424
f 447 441 440
f 446 448 450
f 124 120 221
f 124 221 218
f 218 221 227
f 227 221 442
f 395 220 228
f 226 228 220
f 395 228 443
f 395 443 439
f 441 449 442
f 439 443 452
f 225 227 248
f 227 442 449
f 443 228 452
f 439 452 448
f 441 447 449
f 129 171 197
f 402 425 172
f 444 425 447
f 446 450 424
f 447 425 453
f 425 426 453
f 428 424 454
f 422 424 428
f 428 454 437
f 450 458 454
f 450 454 424
f 448 451 450
f 426 455 453
f 450 451 458
f 453 455 459
f 427 455 426
f 427 456 460
f 427 460 455
f 454 458 461
f 455 460 459
f 461 458 462
f 460 463 459
f 428 437 430
f 431 456 427
f 437 454 457
f 464 431 433
f 464 456 431
f 437 457 465
f 465 457 467
f 454 461 457
f 460 456 468
f 457 461 469
f 460 470 463
f 460 468 470
f 457 469 471
f 247 277 228
f 248 227 278
f 227 449 278
f 272 278 279
f 276 280 277
f 277 280 473
f 447 453 449
f 448 452 451
f 453 278 449
f 228 472 452
f 452 472 451
f 228 277 472
f 451 472 458
f 278 453 474
f 453 459 474
f 277 473 472
f 278 474 475
f 472 473 476
f 472 462 458
f 474 459 463
f 472 476 462
f 279 278 477
f 279 477 479
f 279 479 297
f 280 296 478
f 278 475 477
f 280 478 473
f 478 296 480
f 296 298 303
f 301 297 300
f 297 482 300
f 297 479 482
f 296 303 480
f 485 462 476
f 474 463 475
f 463 470 475
f 470 484 475
f 483 487 476
f 477 475 484
f 477 484 479
f 473 478 483
f 473 483 476
f 479 484 482
f 478 480 483
f 484 486 482
f 482 486 488
f 483 489 487
f 483 480 489
f 437 465 438
f 461 485 469
f 468 491 470
f 485 492 469
f 485 490 492
f 491 493 470
f 493 491 495
f 461 462 485
f 470 493 484
f 476 487 485
f 490 485 487
f 492 490 494
f 486 493 495
f 494 490 487
f 493 486 484
f 321 330 326
f 496 497 325
f 329 334 327
f 329 325 497
f 333 499 330
f 326 501 500
f 326 330 501
f 498 497 496
f 498 502 497
f 501 503 500
f 329 504 334
f 329 497 504
f 330 499 501
f 497 506 504
f 501 499 505
f 333 331 499
f 332 334 507
f 331 508 499
f 334 504 507
f 499 509 505
f 499 508 509
f 510 511 512
f 511 515 514
f 23 15 27
f 27 517 28
f 27 516 517
f 30 28 31
f 28 518 31
f 522 519 521
f 520 519 522
f 523 520 522
f 521 519 514
f 521 514 515
f 520 526 525
f 523 527 520
f 520 527 526
f 513 510 528
f 510 512 528
f 513 531 530
f 513 530 529
f 513 528 531
f 513 511 510
f 511 513 515
f 513 532 515
f 515 532 533
f 529 532 513
f 529 535 532
f 535 534 532
f 532 536 533
f 534 537 532
f 532 537 536
f 539 529 530
f 530 541 539
f 530 531 541
f 539 540 529
f 540 543 535
f 535 543 542
f 541 542 543
f 529 540 535
f 522 544 523
f 521 533 544
f 521 544 522
f 533 521 515
f 544 533 545
f 533 536 545
f 545 546 544
f 544 547 523
f 544 546 548
f 544 548 547
f 548 549 547
f 539 543 540
f 539 541 543
f 31 46 30
f 46 550 41
f 31 551 46
f 31 518 551
f 551 550 46
f 40 41 44
f 44 41 47
f 45 44 47
f 41 550 47
f 550 553 47
f 47 553 552
f 556 555 554
f 556 557 555
f 527 558 526
f 527 523 560
f 560 554 527
f 527 559 558
f 527 554 559
f 554 555 561
f 554 561 559
f 555 562 561
f 555 557 562
f 48 47 54
f 47 552 54
f 54 552 564
f 54 564 565
f 565 564 566
f 54 565 567
f 56 54 567
f 565 566 567
f 567 566 568
f 566 569 568
f 570 557 571
f 570 571 572
f 572 571 573
f 562 563 561
f 562 570 563
f 563 570 574
f 562 557 570
f 572 575 570
f 573 575 572
f 575 577 570
f 575 576 577
f 573 578 575
f 560 579 554
f 560 580 579
f 556 554 579
f 579 581 556
f 556 582 557
f 556 581 582
f 523 547 580
f 523 580 560
f 547 549 580
f 580 549 583
f 583 549 584
f 557 582 585
f 580 583 579
f 579 583 581
f 581 583 585
f 581 585 582
f 583 587 585
f 583 584 587
f 586 585 588
f 585 587 588
f 585 571 557
f 585 586 571
f 571 586 589
f 588 590 586
f 586 590 589
f 571 591 573
f 573 591 592
f 571 589 591
f 591 589 593
f 589 594 595
f 64 596 60
f 596 64 597
f 598 597 568
f 597 598 596
f 57 56 567
f 567 568 597
f 568 600 576
f 568 599 600
f 568 601 599
f 57 567 64
f 64 567 597
f 598 603 602
f 598 568 603
f 602 605 604
f 605 606 604
f 576 575 605
f 576 605 603
f 600 607 576
f 575 578 605
f 576 603 568
f 603 605 602
f 74 60 596
f 596 608 74
f 596 598 608
f 598 609 608
f 74 612 75
f 74 608 611
f 74 611 612
f 77 613 76
f 608 610 611
f 612 614 161
f 612 611 614
f 76 613 383
f 71 76 383
f 598 602 609
f 608 609 610
f 602 604 609
f 614 611 617
f 610 616 611
f 611 616 617
f 616 618 617
f 604 615 609
f 610 609 616
f 609 615 616
f 618 616 619
f 615 619 616
f 619 620 618
f 592 578 573
f 592 593 621
f 578 592 605
f 592 606 605
f 606 592 621
f 591 593 592
f 593 595 621
f 621 622 606
f 593 589 595
f 621 623 622
f 621 595 623
f 606 622 625
f 606 625 615
f 604 606 615
f 619 615 626
f 622 623 625
f 625 626 615
f 623 626 625
f 595 624 623
f 623 629 626
f 623 624 629
f 629 630 626
f 629 624 631
f 629 631 630
f 632 633 634
f 633 636 634
f 632 637 633
f 632 635 637
f 633 637 636
f 637 635 638
f 634 636 640
f 640 639 641
f 642 643 636
f 643 642 639
f 643 639 636
f 636 638 642
f 636 637 638
f 638 635 644
f 639 640 636
f 646 649 648
f 647 646 639
f 646 650 639
f 646 647 649
f 648 649 641
f 639 650 641
f 650 648 641
f 646 648 650
f 642 638 653
f 639 642 653
f 639 653 647
f 653 638 654
f 638 645 654
f 132 657 131
f 136 134 658
f 131 657 140
f 661 662 657
f 662 663 657
f 136 658 660
f 657 663 659
f 658 665 660
f 77 667 613
f 667 77 163
f 161 666 162
f 161 75 612
f 161 614 666
f 163 668 667
f 160 162 132
f 159 135 163
f 135 656 163
f 668 163 656
f 162 666 670
f 162 670 132
f 656 671 668
f 667 668 389
f 617 673 669
f 669 673 672
f 671 669 672
f 668 671 672
f 614 674 666
f 617 669 676
f 614 617 674
f 674 617 619
f 617 676 675
f 666 674 677
f 677 674 680
f 679 675 681
f 617 675 619
f 620 619 675
f 620 675 679
f 669 682 676
f 669 671 682
f 666 661 670
f 666 677 661
f 676 682 664
f 676 664 681
f 677 680 661
f 675 676 681
f 661 680 662
f 135 136 656
f 671 656 682
f 132 670 657
f 656 136 682
f 670 661 657
f 682 136 660
f 682 660 664
f 662 684 663
f 663 684 686
f 660 687 685
f 674 619 678
f 680 674 678
f 678 688 680
f 679 681 689
f 678 619 688
f 681 691 689
f 688 690 692
f 679 693 620
f 679 689 693
f 619 626 688
f 690 688 626
f 680 688 683
f 662 680 683
f 664 694 681
f 681 694 691
f 692 683 688
f 620 693 627
f 627 693 695
f 689 691 697
f 693 689 697
f 690 696 692
f 692 698 683
f 691 699 697
f 692 696 698
f 694 699 691
f 626 630 700
f 626 700 690
f 693 697 695
f 700 630 631
f 627 695 701
f 690 700 696
f 700 702 696
f 700 631 703
f 695 697 705
f 695 705 704
f 706 707 702
f 702 700 706
f 696 709 698
f 697 699 710
f 702 709 696
f 711 713 712
f 711 712 714
f 702 715 709
f 702 716 715
f 702 707 716
f 697 710 705
f 709 715 718
f 716 720 715
f 716 714 720
f 709 714 712
f 714 709 718
f 664 685 694
f 664 660 685
f 662 683 684
f 684 722 686
f 687 723 685
f 685 723 724
f 683 698 725
f 694 726 699
f 683 725 684
f 694 685 726
f 685 724 726
f 684 725 729
f 684 729 722
f 725 731 729
f 726 724 710
f 727 729 731
f 727 734 729
f 733 732 735
f 735 732 736
f 699 726 710
f 740 719 738
f 712 713 741
f 738 719 739
f 698 742 725
f 737 742 698
f 741 713 727
f 709 737 698
f 709 712 737
f 739 719 743
f 712 741 737
f 725 742 731
f 727 742 741
f 727 731 742
f 735 746 743
f 733 735 745
f 710 724 745
f 746 735 736
f 737 741 742
f 739 743 746
f 743 745 735
f 140 657 252
f 134 251 658
f 657 659 252
f 252 747 253
f 658 251 748
f 658 748 665
f 659 663 749
f 749 663 751
f 749 751 753
f 751 756 753
f 753 756 755
f 141 757 251
f 747 252 758
f 252 659 758
f 757 759 251
f 251 759 748
f 253 266 254
f 253 747 266
f 141 255 757
f 255 760 757
f 255 268 760
f 762 763 760
f 266 764 755
f 266 747 764
f 763 766 765
f 763 762 766
f 266 767 761
f 266 755 767
f 758 768 747
f 757 760 759
f 747 768 764
f 763 769 760
f 763 765 769
f 759 760 769
f 659 750 758
f 659 749 750
f 748 759 770
f 748 770 665
f 665 754 752
f 665 770 754
f 755 771 767
f 758 750 768
f 750 764 768
f 759 769 770
f 749 764 750
f 753 764 749
f 753 755 764
f 754 772 752
f 754 770 769
f 765 775 769
f 769 775 754
f 283 267 266
f 266 761 283
f 284 268 265
f 284 762 268
f 762 284 777
f 284 778 777
f 283 761 287
f 761 776 292
f 284 290 778
f 761 292 287
f 762 760 268
f 778 290 294
f 762 777 766
f 761 780 776
f 761 767 780
f 777 778 766
f 776 780 782
f 294 783 778
f 778 783 779
f 292 784 295
f 292 776 784
f 776 782 784
f 782 785 784
f 295 784 299
f 294 787 783
f 302 787 294
f 784 788 299
f 788 789 481
f 303 299 481
f 299 788 481
f 302 791 787
f 783 787 779
f 784 785 788
f 779 787 793
f 788 794 789
f 778 781 766
f 767 795 780
f 773 765 766
f 778 779 781
f 780 796 797
f 779 786 781
f 771 795 767
f 773 766 798
f 781 798 766
f 771 774 799
f 771 755 774
f 754 775 772
f 773 800 775
f 795 796 780
f 773 798 800
f 800 798 802
f 798 801 802
f 765 773 775
f 798 781 801
f 781 786 801
f 800 803 775
f 782 780 797
f 785 782 797
f 801 804 802
f 795 805 796
f 779 793 786
f 786 793 801
f 785 797 794
f 785 794 788
f 787 792 793
f 793 792 807
f 797 796 808
f 793 809 801
f 801 809 810
f 794 808 806
f 794 797 808
f 809 811 810
f 793 807 809
f 807 813 809
f 665 752 660
f 663 686 751
f 660 752 687
f 751 686 756
f 686 722 814
f 723 687 815
f 752 772 687
f 755 756 774
f 686 814 756
f 756 814 817
f 687 772 818
f 687 818 815
f 729 730 722
f 820 723 819
f 821 733 820
f 724 723 745
f 730 822 722
f 733 821 732
f 730 729 822
f 732 821 823
f 732 823 736
f 820 819 821
f 821 819 823
f 723 815 819
f 818 824 815
f 814 722 822
f 819 815 825
f 815 824 825
f 723 820 745
f 733 745 820
f 772 775 816
f 756 817 828
f 756 828 774
f 774 828 799
f 829 771 799
f 771 829 830
f 816 775 831
f 800 802 803
f 775 803 831
f 799 828 829
f 803 833 831
f 818 772 816
f 818 816 834
f 816 831 834
f 817 835 828
f 831 833 834
f 795 830 805
f 771 830 795
f 802 804 803
f 804 801 810
f 829 832 830
f 803 804 810
f 805 830 836
f 830 832 836
f 829 828 832
f 828 835 832
f 839 838 840
f 803 838 833
f 803 810 838
f 838 810 841
f 796 805 842
f 838 841 840
f 796 842 808
f 810 811 841
f 842 805 836
f 832 843 836
f 832 837 843
f 832 835 837
f 814 844 817
f 818 834 824
f 817 844 835
f 844 845 835
f 835 846 837
f 834 833 824
f 814 826 844
f 844 826 845
f 845 846 835
f 824 833 847
f 833 848 847
f 833 838 848
f 846 849 837
f 838 839 848
f 848 850 847
f 851 849 846
f 850 848 839
f 849 843 837
f 651 652 853
f 647 852 706
f 852 707 706
f 853 652 854
f 853 854 856
f 649 647 706
f 652 857 708
f 649 706 858
f 651 859 652
f 860 857 859
f 854 652 708
f 651 856 655
f 853 856 651
f 647 855 852
f 647 653 855
f 651 655 859
f 856 861 859
f 655 856 859
f 861 862 859
f 653 654 863
f 653 863 855
f 861 864 862
f 856 865 861
f 855 863 866
f 861 865 864
f 852 711 716
f 852 716 707
f 852 855 867
f 852 867 711
f 854 740 868
f 711 867 713
f 854 708 740
f 740 708 721
f 708 869 721
f 716 711 714
f 719 740 721
f 854 868 856
f 856 868 865
f 855 866 867
f 868 870 865
f 865 871 864
f 866 863 872
f 865 870 871
f 872 873 866
f 713 867 874
f 713 728 727
f 738 739 875
f 713 874 728
f 734 728 877
f 874 878 728
f 728 878 877
f 740 738 868
f 738 875 880
f 868 738 880
f 874 867 878
f 867 881 878
f 880 882 868
f 868 882 870
f 739 876 875
f 727 728 734
f 739 746 876
f 876 746 736
f 875 876 880
f 880 876 883
f 880 884 882
f 880 883 884
f 878 881 885
f 883 876 886
f 878 885 877
f 884 883 886
f 867 866 881
f 870 887 871
f 870 882 888
f 866 873 889
f 870 888 887
f 881 866 885
f 866 889 885
f 882 884 888
f 822 729 890
f 729 734 890
f 736 823 879
f 734 877 890
f 736 879 876
f 890 877 891
f 823 892 879
f 822 826 814
f 819 825 823
f 890 894 822
f 823 825 892
f 822 894 826
f 825 847 895
f 890 891 894
f 825 895 892
f 891 896 894
f 876 879 886
f 877 885 891
f 879 892 897
f 879 897 886
f 891 893 896
f 892 895 897
f 896 893 901
f 895 899 897
f 891 885 893
f 884 898 888
f 886 897 884
f 885 900 893
f 884 897 898
f 824 847 825
f 826 894 845
f 845 894 851
f 847 850 895
f 846 845 851
f 851 903 849
f 902 899 850
f 896 851 894
f 895 850 899
f 896 903 851
f 323 904 322
f 905 323 906
f 324 907 790
f 907 792 790
f 904 323 905
f 907 908 910
f 324 908 907
f 904 911 335
f 324 912 908
f 905 909 904
f 904 909 911
f 335 911 913
f 914 908 912
f 912 915 914
f 789 323 481
f 789 906 323
f 791 790 787
f 496 790 791
f 481 323 326
f 324 790 325
f 787 790 792
f 324 327 328
f 324 328 912
f 322 904 335
f 328 916 912
f 912 916 915
f 905 917 909
f 905 918 917
f 905 906 918
f 908 914 910
f 909 920 911
f 909 917 920
f 907 910 919
f 910 914 921
f 911 920 913
f 920 917 922
f 914 915 921
f 910 921 919
f 789 794 918
f 789 918 906
f 907 919 807
f 907 807 792
f 794 806 918
f 918 923 917
f 919 924 807
f 807 925 813
f 807 924 925
f 917 927 922
f 917 923 928
f 924 919 926
f 917 928 927
f 919 929 926
f 930 336 932
f 930 931 933
f 930 935 931
f 930 932 935
f 931 936 933
f 322 937 336
f 322 335 937
f 337 916 328
f 930 933 336
f 937 932 336
f 337 938 916
f 336 933 331
f 337 332 939
f 335 913 937
f 915 916 940
f 937 913 941
f 932 937 935
f 916 942 940
f 916 938 942
f 935 937 941
f 933 943 331
f 337 939 938
f 938 939 944
f 938 944 942
f 920 922 913
f 931 935 936
f 934 936 935
f 936 934 947
f 915 940 921
f 913 922 934
f 921 940 948
f 913 934 941
f 941 934 935
f 936 946 933
f 940 942 949
f 940 949 948
f 921 929 919
f 921 948 929
f 922 947 934
f 936 947 946
f 922 927 947
f 949 929 948
f 947 927 946
f 933 946 945
f 942 944 949
f 512 511 952
f 512 952 953
f 511 954 952
f 511 514 954
f 954 537 952
f 15 340 27
f 27 340 955
f 27 955 516
f 516 955 517
f 28 517 518
f 517 955 518
f 518 955 350
f 346 955 340
f 346 345 955
f 955 345 350
f 519 524 514
f 524 519 956
f 519 525 956
f 519 520 525
f 524 954 514
f 954 524 958
f 959 524 956
f 956 525 957
f 525 526 957
f 957 526 961
f 960 956 957
f 957 961 962
f 512 953 528
f 531 528 953
f 953 542 531
f 952 538 953
f 952 537 538
f 953 538 542
f 538 537 534
f 531 542 541
f 534 542 538
f 534 535 542
f 954 958 537
f 524 959 958
f 959 956 960
f 537 958 536
f 536 963 545
f 536 958 963
f 958 964 963
f 545 963 546
f 958 959 964
f 964 959 960
f 546 963 965
f 546 965 548
f 548 965 549
f 964 966 965
f 964 965 963
f 957 962 960
f 964 960 966
f 960 962 966
f 518 968 551
f 550 551 351
f 551 968 351
f 518 350 968
f 351 968 350
f 356 358 351
f 351 358 969
f 553 550 969
f 969 550 351
f 969 970 553
f 553 970 552
f 349 351 350
f 358 361 969
f 360 361 358
f 970 969 361
f 558 971 526
f 559 971 558
f 526 971 961
f 961 971 967
f 971 972 967
f 559 561 971
f 561 973 971
f 561 563 973
f 563 974 973
f 971 973 972
f 973 974 975
f 972 973 976
f 967 972 976
f 962 961 967
f 976 973 977
f 973 975 977
f 552 566 564
f 552 970 566
f 361 367 970
f 566 970 569
f 970 367 569
f 367 361 365
f 365 369 367
f 369 365 366
f 369 569 367
f 563 574 974
f 974 978 975
f 974 574 979
f 974 979 978
f 570 577 574
f 574 577 979
f 975 980 977
f 975 978 980
f 980 978 981
f 979 577 978
f 978 982 983
f 967 984 966
f 984 967 985
f 549 965 984
f 984 985 549
f 985 584 549
f 965 966 984
f 967 976 985
f 985 976 986
f 584 985 587
f 588 587 987
f 587 985 986
f 988 987 986
f 587 986 987
f 966 962 967
f 976 977 986
f 977 988 986
f 588 987 590
f 989 590 987
f 988 989 987
f 589 590 594
f 980 988 977
f 980 983 988
f 988 983 989
f 981 978 983
f 983 980 981
f 983 990 989
f 590 989 594
f 568 569 601
f 599 601 607
f 599 607 600
f 601 991 607
f 369 375 992
f 992 375 993
f 369 992 569
f 569 992 601
f 601 992 991
f 992 994 991
f 368 995 993
f 368 376 995
f 368 993 375
f 995 376 377
f 993 996 992
f 992 996 994
f 577 576 991
f 576 607 991
f 577 991 994
f 978 577 982
f 577 994 982
f 996 993 998
f 996 998 994
f 982 994 997
f 997 994 999
f 994 998 999
f 377 376 387
f 377 387 995
f 993 995 998
f 613 389 383
f 617 618 1000
f 618 620 1001
f 618 1001 1000
f 995 387 1004
f 387 1005 1003
f 382 383 389
f 387 388 1005
f 1003 1005 1006
f 1006 1005 1007
f 995 1004 998
f 387 1003 1004
f 999 998 1004
f 1004 1008 999
f 1003 1006 1004
f 1006 1009 1004
f 1009 1010 1004
f 982 997 983
f 997 1011 983
f 983 1011 990
f 997 999 1011
f 999 1012 1011
f 999 1013 1012
f 595 594 1014
f 594 990 1014
f 595 1014 624
f 990 1015 1014
f 1014 1015 624
f 989 990 594
f 1011 1015 990
f 1015 1011 1012
f 1013 1015 1012
f 620 628 1001
f 620 627 628
f 999 1008 1013
f 1000 1001 1002
f 628 1016 1001
f 1017 1013 1010
f 1015 1018 624
f 627 701 1019
f 627 1019 628
f 624 1018 1020
f 631 624 1020
f 1015 1013 1018
f 1018 1013 1020
f 1013 1017 1020
f 1008 1010 1013
f 1004 1010 1008
f 632 634 635
f 635 640 644
f 634 640 635
f 640 641 644
f 638 644 645
f 649 1021 641
f 1021 654 645
f 1021 645 641
f 644 641 645
f 613 667 389
f 673 1022 672
f 668 672 389
f 388 414 1023
f 412 1024 415
f 617 1000 673
f 673 1026 1022
f 415 1024 1025
f 418 415 421
f 415 1027 421
f 389 672 1025
f 1022 1028 672
f 1025 672 415
f 1029 1030 1028
f 1029 1031 1030
f 1022 1029 1028
f 1023 414 1032
f 1028 1033 672
f 414 1034 1032
f 414 420 1034
f 1033 1028 1035
f 1023 1032 1009
f 1009 1032 1036
f 1028 1030 1037
f 1032 1034 1038
f 1028 1037 1035
f 672 1027 415
f 672 1040 1027
f 672 1033 1040
f 1033 1041 1040
f 1033 1035 1041
f 389 412 386
f 389 1024 412
f 388 1007 1005
f 388 1023 1007
f 673 1000 1026
f 389 1025 1024
f 1007 1009 1006
f 1022 1026 1029
f 1007 1023 1009
f 1000 1002 1026
f 1026 1031 1029
f 421 1039 432
f 421 1027 1039
f 432 1039 436
f 420 434 1044
f 434 435 1044
f 436 1039 1040
f 1027 1040 1039
f 420 1044 1034
f 1044 1046 1045
f 1044 435 1046
f 436 1040 1047
f 1034 1044 1045
f 1045 1049 1048
f 1045 1046 1049
f 436 1047 433
f 435 438 1046
f 433 1047 1042
f 438 1051 1046
f 1046 1052 1049
f 1046 1051 1052
f 1047 1050 1042
f 1042 1050 1043
f 1053 1016 1054
f 1053 1031 1002
f 1053 1002 1016
f 1002 1001 1016
f 1030 1031 1053
f 1010 1036 1055
f 1010 1055 1017
f 1032 1038 1036
f 1037 1030 1058
f 1056 1036 1038
f 1037 1058 1057
f 1059 1030 1053
f 1056 1055 1036
f 1059 1058 1030
f 1059 1061 1058
f 1038 1062 1056
f 1058 1061 1063
f 1038 1048 1062
f 1058 1063 1057
f 631 1020 703
f 700 703 1065
f 701 1054 1019
f 695 704 701
f 701 1060 1054
f 701 704 1060
f 703 1020 1067
f 1066 1068 717
f 1065 703 1068
f 1065 1068 1066
f 720 1068 715
f 714 717 720
f 717 1068 720
f 710 1070 705
f 1060 704 1069
f 704 705 1069
f 1067 1068 703
f 1067 1064 1068
f 705 1070 1069
f 628 1054 1016
f 628 1019 1054
f 1053 1054 1060
f 1055 1020 1017
f 1060 1059 1053
f 1055 1067 1020
f 1055 1056 1067
f 1060 1061 1059
f 1060 1069 1061
f 1056 1064 1067
f 1056 1062 1064
f 1050 1057 1063
f 1048 1049 1064
f 1050 1063 1072
f 1072 1043 1050
f 1052 1073 1049
f 718 715 744
f 715 1068 1074
f 714 718 1071
f 715 1074 744
f 710 827 1070
f 744 1074 1075
f 718 1075 1071
f 1068 1064 1074
f 710 745 827
f 744 1075 718
f 743 719 1077
f 743 1077 745
f 1075 1074 1078
f 827 1076 1070
f 1069 1063 1061
f 1063 1069 1072
f 1069 1070 1072
f 1049 1074 1064
f 1070 1076 1072
f 1074 1049 1073
f 1002 1031 1026
f 1009 1036 1010
f 1062 1048 1064
f 1037 1057 1035
f 1057 1041 1035
f 1045 1048 1038
f 1038 1034 1045
f 1040 1050 1047
f 1040 1041 1050
f 1057 1050 1041
f 438 465 1082
f 433 1081 464
f 466 456 464
f 465 467 1082
f 464 1081 466
f 456 466 1084
f 457 471 467
f 456 1084 468
f 433 1042 1081
f 438 1082 1051
f 1081 1042 1085
f 1086 1051 1082
f 1082 467 1083
f 1082 1083 1086
f 1081 1085 466
f 1085 1087 466
f 1086 1083 1088
f 1083 467 1089
f 467 471 1089
f 466 1087 1091
f 1083 1089 1090
f 1083 1090 1088
f 466 1091 1084
f 303 481 1092
f 303 1092 480
f 1092 1094 1093
f 302 300 1095
f 302 1096 791
f 302 1095 1096
f 300 482 1095
f 1092 1093 480
f 482 488 1095
f 480 1093 489
f 488 486 1097
f 487 489 1098
f 1096 1095 1099
f 1093 1100 489
f 1095 1101 1099
f 1095 488 1101
f 488 1097 1102
f 1102 1101 488
f 489 1103 1098
f 806 1106 812
f 809 813 1099
f 806 808 1106
f 808 842 1106
f 1099 813 1104
f 1106 1105 812
f 1106 1100 1105
f 1106 1108 1100
f 1099 1107 809
f 1106 842 1108
f 809 1107 811
f 1093 1094 1105
f 1093 1105 1100
f 489 1100 1103
f 1099 1101 1107
f 1108 1103 1100
f 1101 1102 1109
f 1110 1098 1103
f 1107 1101 1109
f 468 1084 491
f 471 469 1112
f 469 492 1112
f 491 1113 495
f 491 1084 1113
f 492 494 1112
f 494 1114 1112
f 1113 1084 1117
f 471 1112 1089
f 1112 1114 1115
f 1112 1115 1118
f 1113 1117 1116
f 1112 1118 1089
f 1084 1091 1117
f 1089 1118 1090
f 1118 1115 1119
f 495 1097 486
f 494 487 1098
f 495 1113 1097
f 494 1098 1114
f 1113 1102 1097
f 1113 1116 1102
f 1098 1110 1115
f 1115 1114 1098
f 1110 1119 1115
f 1116 1109 1102
f 1116 1120 1109
f 1085 1042 1043
f 1051 1086 1052
f 1085 1043 1087
f 1086 1088 1052
f 1122 1043 1072
f 1087 1043 1122
f 1122 1123 1087
f 1073 1088 1121
f 1088 1073 1052
f 1088 1090 1121
f 1123 1091 1087
f 1091 1123 1125
f 1091 1126 1124
f 1091 1125 1126
f 1121 1127 1128
f 1123 1122 1125
f 1125 1122 1129
f 1073 1080 1074
f 745 1077 827
f 1074 1080 1078
f 1077 1076 827
f 1080 1130 1131
f 1076 1132 1133
f 1134 1136 1130
f 1132 1135 1133
f 1072 1076 1122
f 1080 1073 1130
f 1122 1076 1133
f 1130 1073 1134
f 1122 1133 1129
f 1073 1138 1134
f 1133 1137 1129
f 1121 1138 1073
f 1121 1128 1138
f 1133 1135 1137
f 839 840 1139
f 1142 840 841
f 811 1107 841
f 841 1107 1142
f 842 1143 1108
f 849 1140 843
f 843 1140 836
f 1140 1143 836
f 840 1142 1144
f 836 1143 842
f 1111 1107 1109
f 1145 1110 1108
f 1144 1139 840
f 1141 1146 1140
f 1144 1147 1139
f 1125 1129 1147
f 1128 1146 1141
f 1125 1144 1126
f 1146 1128 1145
f 1144 1111 1126
f 1128 1127 1145
f 1125 1147 1144
f 1142 1111 1144
f 1108 1143 1145
f 1103 1108 1110
f 1111 1142 1107
f 1140 1146 1143
f 1146 1145 1143
f 849 1141 1140
f 839 1139 902
f 903 1141 849
f 1147 1129 1139
f 1137 1139 1129
f 1128 1141 1138
f 1134 1138 1141
f 1134 1141 903
f 903 1136 1134
f 1117 1091 1124
f 1117 1120 1116
f 1124 1120 1117
f 1090 1118 1127
f 1118 1119 1127
f 1090 1127 1121
f 1126 1111 1120
f 1120 1111 1109
f 1126 1120 1124
f 1110 1127 1119
f 1110 1145 1127
f 649 858 1021
f 654 1021 858
f 706 1065 858
f 706 700 1065
f 1065 1066 858
f 858 1066 1150
f 858 1150 1148
f 708 857 1149
f 857 1151 1149
f 858 1148 1152
f 1148 1150 1152
f 859 862 860
f 860 1151 857
f 858 1152 654
f 860 862 1151
f 863 654 1152
f 862 864 1151
f 1149 869 708
f 1066 717 1150
f 714 1071 717
f 717 1071 1150
f 869 1149 1153
f 1150 1071 1154
f 1149 1151 1155
f 1151 864 1155
f 1150 872 1152
f 863 1152 872
f 1153 1149 1155
f 864 871 1155
f 871 887 1155
f 1154 1156 872
f 1150 1154 872
f 721 869 719
f 719 869 1153
f 719 1153 1079
f 1154 1071 1156
f 1079 1153 1157
f 1155 1157 1153
f 1155 887 1157
f 872 1156 873
f 1157 887 1158
f 719 1079 1077
f 1075 1078 1071
f 1071 1078 1156
f 1078 1080 1131
f 1079 1157 1158
f 1156 1078 1159
f 1079 1158 1160
f 1078 1131 1159
f 873 1156 1159
f 873 1159 889
f 887 888 1158
f 888 898 1158
f 1077 1079 1076
f 1076 1079 1132
f 1079 1160 1132
f 1130 1136 1131
f 1160 1158 898
f 1132 1160 1161
f 1131 1136 900
f 1160 898 1161
f 1131 900 1159
f 1132 1161 1135
f 1137 1135 1161
f 1161 902 1137
f 902 1161 899
f 897 899 898
f 893 900 901
f 903 896 901
f 898 899 1161
f 900 1136 901
f 903 901 1136
f 1159 900 889
f 885 889 900
f 902 850 839
f 1139 1137 902
f 325 790 496
f 791 1096 496
f 481 326 1092
f 1092 326 1094
f 1096 498 496
f 1094 326 500
f 498 1096 1162
f 500 503 1163
f 498 1162 502
f 502 1164 1165
f 503 1166 1163
f 501 1167 503
f 497 502 1165
f 813 1168 1104
f 806 1169 918
f 918 1169 923
f 806 812 1169
f 812 1105 1169
f 1168 813 924
f 813 925 924
f 1169 1170 923
f 1096 1099 1162
f 1094 1163 1105
f 1094 500 1163
f 1099 1104 1162
f 502 1162 1164
f 1105 1163 1169
f 1104 1168 1162
f 1163 1170 1169
f 1162 1168 1171
f 1162 1171 1164
f 1170 1163 1172
f 1168 924 1171
f 1164 1174 1165
f 1164 1171 1174
f 1172 1163 1173
f 1174 1171 1175
f 1171 1176 1175
f 332 507 939
f 331 943 508
f 508 943 1178
f 939 507 1179
f 943 945 1178
f 933 945 943
f 939 1179 944
f 1178 945 1180
f 944 1179 1181
f 504 1182 507
f 507 1182 1183
f 508 1184 509
f 508 1178 1184
f 507 1183 1179
f 1179 1185 1181
f 1179 1183 1185
f 1178 1180 1184
f 1184 1180 1186
f 929 949 951
f 927 1187 950
f 929 951 1176
f 950 1187 1188
f 944 951 949
f 946 950 945
f 927 950 946
f 945 950 1180
f 951 944 1181
f 950 1188 1180
f 1176 951 1181
f 1185 1176 1181
f 1185 1177 1176
f 1189 1186 1188
f 1189 1188 1187
f 1180 1188 1186
f 501 505 1167
f 497 1165 506
f 503 1167 1166
f 1167 505 1190
f 1166 1167 1190
f 506 1165 1191
f 1163 1166 1173
f 1165 1174 1175
f 1165 1175 1191
f 1166 1190 1189
f 1166 1189 1173
f 1176 1177 1175
f 506 1182 504
f 505 509 1190
f 506 1191 1182
f 1182 1191 1185
f 1183 1182 1185
f 509 1184 1190
f 1184 1186 1190
f 1191 1175 1177
f 1177 1185 1191
f 1186 1189 1190
f 923 1193 928
f 924 926 1192
f 923 1170 1193
f 1193 1187 928
f 924 1192 1171
f 1193 1170 1187
f 1192 926 1176
f 1170 1172 1187
f 1192 1176 1171
f 1172 1173 1187
f 1189 1187 1173
f 928 1187 927
f 929 1176 926
f 202 203 115
f 215 223 203
f 219 203 223
f 215 219 226
f 265 285 290
f 857 652 859

