# https://github.com/mikedh/trimesh
v -0.29673643 -0.01312398 -0.37555480
v -0.29688372 -0.01059085 -0.37584365
v -0.29717710 -0.01151310 -0.37387562
v -0.29688557 -0.01336299 -0.37292592
v -0.29522306 -0.01384184 -0.37389462
v -0.29439255 -0.01336298 -0.37584349
v -0.29522023 -0.01151355 -0.37642093
v -0.29717618 0.00314738 -0.37388448
v -0.29717701 0.00314298 -0.33682829
v -0.29717730 -0.00006244 -0.33338544
v -0.29216770 -0.01384480 -0.37053705
v -0.25075527 0.00004012 -0.37642095
v -0.24703966 -0.01384473 -0.32534570
v -0.25124057 -0.01384480 -0.31001469
v -0.29522361 -0.01384187 -0.25746719
v -0.29717731 -0.01151362 -0.25880394
v -0.29688559 -0.01336309 -0.16003582
v -0.29218092 -0.01384479 -0.25898232
v -0.24710517 -0.01384471 -0.26878564
v -0.29717731 -0.00007157 -0.15939077
v -0.29717727 -0.01151339 -0.15615847
v -0.24710516 -0.01384479 -0.20329825
v -0.29218664 -0.01384479 -0.15100507
v -0.29522364 -0.01384205 -0.15858042
v -0.24710545 -0.01384479 -0.13071577
v -0.29522367 -0.01384187 -0.00608538
v -0.29688567 -0.01336304 0.00117459
v -0.29215249 -0.01384479 -0.05886844
v -0.29717731 -0.01151375 0.00091926
v -0.29717731 -0.00007182 0.00819713
v -0.24710520 -0.01384479 0.00229045
v -0.29215408 -0.01384479 0.03484701
v -0.23869608 -0.01384479 -0.32577579
v -0.16886291 -0.01151362 -0.37642095
v -0.18081707 -0.01384479 -0.37056844
v -0.12561278 -0.01384187 -0.37389469
v -0.20072463 -0.00001100 -0.37642095
v -0.24710402 -0.01384172 -0.32120398
v -0.24710745 -0.01384236 -0.30629987
v -0.24710600 -0.01384219 -0.28555929
v -0.24291159 -0.01384284 -0.32555446
v -0.24301011 -0.01330540 -0.32155147
v -0.24177624 -0.01059090 -0.32029029
v -0.23887893 -0.01151518 -0.32210575
v -0.23879838 -0.01336490 -0.32325352
v -0.24451488 -0.01336346 -0.31710767
v -0.24330348 -0.01151596 -0.31710933
v -0.24177518 -0.00281990 -0.32029298
v -0.23887739 -0.00418357 -0.32210744
v -0.24330274 -0.00418417 -0.31710562
v -0.23461256 -0.01151547 -0.32254811
v -0.23461631 -0.01336687 -0.32347524
v -0.23460811 -0.00418357 -0.32255221
v -0.24451923 -0.01336362 -0.29668136
v -0.24330608 -0.01151378 -0.28687526
v -0.24330279 -0.00841741 -0.29950654
v -0.24451794 -0.01336513 -0.28708609
v -0.24451892 -0.01336379 -0.27552157
v -0.24330272 -0.00832579 -0.24236886
v -0.20350048 -0.01151687 -0.32254910
v -0.20470948 -0.01336685 -0.32347554
v -0.18629415 -0.00417544 -0.32255145
v -0.07694215 -0.01336295 -0.37584352
v -0.14708921 -0.01384476 -0.32577634
v -0.12879898 0.00004752 -0.37642095
v -0.07299712 -0.01384479 -0.37056304
v -0.17744737 -0.00418354 -0.32254929
v -0.15054162 -0.01336667 -0.32347459
v -0.14761653 -0.01151770 -0.32254845
v -0.12568361 -0.01384449 -0.32578033
v -0.12179013 -0.01336541 -0.32347323
v -0.02855113 -0.01151362 -0.37642095
v -0.09753142 -0.01384461 -0.32578048
v -0.07220862 0.00009806 -0.37642095
v -0.05774326 -0.01384468 -0.32577984
v -0.11368583 -0.01151706 -0.32254816
v -0.10314265 -0.01336530 -0.32347321
v -0.09092149 -0.01151934 -0.32254777
v -0.06561886 -0.01336631 -0.32347437
v -0.06012018 -0.00418424 -0.32254912
v -0.06073403 -0.01151642 -0.32254756
v -0.00292299 -0.00008524 -0.37642094
v 0.08209508 -0.01384187 -0.37389469
v -0.01502861 -0.01384475 -0.32577752
v 0.05565433 -0.01384479 -0.37055146
v -0.04024026 -0.01151483 -0.32254670
v -0.04392296 -0.01336607 -0.32347391
v -0.04937744 -0.00418357 -0.32254538
v -0.01467577 -0.01336657 -0.32347457
v -0.01064171 -0.01151638 -0.32254781
v -0.00410583 -0.00789862 -0.32254518
v -0.00185969 -0.00418394 -0.32254599
v 0.00380061 -0.01384407 -0.32577924
v 0.00549939 -0.01151602 -0.32254275
v 0.01341125 -0.01336615 -0.32347327
v -0.24451847 -0.01336685 -0.24718459
v -0.24330622 -0.01151667 -0.24512812
v -0.24451857 -0.01336685 -0.18776164
v -0.24330619 -0.01151667 -0.18563806
v -0.24330272 -0.00839381 -0.18342234
v -0.24330271 -0.00418371 -0.07604287
v -0.24330616 -0.01151668 -0.15055194
v -0.24451857 -0.01336685 -0.13394748
v -0.24330272 -0.00835307 -0.12967866
v -0.24330635 -0.01151662 -0.11351187
v -0.24451877 -0.01336685 -0.04228165
v -0.24330642 -0.01151660 -0.03989458
v -0.24330278 -0.00835830 -0.06640237
v -0.24330661 -0.00418351 -0.06580105
v -0.24451824 -0.01336685 -0.00809111
v -0.24330542 -0.01151700 0.00437313
v -0.24330266 -0.00836328 0.00224344
v -0.29522361 -0.01384187 0.14355277
v -0.29717731 -0.01151361 0.14102160
v -0.29216914 -0.01384479 0.11761304
v -0.29688567 -0.01336295 0.13669778
v -0.29717731 -0.00007154 0.13664623
v -0.24710536 -0.01384479 0.09765320
v -0.29688554 -0.01336319 0.29611942
v -0.24710567 -0.01384479 0.19112177
v -0.29214946 -0.01384479 0.20812774
v -0.29717723 -0.01151337 0.29582574
v -0.29717731 -0.00007253 0.25281631
v -0.29522364 -0.01384205 0.29761580
v -0.29221825 -0.01384479 0.28568259
v -0.24710739 -0.01384478 0.31631203
v -0.29717719 -0.01151333 0.33915446
v -0.29717731 -0.00005620 0.37308380
v -0.29688530 -0.01336399 0.34022131
v -0.29522389 -0.01384219 0.34028935
v -0.29221958 -0.01384479 0.34193398
v -0.29688571 -0.01336262 0.37405708
v -0.29717731 -0.01151362 0.37308382
v -0.29521015 -0.01384450 0.37308222
v -0.29674033 -0.01312203 0.37518090
v -0.29688567 -0.01151459 0.37503460
v -0.29521960 -0.01151139 0.37561140
v -0.29520639 -0.01336652 0.37503459
v -0.29688567 0.00314842 0.37503460
v -0.23879892 -0.01384474 0.32475999
v -0.23122272 -0.01384479 0.37308382
v -0.28941517 -0.00014951 0.37560997
v -0.28794546 -0.00829500 0.37560031
v -0.28807041 -0.00418379 0.37560032
v -0.20170360 -0.01151654 0.37561007
v -0.24451801 -0.01336685 0.01643550
v -0.24451860 -0.01336685 0.04515037
v -0.24330597 -0.01151661 0.04055352
v -0.24330276 -0.00825732 0.05359279
v -0.24330654 -0.00418294 0.10211423
v -0.24330568 -0.01151677 0.07103535
v -0.24451834 -0.01336685 0.08724953
v -0.24330342 -0.01151641 0.09712639
v -0.24330251 -0.00837142 0.09744794
v -0.24330254 -0.01151649 0.13141802
v -0.24451785 -0.01336685 0.12629452
v -0.24330270 -0.00831943 0.15076721
v -0.24451822 -0.01336683 0.17812300
v -0.24330261 -0.01151644 0.16483850
v -0.24451738 -0.01336689 0.21216010
v -0.24330128 -0.01151532 0.21755151
v -0.24330663 -0.00418357 0.31629965
v -0.24451769 -0.01336689 0.25051485
v -0.24330218 -0.01151704 0.25997820
v -0.24330264 -0.00838065 0.28384402
v -0.24330240 -0.01151659 0.31629864
v -0.24451777 -0.01336654 0.31630505
v -0.24704080 -0.01384397 0.32041177
v -0.24243658 -0.01348585 0.32074450
v -0.24177558 -0.01151465 0.31948223
v -0.24291257 -0.01384284 0.32452608
v -0.23742894 -0.01336490 0.32244557
v -0.23887677 -0.01151444 0.32129515
v -0.24177624 -0.00418357 0.31948234
v -0.23887739 -0.00418357 0.32129461
v -0.23459815 -0.01384479 0.32496936
v -0.23322180 -0.01336684 0.32266767
v -0.23460120 -0.01151515 0.32173735
v -0.23460809 -0.00418357 0.32173549
v -0.20371385 -0.01151409 0.32173687
v -0.17994028 -0.01384479 0.32496832
v -0.20030365 -0.01336685 0.32266764
v -0.13186801 -0.00418551 0.37560032
v -0.14206498 -0.01336685 0.37503460
v -0.16182520 -0.01336685 0.32266754
v -0.15433000 -0.01151617 0.32173825
v -0.15531595 -0.00825973 0.32173549
v -0.12920994 -0.01384479 0.32496860
v -0.12145738 -0.01336685 0.32266735
v -0.11840693 -0.01151453 0.32173692
v -0.13557507 -0.01384479 0.37308382
v -0.13170826 -0.00829684 0.37560032
v -0.02484308 -0.00418357 0.32173549
v -0.07370049 -0.01336685 0.32266757
v -0.06035218 -0.00810427 0.32173549
v -0.06501563 -0.01384479 0.32496907
v -0.07421515 -0.01151622 0.32173825
v -0.00270888 -0.01151596 0.37561007
v -0.12762885 -0.00418253 0.37561008
v -0.04344890 -0.01384479 0.37308382
v -0.03922039 -0.01151619 0.32173833
v -0.03959470 -0.01336685 0.32266802
v 0.02822653 -0.01384479 0.32496850
v 0.01156075 -0.01336685 0.32266807
v 0.01219222 -0.01151617 0.32173825
v 0.01426100 -0.00808192 0.32173550
v -0.00021623 -0.00418416 0.37561007
v 0.00094946 -0.01336516 0.37503460
v -0.00429575 -0.00829697 0.37560032
v -0.00395464 -0.01384450 0.37308484
v 0.00349469 -0.01384187 0.37308383
v -0.29688254 0.00407115 -0.37583999
v -0.29521933 0.00314362 -0.37641847
v -0.29673643 0.00511675 -0.37554992
v -0.29521490 0.00499551 -0.37583970
v -0.29522513 0.00547446 -0.37388927
v -0.29688468 0.00499649 -0.37387154
v -0.29522094 0.00547472 -0.31444150
v -0.29688410 0.00499580 -0.32958870
v -0.29198069 0.00547764 -0.36849473
v -0.25896987 0.00314647 -0.37641860
v -0.26186715 0.00499259 -0.37584103
v -0.26935390 0.00546942 -0.37389264
v -0.26833683 0.00547758 -0.36484012
v -0.25276656 0.00546757 -0.37389394
v -0.29213205 0.00547765 -0.31122149
v -0.29717438 0.00314647 -0.20399753
v -0.29688274 0.00499580 -0.20399758
v -0.23673383 0.00547764 -0.30101066
v -0.29215572 0.00547765 -0.23899704
v -0.29522068 0.00547472 -0.13818920
v -0.25687655 0.00547764 -0.18288405
v -0.29214998 0.00547765 -0.14284774
v -0.29688274 0.00499483 -0.00673037
v -0.29717438 0.00314646 -0.00461126
v -0.29217054 0.00547765 -0.07063837
v -0.22685020 0.00547763 -0.08735952
v -0.29522031 0.00547465 -0.00887743
v -0.29522081 0.00546789 0.00369029
v -0.23541923 0.00547762 -0.03343383
v -0.29221826 0.00547755 -0.00818271
v -0.24767583 0.00547758 -0.36050476
v -0.23488775 0.00314648 -0.37641839
v -0.23372092 0.00499288 -0.37584113
v -0.22962991 0.00546838 -0.36778569
v -0.22648559 0.00547753 -0.35614126
v -0.20755855 0.00546810 -0.36332462
v -0.19961848 0.00314670 -0.37641838
v -0.14488023 0.00546789 -0.37389224
v -0.19759013 0.00499288 -0.37584102
v -0.20666103 0.00547759 -0.35216444
v -0.18834828 0.00546821 -0.35958163
v -0.18538271 0.00547763 -0.34770851
v -0.24161823 0.00201307 -0.32006985
v -0.23887641 0.00040465 -0.32166364
v -0.24089352 0.00408284 -0.31916274
v -0.23879838 0.00362148 -0.32006985
v -0.24314471 0.00040465 -0.31710564
v -0.24161823 0.00362148 -0.31710564
v -0.23872035 0.00546789 -0.31710564
v -0.23460811 0.00040465 -0.32210744
v -0.23460811 0.00362148 -0.32029224
v -0.23460764 0.00546789 -0.31710565
v -0.20581671 0.00546789 -0.28420200
v -0.19422196 0.00547762 -0.27961641
v -0.20522122 0.00547758 -0.24890232
v -0.17509510 0.00362149 -0.32029005
v -0.17079424 0.00546789 -0.31710558
v -0.20170340 0.00546789 -0.28420191
v -0.20581661 0.00546789 -0.28008776
v -0.19797025 0.00547762 -0.26994768
v -0.19759038 0.00546789 -0.28420177
v -0.20157562 0.00522990 -0.28008870
v -0.19802131 0.00430718 -0.28010333
v -0.20144687 0.00499288 -0.27597514
v -0.19858021 0.00338446 -0.27667581
v -0.19845145 0.00314647 -0.27323267
v -0.15039288 0.00314666 -0.37641832
v -0.14842841 0.00499288 -0.37584095
v -0.16329368 0.00546810 -0.35456747
v -0.16913528 0.00547759 -0.34556378
v -0.14411992 0.00547764 -0.33932957
v -0.14593860 0.00546795 -0.35117736
v -0.11531227 0.00314688 -0.37641867
v -0.11327476 0.00499288 -0.37584137
v -0.12679563 0.00546796 -0.34759424
v -0.12209816 0.00547762 -0.33462593
v -0.17629322 0.00040465 -0.32210553
v -0.19471978 0.00362148 -0.28012084
v -0.12286501 0.00546789 -0.28420191
v -0.19515367 -0.00168756 -0.27602230
v -0.19583741 0.00192236 -0.27737809
v -0.19682745 0.00022325 -0.27463433
v -0.19571256 -0.00222701 -0.27393575
v -0.19322435 -0.00330765 -0.27463712
v -0.19197810 -0.00222706 -0.27604072
v -0.19322123 0.00069916 -0.27741117
v -0.18927591 -0.00331061 -0.27184654
v -0.18485713 0.00546796 -0.26798619
v -0.10778941 0.00547255 -0.27369275
v -0.05760299 0.00040455 -0.32210423
v -0.10783474 0.00546789 -0.26771727
v -0.07488512 -0.00222695 -0.27604083
v -0.11645163 -0.00331060 -0.22085247
v -0.09444555 -0.00331060 -0.27185508
v -0.04129552 -0.00330768 -0.27463725
v -0.08941112 0.00546792 -0.34098218
v -0.10385113 0.00546805 -0.34255568
v -0.10436145 0.00547762 -0.33174662
v -0.06983125 0.00314668 -0.37641836
v -0.06785093 0.00499288 -0.37584108
v -0.06529633 0.00546789 -0.37389254
v -0.07841128 0.00547754 -0.32619108
v -0.06895427 0.00546793 -0.33532875
v -0.06311349 0.00547757 -0.32207339
v -0.06450234 0.00546789 -0.31710565
v -0.08179558 0.00547765 -0.28011938
v -0.05715718 -0.00331060 -0.24301055
v -0.05318195 0.00362146 -0.32028935
v 0.03342415 0.00362148 -0.28012088
v -0.00431159 0.00546789 -0.37389178
v -0.04774430 0.00546790 -0.33095173
v -0.02857747 0.00546799 -0.32706883
v -0.00436962 0.00499287 -0.37584059
v 0.00423813 0.00314542 -0.37642079
v 0.00693431 0.00499588 -0.37584344
v 0.00421821 0.00547471 -0.37389370
v -0.00009400 0.00547122 -0.31687029
v -0.00495358 0.00546788 -0.32314702
v -0.04476806 0.00547760 -0.31868923
v -0.00825214 0.00546789 -0.28420191
v 0.00024449 0.00362149 -0.32029048
v -0.00435623 0.00040451 -0.32210176
v -0.02277405 0.00547762 -0.31386263
v -0.00761252 0.00547767 -0.28031649
v 0.02039989 0.00069922 -0.27741126
v 0.00158671 0.00547085 -0.27173186
v -0.00775631 0.00547753 -0.31222431
v 0.01881911 0.00546789 -0.31710579
v 0.00315534 0.00546889 -0.30715895
v 0.01739729 -0.00331060 -0.27182283
v -0.00141423 0.00546789 -0.26768818
v 0.00341822 0.00546791 -0.28415581
v 0.00441930 0.00547130 -0.27897845
v -0.24161823 0.00362148 -0.19165855
v -0.23872035 0.00546789 -0.17604067
v -0.21111578 0.00547763 -0.19324617
v -0.19094769 0.00547664 -0.23863400
v -0.20869776 0.00547757 -0.21577547
v -0.20180755 0.00547461 -0.21814696
v -0.19357301 0.00547465 -0.20927056
v -0.19921212 0.00547017 -0.20588613
v -0.19942119 0.00546941 -0.18524091
v -0.24314470 0.00040468 -0.07501974
v -0.21541783 0.00547758 -0.16424611
v -0.22415038 0.00547761 -0.10950715
v -0.24161824 0.00362148 -0.06985222
v -0.21963356 0.00547755 -0.13919266
v -0.20208699 0.00546796 -0.17991853
v -0.20303118 0.00546730 -0.15347285
v -0.20581661 0.00546789 -0.09778052
v -0.20911822 0.00546825 -0.12867187
v -0.19845145 0.00314647 -0.07375196
v -0.18928649 -0.00331060 -0.20465489
v -0.18569039 0.00547727 -0.25400856
v -0.17585212 0.00547750 -0.23866280
v -0.16250937 0.00547762 -0.22002044
v -0.17231005 0.00546799 -0.24864717
v -0.19571256 -0.00222695 -0.15532690
v -0.18998142 0.00547760 -0.15064921
v -0.15697283 0.00546794 -0.22807593
v -0.14674902 0.00546796 -0.21306489
v -0.14643424 0.00547763 -0.19777281
v -0.13331286 0.00546791 -0.19482404
v -0.19322435 -0.00330768 -0.07649405
v -0.18928380 -0.00331060 -0.14222610
v -0.12612355 0.00547764 -0.16916920
v -0.18933463 0.00547765 -0.09575576
v -0.12269253 -0.00331060 -0.14510200
v -0.13474766 0.00547753 -0.18107574
v -0.12109401 0.00547764 -0.09414895
v -0.10150170 0.00547760 -0.13500851
v -0.23872041 0.00546789 -0.05768488
v -0.24314758 0.00040465 -0.06211195
v -0.23200936 0.00547762 -0.05687832
v -0.21139527 0.00546803 -0.10170736
v -0.20113147 0.00546795 -0.08442611
v -0.20144687 0.00499288 -0.03125084
v -0.21747665 0.00546799 -0.07427671
v -0.21996686 0.00546797 -0.04772010
v -0.24162117 0.00362147 -0.06124373
v -0.24525196 0.00547738 -0.00784376
v -0.24518633 0.00546966 0.00181448
v -0.24314762 0.00040465 0.09608004
v -0.23872035 0.00546789 0.02521414
v -0.22587039 0.00546797 -0.02058880
v -0.23893403 0.00547751 -0.00325542
v -0.22874244 0.00546803 0.00873396
v -0.20170754 0.00546789 0.00432717
v -0.20581661 0.00546789 0.04093310
v -0.19753424 0.00547084 -0.00527770
v -0.19845147 0.00314648 0.09923310
v -0.19682743 0.00022323 -0.05798531
v -0.18931281 -0.00331060 -0.08548366
v -0.19571256 -0.00222695 0.00096806
v -0.15335104 0.00547764 -0.05371005
v -0.14511094 -0.00331060 -0.05593971
v -0.18932754 -0.00331060 0.01330724
v -0.18983810 0.00547764 -0.00870911
v -0.19021097 0.00547130 -0.00055034
v -0.12579107 -0.00331060 -0.00406531
v -0.09443594 0.00547292 -0.00262171
v -0.08676839 0.00547765 -0.00868563
v -0.06371762 0.00546789 -0.22479481
v -0.05380376 0.00546789 -0.16461693
v -0.05636235 -0.00331060 -0.17532930
v -0.11238654 0.00546791 -0.16605824
v -0.11797483 0.00547750 -0.15761894
v -0.10002239 0.00546801 -0.14876893
v -0.08782661 -0.00331060 -0.10620211
v -0.08978683 0.00546798 -0.13345385
v -0.07935827 0.00546792 -0.11999246
v 0.02357053 -0.00331060 -0.21125265
v 0.00268383 0.00546789 -0.20653665
v -0.00225235 -0.00331060 -0.16913843
v -0.02783324 -0.00331060 -0.11994392
v 0.02134782 0.00546789 -0.13477624
v -0.08304759 0.00547760 -0.10992196
v -0.06726735 -0.00331060 -0.06223114
v -0.07333031 0.00547739 -0.09504709
v -0.06704221 0.00546791 -0.10188384
v -0.06069262 0.00547761 -0.07745172
v -0.07960951 -0.00331060 -0.00081452
v -0.03970243 0.00547762 -0.04857274
v -0.03147300 -0.00331060 -0.01791361
v -0.00405743 0.00546789 -0.09537834
v -0.05278172 0.00546798 -0.08233035
v -0.04000378 0.00546795 -0.06435892
v 0.01883648 -0.00331060 -0.10600174
v -0.02322733 0.00546790 -0.04048500
v 0.01833230 -0.00331060 -0.05262244
v -0.00989144 0.00546792 0.00326136
v -0.02231098 0.00547760 -0.02468394
v -0.01174383 0.00547747 -0.00794141
v -0.01171044 0.00546797 -0.02511041
v -0.00024324 0.00547693 0.00072442
v -0.00225142 0.00546777 -0.01001297
v -0.29522068 0.00546789 0.11391598
v -0.29688274 0.00499288 0.11681823
v -0.24857381 0.00546790 0.01727299
v -0.25220189 0.00546789 0.04564875
v -0.25652757 0.00546790 0.07058386
v -0.29717438 0.00314647 0.15794859
v -0.26041205 0.00546790 0.09911831
v -0.26586793 0.00546791 0.12483551
v -0.26089721 0.00547127 0.12807621
v -0.29522068 0.00546789 0.22884756
v -0.29688275 0.00499280 0.32509251
v -0.27076740 0.00546792 0.15428575
v -0.26495793 0.00547112 0.15677042
v -0.27440836 0.00546791 0.17858379
v -0.26912372 0.00547127 0.18154484
v -0.25772681 0.00547112 0.16323902
v -0.26156914 0.00547115 0.18790395
v -0.27322919 0.00547109 0.21021859
v -0.26553385 0.00547110 0.21673337
v -0.29717441 0.00314659 0.37308972
v -0.27896630 0.00546794 0.20777471
v -0.28140579 0.00546791 0.23099346
v -0.27734940 0.00547127 0.23501518
v -0.26137446 0.00546792 0.22023655
v -0.28539343 0.00546794 0.25973516
v -0.28145434 0.00547109 0.26368813
v -0.26986135 0.00547120 0.24134100
v -0.26499252 0.00546790 0.24463456
v -0.27376031 0.00547110 0.27020231
v -0.26936604 0.00546792 0.27346698
v -0.29522527 0.00546657 0.31167421
v -0.29522046 0.00546889 0.33775944
v -0.29087813 0.00546801 0.28602672
v -0.28343947 0.00547163 0.28678200
v -0.28031917 0.00547764 0.29930753
v -0.27129924 0.00546799 0.29626548
v -0.28344891 0.00547757 0.32457850
v -0.28853395 0.00547763 0.34982115
v -0.29688302 0.00499378 0.37310112
v -0.29522025 0.00547188 0.37308964
v -0.29522371 0.00314666 0.37561007
v -0.29605157 0.00499629 0.37503473
v -0.29695589 0.00475781 0.37474198
v -0.29198145 0.00547473 0.37309348
v -0.28805916 0.00547765 0.36976435
v -0.20613639 0.00547765 0.36975871
v -0.24488011 0.00547118 0.02106751
v -0.24162116 0.00362148 0.10536581
v -0.23716160 0.00547112 0.02750998
v -0.23257335 0.00546791 0.03099704
v -0.24850607 0.00547112 0.04983180
v -0.25291903 0.00547124 0.07458153
v -0.24127405 0.00547112 0.05630071
v -0.23627349 0.00546789 0.05944633
v -0.23872035 0.00546789 0.11851722
v -0.19758896 0.00547082 0.09403539
v -0.20144828 0.00499288 0.10512642
v -0.20171146 0.00546789 0.11018621
v -0.24558237 0.00547107 0.08100873
v -0.25694371 0.00547115 0.10332074
v -0.24935594 0.00547120 0.10971879
v -0.24151231 0.00546790 0.08520000
v -0.24609736 0.00546790 0.11423532
v -0.25356931 0.00547109 0.13446972
v -0.24890502 0.00546789 0.13786451
v -0.24315054 0.00040469 0.10599847
v -0.20581700 0.00546789 0.15931382
v -0.19845439 0.00314649 0.11332805
v -0.19682743 0.00022323 0.10243436
v -0.18515639 0.00546789 0.00375804
v -0.19322435 -0.00330768 0.07980096
v -0.18936576 0.00547082 0.09151450
v -0.18516274 0.00546789 0.06501758
v -0.13386934 -0.00331060 0.07039724
v -0.10374384 0.00546789 0.00389198
v -0.18933812 -0.00331060 0.10886400
v -0.19571260 -0.00222693 0.10840879
v -0.14881070 0.00546789 0.12391368
v -0.19683035 0.00022320 0.11094043
v -0.18524399 0.00546789 0.15927920
v -0.13696999 -0.00331060 0.14618374
v -0.25237920 0.00546791 0.16614884
v -0.20178457 0.00546789 0.19494718
v -0.25725319 0.00546791 0.19147324
v -0.23872035 0.00546789 0.23999111
v -0.20144980 0.00499288 0.27105610
v -0.19762855 0.00547081 0.26755979
v -0.19845436 0.00314645 0.26968410
v -0.20221353 0.00546789 0.26627265
v -0.24162115 0.00362148 0.31629964
v -0.20581661 0.00546789 0.27105623
v -0.19322431 -0.00330782 0.19071220
v -0.19683016 0.00022302 0.18973883
v -0.18940235 -0.00331060 0.19040646
v -0.19571226 -0.00222750 0.19016730
v -0.18938127 0.00547082 0.26639845
v -0.15010562 -0.00331060 0.20033029
v -0.13307646 0.00546789 0.18572701
v -0.18521628 0.00546789 0.26665163
v -0.19571284 -0.00222688 0.27493030
v -0.19683035 0.00022321 0.27104357
v -0.18932227 -0.00331060 0.27422921
v -0.19322435 -0.00330768 0.27422921
v -0.12779392 -0.00331060 0.27422921
v -0.11282901 0.00546789 0.26692408
v -0.12163046 0.00546789 0.22243739
v -0.08318659 0.00546789 0.08269083
v -0.06108328 -0.00331060 0.04953590
v -0.03669255 0.00546789 0.04014287
v -0.08070050 -0.00331060 0.11195315
v -0.08419728 0.00546789 0.13583510
v -0.01454252 -0.00331060 0.07593296
v -0.00125257 0.00546789 0.08973906
v 0.02435062 -0.00331060 0.01864669
v -0.00126942 0.00546796 0.01501809
v 0.01642680 0.00546794 0.04082488
v -0.01749340 0.00546789 0.13657366
v -0.05462852 -0.00331060 0.16799609
v 0.00433154 -0.00331060 0.13566101
v -0.08623046 -0.00331060 0.22219580
v -0.03261456 0.00546789 0.18226066
v -0.04935140 0.00546789 0.22949038
v -0.00279449 -0.00331060 0.23387816
v 0.03520288 -0.00331060 0.20373169
v -0.03794748 -0.00331060 0.27422921
v -0.01539732 0.00546789 0.26693269
v 0.02719248 0.00546789 0.22820262
v -0.24315056 0.00040465 0.31629965
v -0.21370791 0.00546796 0.28374453
v -0.23847910 0.00546798 0.30831461
v -0.22970384 0.00546823 0.29972133
v -0.19759019 0.00546789 0.28339591
v -0.24953319 0.00546790 0.31805777
v -0.24853155 0.00547762 0.33065314
v -0.24037524 0.00547647 0.32889202
v -0.23872035 0.00546789 0.31629965
v -0.22642462 0.00547752 0.31572596
v -0.24170016 0.00040465 0.31926191
v -0.24204350 0.00269876 0.31835675
v -0.23887934 0.00040465 0.32085374
v -0.24017075 0.00362148 0.31926191
v -0.23511587 0.00547731 0.32437018
v -0.23460806 0.00040465 0.32129461
v -0.23597839 0.00362148 0.31948234
v -0.20581664 0.00546789 0.27516949
v -0.20715818 0.00546817 0.27677676
v -0.22207013 0.00546832 0.29203614
v -0.20930627 0.00547695 0.29797607
v -0.20157660 0.00522990 0.27516949
v -0.20170340 0.00546789 0.27928270
v -0.19858118 0.00338446 0.27379907
v -0.19730537 0.00390532 0.27826537
v -0.20242725 0.00547755 0.29201582
v -0.19347740 0.00546789 0.28339573
v -0.21581369 0.00547764 0.30587388
v -0.17222668 0.00499580 0.37503460
v -0.16468622 0.00547472 0.37309357
v -0.19695716 0.00046122 0.27449842
v -0.19515367 -0.00168853 0.27553819
v -0.19583839 0.00069727 0.27677205
v -0.19320968 0.00069547 0.27700313
v -0.19321875 -0.00223008 0.27563195
v -0.19334521 0.00362147 0.27931478
v -0.19010530 0.00547760 0.27679481
v -0.18111835 0.00547524 0.27873580
v -0.18327023 0.00547099 0.27178243
v -0.17661499 0.00547765 0.28753694
v -0.10299112 -0.00223085 0.27563182
v -0.16051639 0.00547125 0.27614257
v -0.16750196 0.00547434 0.28307353
v -0.13905869 0.00546789 0.28339591
v -0.14412109 0.00547764 0.33473230
v -0.06597390 0.00069532 0.27700322
v -0.14579895 0.00547058 0.28292545
v -0.15438960 0.00547758 0.29075498
v -0.08969578 0.00547082 0.27105749
v -0.13848414 0.00547080 0.27929708
v -0.13437166 0.00547752 0.29422170
v -0.11887464 0.00546733 0.28470825
v -0.09378563 0.00546789 0.31629965
v -0.12771381 -0.00007155 0.37561007
v -0.10610058 0.00547765 0.36972306
v -0.10795120 0.00314647 0.37561007
v -0.11604033 0.00547757 0.29764945
v -0.09901161 0.00547754 0.30020619
v -0.09569250 0.00546814 0.29091595
v -0.02484342 0.00362148 0.27931489
v -0.07596665 0.00546801 0.29464832
v -0.07722429 0.00547756 0.30485016
v -0.03257679 0.00546789 0.28339591
v -0.06136224 0.00546797 0.29628884
v 0.02725444 0.00362148 0.31948234
v -0.05154210 0.00547764 0.31149459
v 0.01217391 0.00040465 0.32129461
v -0.00764064 0.00547471 0.37309360
v -0.00111981 0.00499452 0.37503460
v -0.00460949 0.00547084 0.27918042
v -0.00385356 0.00546790 0.28336463
v -0.04487636 0.00546802 0.30042380
v -0.03115812 0.00546820 0.30458958
v -0.03169230 0.00547757 0.31513643
v 0.06152991 -0.00223085 0.27563182
v -0.00177737 0.00547085 0.27111782
v 0.06399803 -0.00331060 0.27422921
v 0.00705112 0.00547768 0.27951778
v -0.00442142 0.00546783 0.30906957
v 0.03220077 0.00546789 0.31629965
v -0.00846171 0.00547763 0.31945045
v -0.00435677 0.00547135 0.31373341
v 0.00323293 0.00546839 0.32660289
v -0.00780199 0.00547760 0.36975145
v 0.01802667 0.00314635 0.37561007
v 0.00349972 0.00546790 0.37308386
v 0.11431377 -0.01336295 -0.37584352
v 0.02659041 -0.01384471 -0.32577685
v 0.08464130 -0.01151362 -0.37642095
v 0.06657229 -0.01384472 -0.32577640
v 0.02053225 -0.00833052 -0.32254246
v 0.02990772 -0.01151707 -0.32254438
v 0.04364427 -0.01336693 -0.32347540
v 0.07095247 -0.00418358 -0.32254551
v 0.06958347 -0.01151566 -0.32254373
v 0.06859865 -0.00824724 -0.32254238
v 0.07029781 -0.01336628 -0.32347466
v 0.14114639 0.00314647 -0.37642095
v 0.13509149 -0.01384475 -0.32577628
v 0.14834394 -0.01384479 -0.37053753
v 0.19085528 -0.01151362 -0.37642095
v 0.10053127 -0.01151469 -0.32254381
v 0.08231439 -0.00418357 -0.32254929
v 0.10636793 -0.01336685 -0.32347428
v 0.12529387 -0.01151587 -0.32254571
v 0.14027268 -0.01151610 -0.32254348
v 0.20193485 -0.00418391 -0.32254933
v 0.14272513 -0.01336624 -0.32347490
v 0.21357512 -0.01384479 -0.37054628
v 0.20386800 -0.01384464 -0.32577493
v 0.19622980 -0.01151559 -0.32254385
v 0.19960860 -0.01336657 -0.32347451
v 0.29488438 -0.01384183 -0.37389462
v 0.29571850 -0.01336290 -0.37584353
v 0.24257931 -0.01384470 -0.32533253
v 0.29488391 0.00314645 -0.37642082
v 0.29489104 -0.01151362 -0.37642095
v 0.24669731 -0.01384479 -0.32121876
v 0.20847412 -0.01151761 -0.32254892
v 0.21117417 -0.00417552 -0.32255150
v 0.23413396 -0.01384149 -0.32577913
v 0.22076359 -0.01336304 -0.32347577
v 0.23427435 -0.01151368 -0.32254831
v 0.23428043 -0.00418357 -0.32255221
v 0.23430052 -0.01336398 -0.32347442
v 0.23846485 -0.01384284 -0.32555446
v 0.23854306 -0.01151275 -0.32210404
v 0.23854288 -0.01336685 -0.32303211
v 0.23854288 -0.00418357 -0.32210744
v 0.24143968 -0.01151526 -0.32029014
v 0.24267852 -0.01348487 -0.32087162
v 0.24297118 -0.01151380 -0.31710484
v 0.24418468 -0.01336696 -0.31575327
v 0.24677372 -0.01384479 -0.31710765
v 0.24143978 -0.00418357 -0.32029224
v 0.24297114 -0.00418357 -0.31710565
v 0.24297114 -0.01151406 -0.30682213
v 0.24418549 -0.01336685 -0.30545220
v 0.24297114 -0.01151406 -0.29448340
v 0.24418549 -0.01336685 -0.29722626
v 0.24677515 -0.01384479 -0.28830732
v 0.24418549 -0.01336685 -0.28900033
v 0.24297114 -0.01151489 -0.28214350
v 0.24418278 -0.01336685 -0.27974561
v 0.24677719 -0.01384478 -0.25960178
v 0.24297114 -0.01151406 -0.26980468
v 0.24418549 -0.01336685 -0.26843524
v 0.24297114 -0.01151478 -0.25970433
v 0.24419200 -0.01336694 -0.26035976
v 0.24418024 -0.01336596 -0.25320603
v 0.24418332 -0.01336695 -0.23353696
v 0.24677265 -0.01384480 -0.23198308
v 0.24297114 -0.01151489 -0.23278852
v 0.24297114 -0.00418357 -0.11122291
v 0.24297114 -0.01151478 -0.20807642
v 0.24418758 -0.01336685 -0.21408593
v 0.24677622 -0.01384476 -0.19620092
v 0.24418251 -0.01336672 -0.20108802
v 0.24297114 -0.01151574 -0.18330097
v 0.24418401 -0.01336674 -0.18371308
v 0.24677599 -0.01384475 -0.17535498
v 0.24297114 -0.01151398 -0.16055118
v 0.24418979 -0.01336673 -0.16207101
v 0.24418062 -0.01336685 -0.15532681
v 0.24677385 -0.01384479 -0.15047695
v 0.24297114 -0.01151654 -0.14847028
v 0.24418549 -0.01336685 -0.14915748
v 0.24418820 -0.01336685 -0.13784687
v 0.24297114 -0.01151902 -0.13407799
v 0.24677344 -0.01384480 -0.12653101
v 0.24418549 -0.01336685 -0.12859240
v 0.24297114 -0.01151646 -0.12370926
v 0.24418372 -0.01336682 -0.12116538
v 0.24677654 -0.01384475 -0.10046002
v 0.24418483 -0.01336682 -0.09872418
v 0.24297114 -0.01151512 -0.09294010
v 0.24418338 -0.01336685 -0.09057241
v 0.24418409 -0.01336666 -0.06392509
v 0.24677781 -0.01384471 -0.05583365
v 0.24297114 -0.01151459 -0.06024934
v 0.29489105 -0.01384479 -0.08278696
v 0.24418543 -0.01336627 -0.05455798
v 0.24297114 -0.01151534 -0.04756909
v 0.24418470 -0.01336687 -0.04746401
v 0.24418294 -0.01336685 -0.02370880
v 0.24297114 -0.01151555 -0.02302527
v 0.24677581 -0.01384479 -0.01236084
v 0.24297114 -0.01151571 -0.00245720
v 0.24418603 -0.01336685 -0.00314417
v 0.29489051 -0.01384478 -0.00048506
v 0.29489104 -0.01384480 -0.37053387
v 0.29662724 -0.01312203 -0.37555480
v 0.29654920 -0.01336615 -0.37387679
v 0.29684221 -0.01151360 -0.37389175
v 0.29654921 -0.01151459 -0.37584352
v 0.29654921 0.00314789 -0.37584148
v 0.29683207 -0.00829651 -0.36643010
v 0.29684182 -0.00417997 -0.36612156
v 0.29684182 -0.01151654 -0.23278873
v 0.29654921 -0.01336685 -0.26774948
v 0.29489105 -0.01384479 -0.22261880
v 0.29683207 -0.00829679 -0.17931939
v 0.29684182 -0.00418351 -0.14060654
v 0.29654921 -0.01336685 -0.11351097
v 0.29684182 -0.01151655 -0.00298022
v 0.29683207 -0.00829701 -0.00453782
v 0.29684182 -0.00418378 -0.00043282
v 0.29654928 -0.01336669 0.02601402
v 0.24418338 -0.01336685 0.01847555
v 0.24677597 -0.01384479 0.02219628
v 0.24297114 -0.01151456 0.02221947
v 0.24297114 -0.00418357 0.12862840
v 0.24418368 -0.01336685 0.02658891
v 0.24297114 -0.01151555 0.05512103
v 0.24677597 -0.01384479 0.05466700
v 0.24418474 -0.01336685 0.04953247
v 0.24418527 -0.01336685 0.05733580
v 0.24418338 -0.01336685 0.08017079
v 0.24677660 -0.01384479 0.09161810
v 0.24297114 -0.01151654 0.08185729
v 0.24418549 -0.01336685 0.08939745
v 0.24297114 -0.01151902 0.09625137
v 0.24418549 -0.01336685 0.09762399
v 0.24418549 -0.01336685 0.10585054
v 0.24297114 -0.01151902 0.11270361
v 0.24418549 -0.01336685 0.11407574
v 0.24677624 -0.01384479 0.12140318
v 0.24418549 -0.01336685 0.12230228
v 0.24297114 -0.01151654 0.12712311
v 0.24418235 -0.01336685 0.12960777
v 0.24677575 -0.01384479 0.17615879
v 0.24418368 -0.01336685 0.16866087
v 0.24297114 -0.01151530 0.17028887
v 0.29489105 -0.01384479 0.15165820
v 0.24417900 -0.01336685 0.17577038
v 0.24297114 -0.01151406 0.18262760
v 0.24418278 -0.01336685 0.18502607
v 0.24297114 -0.01151489 0.19496672
v 0.24418278 -0.01336685 0.19736509
v 0.24677597 -0.01384479 0.20097403
v 0.24297114 -0.01151555 0.20730770
v 0.24418474 -0.01336685 0.20741228
v 0.24418338 -0.01336685 0.23235279
v 0.24297114 -0.01151654 0.23403593
v 0.24677597 -0.01384479 0.23972879
v 0.24418549 -0.01336685 0.24157944
v 0.24297114 -0.01151654 0.24638349
v 0.24418368 -0.01336685 0.24869263
v 0.24297114 -0.00418357 0.31629965
v 0.24418062 -0.01336685 0.27653411
v 0.24677678 -0.01384479 0.28381355
v 0.06772317 -0.00811780 0.32173549
v 0.06509902 -0.01336684 0.32266823
v 0.06570346 -0.01151614 0.32173819
v 0.04387533 -0.01384479 0.36972812
v 0.11534208 -0.01151362 0.37561007
v 0.10882982 -0.01336295 0.37503460
v 0.23428036 -0.00418357 0.32173549
v 0.12459919 -0.01384479 0.32496822
v 0.13761634 -0.01336684 0.32266809
v 0.13929070 -0.01151616 0.32173821
v 0.14125827 -0.00810068 0.32173550
v 0.12597619 -0.01384479 0.36974160
v 0.12528230 -0.01384187 0.37308382
v 0.15562249 0.00314647 0.37561007
v 0.18800723 -0.01336685 0.32266794
v 0.23836619 -0.01384479 0.32496885
v 0.19620399 -0.00810337 0.32173549
v 0.19200800 -0.01151617 0.32173825
v 0.21648501 -0.01384479 0.36972374
v 0.29489091 -0.01336295 0.37503460
v 0.29489102 -0.01384187 0.37308382
v 0.29489102 -0.01151362 0.37561007
v 0.23427885 -0.01151507 0.32173671
v 0.23564598 -0.01336685 0.32266699
v 0.24297114 -0.01151468 0.28544653
v 0.24419255 -0.01336686 0.28476793
v 0.24418062 -0.01336685 0.29299625
v 0.24297116 -0.01151559 0.31629939
v 0.24677637 -0.01384479 0.32041098
v 0.24418692 -0.01336685 0.30896052
v 0.24418294 -0.01336650 0.31767978
v 0.23991818 -0.01336685 0.32222513
v 0.23854222 -0.01151556 0.32129606
v 0.23854288 -0.00418357 0.32129461
v 0.24143951 -0.01244207 0.31948336
v 0.24334179 -0.01360582 0.32131997
v 0.24258099 -0.01384479 0.32474749
v 0.24669716 -0.01384479 0.32452608
v 0.24143978 -0.00555497 0.31948234
v 0.29489105 -0.01384479 0.29149964
v 0.29489126 0.00314771 0.37561007
v 0.29489106 -0.01384479 0.36971392
v 0.25895913 -0.00829663 0.37561007
v 0.26135278 -0.00075287 0.37560981
v 0.26306744 -0.00418348 0.37560032
v 0.29684182 -0.01151682 0.02837103
v 0.29684182 0.00314677 -0.02129220
v 0.29683207 -0.01151654 0.03254815
v 0.29684182 -0.00829403 0.03266089
v 0.29654921 -0.01336685 0.15177900
v 0.29683207 -0.01151654 0.15175220
v 0.29684182 -0.00829703 0.15580796
v 0.29684182 0.00314647 0.13532679
v 0.29684182 -0.01151657 0.15602161
v 0.29684182 0.00314647 0.25743798
v 0.29654921 -0.01336680 0.37308557
v 0.29684182 -0.01151654 0.29203901
v 0.29489105 -0.00829679 0.37561007
v 0.29489105 -0.00418357 0.37560032
v 0.29684182 0.00314648 0.34099732
v 0.29684182 -0.01151654 0.37308382
v 0.29684182 0.00314281 0.37308407
v 0.29640290 -0.01348390 0.37474198
v 0.29654921 -0.01243828 0.37503460
v 0.29654940 0.00222605 0.37503330
v 0.00877640 0.00547765 -0.37057069
v 0.00814866 0.00547765 -0.31501745
v 0.02561538 0.00547763 -0.31234896
v 0.09695430 0.00547765 -0.37051542
v 0.07355917 0.00547762 -0.30113284
v 0.00427285 0.00040466 -0.32210451
v 0.01551767 0.00546795 -0.30138512
v 0.07952911 0.00362148 -0.32029224
v 0.04211940 0.00547754 -0.30819454
v 0.03355236 0.00546795 -0.29806488
v 0.07318384 -0.00222695 -0.27604083
v 0.11228697 0.00547081 -0.28008809
v 0.05771835 0.00546789 -0.26768022
v 0.05467410 0.00546798 -0.29361468
v 0.10497220 0.00546789 -0.28420191
v 0.07996899 0.00040460 -0.32210703
v 0.05525202 0.00547742 -0.30421273
v 0.07249708 0.00546817 -0.29097182
v 0.09787522 0.00546778 -0.28455326
v 0.19289471 -0.00330768 -0.27463725
v 0.16229940 0.00547472 -0.37389469
v 0.08790639 0.00547764 -0.29979750
v 0.16458189 0.00547764 -0.33024666
v 0.18338448 0.00547765 -0.37056855
v 0.11159983 0.00547753 -0.29429859
v 0.10356234 -0.00331060 -0.27184923
v 0.08861675 -0.00331060 -0.22359961
v 0.15686340 0.00547082 -0.27190377
v 0.15064585 0.00546789 -0.31710565
v 0.12967846 0.00547763 -0.29158860
v 0.11168252 0.00546982 -0.28569714
v 0.19302151 0.00069922 -0.27741126
v 0.13167560 0.00546789 -0.24056695
v 0.13108845 0.00547162 -0.28391137
v 0.18536538 0.00546790 -0.26777604
v 0.19289549 -0.00331061 -0.27183297
v 0.29488976 0.00499579 -0.37584348
v 0.23838681 0.00362148 -0.32029224
v 0.19314830 0.00546789 -0.28420191
v 0.15262034 0.00547742 -0.28763434
v 0.13556552 0.00547179 -0.27803175
v 0.15206773 0.00547318 -0.27825645
v 0.19413546 -0.00222700 -0.27604083
v 0.19177302 0.00362148 -0.28012088
v 0.16050956 0.00547750 -0.27944329
v 0.14362041 -0.00331060 -0.22439319
v 0.23427418 0.00040387 -0.32210788
v 0.21889178 0.00547764 -0.33190773
v 0.19726446 0.00546789 -0.28420191
v 0.20137084 0.00546789 -0.28008870
v 0.18627337 0.00547751 -0.27954421
v 0.19289459 -0.00331059 -0.25382109
v 0.19684033 0.00547760 -0.26830904
v 0.19655242 0.00390532 -0.27908502
v 0.19565507 -0.00168853 -0.27602425
v 0.19538195 -0.00223059 -0.27462976
v 0.19649385 0.00022041 -0.27463662
v 0.19550876 0.00046025 -0.27670995
v 0.19824960 0.00338446 -0.27530637
v 0.19812277 0.00314645 -0.27186152
v 0.29165782 0.00547765 -0.37055030
v 0.29489115 0.00547466 -0.37389442
v 0.24665311 0.00547764 -0.29805510
v 0.23838682 0.00546789 -0.31710565
v 0.23838682 0.00546789 -0.23513118
v 0.20124404 0.00522990 -0.27597548
v 0.20111724 0.00499288 -0.27186206
v 0.20548698 0.00546789 -0.27597548
v 0.20548698 0.00546789 -0.27186192
v 0.25053633 0.00547764 -0.23323272
v 0.23846485 0.00040465 -0.32188602
v 0.24128372 0.00040465 -0.32029224
v 0.24056193 0.00269876 -0.32052438
v 0.24281508 0.00040465 -0.31710565
v 0.24128372 0.00362148 -0.31847704
v 0.06175531 0.00546789 -0.16342139
v 0.09885725 0.00546789 -0.19764509
v 0.06367060 -0.00331060 -0.17324410
v 0.09594785 -0.00331060 -0.13976096
v 0.09361182 0.00546789 -0.10522631
v 0.14454497 0.00546789 -0.13025910
v 0.15522481 -0.00331060 -0.16903718
v 0.14344618 -0.00331060 -0.10755477
v 0.05964843 0.00546789 -0.05143756
v 0.08018268 -0.00331060 -0.08554542
v 0.08276452 -0.00331060 -0.03712657
v 0.01027516 0.00546810 -0.00557742
v 0.03550853 0.00546800 -0.00495055
v 0.02668135 0.00547752 0.00430788
v 0.04698820 0.00546812 -0.00564643
v 0.08082372 -0.00331060 0.03253842
v 0.07761150 0.00546798 -0.00477205
v 0.06557638 0.00547330 -0.00053562
v 0.12483790 0.00546789 -0.04868447
v 0.10786347 0.00546793 -0.00491544
v 0.13993347 -0.00331060 0.00695870
v 0.15227142 -0.00331060 -0.04107348
v 0.11596566 0.00546805 -0.00538380
v 0.12614668 0.00547142 -0.00124657
v 0.15721250 0.00546794 -0.00564811
v 0.13350822 0.00547277 -0.00040300
v 0.18540657 0.00546790 -0.19769396
v 0.19667047 0.00547759 -0.15441285
v 0.19649376 0.00022073 -0.13189771
v 0.19812262 0.00314636 -0.10079309
v 0.19538196 -0.00223014 -0.14185985
v 0.19289253 -0.00331034 -0.14095240
v 0.18551887 0.00546794 -0.11011335
v 0.19289450 -0.00331043 -0.12113581
v 0.23009203 0.00547764 -0.17554927
v 0.20548698 0.00546789 -0.14710925
v 0.24281508 0.00040465 -0.12790659
v 0.24128372 0.00362148 -0.14572969
v 0.20111724 0.00499288 -0.02919400
v 0.23838682 0.00546789 -0.08590505
v 0.24120873 0.00547764 -0.10455829
v 0.29183743 0.00547765 -0.16028264
v 0.19289179 -0.00331050 -0.07928681
v 0.18486902 0.00546789 -0.05719014
v 0.19289340 -0.00331022 -0.09991250
v 0.19538196 -0.00223053 -0.11581693
v 0.19649365 0.00022076 -0.08352562
v 0.19538196 -0.00223004 -0.07237956
v 0.19686389 0.00547764 -0.05510010
v 0.19289420 -0.00331053 -0.06054110
v 0.14135720 0.00547423 0.00072296
v 0.15158737 0.00547749 0.00434451
v 0.16679568 0.00547130 -0.00152714
v 0.19289442 -0.00331055 -0.00264354
v 0.19812278 0.00314646 0.01902711
v 0.18689295 0.00546902 -0.00775027
v 0.17327061 0.00546818 -0.00678781
v 0.17550720 0.00547752 0.00539974
v 0.18833957 0.00547777 0.00276866
v 0.19649385 0.00022032 0.01002641
v 0.19667080 0.00547757 -0.00820666
v 0.19538196 -0.00223046 -0.00031207
v 0.19584907 0.00547226 0.00196431
v 0.20548698 0.00546789 -0.01459825
v 0.29180974 0.00547765 -0.05409044
v 0.23838682 0.00546789 0.01599094
v 0.23133800 0.00547764 -0.00812262
v 0.20145508 0.00546789 0.00320652
v 0.22892227 0.00546805 0.00356119
v 0.24128372 0.00362148 0.03113038
v 0.24281508 0.00040465 0.07980113
v 0.24197499 0.00547764 0.00755223
v 0.29185036 0.00547765 -0.30542489
v 0.29684182 0.00314659 -0.37389332
v 0.29654923 0.00499594 -0.37486262
v 0.29640290 0.00475781 -0.37598495
v 0.29654921 0.00499580 -0.23004697
v 0.29684182 0.00314647 -0.21261131
v 0.29489105 0.00547472 -0.13613298
v 0.29654921 0.00499580 -0.07580856
v 0.29489105 0.00547473 0.03475169
v 0.29182872 0.00547765 0.03671618
v 0.29654921 0.00499414 0.04521708
v 0.00962693 0.00547725 0.01620583
v 0.01887538 0.00547763 0.02874719
v 0.03416515 0.00547757 0.04991082
v 0.03395045 0.00546807 0.06568927
v 0.05441399 -0.00331060 0.09462824
v 0.05662464 0.00547756 0.00586989
v 0.09237814 0.00547764 0.05403948
v 0.05118189 0.00547761 0.07283916
v 0.06379102 0.00547762 0.09200844
v 0.04772409 0.00546797 0.08496191
v 0.04237149 0.00546789 0.15902561
v 0.06718409 0.00546794 0.11185820
v 0.06896261 -0.00331060 0.16337434
v 0.07719739 0.00547759 0.00667092
v 0.11910630 0.00547760 0.00706614
v 0.14617682 -0.00331060 0.05418334
v 0.14808060 0.00547764 0.05810107
v 0.10875219 -0.00331060 0.11611351
v 0.07703922 0.00547737 0.11093836
v 0.09021545 0.00547760 0.12817921
v 0.08741478 0.00546790 0.13998290
v 0.19289472 -0.00331060 0.09718767
v 0.14691155 0.00547764 0.12781591
v 0.09285605 0.00546789 0.21505263
v 0.08918989 -0.00331060 0.23908601
v 0.09032138 0.00546791 0.26748334
v 0.10391911 0.00547751 0.14855303
v 0.10381729 0.00546796 0.16278875
v 0.14168666 -0.00331060 0.17382719
v 0.11695320 0.00547753 0.16613302
v 0.11608668 0.00546802 0.18071681
v 0.12894435 0.00546800 0.19808457
v 0.13431665 0.00547764 0.18896400
v 0.14989561 0.00546792 0.22781934
v 0.15523248 -0.00331060 0.22950422
v 0.19289472 -0.00331060 0.27422920
v 0.17744870 0.00546789 0.26718212
v 0.19538196 -0.00223085 0.11681821
v 0.20077475 0.00546792 0.08249022
v 0.18956780 0.00547761 0.08010024
v 0.19812280 0.00314647 0.27105455
v 0.19289472 -0.00331060 0.18595807
v 0.18902468 0.00547765 0.17466111
v 0.19649387 0.00022024 0.27096061
v 0.23282459 0.00546796 0.02533692
v 0.23764100 0.00546789 0.05583449
v 0.20548698 0.00546789 0.10794441
v 0.23838682 0.00546789 0.12809617
v 0.24362812 0.00546834 0.08639844
v 0.24463109 0.00547761 0.02815641
v 0.27404643 0.00547761 0.03771061
v 0.24518598 0.00547699 0.04337046
v 0.24769015 0.00547295 0.05667340
v 0.24273606 0.00547079 0.06607653
v 0.25220236 0.00547195 0.07716044
v 0.25700873 0.00546796 0.05332982
v 0.28023616 0.00546793 0.05204340
v 0.25719050 0.00546793 0.07771078
v 0.20111724 0.00499288 0.16823107
v 0.20141211 0.00546789 0.13512105
v 0.24454996 0.00546794 0.10707326
v 0.24893439 0.00547181 0.10827804
v 0.25814621 0.00546852 0.09867079
v 0.24863964 0.00546792 0.13176605
v 0.24128372 0.00362148 0.19976417
v 0.25910446 0.00547077 0.12037947
v 0.25403551 0.00547264 0.13179010
v 0.26541319 0.00546791 0.13119097
v 0.26261877 0.00547127 0.13705248
v 0.14773514 0.00547756 0.20928007
v 0.19518205 0.00547279 0.20113500
v 0.16817725 0.00547746 0.23807507
v 0.16729584 0.00546798 0.25133828
v 0.18934308 0.00547759 0.26824419
v 0.19538231 -0.00223069 0.27402603
v 0.18061309 0.00547750 0.25590974
v 0.20548698 0.00546789 0.19983423
v 0.25275012 0.00546790 0.16048193
v 0.20146884 0.00546789 0.21555286
v 0.25721878 0.00546790 0.18599808
v 0.24281508 0.00040465 0.31629965
v 0.25942916 0.00547311 0.15569213
v 0.25881105 0.00547078 0.17083717
v 0.26731782 0.00547078 0.17385264
v 0.26579501 0.00547322 0.18913538
v 0.26350835 0.00547127 0.20763324
v 0.23838682 0.00546789 0.31629965
v 0.20548698 0.00546789 0.27928247
v 0.20153887 0.00546789 0.27589136
v 0.20111724 0.00499288 0.27516948
v 0.26055419 0.00546791 0.21320837
v 0.26469403 0.00546792 0.23797638
v 0.26854254 0.00546791 0.26626004
v 0.07006538 0.00547760 0.27865077
v 0.07551038 0.00546789 0.28339591
v 0.00894688 0.00547771 0.31535079
v 0.08003871 0.00069532 0.27700322
v 0.04240959 0.00547763 0.32291517
v 0.02364876 0.00546795 0.33034730
v 0.04297874 0.00546799 0.33405869
v 0.19314824 0.00362148 0.27931489
v 0.06086522 0.00547763 0.32602239
v 0.06172210 0.00546798 0.33722912
v 0.07846371 0.00546792 0.34209190
v 0.14447619 0.00499288 0.37503460
v 0.13108200 0.00547765 0.27929784
v 0.10300566 0.00547763 0.33653143
v 0.08241764 0.00547753 0.33249322
v 0.12356462 0.00547764 0.34056628
v 0.15651705 0.00546789 0.31629965
v 0.23428019 0.00040465 0.32129461
v 0.09845634 0.00546797 0.34549979
v 0.14157179 0.00546789 0.37308382
v 0.11954487 0.00546799 0.34983749
v 0.14123307 0.00546799 0.35442190
v 0.19301178 0.00069499 0.27700286
v 0.19289979 -0.00223091 0.27563165
v 0.19275846 0.00547764 0.27867908
v 0.19726276 0.00546789 0.28339591
v 0.23702127 0.00362148 0.31948234
v 0.16171061 0.00547762 0.34766639
v 0.19662070 0.00045830 0.27449842
v 0.19481623 -0.00250103 0.27551380
v 0.19550876 -0.00076776 0.27630191
v 0.19824960 0.00338446 0.27516949
v 0.19697184 0.00321279 0.27827708
v 0.20137084 0.00546789 0.28339591
v 0.20548700 0.00546789 0.28339604
v 0.18271525 0.00547760 0.35208379
v 0.14295295 0.00547752 0.34445460
v 0.16354145 0.00546814 0.35903804
v 0.18627215 0.00546806 0.36436826
v 0.20526872 0.00547758 0.35702996
v 0.20530320 0.00546817 0.36766534
v 0.20124404 0.00522990 0.27928270
v 0.23982698 0.00546789 0.31361023
v 0.24200725 0.00547759 0.32775157
v 0.21851513 0.00547762 0.35799647
v 0.24128372 0.00362148 0.31492923
v 0.27291943 0.00546791 0.29157946
v 0.23846485 0.00040465 0.32107418
v 0.24136175 -0.00120376 0.31948234
v 0.24060095 0.00269876 0.31857718
v 0.24518330 0.00547760 0.36486837
v 0.23199397 0.00547738 0.36259954
v 0.22841095 0.00546777 0.37308432
v 0.26205032 0.00499360 0.37503453
v 0.28894919 0.00547691 0.37308742
v 0.28300271 0.00546750 0.35665537
v 0.26132113 0.00547747 0.36711289
v 0.25884714 0.00547217 0.37308221
v 0.29489140 0.00546789 0.04884237
v 0.26965242 0.00546791 0.15999825
v 0.29654921 0.00499288 0.21210317
v 0.29489105 0.00546789 0.21244593
v 0.27379427 0.00546791 0.18484494
v 0.27528479 0.00546823 0.20729480
v 0.27553914 0.00547078 0.22732198
v 0.26703222 0.00547077 0.22430690
v 0.28155388 0.00546795 0.23755933
v 0.27493284 0.00547238 0.24476189
v 0.27778114 0.00547370 0.26506745
v 0.28523750 0.00546798 0.26559670
v 0.27521683 0.00547060 0.27891261
v 0.27958963 0.00547055 0.30674634
v 0.28418135 0.00547260 0.29199646
v 0.29015810 0.00546804 0.29195124
v 0.27721870 0.00546796 0.32047589
v 0.28785296 0.00547092 0.31253069
v 0.29489144 0.00546778 0.32220964
v 0.29194141 0.00547079 0.33410747
v 0.28348702 0.00547077 0.33124552
v 0.29654920 0.00499288 0.33957426
v 0.29488813 0.00547124 0.35011606
v 0.28772346 0.00547007 0.35942253
v 0.29489065 0.00547188 0.37308722
v 0.29489105 -0.00007036 0.37561007
v 0.29405238 0.00499974 0.37503467
v 0.29655898 0.00499276 0.34373548
v 0.29655688 0.00499358 0.37206101
v 0.29641265 0.00475878 0.37474198
f 1 3 2
f 1 4 3
f 1 5 4
f 1 6 5
f 1 7 6
f 1 2 7
f 2 3 8
f 13 14 11
f 4 5 15
f 4 16 3
f 3 16 10
f 4 17 16
f 4 15 17
f 5 11 15
f 15 11 18
f 11 14 18
f 14 19 18
f 17 21 16
f 16 21 20
f 18 19 22
f 15 18 23
f 18 22 23
f 17 15 24
f 15 23 24
f 23 22 25
f 17 24 26
f 17 27 21
f 17 26 27
f 24 23 26
f 23 25 28
f 26 23 28
f 27 29 21
f 29 20 21
f 29 30 20
f 26 28 32
f 28 31 32
f 6 7 34
f 7 12 34
f 11 33 13
f 5 35 11
f 11 35 33
f 6 36 5
f 5 36 35
f 34 12 37
f 13 38 14
f 14 38 39
f 14 40 19
f 14 39 40
f 13 33 41
f 13 42 38
f 13 41 42
f 42 44 43
f 42 45 44
f 41 45 42
f 41 33 45
f 42 47 46
f 42 43 47
f 38 42 46
f 38 46 39
f 43 44 48
f 48 44 49
f 43 48 47
f 48 50 47
f 45 51 44
f 45 52 51
f 33 52 45
f 44 53 49
f 44 51 53
f 46 47 54
f 39 46 54
f 54 47 55
f 39 54 40
f 47 50 56
f 47 56 55
f 54 55 57
f 40 54 57
f 57 55 58
f 40 57 58
f 40 58 19
f 55 56 59
f 56 50 59
f 52 60 51
f 52 61 60
f 33 61 52
f 51 60 62
f 51 62 53
f 6 63 36
f 6 34 63
f 35 64 33
f 36 66 35
f 35 66 64
f 61 68 60
f 33 68 61
f 33 64 68
f 62 60 67
f 68 69 60
f 60 69 67
f 64 70 68
f 68 71 69
f 70 71 68
f 63 34 72
f 34 65 72
f 64 66 70
f 66 73 70
f 66 75 73
f 71 76 69
f 70 73 71
f 69 76 67
f 71 77 76
f 73 77 71
f 76 78 67
f 77 78 76
f 77 79 78
f 73 79 77
f 73 75 79
f 78 80 67
f 79 81 78
f 78 81 80
f 72 74 82
f 63 83 36
f 36 83 66
f 66 84 75
f 83 85 66
f 79 86 81
f 79 87 86
f 75 87 79
f 81 88 80
f 81 86 88
f 87 89 86
f 75 89 87
f 89 90 86
f 75 84 89
f 86 90 91
f 86 91 88
f 91 92 88
f 84 93 89
f 89 94 90
f 89 95 94
f 93 95 89
f 90 94 91
f 58 97 96
f 58 55 97
f 19 58 96
f 55 59 97
f 96 97 98
f 19 96 98
f 98 97 99
f 19 98 22
f 97 59 99
f 99 59 100
f 59 50 100
f 100 50 101
f 22 98 25
f 98 99 102
f 99 100 102
f 98 102 103
f 25 98 103
f 102 100 104
f 100 101 104
f 103 102 105
f 102 104 105
f 28 25 31
f 103 105 106
f 25 103 106
f 106 105 107
f 105 108 107
f 105 104 108
f 104 101 108
f 25 106 31
f 108 101 109
f 106 107 110
f 31 106 110
f 110 107 111
f 107 108 112
f 108 109 112
f 107 112 111
f 27 26 113
f 27 114 29
f 29 114 30
f 26 32 113
f 113 32 115
f 27 116 114
f 27 113 116
f 32 118 115
f 116 119 114
f 116 113 119
f 113 115 121
f 115 120 121
f 119 122 114
f 114 122 123
f 119 113 124
f 113 121 125
f 113 125 124
f 119 127 122
f 122 127 128
f 119 129 127
f 119 124 129
f 129 124 130
f 124 131 130
f 124 125 131
f 125 126 131
f 129 132 127
f 129 130 132
f 132 133 127
f 132 130 134
f 135 137 136
f 135 138 137
f 132 136 133
f 132 135 136
f 132 138 135
f 132 134 138
f 127 133 128
f 133 136 128
f 136 137 139
f 128 136 139
f 131 126 140
f 131 141 134
f 130 131 134
f 137 144 142
f 137 143 144
f 138 145 137
f 137 145 143
f 134 141 138
f 110 111 146
f 31 110 146
f 146 148 147
f 146 111 148
f 31 146 147
f 111 112 149
f 112 109 149
f 111 149 148
f 149 109 150
f 147 148 151
f 147 151 152
f 31 152 118
f 31 147 152
f 148 149 151
f 32 31 118
f 152 151 153
f 151 149 154
f 151 154 153
f 149 150 154
f 152 153 155
f 153 154 155
f 152 155 156
f 118 152 156
f 155 154 157
f 154 150 157
f 115 118 120
f 118 156 120
f 156 155 158
f 120 156 158
f 158 155 159
f 155 157 159
f 158 161 160
f 158 159 161
f 120 158 160
f 159 157 161
f 157 150 161
f 161 150 162
f 160 161 163
f 120 160 163
f 121 120 125
f 163 161 164
f 164 161 165
f 161 162 165
f 125 120 126
f 120 163 126
f 163 164 166
f 163 166 167
f 126 163 167
f 164 165 166
f 126 168 140
f 167 170 169
f 167 166 170
f 126 169 168
f 126 167 169
f 168 169 171
f 168 171 140
f 169 140 171
f 169 172 140
f 169 173 172
f 169 170 173
f 165 162 166
f 166 174 170
f 166 162 174
f 170 175 173
f 170 174 175
f 172 176 140
f 172 177 176
f 172 178 177
f 172 173 178
f 173 179 178
f 173 175 179
f 178 179 180
f 177 181 176
f 177 182 181
f 177 178 182
f 182 178 180
f 131 140 141
f 143 183 144
f 176 181 140
f 140 181 141
f 138 184 145
f 141 184 138
f 182 185 181
f 182 180 185
f 185 180 186
f 180 179 187
f 180 187 186
f 185 188 181
f 185 189 188
f 185 186 189
f 186 187 190
f 187 179 190
f 181 188 191
f 141 191 184
f 181 191 141
f 145 192 143
f 143 192 183
f 189 186 190
f 190 179 193
f 189 194 188
f 189 190 194
f 190 193 195
f 194 196 188
f 194 190 197
f 190 195 197
f 188 196 191
f 184 198 145
f 192 199 183
f 145 198 192
f 191 200 184
f 191 196 200
f 194 197 201
f 197 195 201
f 194 202 196
f 194 201 202
f 202 203 196
f 202 204 203
f 202 205 204
f 202 201 205
f 201 206 205
f 201 195 206
f 195 193 206
f 192 207 199
f 184 208 198
f 200 208 184
f 198 209 192
f 192 209 207
f 196 203 200
f 200 203 210
f 200 210 208
f 210 211 208
f 209 198 207
f 2 8 212
f 2 213 7
f 2 212 213
f 214 216 215
f 214 217 216
f 212 217 214
f 212 8 217
f 212 215 213
f 212 214 215
f 3 9 8
f 8 9 217
f 217 218 216
f 217 219 218
f 9 219 217
f 3 10 9
f 7 213 12
f 12 213 221
f 215 216 222
f 213 215 222
f 222 216 223
f 213 222 221
f 216 220 223
f 223 220 224
f 222 223 225
f 216 218 220
f 220 226 224
f 10 227 9
f 9 227 219
f 219 228 218
f 227 228 219
f 218 226 220
f 226 230 229
f 16 20 10
f 10 20 227
f 228 231 218
f 218 230 226
f 218 231 230
f 231 233 230
f 230 233 232
f 228 234 231
f 227 234 228
f 20 235 227
f 227 235 234
f 231 236 233
f 233 236 237
f 20 30 235
f 234 238 231
f 234 239 238
f 231 238 236
f 238 241 236
f 238 239 241
f 236 241 240
f 223 242 225
f 223 224 242
f 12 221 243
f 222 225 244
f 221 244 243
f 221 222 244
f 225 242 245
f 245 242 246
f 224 226 242
f 226 229 242
f 242 229 246
f 225 245 247
f 12 243 248
f 244 225 249
f 244 249 250
f 243 250 248
f 243 244 250
f 225 247 249
f 247 245 251
f 12 248 37
f 247 252 249
f 245 246 251
f 246 229 251
f 251 229 253
f 48 255 254
f 48 49 255
f 254 257 256
f 254 255 257
f 48 258 50
f 48 254 258
f 254 259 258
f 254 256 259
f 256 260 259
f 256 257 260
f 49 261 255
f 49 53 261
f 255 262 257
f 255 261 262
f 257 263 260
f 257 262 263
f 263 264 260
f 53 62 261
f 261 267 262
f 262 267 263
f 263 269 264
f 263 268 269
f 229 266 265
f 260 264 270
f 264 273 270
f 264 269 273
f 269 274 273
f 269 272 274
f 270 273 275
f 273 276 275
f 273 274 276
f 275 276 277
f 37 248 278
f 250 249 279
f 248 279 278
f 248 250 279
f 249 252 280
f 34 37 65
f 37 278 65
f 247 251 252
f 252 251 253
f 280 252 281
f 252 253 281
f 65 278 284
f 279 249 285
f 278 285 284
f 278 279 285
f 280 283 249
f 280 282 283
f 280 281 282
f 249 283 286
f 283 282 286
f 62 288 261
f 261 288 267
f 267 268 263
f 62 67 288
f 229 282 253
f 281 253 282
f 229 265 282
f 269 268 272
f 272 289 274
f 268 290 272
f 272 290 289
f 291 293 292
f 291 294 293
f 291 295 294
f 291 296 295
f 291 297 296
f 291 292 297
f 292 276 274
f 292 293 276
f 292 289 297
f 292 274 289
f 293 277 276
f 271 299 265
f 265 299 300
f 67 301 288
f 288 301 267
f 300 299 302
f 296 303 295
f 296 297 303
f 295 305 298
f 298 305 304
f 303 306 295
f 295 306 305
f 286 282 287
f 249 286 307
f 286 308 307
f 308 286 309
f 286 287 309
f 72 65 74
f 65 310 74
f 65 284 310
f 285 249 311
f 284 311 310
f 284 285 311
f 311 249 312
f 249 307 312
f 308 309 307
f 307 309 313
f 312 307 314
f 307 313 314
f 313 315 314
f 268 316 290
f 267 316 268
f 287 282 309
f 282 265 317
f 282 317 309
f 265 300 317
f 67 80 301
f 301 319 267
f 267 319 316
f 309 317 313
f 313 317 315
f 290 320 289
f 297 289 320
f 74 310 82
f 311 312 321
f 312 322 321
f 312 314 322
f 314 315 322
f 311 321 324
f 310 311 324
f 82 310 325
f 310 324 325
f 324 327 326
f 324 321 327
f 325 324 326
f 321 328 327
f 322 323 329
f 322 329 321
f 321 329 328
f 80 88 301
f 322 315 330
f 315 317 330
f 301 332 319
f 319 332 316
f 88 333 301
f 301 333 332
f 322 330 323
f 330 317 334
f 316 331 290
f 290 331 320
f 303 297 336
f 297 320 336
f 317 300 335
f 335 300 337
f 300 302 337
f 317 335 334
f 323 330 334
f 88 92 333
f 323 334 329
f 332 339 316
f 329 334 338
f 329 338 328
f 316 339 331
f 338 340 328
f 306 341 305
f 305 341 318
f 337 302 342
f 338 334 335
f 338 343 340
f 338 335 343
f 335 344 343
f 335 337 344
f 230 266 229
f 230 232 266
f 258 259 345
f 259 346 345
f 259 260 346
f 260 270 346
f 232 347 266
f 265 266 271
f 266 347 349
f 266 349 350
f 266 350 348
f 349 352 350
f 350 352 351
f 349 353 352
f 349 347 353
f 50 258 101
f 101 258 354
f 258 345 354
f 347 232 355
f 233 356 232
f 354 345 357
f 345 346 357
f 232 356 358
f 347 359 353
f 347 355 359
f 359 360 353
f 359 355 360
f 232 358 355
f 346 270 361
f 270 275 361
f 355 362 360
f 355 358 362
f 275 277 363
f 295 298 364
f 271 365 299
f 271 266 365
f 365 266 366
f 266 348 366
f 348 367 366
f 299 365 368
f 365 366 368
f 299 368 302
f 364 298 304
f 294 369 293
f 294 295 369
f 348 350 351
f 351 370 348
f 348 370 367
f 302 368 371
f 368 366 371
f 366 367 371
f 371 367 372
f 367 373 372
f 371 372 302
f 372 374 302
f 372 373 374
f 352 353 351
f 369 295 375
f 295 364 376
f 295 376 375
f 353 370 351
f 367 370 373
f 293 363 277
f 370 378 377
f 373 370 377
f 364 379 376
f 373 380 374
f 304 379 364
f 373 377 380
f 377 381 382
f 233 237 356
f 357 346 383
f 346 361 383
f 101 354 109
f 109 354 384
f 354 357 384
f 358 356 362
f 356 386 362
f 362 387 360
f 360 387 353
f 362 386 387
f 361 275 388
f 275 363 388
f 356 237 386
f 237 389 386
f 237 385 389
f 389 385 390
f 386 389 387
f 237 236 385
f 236 240 385
f 384 357 391
f 357 383 391
f 240 241 392
f 392 241 393
f 109 384 394
f 384 391 394
f 391 383 395
f 240 392 397
f 392 393 397
f 240 397 396
f 397 398 396
f 385 240 390
f 390 240 396
f 389 390 387
f 390 399 387
f 390 396 399
f 383 361 400
f 399 401 387
f 361 388 400
f 396 398 399
f 388 363 402
f 369 403 293
f 293 403 363
f 375 376 404
f 353 387 370
f 369 405 403
f 369 375 405
f 377 378 381
f 376 379 404
f 406 381 378
f 379 407 404
f 375 404 408
f 387 409 370
f 370 409 378
f 404 407 408
f 378 409 406
f 387 401 409
f 403 402 363
f 401 410 409
f 407 411 408
f 409 410 412
f 409 412 413
f 302 374 414
f 305 318 304
f 374 415 414
f 304 318 416
f 374 380 417
f 380 377 417
f 377 418 417
f 374 417 415
f 377 382 418
f 418 419 417
f 418 382 419
f 379 416 420
f 304 416 379
f 417 419 415
f 382 421 419
f 419 421 415
f 421 422 415
f 302 414 342
f 318 341 423
f 414 424 342
f 318 423 416
f 416 423 425
f 416 425 426
f 414 415 424
f 424 415 427
f 379 420 407
f 420 429 407
f 382 422 421
f 382 428 422
f 382 381 428
f 428 430 422
f 422 430 431
f 428 381 430
f 430 381 432
f 407 429 411
f 406 413 381
f 406 409 413
f 381 413 432
f 429 433 411
f 420 416 426
f 422 431 415
f 431 436 415
f 431 430 437
f 430 432 437
f 420 426 429
f 432 438 437
f 431 437 436
f 436 437 438
f 415 436 427
f 436 438 440
f 426 439 429
f 413 434 432
f 432 434 438
f 429 435 433
f 434 413 443
f 413 412 444
f 412 442 444
f 438 434 440
f 434 443 440
f 429 439 441
f 429 441 435
f 440 443 445
f 443 413 444
f 443 444 445
f 444 442 446
f 445 444 447
f 444 446 447
f 234 448 239
f 234 449 448
f 235 449 234
f 239 448 451
f 239 451 450
f 114 117 30
f 30 117 235
f 117 453 235
f 235 453 449
f 448 452 451
f 448 454 452
f 454 448 455
f 449 457 448
f 449 458 457
f 453 458 449
f 448 459 455
f 455 460 456
f 455 459 460
f 448 457 461
f 448 461 459
f 459 461 460
f 461 462 460
f 460 462 463
f 462 464 463
f 461 465 462
f 462 465 464
f 114 123 117
f 117 123 453
f 123 467 453
f 453 467 458
f 457 469 468
f 457 468 461
f 461 468 465
f 464 465 466
f 468 469 465
f 469 470 465
f 465 470 466
f 469 457 472
f 469 472 470
f 472 473 470
f 470 474 466
f 466 475 471
f 466 474 475
f 470 473 474
f 474 473 476
f 474 476 475
f 476 477 475
f 122 128 123
f 123 128 467
f 458 478 457
f 458 479 478
f 457 480 472
f 472 480 473
f 480 481 473
f 473 481 476
f 480 482 481
f 476 481 483
f 476 483 477
f 481 482 483
f 457 478 480
f 480 478 482
f 478 484 482
f 478 479 484
f 484 485 482
f 458 486 479
f 467 486 458
f 486 487 479
f 139 137 488
f 128 139 467
f 486 489 487
f 486 490 489
f 139 489 490
f 139 488 489
f 467 490 486
f 467 139 490
f 479 485 484
f 479 487 485
f 487 491 485
f 491 492 485
f 137 142 488
f 487 489 491
f 485 492 493
f 492 491 493
f 241 239 393
f 239 450 393
f 450 451 494
f 394 391 495
f 391 395 495
f 450 494 393
f 397 393 398
f 393 494 398
f 494 496 398
f 496 497 398
f 451 498 494
f 451 452 498
f 452 499 498
f 498 499 500
f 109 394 150
f 494 498 496
f 498 500 496
f 496 501 497
f 496 500 501
f 495 395 502
f 395 400 502
f 383 400 395
f 497 399 398
f 497 501 399
f 399 503 401
f 400 388 504
f 399 501 505
f 388 402 504
f 399 505 503
f 452 454 499
f 499 506 500
f 454 507 499
f 499 507 506
f 507 508 506
f 500 509 501
f 500 506 509
f 506 508 509
f 454 455 507
f 455 456 507
f 456 511 507
f 507 511 508
f 508 511 510
f 511 512 510
f 150 394 513
f 394 495 513
f 508 510 509
f 501 509 505
f 502 400 514
f 509 510 505
f 510 512 505
f 400 504 514
f 504 402 515
f 405 516 403
f 403 516 402
f 405 375 518
f 375 408 518
f 401 503 410
f 410 503 519
f 410 519 517
f 519 520 517
f 410 517 412
f 517 520 522
f 408 411 521
f 518 408 523
f 408 521 523
f 405 524 516
f 405 518 524
f 524 526 516
f 516 515 402
f 516 526 515
f 519 527 520
f 520 527 525
f 523 521 528
f 456 460 511
f 460 463 511
f 511 529 512
f 511 463 529
f 512 529 530
f 463 531 529
f 463 464 531
f 464 466 531
f 529 531 530
f 495 502 532
f 502 514 532
f 512 530 505
f 514 504 533
f 504 515 533
f 505 534 503
f 505 530 534
f 533 515 535
f 466 471 531
f 531 471 530
f 150 513 162
f 471 536 530
f 471 475 536
f 513 495 537
f 495 532 537
f 532 514 538
f 514 533 538
f 530 536 534
f 524 518 539
f 518 523 539
f 524 540 526
f 526 540 515
f 539 523 541
f 523 528 541
f 524 542 540
f 524 539 542
f 503 534 543
f 503 543 519
f 519 543 527
f 540 535 515
f 541 528 544
f 527 545 525
f 543 546 527
f 542 547 540
f 542 539 547
f 547 548 540
f 540 548 535
f 539 541 549
f 527 546 545
f 541 544 549
f 547 539 550
f 539 549 550
f 545 546 553
f 544 551 549
f 546 552 553
f 412 517 522
f 411 433 521
f 412 522 442
f 521 433 555
f 522 554 556
f 520 525 522
f 522 525 554
f 521 555 557
f 525 558 554
f 521 557 528
f 442 522 556
f 433 435 555
f 435 561 555
f 442 562 446
f 442 556 562
f 555 561 559
f 556 563 562
f 563 556 560
f 555 559 557
f 554 560 556
f 560 554 564
f 554 558 564
f 557 559 566
f 557 566 565
f 525 545 558
f 544 528 567
f 528 565 567
f 528 557 565
f 545 568 558
f 545 553 568
f 544 567 551
f 553 569 568
f 553 552 569
f 558 568 564
f 565 571 570
f 567 565 570
f 567 570 572
f 568 569 574
f 569 573 574
f 475 477 536
f 477 483 536
f 162 513 575
f 513 537 575
f 483 577 536
f 536 578 576
f 536 577 578
f 483 580 577
f 483 581 580
f 483 482 581
f 482 485 581
f 580 581 582
f 537 532 583
f 532 579 583
f 577 584 578
f 162 585 174
f 162 575 585
f 575 586 585
f 575 537 586
f 174 587 175
f 174 585 587
f 585 588 587
f 585 586 588
f 577 580 589
f 537 588 586
f 537 583 588
f 580 582 589
f 175 590 179
f 175 587 590
f 587 591 590
f 587 588 591
f 583 591 588
f 577 589 584
f 576 593 536
f 576 578 594
f 532 592 579
f 594 595 576
f 532 538 592
f 536 593 534
f 538 596 592
f 538 533 596
f 592 596 597
f 533 598 596
f 533 535 598
f 596 599 597
f 596 598 599
f 576 595 600
f 592 597 579
f 593 576 600
f 597 599 579
f 578 602 594
f 578 584 602
f 594 602 595
f 595 602 600
f 579 601 583
f 582 581 589
f 485 493 581
f 491 489 603
f 488 603 489
f 144 183 142
f 493 491 604
f 491 603 604
f 589 602 584
f 589 581 602
f 581 493 602
f 547 605 548
f 606 608 607
f 606 609 608
f 547 607 605
f 547 606 607
f 547 609 606
f 547 550 609
f 548 598 535
f 548 605 598
f 607 610 599
f 607 608 610
f 605 599 598
f 605 607 599
f 550 549 609
f 534 611 543
f 534 593 611
f 543 612 546
f 543 611 612
f 546 612 613
f 599 601 579
f 599 610 601
f 593 600 611
f 600 614 611
f 611 614 612
f 609 615 608
f 549 615 609
f 613 612 616
f 546 613 552
f 612 614 617
f 610 618 601
f 612 617 616
f 600 602 614
f 601 618 583
f 615 620 608
f 549 551 615
f 608 620 610
f 613 616 621
f 617 614 622
f 616 617 621
f 617 622 621
f 552 613 623
f 613 624 623
f 613 621 624
f 621 622 625
f 624 621 626
f 621 625 626
f 622 614 619
f 614 602 619
f 618 627 583
f 583 627 591
f 622 619 625
f 602 493 619
f 183 628 142
f 142 628 488
f 628 630 488
f 493 629 619
f 493 604 629
f 488 630 603
f 626 625 631
f 626 632 633
f 625 619 631
f 179 590 193
f 626 631 632
f 631 629 632
f 631 619 629
f 620 634 610
f 610 634 618
f 626 633 635
f 635 633 636
f 551 567 572
f 551 572 615
f 634 637 618
f 618 637 627
f 626 635 638
f 633 632 636
f 632 629 636
f 590 591 639
f 627 639 591
f 629 640 636
f 635 636 638
f 193 590 641
f 590 639 641
f 183 199 628
f 199 630 628
f 629 604 642
f 604 643 642
f 604 603 643
f 630 643 603
f 552 573 569
f 552 623 573
f 623 624 644
f 624 626 645
f 626 638 645
f 624 645 644
f 638 646 645
f 638 636 640
f 638 640 646
f 646 640 648
f 615 649 620
f 572 649 615
f 573 623 650
f 623 644 650
f 570 651 572
f 572 651 649
f 644 652 650
f 644 645 652
f 646 653 645
f 646 647 653
f 646 648 647
f 647 655 653
f 637 654 627
f 627 654 639
f 648 640 655
f 647 648 655
f 653 655 656
f 199 659 630
f 199 207 659
f 630 659 643
f 640 629 658
f 629 642 658
f 655 658 657
f 658 660 657
f 655 640 658
f 658 642 660
f 642 643 660
f 66 85 84
f 63 661 83
f 63 72 661
f 84 85 662
f 84 662 93
f 661 72 663
f 72 325 663
f 85 664 662
f 94 665 91
f 91 665 92
f 93 662 95
f 95 666 94
f 94 666 665
f 95 667 666
f 662 667 95
f 665 668 92
f 662 664 667
f 667 669 666
f 666 669 665
f 669 670 665
f 665 670 668
f 667 671 669
f 664 671 667
f 85 673 664
f 83 674 85
f 661 663 675
f 663 672 675
f 85 674 673
f 670 669 668
f 671 676 669
f 669 677 668
f 664 673 671
f 671 678 676
f 673 678 671
f 669 676 677
f 678 679 676
f 679 680 676
f 676 680 677
f 680 681 677
f 678 682 679
f 673 682 678
f 83 683 674
f 674 683 684
f 682 680 679
f 682 685 680
f 674 684 673
f 673 684 682
f 680 685 681
f 682 686 685
f 684 686 682
f 661 687 83
f 83 687 683
f 661 688 687
f 661 675 688
f 683 689 684
f 688 675 691
f 675 690 691
f 683 692 689
f 686 693 685
f 685 694 681
f 685 693 694
f 686 696 693
f 684 696 686
f 684 695 696
f 693 697 694
f 694 697 698
f 684 689 695
f 696 697 693
f 696 699 697
f 695 699 696
f 689 700 695
f 699 701 697
f 699 702 701
f 695 702 699
f 695 700 702
f 697 703 698
f 697 701 703
f 702 704 701
f 702 705 704
f 700 705 702
f 700 689 705
f 689 692 705
f 705 706 704
f 705 707 706
f 705 708 707
f 705 692 708
f 701 709 703
f 701 704 709
f 704 710 709
f 704 706 710
f 707 711 706
f 707 712 711
f 707 708 712
f 712 713 711
f 712 714 713
f 712 708 714
f 714 708 715
f 711 710 706
f 711 713 710
f 708 692 715
f 714 716 713
f 714 715 716
f 716 717 713
f 716 718 717
f 716 715 718
f 713 717 710
f 718 715 719
f 718 720 717
f 718 721 720
f 718 719 721
f 721 722 720
f 721 723 722
f 721 719 723
f 717 720 710
f 720 722 710
f 715 692 719
f 723 724 722
f 723 719 724
f 724 725 722
f 724 726 725
f 724 719 726
f 725 727 722
f 722 727 710
f 727 728 710
f 725 729 727
f 725 730 729
f 725 726 730
f 727 729 728
f 730 726 731
f 730 732 729
f 730 731 732
f 732 733 729
f 732 734 733
f 732 731 734
f 734 731 735
f 729 733 728
f 734 736 733
f 734 737 736
f 734 735 737
f 733 736 728
f 737 738 736
f 737 739 738
f 737 735 739
f 738 740 736
f 738 741 740
f 738 739 741
f 736 740 728
f 741 742 740
f 741 739 742
f 742 743 740
f 742 739 744
f 742 745 743
f 742 744 745
f 740 743 728
f 735 744 739
f 745 746 743
f 745 747 746
f 745 744 747
f 743 746 728
f 747 744 748
f 747 749 746
f 747 748 749
f 749 750 746
f 746 750 728
f 749 751 750
f 749 748 751
f 751 752 750
f 751 753 752
f 751 748 753
f 752 754 750
f 750 754 728
f 748 755 753
f 752 756 754
f 752 753 756
f 756 757 754
f 756 758 757
f 756 753 758
f 754 757 728
f 758 759 757
f 758 753 759
f 759 760 757
f 759 753 761
f 757 760 728
f 753 755 761
f 759 762 760
f 759 763 762
f 759 761 763
f 760 762 728
f 761 755 764
f 687 765 683
f 683 765 692
f 766 768 767
f 766 769 768
f 688 767 687
f 688 766 767
f 688 769 766
f 688 691 769
f 687 767 765
f 769 770 768
f 691 770 769
f 691 690 770
f 768 772 771
f 767 768 773
f 767 773 774
f 765 767 774
f 768 771 773
f 692 765 775
f 692 775 719
f 765 774 775
f 773 771 776
f 771 772 776
f 719 775 726
f 726 775 731
f 776 772 777
f 731 775 735
f 735 775 744
f 744 775 755
f 774 773 778
f 775 774 778
f 775 778 755
f 744 755 748
f 778 773 779
f 773 776 779
f 779 776 780
f 776 777 780
f 780 777 781
f 778 779 782
f 755 782 764
f 755 778 782
f 780 781 779
f 763 783 762
f 763 761 783
f 783 761 784
f 783 785 762
f 762 786 728
f 762 785 786
f 783 787 785
f 783 784 787
f 787 788 785
f 761 764 784
f 784 764 789
f 787 790 788
f 787 789 790
f 787 784 789
f 788 786 785
f 790 791 788
f 790 789 791
f 791 792 788
f 791 789 792
f 792 794 788
f 792 789 793
f 788 794 786
f 792 795 794
f 792 793 795
f 795 796 794
f 795 797 796
f 795 793 797
f 794 796 786
f 797 798 796
f 797 793 798
f 798 799 796
f 798 800 799
f 798 801 800
f 798 793 801
f 796 799 786
f 800 802 799
f 800 801 802
f 802 803 799
f 802 804 803
f 802 801 804
f 799 803 786
f 804 801 805
f 804 806 803
f 804 805 806
f 806 807 803
f 803 807 786
f 801 808 805
f 806 809 807
f 806 805 809
f 809 810 807
f 809 811 810
f 809 805 811
f 807 810 786
f 811 812 810
f 811 813 812
f 811 814 813
f 811 805 814
f 810 812 786
f 805 808 814
f 813 815 812
f 813 816 815
f 813 814 816
f 812 815 786
f 816 817 815
f 816 814 817
f 817 818 815
f 817 814 819
f 815 818 786
f 817 820 818
f 817 819 820
f 820 821 818
f 820 822 821
f 820 819 822
f 818 821 786
f 821 823 786
f 822 824 821
f 822 819 824
f 205 206 826
f 206 193 826
f 204 827 203
f 204 828 827
f 204 205 828
f 205 826 828
f 203 829 210
f 210 829 211
f 208 830 198
f 208 831 830
f 211 831 208
f 198 830 659
f 826 193 832
f 827 833 203
f 827 834 833
f 827 828 834
f 834 828 835
f 828 836 835
f 828 826 836
f 826 832 836
f 203 837 829
f 833 837 203
f 829 838 211
f 829 837 838
f 211 838 831
f 834 840 833
f 834 835 840
f 835 836 842
f 836 832 842
f 840 841 833
f 840 835 843
f 835 842 843
f 833 841 837
f 841 844 837
f 831 845 830
f 838 845 831
f 837 846 838
f 837 844 846
f 838 846 845
f 845 847 830
f 840 843 848
f 840 849 841
f 840 848 849
f 843 842 848
f 842 832 848
f 824 850 821
f 824 819 825
f 824 851 850
f 824 825 851
f 821 850 823
f 851 852 850
f 851 825 852
f 852 853 850
f 852 825 854
f 852 855 853
f 852 854 855
f 855 856 853
f 855 854 856
f 850 853 823
f 849 857 841
f 849 858 857
f 849 848 858
f 848 859 858
f 848 832 859
f 856 860 853
f 856 861 860
f 856 854 861
f 857 862 841
f 857 861 862
f 857 860 861
f 857 858 860
f 861 863 862
f 861 854 863
f 853 864 823
f 853 860 864
f 858 864 860
f 858 859 864
f 854 825 865
f 854 865 863
f 862 844 841
f 862 863 844
f 844 863 867
f 844 867 846
f 847 868 869
f 868 870 869
f 789 764 793
f 793 764 808
f 782 779 871
f 779 781 871
f 871 781 872
f 782 871 873
f 871 874 873
f 871 872 874
f 764 782 808
f 801 793 808
f 782 873 875
f 808 782 875
f 875 873 876
f 873 877 876
f 873 874 877
f 875 876 879
f 876 877 879
f 819 814 808
f 819 808 865
f 819 865 825
f 875 879 881
f 808 875 881
f 808 881 865
f 881 879 882
f 879 880 882
f 863 865 867
f 847 883 868
f 868 883 870
f 883 884 870
f 881 882 886
f 865 881 867
f 882 885 886
f 885 887 886
f 867 881 846
f 881 889 888
f 881 886 889
f 845 889 847
f 845 888 889
f 846 888 845
f 846 881 888
f 847 889 883
f 886 890 889
f 886 887 890
f 883 890 884
f 883 889 890
f 82 325 72
f 327 892 891
f 327 328 892
f 663 325 672
f 325 326 672
f 892 893 891
f 891 893 894
f 893 895 894
f 92 896 333
f 333 896 332
f 328 340 892
f 892 897 893
f 892 340 897
f 92 668 896
f 896 898 332
f 332 898 339
f 897 900 893
f 340 343 897
f 303 901 306
f 303 336 901
f 897 343 900
f 343 344 902
f 893 900 899
f 899 900 904
f 893 899 895
f 668 906 896
f 896 906 898
f 899 904 907
f 899 907 895
f 907 908 895
f 339 905 331
f 900 343 904
f 331 905 320
f 902 344 337
f 337 342 903
f 904 343 909
f 343 902 909
f 907 904 908
f 904 909 908
f 901 910 306
f 306 910 341
f 326 327 911
f 327 891 911
f 911 891 894
f 894 895 912
f 911 894 914
f 894 913 914
f 894 912 913
f 668 677 906
f 910 916 341
f 341 916 917
f 902 337 918
f 337 903 918
f 895 908 912
f 912 908 909
f 912 909 915
f 898 919 339
f 339 919 905
f 677 681 906
f 912 920 913
f 912 915 920
f 915 909 921
f 909 902 921
f 901 336 922
f 336 320 922
f 915 924 920
f 915 921 924
f 902 918 921
f 918 903 925
f 903 923 925
f 910 926 916
f 921 918 924
f 326 911 927
f 672 326 927
f 906 928 898
f 898 928 919
f 919 929 905
f 920 924 930
f 924 932 930
f 924 931 932
f 924 918 931
f 901 933 910
f 901 922 933
f 931 918 932
f 905 934 320
f 920 930 913
f 930 932 935
f 922 320 934
f 932 918 935
f 681 937 906
f 906 937 928
f 919 939 929
f 919 940 939
f 930 935 913
f 905 929 934
f 913 935 941
f 935 918 941
f 918 925 941
f 929 944 934
f 929 939 944
f 941 925 943
f 945 947 946
f 945 948 947
f 933 946 910
f 933 945 946
f 933 948 945
f 933 922 948
f 910 946 926
f 948 949 947
f 948 944 949
f 922 944 948
f 922 934 944
f 947 949 950
f 926 946 942
f 675 672 690
f 672 927 690
f 914 913 938
f 911 914 951
f 914 938 951
f 927 911 952
f 911 951 952
f 938 953 951
f 681 694 937
f 919 954 940
f 694 698 937
f 928 954 919
f 913 941 938
f 939 940 944
f 941 943 953
f 938 941 953
f 944 956 949
f 944 940 956
f 949 957 950
f 949 956 957
f 940 958 956
f 956 959 957
f 956 958 959
f 940 955 958
f 958 955 959
f 953 943 960
f 698 961 937
f 698 703 961
f 937 961 928
f 703 962 961
f 703 709 962
f 961 963 928
f 961 962 963
f 709 964 962
f 709 710 964
f 962 965 963
f 962 964 965
f 928 965 954
f 928 963 965
f 940 954 955
f 954 965 955
f 342 424 903
f 341 917 423
f 424 967 903
f 424 966 967
f 423 917 968
f 424 427 966
f 425 439 426
f 425 968 439
f 423 968 425
f 968 969 439
f 903 967 923
f 916 936 917
f 917 969 968
f 917 972 969
f 967 966 971
f 966 970 971
f 427 970 966
f 439 975 441
f 436 974 427
f 427 974 970
f 436 440 974
f 441 976 561
f 445 977 440
f 441 561 435
f 445 447 977
f 447 446 977
f 440 978 974
f 440 977 978
f 977 979 978
f 441 975 976
f 974 978 980
f 561 976 981
f 974 980 982
f 980 983 982
f 439 969 975
f 970 974 984
f 969 973 975
f 975 973 976
f 974 982 985
f 974 985 984
f 976 973 987
f 976 987 986
f 985 988 984
f 988 991 990
f 988 989 991
f 926 936 916
f 923 967 992
f 926 942 936
f 923 992 925
f 925 992 943
f 992 993 943
f 917 936 972
f 967 971 992
f 969 972 973
f 936 942 972
f 946 947 994
f 947 950 995
f 947 995 994
f 946 994 996
f 942 946 996
f 972 997 973
f 992 971 998
f 997 999 973
f 972 942 997
f 942 996 997
f 992 998 993
f 943 1000 960
f 957 959 1001
f 959 955 1001
f 710 1002 964
f 964 1002 965
f 710 728 1002
f 1002 1003 965
f 955 965 1003
f 943 993 1000
f 950 957 995
f 995 957 1004
f 957 1001 1004
f 1000 993 1006
f 1001 955 1005
f 955 1003 1005
f 1000 1006 1007
f 970 984 971
f 984 1009 971
f 973 1008 987
f 973 1010 1008
f 973 999 1010
f 997 996 999
f 996 994 1011
f 999 996 1011
f 1011 994 1012
f 999 1011 1010
f 994 995 1012
f 1011 1012 1013
f 1010 1011 1013
f 971 1009 998
f 1010 1013 1008
f 998 1014 993
f 1008 1013 1015
f 984 988 990
f 990 991 1016
f 990 1016 1017
f 984 990 1009
f 987 1008 1015
f 1015 1013 1019
f 1012 995 1020
f 1015 1019 987
f 990 1021 1009
f 990 1018 1022
f 1018 1023 1022
f 987 1019 986
f 990 1022 1021
f 1022 1024 1021
f 1009 1021 998
f 1013 1012 1025
f 1012 1020 1025
f 998 1026 1014
f 998 1021 1026
f 1013 1025 1027
f 1019 1013 1027
f 1021 1028 1026
f 993 1014 1006
f 1004 1001 1029
f 1029 1001 1005
f 1006 1014 1030
f 995 1004 1020
f 1029 1005 1031
f 1014 1026 1032
f 1026 1028 1033
f 1026 1034 1032
f 1026 1033 1034
f 1002 1035 1003
f 1005 1003 1035
f 1005 1035 1031
f 1014 1032 1030
f 728 1036 1002
f 1002 1036 1035
f 1030 1032 1037
f 951 953 1038
f 951 1038 952
f 770 1039 768
f 768 1039 772
f 770 1040 1039
f 770 1041 1040
f 927 1040 1041
f 927 952 1040
f 690 1041 770
f 690 927 1041
f 953 960 1038
f 1039 1040 1042
f 952 1042 1040
f 772 1039 1043
f 1039 1042 1043
f 960 1007 1038
f 1038 1007 952
f 1007 1044 952
f 772 1043 777
f 952 1044 1042
f 960 1000 1007
f 1043 1042 1045
f 1044 1045 1042
f 1006 1030 1007
f 1007 1030 1044
f 777 1043 872
f 1043 1045 872
f 1030 1046 1044
f 1030 1037 1047
f 1030 1047 1046
f 777 872 781
f 1044 1046 1045
f 872 1045 1048
f 1046 1048 1045
f 446 562 1049
f 446 979 977
f 562 563 1049
f 1049 563 1050
f 446 1049 979
f 1049 1050 979
f 1050 563 1051
f 563 560 1052
f 563 1052 1051
f 978 979 1054
f 978 1054 980
f 979 1050 1054
f 1054 1050 1055
f 980 1054 983
f 1050 1051 1055
f 1051 1052 1056
f 561 981 1053
f 1051 1056 1055
f 1056 1057 1055
f 561 1053 559
f 560 1058 1052
f 559 1053 566
f 1052 1058 1056
f 560 1059 1058
f 1056 1058 1057
f 1058 1059 1060
f 1053 1061 566
f 1058 1060 1057
f 983 1054 1062
f 983 1062 982
f 1054 1055 1062
f 982 1062 1063
f 982 1063 985
f 976 986 981
f 1062 1055 1063
f 985 1063 988
f 988 1063 989
f 989 1017 991
f 989 1063 1017
f 981 986 1064
f 1063 1055 1065
f 981 1064 1066
f 1053 981 1066
f 1057 1060 1067
f 1053 1066 1061
f 1060 1068 1067
f 1060 1069 1068
f 1057 1067 1055
f 1067 1068 1055
f 1064 1070 1066
f 1055 1068 1071
f 560 564 1059
f 564 568 1059
f 566 571 565
f 568 574 1059
f 566 1061 571
f 1059 574 1072
f 570 571 1073
f 570 1073 651
f 1059 1069 1060
f 1068 1069 1075
f 1069 1076 1075
f 1059 1072 1069
f 1061 1066 1077
f 1068 1075 1071
f 1075 1078 1071
f 1075 1076 1078
f 1069 1072 1076
f 1076 1072 1079
f 1076 1079 1078
f 1079 1072 1080
f 1071 1078 1081
f 1078 1079 1081
f 1079 1080 1081
f 571 1061 1073
f 1061 1077 1073
f 574 1074 1072
f 1072 1082 1080
f 1077 1083 1073
f 1072 1074 1082
f 1082 1074 1085
f 991 1017 1016
f 1063 1065 1017
f 1017 1065 1023
f 990 1023 1018
f 990 1017 1023
f 1022 1023 1024
f 1023 1065 1024
f 1021 1024 1028
f 986 1019 1064
f 1027 1025 1086
f 1019 1027 1086
f 1065 1088 1024
f 1064 1019 1070
f 1019 1086 1070
f 1024 1088 1028
f 1028 1088 1087
f 1065 1055 1071
f 1066 1070 1077
f 1065 1071 1088
f 1025 1020 1089
f 1071 1091 1088
f 1086 1025 1092
f 1025 1089 1092
f 1028 1087 1033
f 1034 1033 1093
f 1033 1094 1093
f 1033 1087 1094
f 1004 1029 1095
f 1029 1031 1095
f 1031 1096 1095
f 1087 1097 1094
f 1034 1093 1037
f 728 786 1036
f 1032 1034 1037
f 1037 1093 1098
f 1098 1099 1037
f 1093 1094 1100
f 1093 1100 1098
f 1100 1094 1102
f 1100 1102 1101
f 1031 1035 1096
f 1102 1103 1101
f 1100 1101 1104
f 1098 1100 1099
f 1100 1104 1105
f 1101 1106 1104
f 1101 1103 1106
f 1020 1004 1107
f 1004 1095 1107
f 1020 1107 1089
f 1094 1097 1102
f 1097 1087 1109
f 1097 1109 1110
f 1102 1097 1103
f 1097 1110 1103
f 1110 1111 1103
f 1103 1111 1106
f 1087 1108 1109
f 1109 1108 1112
f 1036 1113 1035
f 1096 1035 1113
f 1110 1114 1111
f 1109 1115 1110
f 1109 1112 1115
f 1115 1114 1110
f 1114 1116 1111
f 1115 1117 1114
f 1114 1117 1116
f 1081 1080 1118
f 1077 1070 1090
f 1070 1086 1090
f 1091 1119 1088
f 1088 1119 1087
f 1071 1081 1091
f 1080 1082 1118
f 1077 1090 1083
f 1118 1082 1120
f 1073 1083 1084
f 1082 1085 1121
f 1082 1121 1120
f 1118 1120 1122
f 1118 1122 1081
f 1081 1122 1091
f 1086 1092 1123
f 1090 1086 1123
f 1083 1090 1084
f 1090 1123 1084
f 1091 1122 1119
f 1120 1124 1122
f 1121 1124 1120
f 1121 1085 1124
f 1124 1085 1122
f 1107 1095 1125
f 1095 1096 1125
f 1087 1119 1108
f 1119 1127 1108
f 1108 1127 1128
f 1108 1128 1126
f 1108 1126 1112
f 786 1129 1036
f 1036 1129 1113
f 1112 1130 1115
f 1112 1126 1130
f 1115 1130 1117
f 1130 1126 1131
f 1130 1131 1132
f 1126 1128 1131
f 1128 1133 1131
f 1128 1134 1133
f 1107 1125 1136
f 1119 1137 1127
f 1089 1107 1138
f 1107 1136 1138
f 1119 1122 1137
f 1125 1135 1136
f 1128 1127 1139
f 1125 1096 1135
f 1096 1113 1135
f 1128 1139 1134
f 1139 1127 1140
f 786 823 1129
f 1127 1137 1140
f 1140 1137 1141
f 650 652 1142
f 634 1143 637
f 645 653 652
f 649 1145 620
f 620 1145 634
f 652 1144 1146
f 652 1146 1142
f 637 1143 654
f 652 653 1144
f 656 1144 653
f 656 657 1144
f 656 655 657
f 1144 657 1147
f 1144 1147 1146
f 574 573 1074
f 573 650 1074
f 650 1142 1074
f 1145 1149 634
f 634 1149 1143
f 1146 1147 1148
f 1142 1146 1150
f 657 660 1147
f 198 659 207
f 1147 660 1148
f 1146 1151 1150
f 1146 1148 1151
f 1148 660 1151
f 1151 660 1152
f 660 643 1153
f 659 1153 643
f 1142 1150 1155
f 1142 1155 1154
f 193 641 832
f 1150 1156 1155
f 1073 1084 651
f 651 1084 649
f 832 641 1159
f 641 639 1159
f 654 1143 1158
f 654 1158 639
f 1155 1157 1154
f 1150 1151 1152
f 1150 1152 1156
f 1156 1152 1160
f 1156 1160 1155
f 1152 660 1161
f 660 1153 1161
f 830 839 659
f 659 839 1153
f 1155 1162 1157
f 1155 1160 1162
f 1160 1161 1162
f 1157 1162 1163
f 1152 1161 1160
f 649 1164 1145
f 1145 1164 1149
f 649 1165 1164
f 1084 1165 649
f 1074 1142 1166
f 1142 1154 1166
f 1074 1166 1085
f 1149 1167 1143
f 1143 1167 1158
f 1159 639 1168
f 1158 1168 639
f 1154 1157 1166
f 1157 1169 1166
f 1085 1166 1122
f 1123 1092 1170
f 1123 1172 1171
f 1123 1170 1172
f 1165 1172 1164
f 1165 1171 1172
f 1084 1171 1165
f 1084 1123 1171
f 1092 1173 1170
f 1092 1089 1173
f 1170 1174 1172
f 1170 1173 1174
f 1164 1174 1149
f 1164 1172 1174
f 1149 1174 1167
f 1167 1175 1176
f 1167 1176 1158
f 1157 1163 1178
f 1157 1178 1169
f 1162 1161 1163
f 1178 1179 1169
f 1178 1163 1179
f 1163 1161 1179
f 1169 1177 1166
f 1169 1179 1177
f 1177 1179 1180
f 1177 1181 1166
f 1177 1182 1181
f 1179 1161 1180
f 830 847 839
f 1177 1180 1182
f 1180 1161 1182
f 1089 1138 1173
f 1122 1166 1137
f 1173 1183 1174
f 1173 1138 1183
f 1138 1136 1183
f 1174 1175 1167
f 1174 1183 1175
f 1183 1176 1175
f 1183 1136 1176
f 1166 1185 1137
f 1136 1135 1176
f 1176 1135 1158
f 1158 1135 1168
f 1137 1185 1184
f 1166 1186 1185
f 1129 1187 1113
f 1135 1113 1187
f 1137 1184 1188
f 1137 1188 1141
f 832 1189 859
f 832 1159 1189
f 1159 1168 1189
f 823 1190 1129
f 823 864 1190
f 1129 1191 1187
f 1129 1190 1191
f 859 1190 864
f 859 1189 1190
f 1189 1191 1190
f 1189 1168 1191
f 1135 1191 1168
f 1135 1187 1191
f 1166 1181 1186
f 1186 1193 1192
f 1182 1161 1194
f 1161 1153 1194
f 839 847 866
f 1181 1182 1186
f 1186 1182 1194
f 839 866 1153
f 1186 1194 1193
f 1194 1153 1195
f 866 1195 1153
f 1186 1192 1185
f 1185 1197 1184
f 1185 1196 1197
f 1192 1198 1185
f 1193 1194 1199
f 1194 1195 1199
f 1193 1199 1192
f 847 869 866
f 1192 1199 1198
f 1037 1099 1047
f 1100 1105 1099
f 1099 1105 1200
f 1047 1200 1046
f 1099 1200 1047
f 1046 1200 1048
f 1104 1106 1105
f 1105 1106 1200
f 1106 1111 1200
f 1111 1116 1200
f 874 872 878
f 872 1048 878
f 874 878 877
f 878 1048 1202
f 1200 1202 1048
f 1116 1201 1200
f 1117 1201 1116
f 1117 1130 1201
f 1130 1132 1201
f 1201 1203 1200
f 1201 1204 1203
f 1132 1204 1201
f 1131 1133 1132
f 1132 1133 1204
f 1133 1134 1205
f 1133 1205 1204
f 1200 1203 1202
f 877 878 879
f 878 880 879
f 878 1202 880
f 1134 1206 1205
f 1134 1139 1207
f 1134 1207 1206
f 1139 1140 1207
f 1206 1208 1205
f 1204 1205 1203
f 1140 1209 1207
f 1207 1209 1206
f 1206 1209 1208
f 1140 1141 1209
f 1141 1210 1209
f 1205 1208 1203
f 1209 1211 1208
f 1208 1211 1203
f 1209 1210 1211
f 1141 1212 1210
f 1141 1188 1212
f 1188 1213 1212
f 1212 1214 1210
f 1210 1215 1211
f 1210 1214 1215
f 1211 1215 1203
f 1212 1213 1214
f 1188 1216 1213
f 1188 1184 1216
f 1213 1217 1214
f 1214 1217 1215
f 1215 1218 1203
f 1213 1219 1217
f 1216 1220 1213
f 1213 1220 1219
f 1217 1218 1215
f 1217 1219 1218
f 1203 1218 1202
f 880 1202 1221
f 1218 1221 1202
f 882 880 885
f 880 1221 885
f 1184 1197 1216
f 1216 1197 1220
f 1219 1222 1218
f 1220 1222 1219
f 1197 1223 1220
f 1220 1223 1222
f 1223 1224 1222
f 870 1225 869
f 869 1225 866
f 1198 1196 1185
f 1198 1199 1196
f 1199 1195 1196
f 870 884 1225
f 1197 1196 1223
f 1196 1195 1226
f 866 1226 1195
f 1223 1196 1224
f 1196 1226 1224
f 1218 1222 1221
f 885 1221 1227
f 1222 1227 1221
f 885 1228 887
f 885 1227 1228
f 1222 1228 1227
f 1222 1224 1228
f 884 890 1225
f 1225 890 866
f 887 1229 890
f 887 1228 1229
f 1224 1229 1228
f 1224 1226 1229
f 866 1229 1226
f 866 890 1229

