# https://github.com/mikedh/trimesh
v -0.31934368 -0.39015929 -0.14366060
v -0.31478350 -0.38834302 -0.14607025
v -0.31280272 -0.39111965 -0.14490993
v -0.30993247 -0.39143584 -0.10147831
v -0.32239465 -0.38692372 -0.14380479
v -0.32340822 -0.37796662 -0.14493459
v -0.32422090 -0.38234261 -0.14140627
v -0.31939122 -0.38178637 -0.14607486
v -0.32505826 -0.37587315 -0.14139813
v -0.30588889 -0.39143773 -0.14141027
v -0.32505649 0.06521475 -0.14140415
v -0.31994162 -0.38971930 -0.10307557
v -0.31505052 -0.39106297 -0.09825366
v -0.31208130 -0.38803787 -0.09736988
v -0.32504120 -0.37904260 -0.10148159
v -0.32243502 -0.38678939 -0.09846945
v -0.31933319 -0.38212028 -0.09735061
v -0.32341212 -0.37588694 -0.09821810
v -0.06653965 -0.38827831 -0.09735826
v -0.27888724 -0.29809989 -0.09739625
v -0.09564577 -0.33858852 -0.09736724
v -0.19420291 -0.30886815 -0.09740268
v -0.32505384 0.06725169 -0.10147576
v -0.31933470 0.07761746 -0.14607430
v -0.27860642 -0.21243663 -0.09739752
v -0.28633898 -0.20419180 -0.09738779
v -0.26940097 -0.19834718 -0.10285306
v -0.27077197 -0.20805940 -0.09824671
v -0.27751331 -0.19194492 -0.10177861
v -0.27031337 -0.19104718 -0.10431312
v -0.02200050 -0.19860537 -0.10280068
v -0.28644632 -0.10927984 -0.09741345
v -0.32341248 0.06527827 -0.09821815
v -0.27696817 0.01076487 -0.10201748
v 0.31989489 -0.38833070 -0.14607486
v 0.30615206 -0.39143236 -0.14119052
v 0.31017755 -0.39143028 -0.10173168
v -0.11007605 -0.25826660 -0.09739540
v 0.31562878 -0.39106194 -0.09825403
v 0.01408388 -0.32612759 -0.09739184
v -0.00666674 -0.19108107 -0.10433190
v -0.12767286 -0.04437010 -0.10432760
v -0.01245516 -0.24571334 -0.09739080
v 0.00601609 -0.21269945 -0.09736855
v 0.00181530 -0.09811936 -0.10432964
v -0.32338883 0.07608070 -0.14491092
v -0.32128011 0.07871998 -0.14517343
v -0.31593171 0.08066332 -0.14492872
v -0.30999256 0.08128336 -0.14135951
v -0.32020286 0.07956060 -0.11421105
v -0.31052219 0.08124875 -0.11418955
v -0.07674387 0.08127142 -0.11415637
v 0.31950505 0.07768055 -0.14607439
v -0.31945467 0.06528106 -0.09737907
v -0.28643148 0.01268170 -0.09739486
v -0.27884162 0.03061583 -0.09736355
v -0.27023313 0.00839364 -0.10433789
v -0.27793193 0.02282072 -0.09871173
v -0.27019986 0.01647721 -0.10287520
v -0.26998388 0.02209992 -0.10061851
v -0.27030948 0.02698033 -0.09821949
v -0.32322452 0.07783164 -0.10756303
v -0.32270701 0.07331656 -0.09612118
v -0.32361882 0.08446057 -0.09452888
v -0.32344165 0.08076584 -0.09273505
v -0.31958195 0.07958412 -0.09257492
v -0.31810621 0.08639172 -0.10514162
v -0.31136140 0.08595761 -0.10747611
v -0.32228378 0.08714854 -0.09832173
v -0.32345871 0.09659285 -0.09547054
v -0.31732792 0.09502155 -0.10186658
v -0.31167271 0.09286653 -0.10373555
v -0.32498219 0.08830616 -0.08297992
v -0.32275269 0.08404651 -0.08688839
v -0.32334568 0.08699330 -0.07600196
v -0.31875066 0.08926883 -0.06740197
v -0.32361736 0.09003990 -0.06912659
v -0.32503336 0.09435909 -0.06378047
v -0.29969517 0.09432120 -0.04854455
v -0.32314352 0.09298663 -0.05361287
v -0.32347611 0.09634183 -0.04714580
v -0.31873323 0.09518815 -0.04536415
v -0.32015364 0.10048730 -0.10069538
v -0.32152114 0.11575465 -0.10303817
v -0.32412911 0.11389929 -0.09754165
v -0.31557856 0.11291259 -0.10539983
v -0.31098288 0.10198682 -0.10296915
v -0.30982305 0.10844830 -0.10468814
v -0.32269397 0.12119697 -0.08214526
v -0.32383721 0.11940828 -0.08521970
v -0.32508842 0.11855555 -0.08274593
v -0.32505531 0.10040884 -0.04909382
v -0.32502359 0.12576568 -0.05301399
v -0.31862147 0.12842172 -0.05576832
v -0.32347034 0.12647196 -0.05874955
v -0.32502896 0.10426864 -0.02575002
v -0.32504834 0.13304986 -0.02448929
v -0.32323438 0.10057233 -0.02543481
v -0.32346681 0.10379519 -0.01855342
v -0.31872638 0.10279447 -0.01696303
v -0.32502637 0.11160357 0.00272657
v -0.32330230 0.12958906 -0.05129818
v -0.31879205 0.13600267 -0.02733254
v -0.32347984 0.13393527 -0.03012339
v -0.31867420 0.14368183 0.00119066
v -0.32503396 0.13947178 0.00234906
v -0.32324295 0.13712179 -0.02311327
v -0.32348812 0.14138360 -0.00155900
v -0.30044926 0.10414968 -0.01193742
v -0.29300231 0.09795674 -0.04334400
v -0.28491944 0.10380002 -0.03736176
v -0.28380289 0.09672220 -0.04615165
v -0.29838262 0.10030527 -0.02636350
v -0.30035764 0.11167955 0.01616970
v -0.29386629 0.10372256 -0.02417612
v -0.28232900 0.10640451 -0.03028926
v -0.28623029 0.11034261 -0.01501888
v -0.28518114 0.10640503 -0.02348899
v -0.28400240 0.11283455 -0.00589045
v -0.16005288 0.11564304 -0.10335397
v -0.27648485 0.10926894 -0.01957423
v -0.27650700 0.11686677 0.00877102
v -0.32337407 0.16592553 0.08419825
v -0.32253666 0.10860585 0.00446623
v -0.32345080 0.11125748 0.01008178
v -0.32504797 0.11723567 0.02755069
v -0.32318640 0.11544947 0.03024095
v -0.32505546 0.12291980 0.04298492
v -0.32362228 0.11861297 0.03769274
v -0.31874828 0.11788696 0.03937056
v -0.32320794 0.12162645 0.05308425
v -0.32504801 0.14694948 0.02542394
v -0.32319203 0.14465993 0.00509151
v -0.32234105 0.14982233 0.02415669
v -0.32363582 0.14763060 0.02027634
v -0.32505386 0.12892448 0.05771566
v -0.32503955 0.15426962 0.05381365
v -0.29814550 0.10779740 0.00163386
v -0.29357978 0.11127286 0.00411716
v -0.28624256 0.11793994 0.01333689
v -0.28491258 0.11398832 0.00481055
v -0.28379048 0.12044469 0.02239671
v -0.30093970 0.11610179 0.03274835
v -0.29775874 0.11521344 0.02947297
v -0.29977046 0.12132884 0.05219841
v -0.29352825 0.11891458 0.03263198
v -0.28579189 0.12607573 0.04297964
v -0.28467543 0.12156151 0.03311864
v -0.29543640 0.12213535 0.04758795
v -0.32347017 0.12490649 0.05969477
v -0.31875771 0.12376833 0.06129805
v -0.32503239 0.13280864 0.08105924
v -0.32240379 0.12964483 0.08301958
v -0.30055627 0.12500036 0.06594425
v -0.32504686 0.16158888 0.08232110
v -0.32347494 0.13237722 0.08826299
v -0.32503165 0.14015171 0.10955004
v -0.32248294 0.13699801 0.11051019
v -0.29333516 0.12586630 0.05575170
v -0.29825119 0.12880115 0.08008099
v -0.28523186 0.13333307 0.07103974
v -0.28447210 0.13136809 0.06300577
v -0.28596161 0.12812273 0.05620907
v -0.29255762 0.13062441 0.07458167
v -0.30040493 0.13274713 0.09476375
v -0.29815470 0.13636951 0.10835563
v -0.29389447 0.13289462 0.08425812
v -0.28580905 0.13916898 0.09198157
v -0.28511400 0.13500957 0.08326961
v -0.29356227 0.13988937 0.11091051
v -0.28389811 0.14144744 0.10076767
v -0.27656565 0.12445598 0.03711172
v -0.27742065 0.12878645 0.05323162
v -0.27650718 0.13659277 0.08238954
v -0.27654121 0.14546919 0.11553514
v -0.31865745 0.15704920 0.05109543
v -0.32347493 0.15504868 0.04811583
v -0.32329032 0.15816340 0.05538318
v -0.31879019 0.16464096 0.07954621
v -0.32348134 0.16251144 0.07672465
v -0.32501942 0.16806011 0.10916932
v -0.31880321 0.17225224 0.10794684
v -0.32366226 0.17001807 0.10601095
v -0.16035142 0.17918157 0.13371212
v 0.02684206 0.08067053 -0.14491144
v 0.00200737 0.08124654 -0.14143998
v 0.27835924 0.02682642 -0.09829056
v -0.00190386 0.07332080 -0.09610346
v -0.00783031 0.06521465 -0.09739462
v 0.30627584 0.10848675 -0.10470483
v 0.01037691 0.08597314 -0.10746584
v -0.01198959 0.03078212 -0.09735452
v 0.31163158 0.09284705 -0.10373561
v -0.08073540 0.14740078 0.01513662
v 0.00992743 0.00836837 -0.10432507
v 0.00420618 0.01646651 -0.10287494
v 0.32366895 0.08404390 -0.08689443
v -0.00814810 0.11563245 -0.10336927
v 0.31670064 0.11290550 -0.10541170
v 0.27732387 0.10645475 -0.03011264
v -0.01410344 0.19654573 0.19847081
v 0.00708832 0.18140092 0.14215996
v -0.27646270 0.16521547 0.18918540
v -0.32345259 0.13984083 0.11694578
v -0.32504339 0.14576315 0.13429343
v -0.32267670 0.14444199 0.13837160
v -0.32505510 0.15146611 0.14986343
v -0.32361821 0.14716945 0.14447957
v -0.32317098 0.15025374 0.15980333
v -0.32346811 0.15349304 0.16656659
v -0.31871457 0.15241387 0.16822331
v -0.29979724 0.14992838 0.15896186
v -0.29988870 0.14063524 0.12399602
v -0.30098506 0.14490652 0.14023850
v -0.28578852 0.14709523 0.12142606
v -0.28486187 0.14258677 0.11157013
v -0.29789203 0.14361311 0.13578402
v -0.29094885 0.14787161 0.13330419
v -0.29309045 0.15044268 0.14636717
v -0.29546806 0.15073476 0.15435866
v -0.29334072 0.15447893 0.16252331
v -0.27742208 0.14979837 0.13165022
v -0.28318931 0.15661615 0.15713895
v -0.32503997 0.17549314 0.13218308
v -0.32318439 0.17326022 0.11186034
v -0.31873523 0.17818976 0.12998538
v -0.32340584 0.17724104 0.12898554
v -0.32505449 0.15745476 0.16449420
v -0.32504447 0.18280461 0.16063583
v -0.31862003 0.18566896 0.15786892
v -0.32347660 0.18362050 0.15495258
v -0.32322987 0.18681533 0.16216071
v -0.28438283 0.15243077 0.14156682
v -0.28538750 0.16043649 0.17133966
v -0.28596388 0.15673137 0.16297770
v -0.32503494 0.16134851 0.18785661
v -0.32260423 0.15834909 0.18973127
v -0.32347171 0.16094653 0.19509451
v -0.32504410 0.19014296 0.18913723
v -0.32505208 0.16698311 0.21273495
v -0.32312641 0.16517892 0.21580496
v -0.32362308 0.16830676 0.22282591
v -0.31877829 0.16749130 0.22450787
v -0.32505492 0.17268165 0.22815520
v -0.31879445 0.19324727 0.18631117
v -0.32348511 0.19107414 0.18353470
v -0.32322125 0.19430299 0.19035173
v -0.32500331 0.19663720 0.21598452
v -0.32504274 0.20401722 0.23896172
v -0.31880015 0.20087244 0.21475099
v -0.32349121 0.19851838 0.21206926
v -0.32316851 0.20185665 0.21858763
v -0.31874438 0.20681294 0.23680179
v -0.30054090 0.15359808 0.17264690
v -0.29823862 0.15740143 0.18683709
v -0.30038972 0.16133584 0.20146089
v -0.29256641 0.15917743 0.18117309
v -0.29390003 0.16149224 0.19103418
v -0.28567275 0.16351504 0.18984572
v -0.28586413 0.16774260 0.19869704
v -0.29781392 0.16486865 0.21476285
v -0.30093647 0.16571882 0.21790520
v -0.29356247 0.16850691 0.21774189
v -0.28376089 0.17006083 0.20735731
v -0.28625049 0.17516159 0.22689293
v -0.28480091 0.17119406 0.21833577
v -0.22485930 0.20190121 0.21848990
v -0.27649903 0.17409407 0.22232734
v -0.32312915 0.17122959 0.23838979
v -0.32505209 0.17870046 0.24280207
v -0.32347221 0.17461335 0.24483953
v -0.31875126 0.17342116 0.24660767
v -0.32503572 0.18254172 0.26610467
v -0.32321916 0.17881120 0.26657892
v -0.32346323 0.18204151 0.27332535
v -0.31875175 0.18102769 0.27499020
v -0.32339719 0.20584307 0.23584041
v -0.32504604 0.21134017 0.26744503
v -0.29903175 0.17092911 0.23730928
v -0.30040938 0.17493826 0.25227762
v -0.29542019 0.17176861 0.23278030
v -0.28421374 0.17721928 0.23413816
v -0.29248878 0.17682378 0.24340471
v -0.28349572 0.18088543 0.24778116
v -0.28596203 0.17774507 0.24140068
v -0.29829600 0.17842784 0.26528315
v -0.30080075 0.18229916 0.27977475
v -0.29365713 0.18181278 0.26741574
v -0.28416907 0.18348775 0.25780313
v -0.28622740 0.18857057 0.27694048
v -0.28522714 0.18464199 0.26848804
v -0.32502969 0.18988439 0.29463535
v -0.32254373 0.18687279 0.29646134
v -0.29820267 0.18600702 0.29359489
v -0.32345312 0.18950361 0.30193949
v -0.30047448 0.19059789 0.31074768
v -0.32504164 0.21773364 0.29426180
v -0.32504954 0.19551970 0.31952326
v -0.32264976 0.19416325 0.32378073
v -0.32362232 0.19687493 0.32962797
v -0.32507599 0.20124595 0.33089915
v -0.29257411 0.18769702 0.28763467
v -0.28382477 0.19106927 0.28568476
v -0.29389452 0.19009041 0.29781023
v -0.29165899 0.19453283 0.30895774
v -0.28478263 0.19607429 0.30452696
v -0.28497500 0.19221753 0.29677758
v -0.29132886 0.19578250 0.33007004
v -0.29193122 0.19559628 0.32189234
v -0.28454220 0.19807575 0.31181826
v -0.28142213 0.19810455 0.32066726
v -0.31864497 0.21427902 0.26465360
v -0.32347834 0.21219679 0.26179686
v -0.32321230 0.21541415 0.26889729
v -0.31880155 0.22186019 0.29310151
v -0.32348847 0.21964805 0.29037989
v -0.26055094 0.22225476 0.29457799
v -0.32503730 0.22527149 0.31740140
v -0.32320735 0.22289912 0.29708973
v -0.31878013 0.22778027 0.31511566
v -0.32364111 0.22589012 0.31221993
v -0.32490145 0.22883695 0.33682729
v -0.32347896 0.22942201 0.32116126
v -0.32317439 0.23356185 0.34148895
v -0.27642917 0.18751343 0.27241375
v -0.27669255 0.19428375 0.29767520
v -0.27706784 0.19718598 0.33535403
v -0.15483721 0.23659628 0.34799730
v -0.32486536 0.20164119 0.34346772
v -0.32280114 0.19989851 0.34547579
v -0.32362674 0.20746061 0.35128438
v -0.32012409 0.20399979 0.35718484
v -0.31877099 0.20228166 0.35431135
v -0.31999919 0.20934632 0.35591934
v -0.31052903 0.20784594 0.35798978
v -0.12207772 0.20420367 0.35760981
v -0.32374005 0.22767965 0.34581125
v -0.32173286 0.21412851 0.35238566
v -0.31737644 0.21982000 0.35389466
v -0.32077900 0.23654161 0.34786810
v -0.31984100 0.23601930 0.34883490
v -0.30977528 0.23639926 0.35039968
v -0.19576792 0.23639623 0.35040126
v -0.13777822 0.20771587 0.35804721
v 0.00086963 0.23658834 0.34804356
v 0.27694338 0.16350386 0.18279630
v 0.27858537 0.18957614 0.28010607
v 0.27801246 0.19807232 0.31180763
v -0.08352141 0.20227339 0.35433466
v -0.06342156 0.23640393 0.35035878
v 0.04935220 0.20778401 0.35805422
v 0.31631264 -0.39102469 -0.14496907
v 0.15391560 -0.38828985 -0.09739733
v 0.11299440 -0.34273421 -0.09737873
v 0.06637613 -0.25776745 -0.09740628
v 0.19663238 -0.27680193 -0.09738259
v 0.31959024 -0.38805773 -0.09736539
v 0.27185529 -0.34919676 -0.09738341
v 0.27077835 -0.19838581 -0.10287226
v 0.26804910 -0.20817561 -0.09821002
v 0.14047236 -0.21267788 -0.09736745
v 0.14770330 -0.14747889 -0.10431331
v 0.27083404 -0.19110410 -0.10431927
v 0.27471862 -0.20284570 -0.10075831
v 0.32047979 -0.38971475 -0.14140119
v 0.32388437 -0.38541438 -0.14493905
v 0.32475222 -0.38234208 -0.14138736
v 0.32555896 -0.37607242 -0.14141385
v 0.32285958 -0.38711821 -0.09855221
v 0.32556954 -0.37601231 -0.10145228
v 0.32048171 -0.38971387 -0.10147030
v 0.32401971 -0.38442435 -0.09825765
v 0.32560439 -0.13787888 -0.14138581
v 0.32558694 -0.15564322 -0.10144863
v 0.32395327 0.06518747 -0.14493391
v 0.31992673 -0.23158091 -0.09737063
v 0.27570877 -0.21253929 -0.09736310
v 0.28703142 -0.19449675 -0.09736805
v 0.27781621 -0.20552566 -0.09801099
v 0.27755349 -0.19104705 -0.10201705
v 0.28703200 0.01924022 -0.09737095
v 0.32554633 0.06748862 -0.10145688
v 0.32392665 0.06765097 -0.09820110
v 0.31142035 0.08124353 -0.11414544
v 0.31075407 0.08125761 -0.14131889
v 0.31638412 0.08060016 -0.14494767
v 0.28443593 0.03063467 -0.09741787
v 0.27085416 0.01646735 -0.10285149
v 0.32004482 0.07957804 -0.09260061
v 0.29291778 0.09432423 -0.04852978
v 0.06751955 0.14015894 -0.01188469
v 0.31045383 0.10198299 -0.10296740
v 0.16045271 0.11564089 -0.10336082
v 0.27526919 0.02139939 -0.10092338
v 0.31999306 0.06523356 -0.09738561
v 0.27085406 0.00832450 -0.10431312
v 0.32017332 0.07333353 -0.09608329
v 0.28585464 0.09775875 -0.04490266
v 0.17806068 0.17875410 0.13228599
v 0.28114478 0.10374770 -0.03736126
v 0.27858371 0.13991894 0.09478065
v 0.15857205 0.17368141 0.11328141
v 0.27855970 0.13240375 0.06673700
v 0.32276112 0.17237426 0.10846142
v 0.32557972 0.06507867 -0.14143399
v 0.32419791 0.07577846 -0.14132789
v 0.32171224 0.07880199 -0.14522670
v 0.32415524 0.07623862 -0.10869092
v 0.32064559 0.07966018 -0.11286462
v 0.27756041 0.00832447 -0.10201466
v 0.31236047 0.08593132 -0.10746217
v 0.32190781 0.11566047 -0.10319765
v 0.27860538 0.11885471 0.01617368
v 0.27861975 0.11133600 -0.01185854
v 0.28610895 0.10499973 -0.02859546
v 0.28593471 0.10956565 -0.01884680
v 0.28621115 0.11228993 -0.00108005
v 0.31930183 0.08764555 -0.07346637
v 0.32413464 0.08389275 -0.09500848
v 0.32397656 0.07931168 -0.09404657
v 0.31858156 0.08612226 -0.10408170
v 0.31916090 0.09329881 -0.10171188
v 0.32260860 0.08463839 -0.10002923
v 0.32474311 0.09756604 -0.09101244
v 0.32307346 0.09517200 -0.09625923
v 0.32552533 0.08828370 -0.08317583
v 0.32418128 0.08964513 -0.07060099
v 0.32557891 0.09429960 -0.06387175
v 0.31924332 0.09353670 -0.05149542
v 0.32367856 0.09253238 -0.05534251
v 0.32403771 0.09588392 -0.04880458
v 0.32326054 0.12136681 -0.08183132
v 0.31924885 0.14794262 0.01719599
v 0.32068890 0.10267074 -0.10110906
v 0.32465713 0.11392259 -0.09761192
v 0.32541429 0.12006235 -0.08083976
v 0.32556256 0.11395340 -0.08713288
v 0.32552739 0.12571088 -0.05310216
v 0.32316231 0.12877406 -0.05391373
v 0.32398180 0.12599474 -0.06042884
v 0.29335756 0.09759669 -0.04240336
v 0.29980542 0.09876420 -0.03263057
v 0.31924381 0.10114422 -0.02310333
v 0.29390966 0.10405546 -0.02427336
v 0.29966380 0.10117320 -0.02302540
v 0.30079751 0.10558946 -0.00698481
v 0.32559771 0.10037972 -0.04919679
v 0.32557542 0.10424066 -0.02583180
v 0.32553324 0.13304170 -0.02457454
v 0.32376091 0.10012431 -0.02709155
v 0.32402428 0.10332263 -0.02025865
v 0.32558733 0.11161026 0.00267647
v 0.32299102 0.13626382 -0.02589834
v 0.32398911 0.13346406 -0.03178703
v 0.32554144 0.13695950 -0.00123830
v 0.32298921 0.14364617 0.00180913
v 0.32399664 0.14091739 -0.00321451
v 0.27849730 0.11494705 0.00160705
v 0.28595988 0.11718374 0.00956622
v 0.28601842 0.11877014 0.02014300
v 0.27928798 0.12369258 0.03415725
v 0.29332482 0.11875128 0.03085533
v 0.28621120 0.12461722 0.03778859
v 0.28643298 0.12690641 0.05150137
v 0.27676970 0.14822152 0.12578224
v 0.27851091 0.13600162 0.08018597
v 0.28554921 0.13053146 0.05964568
v 0.28623838 0.13339407 0.07748090
v 0.27850640 0.14353406 0.10830644
v 0.28593831 0.13818105 0.08793901
v 0.28620740 0.14086940 0.10563503
v 0.29405922 0.11107823 0.00330107
v 0.29935386 0.10854532 0.00436576
v 0.30066272 0.11311812 0.02104852
v 0.31923573 0.10878507 0.00541020
v 0.30168908 0.11860256 0.04204307
v 0.29829962 0.11566445 0.03113732
v 0.29553745 0.12247026 0.04794669
v 0.31926994 0.11625632 0.03330502
v 0.31927494 0.12212978 0.05520319
v 0.32380301 0.10764930 0.00110670
v 0.32401284 0.11077734 0.00834906
v 0.32560251 0.11723751 0.02753414
v 0.32395570 0.11720416 0.03437225
v 0.32562179 0.12291513 0.04289542
v 0.32373628 0.12117177 0.05140544
v 0.32554326 0.14295765 0.01343423
v 0.32415101 0.14724174 0.01884750
v 0.32552745 0.15425303 0.05370832
v 0.32561876 0.12896062 0.05755285
v 0.32555481 0.14861199 0.02889125
v 0.30032448 0.12228646 0.05577478
v 0.29316262 0.12700504 0.05783366
v 0.30045859 0.12725914 0.07395658
v 0.29410359 0.13206375 0.08158761
v 0.29941237 0.12959832 0.08288473
v 0.32374359 0.12868114 0.07962904
v 0.30099686 0.13411561 0.09990010
v 0.29404972 0.13971163 0.11014495
v 0.29930020 0.13717315 0.11111180
v 0.31923054 0.13742641 0.11229874
v 0.32402767 0.12443780 0.05799998
v 0.32560690 0.13284163 0.08095394
v 0.32552882 0.16158413 0.08221450
v 0.31932718 0.12982231 0.08378544
v 0.32403328 0.13190631 0.08656461
v 0.32383601 0.13623382 0.10777232
v 0.32552364 0.14000996 0.10956665
v 0.32557144 0.16547677 0.10561987
v 0.32297653 0.21445656 0.26552029
v 0.32380162 0.15036155 0.02637174
v 0.32398241 0.15456315 0.04639948
v 0.32311472 0.15735157 0.05275568
v 0.32399031 0.16203437 0.07503961
v 0.32294581 0.16484986 0.08079892
v 0.32400449 0.16949713 0.10364489
v 0.27796776 0.19810343 0.32084272
v 0.16137614 0.23659627 0.34803768
v 0.27797275 0.15739634 0.16000491
v 0.27676651 0.17683030 0.23255287
v 0.31954497 0.23424662 0.33917526
v 0.29114022 0.19716712 0.33528100
v 0.27847951 0.19319353 0.29360350
v 0.31496999 0.23640479 0.35040019
v 0.31919021 0.20225597 0.35427438
v 0.31050613 0.20418875 0.35759085
v 0.31407282 0.20789771 0.35796123
v 0.28598608 0.14579513 0.11634882
v 0.28648454 0.14781875 0.12944692
v 0.28510114 0.15116347 0.13667370
v 0.30121909 0.14158936 0.12764466
v 0.29579209 0.14330233 0.12598787
v 0.29180420 0.14936588 0.13823596
v 0.29931956 0.14476825 0.13962778
v 0.32302218 0.14470153 0.13921447
v 0.29982861 0.14962112 0.15621001
v 0.30028519 0.15092417 0.16253099
v 0.29313856 0.15566046 0.16469611
v 0.31926610 0.15077105 0.16208575
v 0.32400981 0.13936436 0.11522682
v 0.32559662 0.17139630 0.12028387
v 0.32557284 0.14739780 0.13785999
v 0.32418467 0.14678077 0.14302862
v 0.32375916 0.14976018 0.15808423
v 0.32555580 0.15487527 0.16097100
v 0.32403187 0.15302835 0.16489187
v 0.28475499 0.15444035 0.14920524
v 0.28643124 0.15552296 0.15827767
v 0.28542985 0.15961398 0.16821390
v 0.28572314 0.16200984 0.18420106
v 0.28593685 0.16679723 0.19472980
v 0.27864451 0.16851171 0.20153085
v 0.27849440 0.17212950 0.21502201
v 0.28619997 0.16944900 0.21235587
v 0.28599679 0.17440186 0.22311802
v 0.32058628 0.19336733 0.18670659
v 0.31935167 0.17653521 0.12399360
v 0.32415334 0.17577866 0.12559344
v 0.32559295 0.17713683 0.13576971
v 0.32557712 0.18274943 0.16054248
v 0.32377066 0.17890704 0.13297561
v 0.32307189 0.18593181 0.15944019
v 0.32400359 0.18314810 0.15328613
v 0.30041228 0.15583737 0.18058785
v 0.29408000 0.16067793 0.18838508
v 0.29945854 0.15815498 0.18963011
v 0.32377190 0.15728294 0.18635621
v 0.31924723 0.15840818 0.19053884
v 0.30072021 0.16276888 0.20636115
v 0.29403451 0.16835087 0.21700334
v 0.29834948 0.16534285 0.21647277
v 0.30162080 0.16823866 0.22713837
v 0.32285921 0.16569430 0.21758760
v 0.30034077 0.17190960 0.24097913
v 0.32555134 0.16124955 0.18777695
v 0.32556827 0.16750123 0.21402446
v 0.32402888 0.16047594 0.19339892
v 0.32556939 0.19010524 0.18904659
v 0.32418376 0.16792359 0.22137670
v 0.32401036 0.19061097 0.18189440
v 0.32380045 0.19381435 0.18871422
v 0.32558067 0.19395745 0.21239100
v 0.32293521 0.20085394 0.21535141
v 0.32401699 0.19805278 0.21043354
v 0.31936140 0.20515138 0.23079162
v 0.32558207 0.20000490 0.22712782
v 0.27858623 0.18207491 0.25215191
v 0.27849441 0.18565738 0.26549265
v 0.28643537 0.17652473 0.23668846
v 0.28533123 0.18035128 0.24508978
v 0.28624051 0.18307419 0.26276829
v 0.28590857 0.18780347 0.27312548
v 0.28621993 0.19054987 0.29091478
v 0.28596309 0.19540738 0.30150585
v 0.28902954 0.19646144 0.31293315
v 0.32324733 0.22818079 0.31677001
v 0.32102310 0.23655305 0.34781166
v 0.29553359 0.17209313 0.23313135
v 0.29319812 0.17656887 0.24288264
v 0.32366891 0.17075429 0.23661706
v 0.31931252 0.17179092 0.24050179
v 0.30053176 0.17696710 0.25952175
v 0.29412426 0.18162152 0.26657397
v 0.29950016 0.17918822 0.26810028
v 0.32372116 0.17833875 0.26491820
v 0.31927518 0.17939160 0.26890741
v 0.30082570 0.18382807 0.28506730
v 0.32556821 0.17541194 0.23759134
v 0.32403468 0.17415387 0.24317692
v 0.32556447 0.18248464 0.26608687
v 0.32402619 0.18158915 0.27169690
v 0.32416350 0.20435946 0.23246227
v 0.32559952 0.20567019 0.24250921
v 0.32555090 0.21529700 0.29074523
v 0.32556031 0.21133997 0.26736730
v 0.29407452 0.18931004 0.29524614
v 0.29944485 0.18676981 0.29640851
v 0.30059951 0.19180114 0.31509494
v 0.32379186 0.18587201 0.29308767
v 0.31924828 0.18701786 0.29736096
v 0.29685122 0.19531264 0.32808896
v 0.32292853 0.19432431 0.32440046
v 0.32556972 0.18983091 0.29457178
v 0.32401957 0.18903706 0.30025582
v 0.32559319 0.19730500 0.32343403
v 0.32418540 0.19647550 0.32814343
v 0.32553563 0.22850696 0.33576981
v 0.32374231 0.20746049 0.23955334
v 0.32401396 0.21173906 0.26016902
v 0.31934760 0.22024188 0.28712106
v 0.32401426 0.21919745 0.28875693
v 0.32556895 0.22125181 0.30539957
v 0.32372569 0.22239243 0.29534986
v 0.32416596 0.22552118 0.31084892
v 0.32559697 0.22691885 0.32103234
v 0.32367951 0.23322572 0.33981712
v 0.30970081 0.22752537 0.35277404
v 0.32339850 0.19942311 0.34357110
v 0.32539639 0.20171940 0.34345080
v 0.32410039 0.20806067 0.35154414
v 0.32173989 0.20366622 0.35593749
v 0.32121407 0.22068059 0.35242492
v 0.32406393 0.23015010 0.34545020
f 1 2 3
f 1 3 4
f 5 7 6
f 5 2 1
f 5 8 2
f 5 6 8
f 6 7 9
f 3 10 4
f 6 9 11
f 1 13 12
f 1 4 13
f 5 15 7
f 5 16 15
f 5 12 16
f 5 1 12
f 7 15 9
f 16 13 17
f 16 12 13
f 16 17 18
f 15 16 18
f 13 14 17
f 13 19 14
f 14 20 17
f 19 21 14
f 14 21 22
f 9 15 23
f 15 18 23
f 9 23 11
f 17 20 26
f 20 25 26
f 20 14 22
f 27 26 28
f 25 28 26
f 27 29 26
f 29 27 30
f 28 31 27
f 26 32 17
f 18 17 33
f 23 18 33
f 26 29 32
f 29 34 32
f 29 30 34
f 2 8 35
f 3 36 10
f 10 36 4
f 3 2 35
f 13 39 19
f 4 39 13
f 21 38 22
f 36 37 4
f 4 37 39
f 21 19 40
f 20 22 25
f 22 38 25
f 27 41 30
f 38 21 43
f 38 43 44
f 38 44 25
f 25 44 28
f 27 31 41
f 21 40 43
f 41 42 30
f 41 45 42
f 6 11 46
f 6 46 8
f 46 24 8
f 46 47 24
f 11 23 46
f 47 48 24
f 47 50 48
f 48 51 49
f 48 50 51
f 49 51 52
f 24 48 53
f 33 17 54
f 17 32 54
f 32 55 54
f 55 56 54
f 32 34 55
f 34 30 57
f 57 30 42
f 34 58 55
f 55 58 56
f 34 59 58
f 34 57 59
f 58 59 60
f 58 61 56
f 58 60 61
f 23 62 46
f 33 54 63
f 23 33 63
f 23 64 62
f 63 66 65
f 23 65 64
f 23 63 65
f 46 50 47
f 46 62 50
f 50 62 67
f 50 68 51
f 50 67 68
f 62 69 67
f 62 64 69
f 69 64 70
f 67 69 71
f 67 72 68
f 67 71 72
f 65 73 64
f 65 74 73
f 65 66 74
f 74 75 73
f 64 73 70
f 74 76 75
f 75 76 77
f 75 77 73
f 73 77 78
f 76 74 79
f 77 80 78
f 77 76 80
f 80 82 81
f 80 81 78
f 76 79 80
f 83 69 70
f 83 71 69
f 83 85 84
f 83 70 85
f 83 84 86
f 71 87 72
f 71 83 87
f 83 88 87
f 83 86 88
f 84 90 89
f 85 90 84
f 70 91 85
f 70 73 91
f 73 78 92
f 73 92 91
f 85 91 90
f 90 91 89
f 89 95 94
f 91 95 89
f 91 93 95
f 89 94 84
f 78 81 92
f 81 96 92
f 91 92 93
f 92 96 97
f 92 97 93
f 81 98 96
f 81 82 98
f 98 100 99
f 98 99 96
f 98 82 100
f 99 101 96
f 95 93 102
f 95 102 94
f 102 103 94
f 102 104 103
f 93 104 102
f 93 97 104
f 103 105 94
f 104 97 107
f 104 107 103
f 103 107 105
f 107 108 105
f 97 108 107
f 97 106 108
f 80 79 82
f 82 79 109
f 110 112 111
f 79 112 110
f 82 109 100
f 109 79 113
f 100 109 114
f 110 115 113
f 79 110 113
f 113 115 109
f 110 116 115
f 110 111 116
f 115 118 117
f 115 116 118
f 109 115 117
f 117 119 109
f 84 94 120
f 86 84 120
f 116 121 118
f 118 121 117
f 117 121 119
f 121 116 122
f 99 124 101
f 99 100 124
f 124 125 101
f 96 101 97
f 125 126 101
f 125 124 127
f 101 126 128
f 125 127 126
f 127 130 129
f 127 129 126
f 126 129 128
f 129 131 128
f 129 130 131
f 97 101 106
f 101 132 106
f 101 128 132
f 108 106 133
f 108 133 105
f 133 135 134
f 106 135 133
f 106 132 135
f 133 134 105
f 128 136 132
f 132 136 137
f 100 114 124
f 114 109 138
f 124 114 127
f 109 139 138
f 138 139 114
f 109 119 139
f 139 141 140
f 139 119 141
f 114 139 140
f 140 142 114
f 127 114 143
f 114 144 143
f 127 145 130
f 127 143 145
f 114 146 144
f 143 144 146
f 114 142 146
f 146 148 147
f 146 142 148
f 143 146 147
f 143 149 145
f 143 147 149
f 131 151 150
f 131 150 128
f 131 130 151
f 128 150 136
f 150 152 136
f 150 153 152
f 150 151 153
f 136 155 137
f 136 152 155
f 153 156 152
f 156 157 152
f 156 153 158
f 156 158 157
f 152 157 155
f 130 154 151
f 130 145 154
f 149 159 145
f 154 160 151
f 159 161 154
f 159 162 161
f 145 159 154
f 159 163 162
f 149 163 159
f 149 147 163
f 154 161 164
f 154 164 160
f 151 165 153
f 151 160 165
f 153 165 166
f 153 166 158
f 160 164 167
f 160 167 165
f 165 167 168
f 167 169 168
f 164 169 167
f 164 161 169
f 165 170 166
f 168 171 165
f 165 171 170
f 119 122 141
f 119 121 122
f 141 122 140
f 140 122 142
f 122 116 142
f 142 172 148
f 142 116 172
f 116 173 172
f 105 123 94
f 148 172 147
f 172 173 147
f 116 168 173
f 147 173 163
f 163 173 162
f 162 174 161
f 162 173 174
f 161 174 169
f 169 174 168
f 171 168 175
f 173 168 174
f 135 132 134
f 134 177 176
f 132 177 134
f 132 137 177
f 177 137 178
f 177 178 176
f 178 179 176
f 178 180 179
f 137 180 178
f 137 155 180
f 179 123 176
f 155 157 181
f 180 155 123
f 180 123 179
f 123 183 182
f 155 183 123
f 155 181 183
f 134 176 123
f 105 134 123
f 24 53 8
f 48 49 185
f 53 48 185
f 185 49 186
f 49 52 186
f 61 187 56
f 60 187 61
f 51 68 52
f 54 188 63
f 63 188 66
f 56 189 54
f 54 189 188
f 87 88 190
f 88 86 190
f 52 68 191
f 68 72 191
f 56 192 189
f 191 72 193
f 72 87 193
f 94 123 120
f 120 123 184
f 57 42 195
f 57 195 59
f 195 196 59
f 59 196 60
f 187 192 56
f 45 195 42
f 66 197 74
f 74 197 79
f 120 194 198
f 190 86 199
f 86 120 199
f 199 120 198
f 111 200 116
f 116 200 168
f 198 201 202
f 198 194 201
f 120 184 194
f 158 204 157
f 204 205 157
f 204 158 206
f 204 206 205
f 205 207 157
f 206 208 205
f 205 208 207
f 208 209 207
f 208 206 209
f 209 211 210
f 209 210 207
f 206 212 209
f 209 212 211
f 158 166 213
f 158 213 206
f 206 213 214
f 166 170 213
f 213 170 215
f 170 216 215
f 170 171 216
f 213 218 217
f 213 217 214
f 213 215 218
f 206 214 212
f 217 218 219
f 214 217 219
f 214 220 212
f 214 219 220
f 220 221 212
f 171 175 216
f 216 175 215
f 215 222 218
f 175 222 215
f 175 168 222
f 222 168 223
f 157 224 181
f 157 207 224
f 183 181 225
f 183 225 182
f 225 227 226
f 181 227 225
f 181 224 227
f 182 225 123
f 225 226 123
f 207 210 228
f 207 229 224
f 207 228 229
f 227 230 226
f 227 231 230
f 224 231 227
f 224 229 231
f 231 229 232
f 231 232 230
f 218 233 219
f 219 223 220
f 219 233 223
f 221 235 234
f 220 235 221
f 220 223 235
f 210 236 228
f 210 237 236
f 210 211 237
f 237 238 236
f 228 239 229
f 228 236 239
f 238 240 236
f 238 237 241
f 237 211 241
f 238 241 240
f 241 243 242
f 241 242 240
f 236 240 244
f 240 242 244
f 232 246 245
f 229 246 232
f 229 239 246
f 246 239 247
f 246 247 245
f 245 247 232
f 236 244 239
f 244 248 239
f 248 244 249
f 247 251 250
f 239 251 247
f 239 248 251
f 247 250 232
f 251 248 252
f 251 252 250
f 250 253 232
f 250 252 253
f 211 212 254
f 211 254 255
f 211 255 256
f 221 234 254
f 212 221 254
f 254 234 257
f 254 257 255
f 255 257 258
f 255 258 256
f 257 234 259
f 258 259 260
f 257 259 258
f 211 256 241
f 241 256 261
f 241 261 262
f 256 258 260
f 256 263 261
f 262 261 263
f 260 264 256
f 256 264 263
f 263 266 265
f 263 264 266
f 232 253 267
f 218 222 233
f 222 223 233
f 123 226 184
f 226 230 184
f 230 232 267
f 235 223 234
f 223 203 234
f 234 203 259
f 259 203 260
f 264 268 266
f 260 203 264
f 203 268 264
f 242 269 244
f 242 243 269
f 269 272 271
f 269 271 244
f 244 271 270
f 271 273 270
f 271 274 273
f 271 272 274
f 274 276 275
f 274 275 273
f 274 272 276
f 244 270 249
f 252 277 253
f 248 277 252
f 248 249 277
f 273 278 270
f 270 278 249
f 241 262 243
f 243 262 279
f 269 279 280
f 243 279 269
f 269 280 272
f 262 263 265
f 262 281 279
f 262 265 281
f 265 282 281
f 281 283 279
f 279 283 280
f 283 285 284
f 281 285 283
f 281 282 285
f 272 280 286
f 272 287 276
f 272 286 287
f 280 288 286
f 280 283 288
f 286 288 287
f 283 284 289
f 283 289 288
f 287 288 290
f 288 291 290
f 288 289 291
f 275 292 273
f 275 293 292
f 275 276 293
f 293 295 292
f 276 296 293
f 276 294 296
f 273 297 278
f 273 292 297
f 295 298 292
f 295 293 299
f 295 299 298
f 293 296 299
f 299 300 298
f 292 298 301
f 298 300 301
f 276 287 294
f 287 290 302
f 287 302 294
f 290 303 302
f 294 302 304
f 294 304 296
f 304 306 305
f 296 304 305
f 304 307 306
f 302 307 304
f 302 303 307
f 296 308 299
f 296 305 309
f 296 309 308
f 305 306 310
f 305 311 309
f 305 310 311
f 277 312 253
f 277 313 312
f 249 313 277
f 249 278 313
f 313 278 314
f 313 314 312
f 314 316 315
f 278 316 314
f 278 297 316
f 297 292 318
f 316 297 319
f 316 319 315
f 319 321 320
f 297 321 319
f 297 318 321
f 315 319 314
f 319 320 314
f 292 301 318
f 301 322 318
f 321 318 323
f 321 323 320
f 320 323 314
f 318 324 323
f 318 322 324
f 314 323 317
f 266 268 265
f 265 268 282
f 285 282 284
f 282 268 284
f 289 325 291
f 291 325 290
f 284 325 289
f 284 268 325
f 290 325 303
f 303 326 307
f 307 326 306
f 326 303 306
f 311 327 309
f 309 327 308
f 306 303 310
f 267 253 317
f 253 312 317
f 312 314 317
f 300 329 301
f 300 330 329
f 300 299 330
f 329 332 331
f 329 333 332
f 329 330 333
f 332 335 334
f 299 308 330
f 308 327 330
f 332 336 335
f 333 336 332
f 329 331 337
f 301 329 322
f 329 337 322
f 331 338 337
f 338 334 339
f 331 334 338
f 331 332 334
f 334 335 339
f 324 340 323
f 322 340 324
f 322 337 340
f 338 339 341
f 337 338 341
f 337 341 340
f 339 335 342
f 339 342 341
f 340 341 342
f 323 340 317
f 336 344 335
f 335 344 343
f 335 343 342
f 317 340 328
f 340 342 343
f 230 267 184
f 223 168 203
f 184 328 201
f 303 325 310
f 184 267 328
f 267 317 328
f 268 203 325
f 194 184 201
f 203 168 346
f 203 347 325
f 325 348 310
f 310 348 311
f 325 347 348
f 346 347 203
f 201 328 345
f 327 349 330
f 330 349 333
f 333 349 336
f 340 343 328
f 344 350 343
f 328 343 350
f 336 351 344
f 344 351 350
f 328 350 345
f 3 352 36
f 3 35 352
f 39 353 19
f 353 40 19
f 353 354 40
f 40 354 355
f 39 357 353
f 353 357 358
f 353 358 354
f 356 354 358
f 35 8 53
f 43 40 44
f 40 355 44
f 31 359 41
f 31 28 360
f 31 360 359
f 355 354 361
f 355 361 44
f 44 360 28
f 44 361 360
f 45 41 363
f 45 363 362
f 45 362 195
f 354 356 361
f 359 363 41
f 360 364 359
f 352 366 365
f 352 35 366
f 366 368 367
f 366 367 369
f 365 366 369
f 367 368 370
f 36 352 37
f 352 371 39
f 352 365 371
f 352 39 37
f 39 371 357
f 369 367 372
f 365 369 371
f 367 370 372
f 371 369 357
f 357 369 372
f 368 373 370
f 366 373 368
f 373 374 370
f 366 375 373
f 35 375 366
f 358 376 356
f 361 356 377
f 361 377 360
f 356 376 377
f 377 376 378
f 364 360 379
f 377 379 360
f 377 378 379
f 359 380 363
f 359 364 380
f 379 378 364
f 364 378 380
f 358 357 376
f 357 372 376
f 370 374 372
f 378 381 380
f 378 376 381
f 374 383 372
f 374 382 383
f 376 372 383
f 186 52 384
f 186 384 385
f 185 186 385
f 185 385 386
f 53 185 386
f 187 387 192
f 195 388 196
f 196 388 60
f 188 389 66
f 52 191 384
f 66 389 197
f 197 390 79
f 193 87 392
f 87 190 392
f 198 391 393
f 79 390 112
f 198 202 391
f 199 198 393
f 388 394 60
f 60 394 187
f 195 362 396
f 195 396 388
f 192 395 189
f 387 395 192
f 189 395 188
f 395 397 188
f 188 397 389
f 112 398 111
f 390 398 112
f 398 400 111
f 111 400 200
f 200 401 168
f 393 391 402
f 393 402 399
f 391 202 402
f 373 405 374
f 375 405 373
f 35 53 375
f 375 406 405
f 375 407 406
f 53 407 375
f 53 386 407
f 385 384 386
f 384 409 386
f 406 409 408
f 406 407 409
f 386 409 407
f 362 363 396
f 363 380 410
f 380 381 410
f 363 410 396
f 396 394 388
f 396 410 394
f 410 381 394
f 394 381 187
f 187 381 387
f 374 405 382
f 381 376 395
f 381 395 387
f 376 383 395
f 384 191 411
f 191 193 411
f 199 393 412
f 200 414 413
f 400 415 200
f 200 415 416
f 200 416 414
f 414 416 417
f 393 399 412
f 405 406 408
f 405 408 382
f 395 383 397
f 408 419 382
f 382 420 383
f 382 419 420
f 397 420 389
f 397 383 420
f 384 421 409
f 384 411 421
f 411 422 421
f 411 193 422
f 408 423 419
f 408 409 423
f 421 423 409
f 423 424 419
f 423 425 424
f 421 425 423
f 420 426 197
f 420 419 426
f 389 420 197
f 419 424 426
f 197 426 427
f 418 197 427
f 426 428 427
f 197 429 390
f 197 430 429
f 197 418 430
f 427 428 430
f 418 427 430
f 430 428 431
f 429 430 431
f 190 199 392
f 412 433 432
f 193 434 422
f 193 392 434
f 392 199 434
f 422 425 421
f 422 434 425
f 434 435 425
f 434 412 435
f 434 199 412
f 425 435 424
f 435 412 436
f 412 432 436
f 424 437 426
f 424 435 437
f 428 426 438
f 426 437 438
f 435 436 437
f 437 436 438
f 433 439 432
f 436 432 440
f 436 440 438
f 432 439 440
f 390 441 398
f 398 441 400
f 441 390 442
f 390 443 442
f 390 429 443
f 400 444 415
f 400 441 444
f 415 444 416
f 442 444 441
f 442 445 444
f 444 446 416
f 444 445 446
f 416 446 417
f 442 443 445
f 428 438 447
f 428 447 431
f 431 447 448
f 438 449 447
f 443 429 450
f 431 448 450
f 429 431 450
f 450 448 451
f 443 450 451
f 451 448 452
f 447 449 448
f 440 439 438
f 433 453 439
f 438 439 454
f 438 454 449
f 439 453 454
f 449 455 448
f 454 453 449
f 433 456 453
f 449 453 457
f 449 457 455
f 453 456 457
f 200 413 401
f 401 413 403
f 413 414 458
f 414 417 458
f 458 417 459
f 458 459 413
f 413 459 460
f 413 462 461
f 413 460 462
f 461 462 463
f 413 461 403
f 461 463 464
f 403 466 401
f 403 461 467
f 461 464 467
f 403 467 468
f 403 468 466
f 466 468 470
f 466 470 401
f 401 470 471
f 401 471 469
f 446 473 472
f 417 446 472
f 417 472 459
f 459 474 460
f 472 474 459
f 472 473 474
f 446 445 473
f 445 443 475
f 473 476 474
f 473 445 476
f 445 475 476
f 460 474 462
f 474 477 462
f 477 476 462
f 462 476 463
f 476 478 463
f 474 476 477
f 476 475 479
f 476 479 480
f 463 478 464
f 443 481 475
f 451 452 481
f 443 451 481
f 481 452 482
f 475 481 482
f 448 455 452
f 482 452 483
f 482 483 484
f 475 484 479
f 475 482 484
f 483 485 484
f 483 452 485
f 479 486 480
f 484 485 486
f 479 484 486
f 452 455 487
f 455 457 487
f 457 456 487
f 487 456 488
f 433 488 456
f 452 487 485
f 485 489 490
f 485 491 489
f 485 487 491
f 487 488 491
f 478 492 493
f 478 476 492
f 464 493 467
f 464 478 493
f 467 494 468
f 467 493 494
f 468 494 495
f 493 492 494
f 494 496 495
f 476 480 492
f 492 480 497
f 468 495 470
f 495 498 470
f 495 496 498
f 498 500 499
f 470 498 471
f 471 498 499
f 494 498 496
f 494 492 498
f 492 497 498
f 498 497 501
f 486 485 502
f 480 486 502
f 485 490 502
f 502 490 503
f 502 503 497
f 480 502 497
f 490 489 504
f 497 503 506
f 505 497 506
f 497 507 501
f 497 505 507
f 506 503 508
f 506 508 507
f 505 506 507
f 490 509 503
f 412 399 404
f 412 404 433
f 488 511 491
f 433 511 488
f 491 511 512
f 433 513 511
f 491 512 489
f 511 513 512
f 433 404 513
f 512 513 489
f 489 513 514
f 404 515 513
f 489 514 504
f 513 515 514
f 490 504 509
f 514 515 504
f 504 515 516
f 504 516 509
f 515 404 516
f 168 401 346
f 311 517 327
f 201 345 202
f 348 517 311
f 202 345 402
f 402 345 518
f 401 519 346
f 517 522 327
f 402 518 521
f 347 523 348
f 327 522 349
f 345 350 524
f 351 524 350
f 345 524 518
f 349 522 525
f 349 525 336
f 336 526 351
f 525 526 336
f 351 527 524
f 401 469 465
f 469 471 528
f 469 528 465
f 465 528 529
f 465 529 530
f 471 499 528
f 499 531 528
f 499 500 531
f 528 532 529
f 529 533 530
f 529 532 533
f 531 532 528
f 532 534 533
f 532 531 534
f 500 498 531
f 531 498 534
f 498 535 534
f 498 501 535
f 534 536 533
f 536 537 538
f 536 534 537
f 534 535 539
f 507 508 540
f 501 507 540
f 508 503 541
f 540 508 542
f 540 542 535
f 501 540 535
f 508 541 542
f 535 542 543
f 535 544 539
f 543 545 544
f 543 542 545
f 535 543 544
f 544 545 546
f 539 544 546
f 401 465 519
f 404 399 510
f 465 547 519
f 465 530 547
f 547 548 519
f 519 548 549
f 402 521 399
f 519 549 346
f 346 549 550
f 346 550 551
f 346 552 520
f 552 553 520
f 346 551 552
f 552 551 554
f 552 554 553
f 553 554 555
f 530 533 547
f 547 536 548
f 547 533 536
f 548 538 549
f 548 536 538
f 510 556 404
f 503 509 541
f 509 516 541
f 516 404 541
f 541 404 558
f 557 558 404
f 541 558 559
f 542 541 545
f 545 541 560
f 541 559 560
f 404 556 561
f 404 561 557
f 558 561 559
f 557 561 558
f 556 562 561
f 559 561 563
f 559 563 560
f 561 562 563
f 563 562 560
f 549 538 564
f 538 537 564
f 549 565 550
f 549 564 565
f 550 565 551
f 564 566 565
f 537 566 564
f 537 534 566
f 534 567 566
f 534 539 567
f 566 567 568
f 565 569 551
f 565 566 569
f 569 571 570
f 571 572 570
f 551 569 554
f 554 569 570
f 554 570 555
f 566 568 573
f 571 574 572
f 571 566 574
f 569 566 571
f 566 573 574
f 546 545 575
f 545 576 575
f 546 575 567
f 539 546 567
f 567 575 577
f 568 567 577
f 545 578 576
f 545 560 578
f 577 575 576
f 577 576 573
f 568 577 573
f 573 576 579
f 560 562 580
f 560 580 578
f 562 556 580
f 580 581 578
f 556 581 580
f 576 578 582
f 578 581 584
f 556 584 581
f 578 584 582
f 556 583 584
f 556 585 583
f 582 584 586
f 584 583 586
f 520 587 346
f 346 588 347
f 346 587 588
f 553 555 520
f 520 555 589
f 520 589 590
f 520 590 587
f 587 590 591
f 587 591 588
f 588 591 592
f 588 592 347
f 347 592 593
f 347 593 523
f 523 593 594
f 523 594 348
f 348 594 595
f 348 595 517
f 517 595 522
f 521 596 399
f 521 518 597
f 555 598 589
f 570 572 555
f 572 598 555
f 589 599 590
f 589 598 599
f 598 574 599
f 598 572 574
f 574 573 600
f 574 600 601
f 599 574 602
f 602 604 603
f 602 574 604
f 574 601 605
f 574 606 604
f 574 605 606
f 590 602 591
f 590 599 602
f 591 602 603
f 591 603 592
f 603 607 592
f 603 604 607
f 579 576 608
f 579 608 600
f 573 579 600
f 600 608 609
f 601 600 609
f 609 608 610
f 609 610 605
f 601 609 605
f 605 610 611
f 606 605 611
f 576 582 586
f 586 583 612
f 585 612 583
f 576 586 613
f 586 612 613
f 608 576 610
f 610 576 614
f 576 613 615
f 576 615 614
f 592 607 593
f 593 607 616
f 607 617 616
f 593 616 594
f 616 618 594
f 616 617 618
f 604 617 607
f 604 619 617
f 604 606 619
f 617 619 620
f 618 621 595
f 594 618 595
f 595 621 522
f 618 617 621
f 617 622 621
f 617 620 622
f 611 610 623
f 611 623 619
f 606 611 619
f 619 623 624
f 620 619 624
f 610 614 623
f 624 623 625
f 624 625 622
f 620 624 622
f 622 625 626
f 623 614 627
f 623 627 625
f 399 596 510
f 556 628 585
f 612 628 613
f 585 628 612
f 613 628 629
f 556 510 628
f 613 629 615
f 628 510 629
f 629 510 615
f 615 510 631
f 630 631 510
f 596 630 510
f 615 631 614
f 614 631 632
f 596 633 630
f 631 633 632
f 630 633 631
f 632 633 634
f 633 596 634
f 614 632 627
f 632 635 627
f 632 634 635
f 634 596 635
f 635 596 636
f 635 636 627
f 596 521 636
f 526 527 351
f 524 527 637
f 518 524 597
f 522 621 525
f 621 622 638
f 621 638 525
f 626 639 638
f 626 625 639
f 622 626 638
f 638 639 525
f 526 641 527
f 525 641 526
f 639 640 641
f 525 639 641
f 625 627 639
f 639 627 640
f 640 642 641
f 527 641 642
f 627 643 640
f 627 636 643
f 527 642 637
f 637 642 524
f 640 643 642
f 643 597 642
f 642 597 524
f 636 597 643
f 521 597 636

