# https://github.com/mikedh/trimesh
v -0.36454730 -0.03639663 -0.18182523
v -0.36456679 -0.03364918 -0.18291307
v -0.36509038 -0.03455143 -0.18033358
v -0.36270342 -0.03690491 -0.18029519
v -0.36177426 -0.03639373 -0.18292517
v -0.36268604 -0.03456096 -0.18417199
v -0.36267108 -0.01144288 -0.18417183
v -0.36509177 -0.00875542 -0.18025917
v -0.34377778 -0.03690399 -0.16043510
v -0.36456478 -0.00813057 -0.18285214
v -0.36266476 -0.00854449 -0.18376749
v -0.36416210 -0.00693464 -0.18191230
v -0.36219899 -0.00649462 -0.18226685
v -0.35525597 -0.00398625 -0.17671357
v -0.36044057 -0.00518438 -0.17722110
v -0.34952770 -0.00028714 -0.16658364
v -0.33865216 -0.03690819 -0.16139755
v -0.33976320 -0.03603379 -0.15682289
v -0.33786714 -0.03472563 -0.15474204
v -0.33180072 -0.03429103 -0.15610294
v -0.34127078 -0.03639416 -0.15208217
v -0.33574583 -0.03377552 -0.15246185
v -0.33155665 -0.03296246 -0.15247741
v -0.34654659 0.00017937 -0.16732909
v -0.33901358 0.00427111 -0.15642051
v -0.33789887 0.00404947 -0.15866039
v -0.24595763 -0.00515736 -0.17940900
v -0.27575624 -0.00088702 -0.16973290
v -0.32975314 0.00778212 -0.15032237
v -0.32923010 0.00887270 -0.14299883
v -0.31383576 0.01580432 -0.13053717
v -0.33023640 0.00831241 -0.14762147
v -0.30240347 0.01993967 -0.12319488
v -0.36455110 -0.03640664 -0.02476239
v -0.36509021 -0.00875595 0.28630557
v -0.36056017 -0.00524086 0.08209218
v -0.33861259 -0.03507639 0.02006028
v -0.36509204 -0.03455093 0.10000048
v -0.36268439 -0.03690697 0.09702731
v -0.17427853 -0.03296246 0.02525760
v -0.19575344 -0.10740521 -0.28268599
v -0.19658272 -0.10342107 -0.28118394
v -0.19295352 -0.10742394 -0.27912114
v -0.19336834 -0.10727298 -0.28207684
v -0.19808110 -0.09863267 -0.28239161
v -0.19412199 -0.10414840 -0.28282148
v -0.19754095 -0.09328153 -0.27678494
v -0.18999699 -0.10624660 -0.27946218
v -0.19031675 -0.10473018 -0.27475116
v -0.19916748 -0.09763538 -0.28119106
v -0.20024153 -0.09608355 -0.28242779
v -0.19813387 -0.09537267 -0.28281175
v -0.20283430 -0.08962610 -0.28116660
v -0.20400653 -0.08806825 -0.28247486
v -0.20169170 -0.08977909 -0.28273199
v -0.19733626 -0.08334152 -0.27249739
v -0.18615939 -0.10451211 -0.27135227
v -0.19418853 -0.07887442 -0.26902474
v -0.20780389 -0.08004155 -0.28250787
v -0.20658622 -0.08131982 -0.28116151
v -0.20562939 -0.08162691 -0.28281294
v -0.21120467 -0.07268617 -0.28239910
v -0.20941023 -0.07378984 -0.28276723
v -0.20668827 -0.07058547 -0.27563008
v -0.21810861 -0.05541042 -0.28102065
v -0.21511785 -0.06426898 -0.28259673
v -0.21374969 -0.06499579 -0.28280105
v -0.21800569 -0.05464920 -0.28239919
v -0.21251289 -0.06101735 -0.27721009
v -0.20932797 -0.06220185 -0.27458495
v -0.21158185 -0.05142334 -0.27235460
v -0.20529903 -0.06457357 -0.27213285
v -0.20388038 -0.05464880 -0.26828297
v -0.20221463 -0.07906185 -0.27503333
v -0.20006951 -0.06607521 -0.26906847
v -0.18862531 -0.08475117 -0.26751969
v -0.19592483 -0.06512686 -0.26686142
v -0.19216588 -0.06332934 -0.26518054
v -0.19660756 -0.05074098 -0.26475026
v -0.18914173 -0.06075816 -0.26406485
v -0.22392361 -0.04415752 -0.28247802
v -0.22367668 -0.04208985 -0.28035596
v -0.22155827 -0.04768247 -0.28088926
v -0.22185648 -0.04586073 -0.28267800
v -0.22717013 -0.03678835 -0.28258469
v -0.22637252 -0.03773608 -0.28142762
v -0.22157274 -0.04075390 -0.28281227
v -0.22532563 -0.03294002 -0.27736773
v -0.23163301 -0.02775758 -0.28270481
v -0.23416196 -0.01973583 -0.28098546
v -0.22983536 -0.03010893 -0.28147929
v -0.22930255 -0.03008523 -0.28272330
v -0.23395858 -0.01909188 -0.28234194
v -0.23173908 -0.02033180 -0.27823297
v -0.22560975 -0.02590824 -0.27448026
v -0.21902373 -0.03584006 -0.27268093
v -0.22998230 -0.01812941 -0.28281625
v -0.22062533 -0.02659450 -0.27079325
v -0.23513913 -0.01851875 -0.28196238
v -0.23072765 -0.01641033 -0.28187075
v -0.23261033 -0.01771983 -0.27847831
v -0.22804528 -0.01524684 -0.27245907
v -0.22392456 -0.01552393 -0.26973548
v -0.22011336 -0.01166626 -0.28206295
v -0.22383104 -0.01331723 -0.27006211
v -0.22012614 -0.05216063 -0.28244524
v -0.21803133 -0.05135892 -0.28281318
v -0.21829206 -0.04318952 -0.27492191
v -0.21123019 -0.04317034 -0.26960623
v -0.20847203 -0.04092592 -0.26755121
v -0.20771717 -0.00863920 -0.28281063
v -0.19762536 -0.00356825 -0.28281404
v -0.21412548 -0.02852127 -0.26756619
v -0.21815155 -0.02032453 -0.26772755
v -0.20766089 -0.02552048 -0.26467723
v -0.20074239 -0.04248222 -0.26487867
v -0.19567282 -0.04156420 -0.26374265
v -0.19261050 -0.03067433 -0.26307418
v -0.20295921 -0.02986422 -0.26405097
v -0.19972252 -0.02336935 -0.26330811
v -0.21856532 -0.01243562 -0.28280462
v -0.21042924 -0.00721952 -0.27937108
v -0.22105545 -0.01205067 -0.26742828
v -0.20986386 -0.00696800 -0.26391544
v -0.21110236 -0.00838707 -0.28216335
v -0.21666640 -0.01204603 -0.26560635
v -0.21388029 -0.00931399 -0.26452990
v -0.20852050 -0.01630664 -0.26396343
v -0.21009535 -0.00793261 -0.26366073
v -0.20869026 -0.00649037 -0.28179987
v -0.20299445 -0.00396072 -0.26375052
v -0.18563657 0.00238703 -0.28281108
v -0.20148187 -0.00576758 -0.26305107
v -0.20177530 -0.00361917 -0.28198816
v -0.20196066 -0.00340433 -0.27946292
v -0.19424036 0.00008823 -0.27933127
v -0.19366842 0.00019635 -0.28196228
v -0.20359330 -0.00485961 -0.26340206
v -0.19482597 -0.00032332 -0.26353790
v -0.18544895 0.00247268 -0.26306094
v -0.18554562 0.00390803 -0.26345033
v -0.18230023 -0.10272028 -0.28203941
v -0.18208463 -0.10118914 -0.28281249
v -0.18428374 -0.10218935 -0.26944471
v -0.17694648 -0.10033364 -0.26667928
v -0.17311178 -0.09850377 -0.28197789
v -0.18118350 -0.10127636 -0.26753575
v -0.18078375 -0.08645440 -0.26484454
v -0.17463884 -0.09776821 -0.26456269
v -0.17269831 -0.09202440 -0.26372188
v -0.17080349 -0.09759635 -0.27943760
v -0.16996168 -0.09521434 -0.28279372
v -0.16497164 -0.09486382 -0.28167263
v -0.16723639 -0.09594506 -0.26339383
v -0.15780189 -0.09172175 -0.28177592
v -0.16569564 -0.09529007 -0.26549058
v -0.16194281 -0.09130901 -0.28281271
v -0.16399095 -0.09384270 -0.28217321
v -0.17137753 -0.07923461 -0.26309314
v -0.16236348 -0.09274582 -0.26305816
v -0.15799109 -0.09163536 -0.26352976
v -0.18443993 -0.07548939 -0.26450151
v -0.18318020 -0.06507906 -0.26351032
v -0.17772946 -0.08136106 -0.26373586
v -0.17803191 -0.06856735 -0.26320480
v -0.18429454 -0.05391857 -0.26316774
v -0.13803902 -0.08122750 -0.28281435
v -0.15092065 -0.04520005 -0.26310183
v -0.15463581 -0.09029685 -0.27947314
v -0.15591218 -0.09005250 -0.28217075
v -0.15182931 -0.08625219 -0.28281127
v -0.14962730 -0.08801314 -0.28175264
v -0.15709532 -0.09140551 -0.26555228
v -0.14661469 -0.08666891 -0.27951786
v -0.14733448 -0.08616296 -0.28205875
v -0.14920669 -0.08784441 -0.26555185
v -0.14895425 -0.08651711 -0.26316855
v -0.15068917 -0.08843491 -0.26355605
v -0.11498236 -0.02109341 -0.26304997
v -0.13801822 -0.08117547 -0.26304996
v -0.13893752 -0.08316064 -0.26346339
v -0.13740605 -0.08248595 -0.28193940
v -0.13016799 -0.07923616 -0.26371911
v -0.12912762 -0.07869044 -0.28172658
v -0.12810920 -0.07773683 -0.28217321
v -0.12100878 -0.07508110 -0.28183642
v -0.12603722 -0.07526453 -0.28280547
v -0.12823842 -0.07762292 -0.26318028
v -0.11594107 -0.07014575 -0.26304766
v -0.18520806 -0.04241383 -0.26305012
v -0.17174468 0.00744546 -0.28281428
v -0.17188999 0.00731656 -0.26304795
v -0.18456831 0.00434648 -0.28204554
v -0.17452980 0.00896467 -0.27941658
v -0.17521655 0.00770981 -0.28216828
v -0.17749601 0.00762368 -0.26550838
v -0.17471476 0.00868678 -0.26355946
v -0.15793668 0.01422335 -0.26304780
v -0.15360777 0.01634732 -0.28281056
v -0.12797486 0.02726294 -0.26304818
v -0.11586707 -0.07017106 -0.28280856
v -0.11876611 -0.07410112 -0.27946664
v -0.12123335 -0.07521311 -0.26553899
v -0.11384808 -0.07185262 -0.28178232
v -0.11013954 -0.07020361 -0.27938853
v -0.11195275 -0.07015418 -0.28217075
v -0.11333798 -0.07164114 -0.26556096
v -0.12209995 -0.07545610 -0.26351901
v -0.11393937 -0.07157440 -0.26348618
v -0.10227231 -0.06521120 -0.28281207
v -0.10219399 -0.06513019 -0.26304937
v -0.10294046 -0.06688660 -0.28206699
v -0.09672603 -0.06415065 -0.26549777
v -0.09371470 -0.06279004 -0.27944448
v -0.09325322 -0.06246133 -0.28198783
v -0.09011233 -0.05916640 -0.28281426
v -0.10393607 -0.06736142 -0.26342998
v -0.09419588 -0.06290641 -0.26348299
v -0.08521959 -0.05879982 -0.28194631
v -0.08587218 -0.05924754 -0.26548979
v -0.08288512 -0.05790098 -0.27945694
v -0.08209294 -0.05532123 -0.28281255
v -0.07803849 -0.05569655 -0.28179833
v -0.07722584 -0.05534283 -0.26556061
v -0.08574595 -0.05706037 -0.26305074
v -0.08619153 -0.05926134 -0.26350661
v -0.07810680 -0.05556968 -0.26352207
v -0.07481016 -0.05425100 -0.27948392
v -0.07607096 -0.05404828 -0.28217075
v -0.05913381 -0.02726828 -0.26305339
v -0.09191224 0.04339973 -0.28281420
v -0.07193610 -0.05024470 -0.28281357
v -0.07206291 -0.05024235 -0.26304434
v -0.06982221 -0.05198155 -0.28176275
v -0.06934432 -0.05178316 -0.26555077
v -0.06616734 -0.05034974 -0.27937430
v -0.06799411 -0.05025370 -0.28217321
v -0.05847175 -0.04678327 -0.28205336
v -0.05824303 -0.04526881 -0.28281206
v -0.07003189 -0.05174341 -0.26349174
v -0.05814797 -0.04515722 -0.26304493
v -0.05978632 -0.04740442 -0.26343110
v -0.05564126 -0.00314338 -0.26304765
v -0.05617426 0.01971446 -0.26304425
v -0.05294031 -0.04437981 -0.26551229
v -0.04897523 -0.04245015 -0.28193393
v -0.04241430 -0.03961667 -0.28186488
v -0.04646231 -0.03928920 -0.28281023
v -0.05027625 -0.04305490 -0.26347962
v -0.04354158 -0.03779806 -0.26305528
v -0.03963572 -0.03502772 -0.28281427
v -0.03954747 -0.03898613 -0.28192040
v -0.04244718 -0.03963849 -0.26521899
v -0.03933914 -0.03906510 -0.26522942
v -0.03368117 -0.04085679 -0.28129070
v -0.03502661 -0.03813369 -0.28238700
v -0.03667902 -0.03953476 -0.28087040
v -0.03043768 -0.04349070 -0.28121283
v -0.02946707 -0.04191293 -0.28264801
v -0.03141687 -0.03852115 -0.28281405
v -0.03668080 -0.03953615 -0.26609850
v -0.03324722 -0.04131845 -0.26496563
v -0.04028388 -0.03859497 -0.26343046
v -0.03132784 -0.04141696 -0.26329827
v -0.03555060 -0.03853142 -0.26352461
v -0.03186057 -0.03494781 -0.26306205
v -0.05200080 0.06041683 -0.28281458
v -0.05119476 0.00113713 -0.26266636
v -0.05169998 0.00607582 -0.26221642
v -0.04812150 0.00540567 -0.26123551
v -0.04898847 0.00910974 -0.26028823
v -0.04499322 0.00838476 -0.25936427
v -0.04638651 0.01014102 -0.25689511
v -0.02597664 -0.04596488 -0.28058359
v -0.02495093 -0.04535247 -0.28211749
v -0.02056688 -0.04557571 -0.28281283
v -0.02935040 -0.04406482 -0.26353709
v -0.02484419 -0.04650198 -0.26601395
v -0.01946633 -0.04852802 -0.28183813
v -0.01764485 -0.04971320 -0.27960979
v -0.01450779 -0.04952414 -0.28196271
v -0.01904762 -0.04912945 -0.26522816
v -0.01355931 -0.05102452 -0.26568756
v -0.02743570 -0.04185114 -0.26305280
v -0.02337062 -0.04588739 -0.26352461
v -0.02133530 -0.04783269 -0.26347592
v -0.01950204 -0.04599984 -0.26305537
v -0.01200883 -0.05018109 -0.26353621
v -0.01297675 -0.05115164 -0.28085882
v -0.00716121 -0.05055690 -0.28280779
v -0.00991585 -0.04765259 -0.28280899
v -0.00522152 -0.05242463 -0.28179954
v -0.00926702 -0.05173388 -0.26345873
v 0.00125177 -0.05258038 -0.28192320
v 0.00165723 -0.05303548 -0.27969315
v -0.00381679 -0.05270885 -0.26522165
v 0.00150750 -0.05304041 -0.26522598
v -0.00790553 -0.04992620 -0.26306687
v 0.00970485 -0.00330368 -0.26305373
v 0.04860602 0.00836664 -0.25939284
v 0.05097073 0.00121269 -0.26266742
v 0.04757170 0.00526349 -0.26133163
v 0.00777916 -0.03690402 -0.18029356
v 0.02603507 -0.03639389 -0.18291701
v 0.05260043 -0.03427412 -0.15607712
v 0.36247216 -0.01144033 -0.18417209
v 0.03233758 -0.03296246 -0.15247993
v 0.35867297 -0.00648410 -0.18225503
v 0.04145568 -0.03690619 -0.16141197
v 0.36271256 -0.00854559 -0.18376921
v -0.02078733 0.02345838 -0.11531173
v 0.03997397 -0.00525294 -0.17962501
v 0.06714760 -0.03455123 -0.18416972
v 0.05481009 -0.03296246 0.02347651
v -0.36455203 -0.03640308 0.15933769
v -0.36413429 -0.00689986 0.09309861
v -0.33155574 -0.03296246 0.25485778
v -0.33595236 -0.03382700 0.25462675
v -0.32238703 0.01191487 0.15291553
v -0.36270259 -0.03690548 0.28625950
v -0.34375431 -0.03690378 0.26268163
v -0.36509193 -0.03455640 0.28622497
v -0.33805265 0.00486439 0.20379577
v -0.36156588 -0.00572796 0.27828864
v -0.34124740 -0.03638395 0.25839647
v -0.36414423 -0.00692789 0.28418987
v -0.33746269 0.00512993 0.26185595
v -0.34492443 0.00175388 0.26679594
v -0.33659568 -0.03519761 0.26158998
v -0.33155312 -0.03377606 0.25952962
v -0.32763414 0.00954749 0.25359037
v -0.33390590 0.00669585 0.25834995
v -0.09173218 -0.03296246 0.25485783
v -0.36453097 -0.03639061 0.28849359
v -0.36267767 -0.03455355 0.28934271
v -0.36267783 -0.01164149 0.28934830
v -0.36455838 -0.00725267 0.28842530
v -0.36266119 -0.00864427 0.28917320
v -0.35392749 -0.00227163 0.27429309
v -0.34750853 0.00053018 0.27150917
v -0.35738343 -0.00397252 0.28109780
v -0.35923010 -0.00660695 0.28798901
v -0.35448221 -0.00535710 0.28580297
v -0.35026816 -0.00176901 0.27857030
v -0.34668572 -0.00179740 0.27925444
v -0.33471190 -0.03690812 0.26752145
v -0.33902415 -0.03651166 0.26336246
v -0.33336887 -0.03640641 0.26553331
v -0.33288514 -0.03509153 0.26287552
v -0.11971050 -0.02802089 0.28935522
v -0.22152567 -0.01163554 0.28933330
v -0.34955553 -0.00053309 0.27625748
v -0.33988264 0.00270993 0.26997681
v -0.34369990 0.00048568 0.27500453
v -0.33819862 0.00429280 0.26762593
v -0.33483029 0.00566745 0.26341855
v -0.33771782 0.00197742 0.27228871
v -0.33072006 0.00702444 0.26189311
v -0.32915129 0.00596068 0.26495499
v -0.31112847 0.01384420 0.25045969
v -0.27673293 -0.00084287 0.27748013
v -0.30566093 0.01751792 0.24363050
v 0.00983000 -0.03639405 0.28849614
v 0.00306706 -0.03690242 0.28628346
v -0.20400738 0.00759519 0.26189124
v -0.16372168 0.00721359 0.26267621
v 0.00787398 -0.03456826 0.28933512
v -0.01448354 -0.01131954 0.28930104
v 0.02036239 -0.00652076 0.28793881
v 0.33355003 -0.03508910 0.26286780
v 0.00611948 -0.00863658 0.28918150
v 0.01072989 -0.01154554 0.28935628
v -0.31954323 0.01230352 -0.13989782
v -0.32180490 0.01215934 -0.13874880
v -0.31098928 0.01614795 -0.13158831
v -0.30317858 0.02060025 -0.11921250
v -0.29415900 0.02371971 -0.11472346
v -0.29460610 0.02446661 -0.11105786
v -0.28295390 0.02846047 -0.10409796
v -0.28608552 0.02828178 -0.10254662
v -0.27802455 0.03193270 -0.09448658
v -0.27487505 0.03239147 -0.09526648
v -0.26693112 0.03597026 -0.08727778
v -0.26990741 0.03558798 -0.08644719
v -0.25780028 0.04104479 -0.07290951
v -0.25743866 0.04011821 -0.07799224
v -0.25638643 0.04106478 -0.07547904
v -0.25457397 0.04175140 -0.07237329
v -0.27183472 0.03472473 0.05019286
v -0.17288353 0.00965444 -0.28178844
v -0.16577656 0.01274081 -0.28188864
v -0.16607768 0.01279046 -0.27948195
v -0.16166530 0.01257628 -0.28278624
v -0.15489390 0.01785100 -0.27941900
v -0.15771456 0.01640739 -0.28192526
v -0.13315813 0.02766990 -0.26553922
v -0.16895296 0.01149280 -0.26546706
v -0.16665643 0.01235192 -0.26353668
v -0.16084425 0.01515460 -0.26547218
v -0.15856331 0.01603599 -0.26351314
v -0.14976712 0.02001270 -0.28196770
v -0.14166601 0.02229693 -0.28281054
v -0.14044462 0.02431027 -0.28202993
v -0.15085421 0.01954149 -0.26352337
v -0.14145752 0.02240077 -0.26306062
v -0.14141970 0.02384504 -0.26344091
v -0.12786897 0.02734661 -0.28280826
v -0.13053741 0.02885276 -0.27935145
v -0.13125708 0.02760797 -0.28216335
v -0.12890369 0.02952317 -0.28178564
v -0.13075303 0.02837978 -0.26349122
v -0.12494501 0.03136646 -0.26546320
v -0.10581204 0.03835946 -0.28280921
v -0.10562844 0.03839128 -0.26305008
v -0.12183801 0.03258787 -0.28190025
v -0.12211751 0.03263925 -0.27947071
v -0.11768881 0.03249820 -0.28278476
v -0.11385679 0.03611773 -0.28200487
v -0.11080180 0.03776435 -0.27944193
v -0.12268741 0.03221537 -0.26352612
v -0.11590605 0.03465802 -0.26318789
v -0.11475147 0.03588023 -0.26368269
v -0.10636929 0.03965516 -0.26350399
v -0.10448051 0.04051243 -0.28202738
v -0.05277315 0.06396296 -0.26553273
v -0.09201464 0.04332547 -0.26305010
v -0.09470062 0.04500875 -0.27941392
v -0.09537529 0.04371391 -0.28216335
v -0.09715513 0.04391207 -0.26544154
v -0.09625198 0.04344651 -0.26343285
v -0.08175932 0.04849889 -0.28281191
v -0.06147267 0.05835180 -0.26304965
v -0.07809288 0.05024569 -0.26305459
v -0.07375963 0.05235502 -0.28281405
v -0.05133775 0.06362005 -0.26307303
v -0.09307971 0.04568502 -0.28176631
v -0.08729765 0.04750652 -0.28216335
v -0.08624121 0.04883789 -0.27947836
v -0.08492041 0.04937983 -0.28179240
v -0.06697687 0.05755046 -0.27940963
v -0.07787393 0.05244870 -0.28192686
v -0.07813831 0.05249710 -0.27947614
v -0.08978109 0.04723115 -0.26551827
v -0.09421929 0.04513310 -0.26355625
v -0.08682252 0.04838938 -0.26354387
v -0.08101135 0.05120031 -0.26547050
v -0.07872515 0.05207482 -0.26352061
v -0.06987235 0.05609442 -0.28196275
v -0.06175798 0.05831872 -0.28280855
v -0.07101203 0.05558213 -0.26353634
v -0.06064347 0.06030957 -0.28203709
v -0.06208630 0.05964591 -0.26346306
v -0.05183450 0.01617688 -0.26190112
v -0.04901961 0.01609174 -0.25966585
v -0.05192328 0.02017032 -0.26235866
v -0.04738612 0.02022675 -0.26048390
v -0.04792984 0.02416376 -0.26235866
v -0.04620919 0.02843108 -0.26303728
v -0.04746297 0.01370413 -0.25605571
v -0.04661592 0.01373686 -0.25265449
v -0.04339096 0.01397134 -0.25125771
v -0.04748634 0.01648780 -0.25629159
v -0.04393921 0.02383882 -0.26167720
v -0.04260115 0.02113855 -0.25940463
v -0.04379688 0.02020097 -0.25651306
v -0.04654040 0.02008382 -0.25555536
v -0.04748117 0.02779291 -0.24324252
v -0.04524350 0.02240506 -0.25321065
v 0.04892797 0.02113917 -0.25940548
v -0.00733644 0.04449060 -0.26306022
v -0.05265642 0.06401188 -0.27960178
v -0.05141665 0.06386144 -0.28216828
v -0.04374778 0.06898064 -0.28281272
v -0.04986332 0.06590157 -0.28009869
v -0.04748121 0.06847712 -0.28217568
v -0.04824055 0.06861289 -0.27977003
v -0.04822960 0.06862491 -0.26521954
v -0.04984597 0.06592115 -0.26522436
v -0.04799394 0.06742562 -0.26336518
v -0.04387363 0.06966386 -0.26307747
v -0.04609236 0.07375021 -0.28195689
v -0.04712611 0.07241808 -0.27977989
v -0.04712110 0.07241411 -0.26521817
v -0.04608212 0.07240994 -0.26345976
v 0.05166515 0.02384237 -0.26168153
v 0.00277936 0.02848269 -0.26305085
v 0.05189421 0.06063331 -0.28281444
v 0.04747212 0.12346073 -0.28281431
v 0.04753577 0.06461997 -0.28281467
v 0.01491845 0.12341365 -0.26305734
v -0.04712368 0.12342460 -0.27977114
v -0.04712177 0.12346113 -0.26521647
v -0.04605976 0.12521312 -0.28194349
v -0.04369953 0.12342613 -0.28281098
v -0.04377886 0.12349991 -0.26307076
v -0.04609165 0.12523696 -0.26346766
v -0.04348308 0.12570040 -0.27964108
v -0.04368744 0.12570844 -0.26525107
v -0.17528837 0.04011896 -0.07789105
v -0.25182512 0.04200800 -0.06877295
v -0.25148522 0.04204362 0.06643277
v -0.24341941 0.04200577 0.05498815
v -0.12334723 0.03132219 -0.09769649
v 0.25416126 0.04178341 -0.07217831
v -0.06576786 0.03114159 -0.09800525
v -0.05617038 0.04200536 0.05321838
v -0.04747260 0.01726975 -0.24882542
v -0.04628090 0.01679780 -0.24717165
v -0.04647832 0.02096062 -0.24164239
v -0.04337269 0.02218628 -0.23932675
v -0.04747448 0.02513763 -0.23738513
v -0.04646600 0.02613251 -0.23359924
v -0.04653278 0.02730998 -0.24611407
v -0.04342957 0.03251960 -0.23858873
v -0.04650093 0.03233177 -0.23837692
v -0.04748670 0.03563721 -0.23182084
v -0.04329701 0.04079008 -0.22660549
v -0.04634668 0.03679640 -0.23232646
v 0.00174164 0.04115219 -0.22607937
v -0.04640647 0.03090871 -0.22713485
v -0.04338698 0.03253427 -0.22430213
v -0.04754363 0.03654349 -0.22628489
v -0.04661118 0.03339788 -0.22448926
v -0.04647852 0.04054811 -0.22635727
v -0.04747997 0.03698865 -0.22071988
v -0.04633518 0.03771160 -0.21678654
v -0.04747153 0.04369854 -0.21991149
v -0.04753919 0.04448453 -0.21438069
v -0.04337443 0.04077603 -0.21232774
v -0.04661592 0.04149840 -0.21258706
v -0.04627661 0.04474129 -0.22078261
v -0.04345689 0.04882966 -0.21483386
v -0.04645418 0.04873040 -0.21437802
v -0.04746936 0.05179079 -0.20797073
v -0.04748282 0.04506776 -0.20880017
v -0.04627843 0.04466263 -0.20678975
v -0.04645649 0.04855973 -0.20170944
v -0.04753899 0.05243029 -0.20247672
v -0.04624874 0.05281434 -0.20903714
v -0.04347710 0.05742734 -0.20239195
v -0.04643933 0.05691839 -0.20240719
v -0.04338711 0.04974543 -0.19930361
v -0.04748830 0.05317581 -0.19685097
v -0.04645694 0.05391516 -0.19333905
v -0.04746976 0.05986912 -0.19604513
v -0.04357452 0.05716821 -0.18852596
v -0.04661868 0.05769708 -0.18878108
v -0.04616273 0.06143804 -0.19657487
v -0.04747051 0.06067102 -0.19252586
v -0.04748325 0.06142740 -0.18570498
v -0.04338210 0.06536849 -0.19090594
v -0.04660882 0.06387012 -0.19168077
v -0.04623350 0.06700245 -0.18855099
v 0.04709710 0.03890389 -0.21504621
v 0.04815030 0.05715405 -0.18855620
v -0.04632259 0.05980757 -0.18128738
v -0.04381390 0.05847133 -0.18510041
v -0.04382996 0.05933603 -0.18098490
v -0.04384090 0.05957839 -0.17643901
v -0.04748645 0.06741107 -0.18400896
v -0.04601964 0.06862915 -0.18594270
v -0.04381038 0.06921802 -0.18357986
v -0.04381997 0.06939845 -0.18065212
v -0.04633260 0.06908054 -0.18042856
v -0.01625842 0.06940365 -0.16451432
v -0.04632718 0.05986580 0.03994199
v -0.04394933 0.06938463 -0.08675640
v -0.01641603 0.05957904 -0.16455617
v -0.04383080 0.05957707 0.03855666
v -0.04748341 0.06148056 0.04637783
v -0.04632873 0.06907922 -0.07815162
v 0.04755038 0.05933624 -0.18098280
v 0.04998599 0.06916433 -0.18379322
v 0.04761249 0.06940840 -0.18045215
v 0.01947424 0.06940504 -0.16396111
v 0.01943006 0.05958002 -0.16394364
v -0.01237278 0.05990154 -0.16083488
v -0.01415924 0.05986592 -0.15604004
v -0.01320780 0.06150804 -0.15560754
v -0.01113659 0.06229303 -0.15978966
v -0.01317415 0.06736197 -0.15612040
v -0.01114134 0.06824954 -0.15979460
v -0.00808227 0.06148215 -0.16145359
v -0.00808695 0.05986428 -0.16245830
v -0.00807021 0.06740967 -0.16146364
v -0.01038492 0.06910025 -0.16245899
v -0.01415628 0.06908966 -0.15745748
v 0.01120123 0.06744654 -0.16139539
v 0.01158671 0.06157118 -0.16132508
v -0.01597932 0.05958035 -0.08925336
v -0.01644600 0.06942494 -0.09266080
v -0.01418172 0.05987519 -0.09732714
v -0.01325230 0.06740326 -0.09765844
v -0.01322837 0.06152776 -0.09724259
v -0.01418677 0.06908002 -0.09860471
v 0.25167951 0.04201117 -0.06874725
v 0.25146309 0.04106866 -0.07544396
v -0.05193773 0.04200582 0.05122322
v -0.04748449 0.06741264 -0.02110756
v -0.02536207 0.06940836 -0.05382374
v 0.04837912 0.02055225 -0.12172441
v -0.01172923 0.05979856 -0.09251786
v -0.01115000 0.06149718 -0.09380219
v -0.01114305 0.06742556 -0.09380385
v -0.01237514 0.06916880 -0.09303554
v -0.00810902 0.06938753 -0.08866437
v 0.06440265 0.04200587 0.02024933
v -0.00677321 0.05986790 -0.09113970
v -0.00809317 0.06148641 -0.09242161
v -0.00808159 0.06742085 -0.09242731
v -0.00808255 0.06908828 -0.09114175
v 0.01437557 0.06938468 -0.07101934
v -0.00529835 0.06940682 -0.04379950
v -0.03195417 0.06940143 -0.00644648
v -0.04628310 0.06911474 0.04378591
v -0.04384764 0.06940873 0.03869342
v 0.03026047 0.06938059 -0.00345549
v 0.04753770 0.05957552 0.03860727
v -0.30918876 0.01789035 0.10267807
v -0.29267377 0.02529502 0.07082090
v -0.25769563 0.04105355 0.06491140
v -0.25502173 0.04165622 0.19470251
v -0.25772804 0.04103748 0.19502487
v -0.31043403 0.01729664 0.23843813
v -0.31930249 0.01329848 0.24625017
v -0.32488750 0.00910106 0.25890072
v -0.32986649 0.00816779 0.26030490
v -0.32237641 0.01173329 0.25236928
v -0.31878661 0.01251683 0.25278364
v -0.31995088 0.00968226 0.25812403
v -0.26306971 0.03863276 0.19842565
v -0.27528098 0.03312151 0.21050192
v -0.29101993 0.02603697 0.22262071
v -0.29922837 0.02234695 0.22716235
v -0.28212560 0.03005360 0.21446009
v -0.29442745 0.02434967 0.22871344
v -0.28462540 0.02892337 0.21866368
v -0.28568228 0.02673046 0.22667372
v -0.31316323 0.01600121 0.24482629
v -0.30028545 0.02182411 0.23132697
v -0.30612627 0.01923254 0.23445316
v -0.30377421 0.01954000 0.23796274
v -0.31475642 0.01464984 0.24710931
v -0.30183217 0.02082628 0.23672366
v -0.29594963 0.02160581 0.23608842
v -0.29860864 0.01894534 0.24100721
v -0.29080327 0.02318764 0.23308484
v -0.29053009 0.02518066 0.22933477
v -0.26684834 0.03690924 0.20345660
v -0.27015234 0.03534097 0.20870516
v -0.27865735 0.03071284 0.21799326
v -0.28102851 0.02880241 0.22262547
v -0.28599955 0.02786652 0.22417240
v -0.27464029 0.03004728 0.22057912
v -0.27766576 0.03182028 0.21656092
v -0.27165013 0.03277839 0.21553243
v -0.26307954 0.03800081 0.20357285
v -0.26650544 0.03610088 0.20920149
v -0.25889295 0.03938035 0.20214339
v -0.26023483 0.03733971 0.20715490
v -0.25447373 0.03879562 0.20448256
v -0.25794625 0.04053822 0.20057778
v -0.15277397 0.04204512 0.14253543
v -0.25149843 0.04204487 0.19467870
v -0.20014785 0.04200576 0.18626961
v -0.13826091 0.04200619 0.15009217
v -0.25290979 0.04085392 0.20069470
v -0.10574218 0.01557607 0.24720543
v -0.25163586 0.04159567 0.19814434
v 0.25151523 0.04200996 0.19489305
v -0.00038501 0.02422396 0.23129365
v -0.05586997 0.04205371 0.07582450
v -0.07401544 0.04201887 0.11085483
v -0.04747866 0.06724819 0.04639184
v -0.05194467 0.04296980 0.05834316
v -0.04781660 0.04533954 0.05576743
v -0.04922776 0.04481526 0.06112489
v -0.05166291 0.04283325 0.07365686
v -0.04882251 0.04494158 0.07082850
v -0.04558867 0.05607364 0.05013341
v -0.04659099 0.05909241 0.04642716
v -0.04744477 0.05710044 0.05271668
v -0.04637681 0.05399626 0.05262417
v -0.04507043 0.05788165 0.04711992
v -0.04402517 0.04468574 0.05436197
v -0.04699471 0.04957643 0.05667928
v -0.04755303 0.04865024 0.05986291
v -0.04517219 0.04803090 0.05551214
v -0.04748318 0.04822977 0.06694283
v -0.04564554 0.05202929 0.05468018
v -0.04747648 0.05356593 0.05625630
v -0.04751434 0.05570111 0.05915761
v -0.04747535 0.05415881 0.06249197
v -0.04748318 0.05140171 0.06615132
v -0.04618821 0.05451842 0.06530655
v 0.04638193 0.04804123 0.05551176
v 0.04880781 0.05201675 0.05466676
v -0.04381899 0.05906036 0.04336564
v -0.04748693 0.06426420 0.04712089
v -0.04754682 0.06032164 0.05421913
v -0.04748257 0.06309595 0.05402201
v -0.04651773 0.06829170 0.04822365
v -0.04618584 0.06662225 0.05012192
v -0.04340839 0.06887029 0.04582233
v -0.04259461 0.06719006 0.05100166
v -0.04748634 0.05930850 0.05808710
v -0.04618347 0.06230447 0.05730033
v -0.04618821 0.05846452 0.06126734
v -0.04251915 0.05678097 0.06389319
v -0.04655655 0.05685735 0.06360331
v -0.04258684 0.06266079 0.05775050
v -0.04645748 0.06088730 0.05962802
v -0.04379196 0.06585688 0.05349913
v -0.04645530 0.06436247 0.05571446
v 0.04783330 0.04201353 0.05116843
v 0.04766719 0.06939313 0.03867114
v 0.04772177 0.04470956 0.05436318
v 0.05004560 0.05603762 0.05018775
v 0.04772540 0.05905549 0.04337482
v 0.00380251 0.05976243 0.06081002
v 0.04939454 0.06385836 0.05639166
v -0.04564008 0.04200978 0.08724665
v -0.04898492 0.04401221 0.07420883
v -0.04751898 0.04240457 0.08280389
v -0.04728746 0.04329952 0.07817003
v -0.04644619 0.04902228 0.07163996
v -0.04618110 0.04662584 0.07338418
v -0.04256603 0.04347879 0.07901419
v -0.04262898 0.04897371 0.07196310
v -0.04486117 0.04518975 0.07593541
v -0.04618347 0.05057036 0.06934379
v -0.04653471 0.05293991 0.06767456
v 0.05334858 0.04240547 0.08279278
v -0.02691705 0.01750309 0.24374343
v 0.01137088 -0.05220256 -0.27991252
v 0.01541056 -0.05013240 -0.28281419
v 0.01090677 -0.05220464 -0.26351806
v 0.01664613 -0.05122097 -0.28201488
v 0.01650956 -0.05123085 -0.26352510
v 0.01436579 -0.05029155 -0.26305597
v 0.02815985 -0.04453364 -0.26305142
v 0.01967274 -0.04992946 -0.28198446
v 0.02214726 -0.04713649 -0.28279603
v 0.02583700 -0.04775520 -0.28186575
v 0.02508773 -0.04811841 -0.26370003
v 0.03088533 -0.04297409 -0.28281123
v 0.02907231 -0.04643193 -0.27936796
v 0.02888103 -0.04653412 -0.26523169
v 0.03325182 -0.04381091 -0.28184165
v 0.02723297 -0.04639283 -0.26337349
v 0.03268597 -0.04419088 -0.26359292
v 0.04253121 -0.03472247 -0.28281195
v 0.03716903 -0.04094303 -0.28192694
v 0.04056785 -0.03951666 -0.27977968
v 0.04006833 -0.03874094 -0.28217321
v 0.03745071 -0.04077746 -0.26356882
v 0.04056656 -0.03951539 -0.26521696
v 0.04626748 -0.03967228 -0.28143396
v 0.04594690 -0.03772262 -0.28262217
v 0.04316732 -0.03912238 -0.28086936
v 0.05037054 -0.04150615 -0.28069204
v 0.05117546 -0.04102816 -0.28214157
v 0.04316373 -0.03912604 -0.26608691
v 0.05170654 -0.04214962 -0.26605104
v 0.04662111 -0.03971286 -0.26352007
v 0.03928116 -0.03897452 -0.26337105
v 0.04429220 -0.03827219 -0.26351968
v 0.04798751 -0.03754897 -0.26306126
v 0.04033819 -0.03560729 -0.26304816
v 0.05007335 -0.00340869 -0.26304785
v 0.05404270 -0.03933574 -0.28281068
v 0.05748203 -0.04466318 -0.28158952
v 0.05917624 -0.04289151 -0.28281054
v 0.06815124 -0.04957097 -0.27968588
v 0.05449278 -0.04334894 -0.26352793
v 0.06713173 -0.04873623 -0.28183919
v 0.06319750 -0.04562023 -0.28277130
v 0.07886303 -0.05439355 -0.28103737
v 0.06294326 -0.04719032 -0.26354515
v 0.05264130 -0.04156882 -0.26351968
v 0.05627162 -0.04143684 -0.26306047
v 0.05979090 -0.04579979 -0.26608691
v 0.06071893 -0.04536103 -0.26352213
v 0.06428864 -0.04533197 -0.26306395
v 0.07400761 -0.04756904 -0.28281406
v 0.07079049 -0.01269902 -0.26305669
v 0.04721642 0.01180143 -0.25441113
v 0.10723963 0.03846110 -0.28281418
v 0.05609506 0.00468582 -0.26295284
v 0.05157517 0.00597449 -0.26132579
v 0.05270798 0.01044615 -0.26029198
v 0.05545186 0.00968546 -0.26222250
v 0.05018494 0.01004827 -0.25731499
v 0.05956187 0.00930901 -0.26303554
v 0.08253872 -0.05395333 -0.28266000
v 0.08727042 -0.05816972 -0.28112066
v 0.08567114 -0.05676292 -0.28196271
v 0.07943138 -0.05466745 -0.26602805
v 0.09570489 -0.06200331 -0.28116503
v 0.09054492 -0.05778312 -0.28265846
v 0.08998388 -0.05536518 -0.28281329
v 0.08755269 -0.05833428 -0.26604678
v 0.09375627 -0.06053895 -0.28196600
v 0.09855358 -0.06161906 -0.28265138
v 0.09796200 -0.05927757 -0.28280806
v 0.10250242 -0.06507904 -0.28064631
v 0.09029694 -0.05950744 -0.26356473
v 0.09563679 -0.06198465 -0.26609007
v 0.08241609 -0.05575914 -0.26348476
v 0.08044506 -0.05388216 -0.26351968
v 0.08409520 -0.05370803 -0.26305860
v 0.08852309 -0.05767477 -0.26352469
v 0.09191407 -0.05678975 -0.26305655
v 0.09997225 -0.06072028 -0.26305956
v 0.09660072 -0.06146698 -0.26352209
v 0.10338921 -0.06478553 -0.28215982
v 0.10729732 -0.06501923 -0.28281410
v 0.09849438 -0.06322100 -0.26351651
v 0.10857356 -0.06772296 -0.28181721
v 0.12294950 -0.07428178 -0.28107686
v 0.11479373 -0.07053522 -0.28109319
v 0.11346661 -0.06909559 -0.28196600
v 0.10609238 -0.06671186 -0.26511275
v 0.11528390 -0.07085541 -0.26586271
v 0.10467836 -0.06525958 -0.26352453
v 0.10697645 -0.06702696 -0.26342292
v 0.10829613 -0.06525167 -0.26305264
v 0.11613520 -0.06992889 -0.26353316
v 0.11846474 -0.07002577 -0.28266842
v 0.12155017 -0.07287466 -0.28196600
v 0.13132910 -0.07808715 -0.28111707
v 0.11787286 -0.07202483 -0.26440405
v 0.12647340 -0.07386139 -0.28266259
v 0.12593140 -0.07139735 -0.28281396
v 0.12963411 -0.07665374 -0.28196600
v 0.12335061 -0.07449799 -0.26608683
v 0.12637629 -0.07576733 -0.26353783
v 0.13152485 -0.07818878 -0.26605380
v 0.11836053 -0.07154435 -0.26322022
v 0.12522476 -0.07393623 -0.26319543
v 0.11793171 -0.06750788 -0.28281162
v 0.11962948 -0.06750337 -0.26304918
v 0.07251283 -0.05144620 -0.28124948
v 0.07452457 -0.05011350 -0.28266808
v 0.07130786 -0.05099908 -0.26585711
v 0.07758877 -0.05298096 -0.28196600
v 0.08202078 -0.05147506 -0.28280907
v 0.07218910 -0.05003787 -0.26353458
v 0.07533541 -0.04743548 -0.26306452
v 0.07424453 -0.05188790 -0.26326223
v 0.11430520 -0.00728769 -0.26309090
v 0.12997468 -0.03001130 -0.26304706
v 0.13176554 0.02465455 -0.28281430
v 0.14957009 0.01797851 -0.26303396
v 0.19914257 -0.00247844 -0.26307817
v 0.13390962 0.02648344 -0.26305784
v 0.15230774 -0.08747046 -0.28124188
v 0.15440116 -0.08610730 -0.28267140
v 0.15873119 -0.09038554 -0.28109735
v 0.15742801 -0.08898941 -0.28196600
v 0.14794851 -0.08560155 -0.27969254
v 0.16699612 -0.09419033 -0.28107552
v 0.16240823 -0.08994175 -0.28266716
v 0.16186894 -0.08743147 -0.28281409
v 0.15113397 -0.08704204 -0.26585199
v 0.15925543 -0.09070942 -0.26602533
v 0.16218912 -0.09199008 -0.26358841
v 0.15408613 -0.08806403 -0.26351632
v 0.15203630 -0.08604712 -0.26353516
v 0.15595624 -0.08579000 -0.26305079
v 0.16028628 -0.08988651 -0.26352457
v 0.13446783 -0.07769802 -0.28264988
v 0.13982291 -0.08192174 -0.28119654
v 0.13918221 -0.08086125 -0.28214731
v 0.13429580 -0.07937773 -0.26354743
v 0.13392396 -0.07529271 -0.28281421
v 0.14314325 -0.08107555 -0.28280591
v 0.14843634 -0.08509337 -0.28190462
v 0.14176538 -0.08281466 -0.26510031
v 0.13248251 -0.07757305 -0.26352453
v 0.13614393 -0.07744319 -0.26305250
v 0.14056015 -0.08136553 -0.26352453
v 0.14278010 -0.08315575 -0.26343476
v 0.14438356 -0.08148703 -0.26304752
v 0.15388730 -0.08357207 -0.28280731
v 0.16551038 -0.09277144 -0.28196271
v 0.16963763 -0.09313514 -0.28269880
v 0.17542000 -0.09798723 -0.28115096
v 0.17546026 -0.09800112 -0.26603250
v 0.17359551 -0.09654748 -0.28196600
v 0.17841648 -0.09760978 -0.28265366
v 0.17784951 -0.09523911 -0.28281244
v 0.18225950 -0.10108085 -0.28065713
v 0.16737800 -0.09436847 -0.26603814
v 0.16433182 -0.08979991 -0.26304689
v 0.16832327 -0.09365524 -0.26355361
v 0.17036430 -0.09551488 -0.26354004
v 0.17275197 -0.09329372 -0.26327823
v 0.17841349 -0.09768023 -0.26456315
v 0.17980485 -0.06928385 -0.26306869
v 0.18863375 -0.10379367 -0.28185062
v 0.18318372 -0.10077378 -0.28215334
v 0.19307907 -0.10595477 -0.28051235
v 0.18712108 -0.10101513 -0.28280452
v 0.19470767 -0.10549635 -0.28207217
v 0.19105982 -0.10506538 -0.27517521
v 0.18570258 -0.10259890 -0.26967001
v 0.18739851 -0.10095860 -0.26870943
v 0.19061962 -0.10198271 -0.27100492
v 0.19168150 -0.10433033 -0.27254798
v 0.17847915 -0.09924879 -0.26604526
v 0.19852300 -0.10415260 -0.28280676
v 0.18364658 -0.09841874 -0.26641614
v 0.18480536 -0.10109765 -0.26782845
v 0.18409751 -0.08000343 -0.26403479
v 0.18676809 -0.08147632 -0.26484058
v 0.19569127 -0.08277660 -0.26871697
v 0.19462803 -0.07491522 -0.26654803
v 0.19228937 -0.04253605 -0.26307670
v 0.18247821 -0.07374487 -0.26338132
v 0.19462779 -0.06001120 -0.26428332
v 0.20316922 -0.00524229 -0.28281424
v 0.19776544 -0.04375652 -0.26357514
v 0.17570761 0.00471850 -0.28281383
v 0.15923175 0.01466812 -0.28280980
v 0.17787393 0.00654254 -0.26305786
v 0.16189299 0.01430983 -0.26308613
v 0.20152568 -0.02115258 -0.26307658
v 0.16732316 0.01085743 -0.28279549
v 0.17510756 0.00752866 -0.28280034
v 0.18949635 0.00220785 -0.26306493
v 0.17000508 0.01046941 -0.26309717
v 0.19516001 -0.00138138 -0.28281037
v 0.18713135 0.00250081 -0.28279626
v 0.17922770 0.00718285 -0.28181875
v 0.18009377 0.00815395 -0.27896361
v 0.18211304 0.00723255 -0.26467847
v 0.18843747 0.00427089 -0.28206890
v 0.18934198 0.00397990 -0.27990207
v 0.19068000 0.00251450 -0.28185006
v 0.18471287 0.00570979 -0.26352692
v 0.19402089 0.00181655 -0.26373543
v 0.19615755 -0.10697785 -0.27864254
v 0.19927405 -0.10777691 -0.28254889
v 0.19657028 -0.10553674 -0.27770652
v 0.19359823 -0.10434923 -0.27456227
v 0.20349623 -0.09771109 -0.28222848
v 0.20236742 -0.09913501 -0.28248835
v 0.20244201 -0.09031085 -0.27655366
v 0.20509017 -0.09040055 -0.28281228
v 0.20219333 -0.08081421 -0.27243662
v 0.20650730 -0.08942556 -0.28103127
v 0.20728315 -0.08947616 -0.28250804
v 0.21096982 -0.07208682 -0.27689712
v 0.21528160 -0.06674143 -0.28281317
v 0.20540778 -0.06166850 -0.26882651
v 0.21078177 -0.06248962 -0.27267025
v 0.20255434 -0.04563128 -0.26470336
v 0.20589591 -0.05144124 -0.26683349
v 0.21104197 -0.08158047 -0.28246051
v 0.21500346 -0.07297929 -0.28269794
v 0.21379313 -0.07290098 -0.28077533
v 0.22206791 -0.05496027 -0.28278862
v 0.21180099 -0.04956352 -0.26941200
v 0.21879378 -0.06165633 -0.28067568
v 0.21849733 -0.06315502 -0.28245111
v 0.22013799 -0.06109251 -0.28236163
v 0.22352128 -0.05351752 -0.28228238
v 0.22162756 -0.04791226 -0.27659454
v 0.22499251 -0.04642827 -0.28281326
v 0.21050681 -0.02706461 -0.26458716
v 0.21121841 -0.00910939 -0.28281163
v 0.20625206 -0.02334396 -0.26350011
v 0.22204578 -0.03643731 -0.27230628
v 0.21801816 -0.03373151 -0.26883185
v 0.21497955 -0.03003596 -0.26657828
v 0.21966112 -0.01521430 -0.28281040
v 0.23476854 -0.02474232 -0.28281329
v 0.22604005 -0.01437396 -0.26845684
v 0.21205401 -0.00857860 -0.26335887
v 0.19875566 -0.00128244 -0.28185993
v 0.19680013 0.00044735 -0.28199977
v 0.19974293 -0.00071794 -0.27867137
v 0.20495847 -0.00327819 -0.28195012
v 0.20683171 -0.00507939 -0.28185077
v 0.20787436 -0.00439014 -0.27867598
v 0.20120017 -0.00138683 -0.26457210
v 0.20920603 -0.00500063 -0.26460189
v 0.20318348 -0.00262002 -0.26354014
v 0.20806181 -0.00547617 -0.26343502
v 0.21907818 -0.01238579 -0.28280360
v 0.21490856 -0.00887199 -0.28184976
v 0.22109304 -0.01069310 -0.28194458
v 0.21594788 -0.00804024 -0.27875630
v 0.22406795 -0.01170058 -0.27895898
v 0.22317326 -0.01270611 -0.28182227
v 0.23564453 -0.01698208 -0.27834653
v 0.22474707 -0.01200545 -0.27186282
v 0.21428143 -0.00730904 -0.26417773
v 0.22212168 -0.01105657 -0.26743653
v 0.21836268 -0.01045839 -0.26470237
v 0.22207539 -0.01603981 -0.26688869
v 0.21311753 -0.00699635 -0.28189752
v 0.22721584 -0.04567908 -0.28240427
v 0.23091853 -0.03762139 -0.28247124
v 0.22956609 -0.02993566 -0.27641440
v 0.23473241 -0.02931880 -0.28270196
v 0.23106722 -0.01499197 -0.27185588
v 0.23310317 -0.01677885 -0.27416300
v 0.23785239 -0.01960040 -0.28082111
v 0.23808622 -0.01984759 -0.28259815
v 0.23108995 -0.01742599 -0.28279583
v 0.23240349 -0.01562468 -0.28196966
v 0.22718695 -0.01366309 -0.27011715
v 0.23462522 -0.01738366 -0.28185948
v 0.23874999 -0.01868126 -0.28230195
v 0.08357329 0.01546484 -0.13321707
v 0.17480333 0.00781414 -0.15035497
v 0.36436282 -0.03639572 -0.18291624
v 0.33419427 -0.03690820 -0.16139298
v 0.15896210 0.01244691 -0.13988103
v 0.33136171 -0.03296246 -0.15247719
v 0.26950934 0.00155465 -0.16437475
v 0.25042947 0.00436506 -0.15798206
v 0.33123954 -0.03427923 -0.15607454
v 0.36248396 -0.03690355 -0.18029834
v 0.36247454 -0.03456103 -0.18417148
v 0.30381971 0.01749828 -0.12855227
v 0.32245795 0.00912064 -0.14741366
v 0.35446187 -0.00507125 -0.17921051
v 0.33970460 0.00143011 -0.16463252
v 0.33646279 0.00408212 -0.15870522
v 0.33084310 0.00537114 -0.15579206
v 0.31061267 0.01460904 -0.13512955
v 0.33684853 -0.03563856 -0.15696908
v 0.34370489 -0.03690784 -0.15659840
v 0.33977020 -0.03653213 -0.15632100
v 0.33572584 -0.03377605 -0.15247674
v 0.33877043 -0.03509182 -0.15380894
v 0.34143072 -0.03640643 -0.15111234
v 0.33767603 0.00479277 -0.15544846
v 0.34683666 -0.00189730 -0.17206249
v 0.35082673 -0.00263445 -0.17337140
v 0.34414076 0.00115494 -0.16373996
v 0.34009984 0.00291487 -0.15979201
v 0.34344583 0.00230971 -0.15615114
v 0.34881211 -0.00034483 -0.16702478
v 0.34871930 0.00000436 -0.16277176
v 0.32932772 0.00774907 -0.15032202
v 0.33659538 0.00546373 -0.15143265
v 0.32932444 0.00860686 -0.14568869
v 0.32754459 0.00954147 -0.14046132
v 0.36486996 -0.03463394 -0.18038762
v 0.36432786 -0.00729380 -0.18293739
v 0.36488095 -0.00874499 -0.18038070
v 0.36489495 -0.03457094 -0.10576037
v 0.35677083 -0.00377625 -0.17491802
v 0.35488045 -0.00283266 -0.16960119
v 0.35939168 -0.00514774 -0.17574937
v 0.36103404 -0.00554440 -0.17099673
v 0.36397200 -0.00693808 -0.18008059
v 0.33875777 -0.03508452 0.07500374
v 0.36101725 -0.00553369 0.04740385
v 0.36488542 -0.03457269 0.05180628
v 0.36486687 -0.01867167 -0.03242067
v 0.36488134 -0.00874391 0.05791775
v 0.33572593 -0.03377608 0.11000808
v 0.36435488 -0.03639419 0.14306530
v 0.36395115 -0.00690875 0.05978754
v 0.15497314 -0.03296246 0.14589792
v 0.33136181 -0.03296246 0.25485778
v 0.33384079 -0.03378060 0.25953117
v 0.12663907 -0.03456696 0.28934421
v 0.34369318 -0.03690775 0.26749903
v 0.36090109 -0.00659325 0.28799347
v 0.36249557 -0.01143804 0.28935123
v 0.36260529 -0.00863685 0.28919065
v 0.27810089 0.00544973 0.26592130
v 0.26832367 -0.00537318 0.28581094
v 0.36249334 -0.03456059 0.28935120
v 0.36246722 -0.03690315 0.28628365
v 0.33672942 -0.03642863 0.26556224
v 0.34143210 -0.03639998 0.09006629
v 0.34375538 -0.03690598 0.13491359
v 0.30642979 0.01900878 0.06071448
v 0.34143748 0.00324751 0.20875320
v 0.36485653 -0.02417079 0.12460248
v 0.33873583 -0.03507676 0.17762854
v 0.34143007 -0.03640235 0.18137377
v 0.32136791 0.01229031 0.15141935
v 0.36490193 -0.00876226 0.12973547
v 0.36396345 -0.00694261 0.28767130
v 0.33571175 -0.03377323 0.25472966
v 0.36487251 -0.03456709 0.28635677
v 0.36486732 -0.00872765 0.28637947
v 0.35972214 -0.00497403 0.28268456
v 0.34142701 -0.03640095 0.26021835
v 0.33920627 -0.03530497 0.25843710
v 0.33472361 0.00630297 0.23387786
v 0.34541227 0.00149365 0.27016126
v 0.33717593 0.00510909 0.26448219
v 0.36434746 -0.03639622 0.28849226
v 0.34633676 -0.00020604 0.27625102
v 0.32753769 0.00787857 0.26138894
v 0.33371731 0.00592090 0.26469249
v 0.34922201 -0.00062948 0.27643379
v 0.36435585 -0.00942045 0.28850290
v 0.04716317 0.02019201 -0.25647897
v 0.05562839 0.02850995 -0.26305871
v 0.05017417 0.01751226 -0.24614953
v 0.05022198 0.02680430 -0.24687163
v 0.05200402 0.06226219 -0.26305185
v 0.05274709 0.01739243 -0.25966556
v 0.05110656 0.01353359 -0.25599094
v 0.05032833 0.01334505 -0.25322768
v 0.05117586 0.01648780 -0.25629159
v 0.05227000 0.02081781 -0.26077197
v 0.05554918 0.02150124 -0.26199103
v 0.05033819 0.01951770 -0.25612733
v 0.05116593 0.02775985 -0.24328222
v 0.05013921 0.02198735 -0.25344843
v 0.05997525 0.02667355 -0.26308321
v 0.06561976 0.05821204 -0.26308654
v 0.04749329 0.12339378 -0.26304881
v 0.04743535 0.06857848 -0.26305243
v 0.07133483 0.05452304 -0.28281149
v 0.06334969 0.05840346 -0.28279804
v 0.05137828 0.06383580 -0.28280143
v 0.05535472 0.06312032 -0.28181892
v 0.05107903 0.06757427 -0.28192668
v 0.05196816 0.06860733 -0.27869638
v 0.05082747 0.07242365 -0.27977369
v 0.04981897 0.07241932 -0.28196792
v 0.05197120 0.06860539 -0.26435903
v 0.05629509 0.06404211 -0.27899333
v 0.05360949 0.06589900 -0.28086014
v 0.05083171 0.07242224 -0.26523806
v 0.05705143 0.06367451 -0.26460636
v 0.05351441 0.06590003 -0.26382807
v 0.06463259 0.06016549 -0.28207407
v 0.06555504 0.05986656 -0.27990061
v 0.05625193 0.06283952 -0.26342586
v 0.04981237 0.07010554 -0.26346343
v 0.06346649 0.06067388 -0.26351783
v 0.04976188 0.12521972 -0.28197758
v 0.04751321 0.12567797 -0.27980790
v 0.04748392 0.12568566 -0.26522735
v 0.04969065 0.12522260 -0.26351853
v 0.05082263 0.12345594 -0.27977190
v 0.05082328 0.12344669 -0.26521427
v 0.04982228 0.12256100 -0.26346361
v 0.08741371 0.04680462 -0.28281218
v 0.09807155 0.04257471 -0.26307712
v 0.12603147 0.03036437 -0.26309699
v 0.09585376 0.04068809 -0.28281213
v 0.07943386 0.05069013 -0.28279551
v 0.07495264 0.05461549 -0.28185006
v 0.08100254 0.05265398 -0.28200853
v 0.07591476 0.05519445 -0.27871346
v 0.07736662 0.05452662 -0.26458053
v 0.07025377 0.05770437 -0.26373125
v 0.08204554 0.05029358 -0.26308446
v 0.07398952 0.05421183 -0.26310497
v 0.07934397 0.05329354 -0.26354346
v 0.06687501 0.05840809 -0.28185993
v 0.07299085 0.05634405 -0.28200091
v 0.08303462 0.05083235 -0.28185006
v 0.08401392 0.05152972 -0.27875651
v 0.08915505 0.04893222 -0.28197055
v 0.09220427 0.04783954 -0.27869039
v 0.08571070 0.05076278 -0.26460549
v 0.09525988 0.04351770 -0.28280033
v 0.09110831 0.04703067 -0.28185006
v 0.09747432 0.04519890 -0.28184716
v 0.09011883 0.04647994 -0.26310203
v 0.08739477 0.04956836 -0.26354334
v 0.09394907 0.04703663 -0.26462406
v 0.09543886 0.04584609 -0.26354780
v 0.12332853 0.03073788 -0.28280970
v 0.11532979 0.03461795 -0.28279605
v 0.11083562 0.03851190 -0.28185500
v 0.10966473 0.03823985 -0.26308101
v 0.11792559 0.03424424 -0.26308403
v 0.11703261 0.03651121 -0.28192998
v 0.10959787 0.03998082 -0.27989554
v 0.11891010 0.03471299 -0.28185006
v 0.11991507 0.03532102 -0.27868983
v 0.12805205 0.03165225 -0.27867471
v 0.10233945 0.04325285 -0.26469355
v 0.11308178 0.03839687 -0.26453751
v 0.12142963 0.03463338 -0.26458315
v 0.13115429 0.02744029 -0.28280034
v 0.12699010 0.03092472 -0.28185006
v 0.12514038 0.03275224 -0.28193304
v 0.12971563 0.03089086 -0.26461219
v 0.11530775 0.03712670 -0.26354617
v 0.12331771 0.03341282 -0.26354467
v 0.09938064 0.04319335 -0.28181823
v 0.10027045 0.04419393 -0.27897663
v 0.10862783 0.04028758 -0.28206709
v 0.10485289 0.04172563 -0.26352165
v 0.14313425 0.02240180 -0.28280702
v 0.14513590 0.02244943 -0.26305870
v 0.13330113 0.02903436 -0.28188137
v 0.13526823 0.02707774 -0.28181751
v 0.13612041 0.02800776 -0.27894671
v 0.14529921 0.02386345 -0.27988129
v 0.14445136 0.02414162 -0.28207653
v 0.13812073 0.02709531 -0.26466770
v 0.13133331 0.02969686 -0.26354344
v 0.14077802 0.02558170 -0.26352118
v 0.15122887 0.01854991 -0.28279619
v 0.14671623 0.02240398 -0.28185006
v 0.15279981 0.02031555 -0.28201320
v 0.15007718 0.02166791 -0.26371557
v 0.15479426 0.01861138 -0.28185006
v 0.15576321 0.01913717 -0.27868163
v 0.16389762 0.01546720 -0.27867488
v 0.16097026 0.01659017 -0.28196630
v 0.15713073 0.01851154 -0.26456730
v 0.15363026 0.01859147 -0.26315733
v 0.15921632 0.01726482 -0.26354885
v 0.16287387 0.01482351 -0.28185006
v 0.16913736 0.01288527 -0.28191055
v 0.17202796 0.01179802 -0.27868913
v 0.16545098 0.01475389 -0.26458528
v 0.17094953 0.01102656 -0.28185006
v 0.17729124 0.00916745 -0.28186360
v 0.17373719 0.01100193 -0.26460611
v 0.16724979 0.01354835 -0.26354848
v 0.17528843 0.00981953 -0.26354654
v 0.04706048 0.01969390 -0.24294530
v 0.04710574 0.03071781 -0.22693590
v 0.05012033 0.04287091 -0.22356824
v 0.04705574 0.04783582 -0.21638251
v 0.05022630 0.02564568 -0.23438773
v 0.05003572 0.03616475 -0.23329338
v 0.05011006 0.03180930 -0.23930732
v 0.05006185 0.03943413 -0.22817834
v 0.05013434 0.03724657 -0.21760151
v 0.05118142 0.01729584 -0.24881694
v 0.05033819 0.02144360 -0.24132398
v 0.05118227 0.02518823 -0.23736085
v 0.05116364 0.03565133 -0.23182084
v 0.05013359 0.03045211 -0.22781842
v 0.05033819 0.03301633 -0.22506928
v 0.05125741 0.03663614 -0.22614100
v 0.05116729 0.03698643 -0.22073815
v 0.05115802 0.04373603 -0.21988909
v 0.05120980 0.04449362 -0.21428452
v 0.05033306 0.04111054 -0.21316274
v 0.04709215 0.04713550 -0.20309662
v 0.05009764 0.05108005 -0.21165929
v 0.05015682 0.04534923 -0.20580590
v 0.05006278 0.05917810 -0.19989668
v 0.04716242 0.05604303 -0.20443198
v 0.05019338 0.05266165 -0.19521365
v 0.04969948 0.06853530 -0.18618743
v 0.04722535 0.06350660 -0.19359337
v 0.05032320 0.04728359 -0.21606243
v 0.05115495 0.05182676 -0.20794960
v 0.05116241 0.04506539 -0.20880193
v 0.05125073 0.05242898 -0.20237148
v 0.05032320 0.05537779 -0.20415628
v 0.05033306 0.04920909 -0.20125935
v 0.05116352 0.05319352 -0.19681739
v 0.05115662 0.05989999 -0.19601553
v 0.05033819 0.05730961 -0.18935676
v 0.05116029 0.06062937 -0.19257112
v 0.05116145 0.06027138 -0.18787990
v 0.05032833 0.06347634 -0.19225250
v 0.05020270 0.06600858 -0.18951042
v 0.04977667 0.05849229 -0.18508082
v 0.01156326 0.05987476 -0.16233787
v 0.01033940 0.06908555 -0.16236648
v 0.01483640 0.06148882 -0.15946331
v 0.01604454 0.05979382 -0.16008953
v 0.01485057 0.06741454 -0.15945822
v 0.01548978 0.06916880 -0.16071295
v 0.04753179 0.05958027 -0.17640525
v 0.01631345 0.06148318 -0.15648746
v 0.01750492 0.05986271 -0.15513817
v 0.01631408 0.06741517 -0.15647641
v 0.01750418 0.06908060 -0.15646057
v 0.01629658 0.06149765 -0.09679069
v 0.02005734 0.06942725 -0.08857651
v 0.02002968 0.05957967 -0.08883737
v 0.01748597 0.05987266 -0.09540264
v 0.01629371 0.06741361 -0.09692347
v 0.01749534 0.06908785 -0.09680371
v 0.04769446 0.06939969 -0.06673616
v 0.05006117 0.05986812 -0.17940907
v 0.05117801 0.06149918 -0.17942697
v 0.05117216 0.06741875 -0.18402297
v 0.05005646 0.05987156 -0.08001965
v 0.05006468 0.06908894 -0.03856004
v 0.05117587 0.06149190 -0.06349546
v 0.05119258 0.06742084 -0.05346688
v 0.25723843 0.04004852 -0.07805300
v 0.01468734 0.06067941 -0.09380465
v 0.01432209 0.05984610 -0.09119892
v 0.01468841 0.06659621 -0.09380574
v 0.01598654 0.06904925 -0.09251786
v 0.04753380 0.05958044 -0.07181208
v 0.01188185 0.06148878 -0.09242648
v 0.01188380 0.06742756 -0.09242237
v 0.01188308 0.06908991 -0.09114058
v 0.05005049 0.05986773 0.04153693
v 0.05119126 0.06738212 0.04547776
v 0.05001180 0.06911977 0.04358599
v 0.15614730 0.04200620 -0.02817335
v 0.11915534 0.04204455 0.00584202
v 0.26314537 0.03670670 -0.08553772
v 0.19553811 0.04204513 -0.03439335
v 0.28670248 0.02515258 -0.11141275
v 0.27107453 0.03301923 -0.09378283
v 0.25831815 0.03782869 -0.08299509
v 0.25769912 0.04099865 -0.07302361
v 0.25131254 0.04204173 0.05662884
v 0.29401580 0.02179854 -0.11890723
v 0.30152601 0.01995237 -0.12294824
v 0.31480373 0.01332618 -0.13793370
v 0.31899760 0.01098299 -0.14306058
v 0.30724346 0.01773604 -0.12614739
v 0.31293467 0.01575812 -0.13106876
v 0.31311383 0.01604235 -0.12695687
v 0.32089573 0.01233040 -0.13894682
v 0.32012057 0.01287432 -0.13460145
v 0.32246681 0.01110794 -0.14076998
v 0.27902328 0.02935871 -0.10197620
v 0.26700214 0.03426923 -0.09093884
v 0.28307404 0.02697839 -0.10719686
v 0.28648835 0.02722656 -0.10480625
v 0.27503853 0.03061254 -0.09909280
v 0.27709282 0.03183391 -0.09511851
v 0.27488464 0.03306398 -0.08990373
v 0.27888269 0.03145603 -0.09130521
v 0.28502519 0.02843700 -0.10293619
v 0.28453623 0.02891539 -0.09864724
v 0.26500382 0.03732658 -0.08069052
v 0.26470242 0.03783505 -0.07628270
v 0.26904847 0.03546661 -0.08706489
v 0.27083727 0.03508538 -0.08328224
v 0.25761129 0.04101606 -0.03865779
v 0.29634203 0.02237454 -0.11639793
v 0.30169290 0.02094642 -0.11933749
v 0.30855917 0.01809455 -0.12018091
v 0.30013956 0.02188228 -0.11232313
v 0.29185674 0.02561628 -0.10452938
v 0.29353586 0.02396742 -0.11381826
v 0.29256852 0.02516489 -0.10827398
v 0.28976175 0.02656400 0.03659032
v 0.27388860 0.03367103 0.01307001
v 0.04635337 0.05401967 0.05257983
v 0.04991139 0.06881505 0.04597720
v 0.04635277 0.05787146 0.04714092
v 0.04942375 0.06817828 0.04859309
v 0.04862926 0.06681705 0.05184195
v 0.04939572 0.05682879 0.06379314
v 0.04932668 0.06059998 0.05990928
v 0.05178530 0.04205447 0.05117787
v 0.05117701 0.06138842 0.05034715
v 0.04933722 0.05324433 0.06749089
v 0.05581322 0.04204529 0.05518491
v 0.05003766 0.05430521 0.05330244
v 0.05118888 0.05754714 0.05210739
v 0.04992665 0.05830156 0.04813131
v 0.05157753 0.04435746 0.05607401
v 0.05293346 0.04489695 0.06213306
v 0.05128950 0.04859751 0.05969853
v 0.05000438 0.04894788 0.05623736
v 0.05579782 0.04296032 0.06204639
v 0.05112690 0.04822235 0.06894969
v 0.05256087 0.04492575 0.07195947
v 0.05123138 0.05561890 0.05565187
v 0.05119243 0.05271721 0.05943180
v 0.05114294 0.05878333 0.05855351
v 0.05113537 0.05481850 0.06260813
v 0.05094192 0.05100750 0.06780382
v 0.05062070 0.05437677 0.06514556
v 0.06009343 0.04201724 0.06148099
v 0.05115427 0.06453071 0.04898085
v 0.05030430 0.06599221 0.05186405
v 0.05102951 0.06229022 0.05626869
v 0.05062070 0.05833273 0.06111582
v 0.05076640 0.04343897 0.07907685
v 0.05955197 0.04200598 0.08692591
v 0.04916928 0.04909958 0.07187706
v 0.04901000 0.04516657 0.07593808
v 0.05174291 0.04464383 0.07466180
v 0.05544175 0.04281427 0.07707315
v 0.24192931 0.04200578 0.06715443
v 0.05971953 0.02455398 0.23076851
v 0.12837249 0.03390366 0.21348421
v 0.16210316 0.03254360 0.21606922
v 0.25505748 0.04161468 0.19806807
v 0.25402612 0.04084384 0.20075231
v 0.30852989 0.01678276 0.24506292
v 0.27583946 0.03140953 0.21815325
v 0.26361651 0.03732690 0.20724234
v 0.29008764 0.02496844 0.22999206
v 0.25754940 0.04103020 0.19706204
v 0.28280654 0.02965332 0.21892431
v 0.30003976 0.02189994 0.08337830
v 0.29965838 0.02206307 0.23163569
v 0.27087436 0.03483214 0.21068692
v 0.28344167 0.02881569 0.22237577
v 0.31547335 0.01493843 0.24608957
v 0.29530064 0.02371228 0.23087734
v 0.30523122 0.01884210 0.24070091
v 0.32396967 0.01075389 0.25520331
f 1 3 2
f 1 5 4
f 1 6 5
f 1 2 6
f 2 7 6
f 2 3 8
f 2 8 10
f 2 10 7
f 10 11 7
f 10 8 12
f 10 13 11
f 10 12 13
f 13 12 14
f 12 15 14
f 15 16 14
f 9 17 18
f 18 20 19
f 17 20 18
f 9 4 17
f 18 19 21
f 9 18 21
f 19 23 22
f 19 20 23
f 14 16 24
f 16 25 24
f 24 25 26
f 13 14 27
f 14 28 27
f 14 24 28
f 24 26 29
f 24 29 28
f 16 15 30
f 16 30 25
f 15 31 30
f 26 25 29
f 25 32 29
f 25 30 32
f 28 33 27
f 1 34 3
f 1 4 34
f 8 35 12
f 15 36 31
f 21 19 37
f 19 22 37
f 34 4 39
f 4 9 39
f 3 38 8
f 38 35 8
f 41 44 43
f 41 42 45
f 41 45 46
f 42 43 47
f 42 41 43
f 44 48 43
f 41 46 44
f 43 49 47
f 51 45 50
f 51 52 45
f 54 55 53
f 51 53 55
f 51 50 53
f 51 55 52
f 50 47 53
f 45 42 50
f 42 47 50
f 45 52 46
f 49 56 47
f 57 58 56
f 59 61 60
f 59 62 63
f 59 60 62
f 59 63 61
f 62 60 64
f 66 65 68
f 66 68 67
f 62 66 67
f 62 67 63
f 62 69 66
f 62 64 69
f 66 69 65
f 69 64 70
f 70 71 69
f 72 73 71
f 70 72 71
f 54 60 61
f 54 53 60
f 54 61 55
f 53 74 60
f 47 56 74
f 53 47 74
f 60 74 64
f 74 56 64
f 56 75 72
f 56 58 75
f 64 56 72
f 55 61 52
f 58 76 77
f 64 72 70
f 63 67 61
f 72 75 73
f 75 77 73
f 58 77 75
f 77 78 79
f 78 80 79
f 81 83 82
f 81 84 83
f 81 86 85
f 81 82 86
f 81 87 84
f 81 85 87
f 89 91 90
f 89 92 91
f 89 90 93
f 85 91 92
f 85 86 91
f 86 88 91
f 86 82 88
f 85 92 87
f 88 96 95
f 91 94 90
f 91 88 94
f 89 97 92
f 92 97 87
f 94 88 95
f 99 93 90
f 93 97 89
f 93 100 97
f 93 99 100
f 90 101 99
f 90 94 101
f 94 95 102
f 94 102 101
f 98 103 102
f 95 98 102
f 99 101 100
f 97 100 104
f 100 102 105
f 101 102 100
f 103 105 102
f 106 65 83
f 106 68 65
f 106 107 68
f 106 83 84
f 106 87 107
f 106 84 87
f 68 107 67
f 65 69 83
f 69 71 108
f 83 69 108
f 83 108 82
f 82 108 88
f 71 73 109
f 71 109 96
f 108 71 96
f 88 108 96
f 96 109 98
f 97 111 87
f 95 96 98
f 87 111 112
f 87 112 107
f 98 113 114
f 109 110 98
f 98 110 113
f 110 115 113
f 67 107 61
f 109 73 110
f 73 77 79
f 73 79 116
f 110 73 116
f 79 80 117
f 79 117 116
f 107 112 61
f 110 116 115
f 116 117 119
f 116 119 115
f 119 117 120
f 117 118 120
f 97 104 121
f 97 121 111
f 104 100 122
f 100 105 122
f 105 123 124
f 104 122 125
f 121 125 111
f 121 104 125
f 122 105 124
f 98 114 103
f 114 126 123
f 103 114 123
f 103 123 105
f 123 127 124
f 126 127 123
f 113 126 114
f 113 115 126
f 126 115 128
f 127 128 129
f 126 128 127
f 127 129 124
f 125 122 130
f 125 130 111
f 115 120 128
f 115 119 120
f 128 120 129
f 129 120 133
f 120 118 133
f 130 135 134
f 111 130 134
f 130 122 135
f 111 134 112
f 134 135 136
f 135 122 136
f 122 124 136
f 134 136 137
f 112 134 137
f 112 137 132
f 131 124 138
f 129 138 124
f 129 133 138
f 124 131 139
f 138 133 131
f 133 139 131
f 133 140 139
f 124 139 141
f 44 142 48
f 44 143 142
f 44 46 143
f 48 57 43
f 43 57 49
f 48 142 57
f 57 145 144
f 46 52 143
f 49 57 56
f 57 144 58
f 142 143 146
f 144 147 58
f 58 147 76
f 76 147 148
f 144 145 147
f 147 145 149
f 147 149 148
f 149 150 148
f 142 146 151
f 143 152 146
f 146 153 151
f 146 152 153
f 142 151 57
f 151 154 145
f 57 151 145
f 151 156 154
f 151 155 156
f 152 143 157
f 153 152 158
f 151 153 155
f 152 157 158
f 158 155 153
f 158 157 155
f 149 154 150
f 145 154 149
f 150 154 159
f 156 160 154
f 154 160 159
f 156 161 160
f 52 61 143
f 76 148 162
f 76 78 77
f 76 162 78
f 148 164 162
f 148 150 164
f 162 165 163
f 162 164 165
f 164 159 165
f 162 163 80
f 78 162 80
f 80 163 166
f 163 165 166
f 143 61 157
f 150 159 164
f 165 159 166
f 166 159 168
f 155 170 169
f 155 157 170
f 157 171 170
f 170 172 169
f 170 171 172
f 155 173 156
f 155 169 173
f 172 175 174
f 172 171 175
f 169 172 176
f 169 176 173
f 156 173 161
f 160 161 177
f 161 178 177
f 173 178 161
f 176 177 178
f 173 176 178
f 157 61 171
f 175 171 167
f 160 179 159
f 160 177 180
f 177 181 180
f 176 181 177
f 160 180 179
f 61 167 171
f 159 179 168
f 175 182 174
f 175 167 182
f 174 182 172
f 172 182 176
f 176 182 181
f 182 183 181
f 182 167 184
f 184 167 185
f 182 184 186
f 182 186 183
f 167 187 185
f 181 183 180
f 183 188 180
f 180 188 189
f 180 189 179
f 80 166 117
f 117 190 118
f 117 166 190
f 166 168 190
f 61 191 167
f 61 112 191
f 190 179 192
f 112 132 191
f 118 192 133
f 190 192 118
f 132 137 193
f 137 136 193
f 193 136 194
f 193 194 195
f 132 195 191
f 132 193 195
f 133 192 140
f 140 141 139
f 124 141 196
f 196 141 197
f 140 197 141
f 140 192 197
f 190 168 179
f 192 179 198
f 198 179 200
f 185 186 184
f 185 187 186
f 187 201 186
f 183 186 203
f 186 204 202
f 186 201 204
f 204 206 205
f 204 201 206
f 202 203 186
f 204 205 203
f 202 204 203
f 203 205 207
f 183 208 188
f 183 203 208
f 188 208 189
f 208 209 189
f 203 209 208
f 203 207 209
f 187 167 201
f 201 167 210
f 206 212 205
f 206 210 212
f 206 201 210
f 205 213 207
f 205 212 214
f 212 215 214
f 212 210 215
f 205 214 213
f 209 211 189
f 209 217 211
f 207 217 209
f 207 213 217
f 217 218 211
f 213 218 217
f 210 216 215
f 215 219 214
f 215 216 219
f 214 220 213
f 214 219 221
f 216 222 219
f 219 223 221
f 219 222 223
f 221 224 220
f 214 221 220
f 211 218 225
f 213 220 226
f 218 226 225
f 213 226 218
f 224 227 220
f 226 227 225
f 220 227 226
f 223 229 228
f 223 222 229
f 221 223 224
f 167 216 210
f 167 191 216
f 211 225 189
f 189 225 230
f 189 230 179
f 179 230 200
f 216 191 231
f 225 233 230
f 222 216 232
f 222 232 229
f 229 234 228
f 229 232 234
f 228 234 223
f 223 234 224
f 234 237 236
f 234 232 237
f 237 238 236
f 237 239 238
f 237 232 239
f 234 236 224
f 224 236 235
f 225 227 233
f 227 240 233
f 224 240 227
f 224 235 240
f 240 241 233
f 240 242 241
f 235 242 240
f 216 231 232
f 230 243 244
f 236 245 235
f 238 239 246
f 238 247 236
f 238 246 247
f 239 248 246
f 236 247 245
f 235 245 242
f 242 249 241
f 245 249 242
f 241 249 250
f 239 251 248
f 239 232 251
f 233 241 230
f 246 248 247
f 247 248 252
f 247 254 253
f 247 252 254
f 245 247 253
f 255 257 256
f 255 259 258
f 255 260 259
f 255 256 260
f 255 261 257
f 255 258 262
f 255 262 261
f 245 253 263
f 249 263 250
f 245 263 249
f 253 254 263
f 262 265 261
f 262 264 265
f 248 251 252
f 252 256 257
f 252 251 256
f 256 251 260
f 252 257 261
f 252 261 254
f 241 250 230
f 263 266 250
f 263 265 266
f 254 265 263
f 254 261 265
f 265 264 266
f 232 231 251
f 251 231 267
f 243 268 269
f 268 270 269
f 269 270 271
f 251 267 260
f 230 250 243
f 270 273 271
f 270 272 273
f 258 275 274
f 258 259 275
f 275 259 276
f 259 260 276
f 258 277 262
f 258 278 277
f 258 274 278
f 279 274 275
f 279 280 274
f 279 275 276
f 279 281 280
f 279 276 281
f 280 278 274
f 280 282 278
f 282 280 283
f 277 284 264
f 277 264 262
f 277 285 284
f 278 285 277
f 282 286 278
f 286 287 285
f 286 285 278
f 286 288 287
f 282 288 286
f 282 283 288
f 285 287 284
f 264 284 266
f 284 287 266
f 281 289 280
f 281 290 289
f 281 291 290
f 281 276 291
f 292 289 290
f 280 289 283
f 289 293 283
f 292 290 294
f 294 295 292
f 289 292 296
f 289 296 293
f 292 297 296
f 292 295 297
f 293 298 288
f 293 288 283
f 288 298 287
f 296 297 293
f 287 298 266
f 250 299 243
f 270 300 272
f 266 299 250
f 298 299 266
f 243 301 268
f 243 299 301
f 268 301 270
f 301 302 270
f 270 302 300
f 4 303 17
f 5 304 4
f 5 6 304
f 17 305 20
f 20 305 23
f 305 307 23
f 23 307 40
f 6 7 306
f 7 11 306
f 13 27 308
f 11 13 308
f 303 309 17
f 17 309 305
f 304 303 4
f 306 11 310
f 11 308 310
f 308 27 312
f 27 311 312
f 304 6 313
f 6 306 313
f 307 314 40
f 34 38 3
f 34 315 38
f 34 39 315
f 12 316 15
f 35 316 12
f 316 36 15
f 22 23 317
f 23 40 317
f 21 37 318
f 37 22 318
f 315 39 320
f 39 321 320
f 315 322 38
f 38 322 35
f 39 9 321
f 21 318 325
f 9 21 325
f 9 325 321
f 22 317 318
f 316 323 319
f 316 326 324
f 35 326 316
f 316 324 323
f 324 327 323
f 327 324 328
f 318 329 325
f 318 330 329
f 318 317 330
f 327 332 331
f 317 40 333
f 317 333 330
f 315 334 322
f 315 320 334
f 334 335 336
f 334 336 337
f 322 337 35
f 322 334 337
f 337 336 338
f 324 340 328
f 324 339 340
f 324 326 341
f 35 337 326
f 326 342 341
f 326 337 342
f 324 341 339
f 339 341 344
f 343 344 341
f 343 345 344
f 341 342 343
f 338 342 337
f 321 325 347
f 347 346 321
f 347 348 346
f 347 329 348
f 325 329 347
f 321 346 320
f 348 329 349
f 329 330 349
f 335 350 336
f 336 351 338
f 340 339 352
f 328 340 353
f 340 354 353
f 327 328 355
f 327 356 332
f 327 355 356
f 328 353 355
f 353 354 357
f 353 357 355
f 344 345 352
f 339 344 352
f 340 352 354
f 345 354 352
f 332 356 358
f 356 359 358
f 356 355 359
f 357 359 355
f 357 354 345
f 357 361 359
f 360 359 361
f 357 345 361
f 350 351 336
f 334 363 335
f 320 363 334
f 343 361 345
f 314 333 40
f 320 364 363
f 362 361 365
f 365 361 366
f 361 343 366
f 363 367 335
f 335 367 350
f 350 368 351
f 351 368 338
f 366 343 369
f 343 342 369
f 338 369 342
f 348 349 370
f 330 370 349
f 346 364 320
f 368 371 338
f 338 371 369
f 350 367 368
f 367 372 368
f 29 32 373
f 32 374 373
f 32 30 374
f 30 31 374
f 29 373 375
f 29 375 28
f 374 31 373
f 373 31 375
f 31 376 375
f 375 376 33
f 28 375 33
f 33 377 27
f 31 378 376
f 31 36 378
f 33 376 377
f 376 378 377
f 377 378 379
f 378 380 379
f 378 381 380
f 380 381 379
f 379 381 382
f 379 382 383
f 381 384 382
f 381 385 384
f 382 384 383
f 384 385 383
f 383 385 386
f 386 385 387
f 387 385 388
f 378 385 381
f 378 36 385
f 36 389 385
f 195 194 390
f 195 390 191
f 194 136 390
f 390 392 391
f 191 390 391
f 390 136 392
f 191 391 393
f 392 394 391
f 392 136 394
f 391 394 395
f 393 391 395
f 136 396 394
f 136 124 396
f 124 197 397
f 124 196 197
f 397 197 398
f 192 398 197
f 192 198 398
f 124 399 396
f 124 398 399
f 124 397 398
f 399 398 400
f 198 400 398
f 191 393 199
f 393 395 199
f 395 394 401
f 199 395 401
f 199 401 402
f 394 403 401
f 402 401 403
f 403 394 396
f 396 400 404
f 396 399 400
f 198 404 400
f 198 405 404
f 396 404 406
f 405 406 404
f 199 402 191
f 402 407 191
f 198 200 405
f 403 396 408
f 403 408 409
f 402 409 407
f 402 403 409
f 409 408 410
f 409 410 407
f 396 406 411
f 405 411 406
f 405 200 411
f 396 411 412
f 191 407 231
f 407 413 231
f 200 230 414
f 410 416 415
f 407 410 415
f 410 408 416
f 407 415 417
f 416 408 415
f 407 417 413
f 415 419 418
f 417 415 418
f 415 408 419
f 417 418 413
f 408 396 419
f 412 411 420
f 200 420 411
f 200 421 420
f 396 420 422
f 396 412 420
f 200 414 421
f 422 420 421
f 396 422 423
f 421 414 422
f 418 419 424
f 413 418 424
f 419 396 425
f 396 423 425
f 414 423 422
f 414 230 426
f 424 419 427
f 424 427 428
f 413 428 231
f 413 424 428
f 425 423 429
f 423 430 429
f 414 430 423
f 414 426 430
f 230 244 426
f 426 244 432
f 231 431 434
f 244 435 432
f 428 427 436
f 428 436 231
f 427 419 436
f 436 438 437
f 231 436 437
f 436 419 438
f 231 437 431
f 437 438 439
f 437 439 431
f 438 440 439
f 438 419 440
f 439 442 441
f 431 439 441
f 439 440 442
f 419 425 440
f 425 429 443
f 430 426 444
f 429 444 443
f 429 430 444
f 443 444 445
f 426 445 444
f 426 432 433
f 426 433 445
f 425 445 446
f 425 443 445
f 446 445 447
f 433 447 445
f 431 441 434
f 442 440 441
f 441 440 448
f 434 441 448
f 434 448 449
f 425 447 450
f 425 446 447
f 433 450 447
f 433 432 450
f 448 440 451
f 449 448 451
f 425 450 452
f 432 452 450
f 243 269 244
f 244 269 453
f 269 271 454
f 269 454 453
f 244 453 455
f 453 456 455
f 453 454 456
f 455 457 244
f 455 456 457
f 231 434 267
f 244 458 435
f 244 457 458
f 271 459 454
f 271 273 459
f 273 461 460
f 273 460 459
f 454 459 462
f 456 463 457
f 456 464 463
f 456 465 464
f 456 466 465
f 454 466 456
f 454 462 466
f 462 467 466
f 462 459 467
f 466 468 465
f 464 469 463
f 464 465 469
f 457 463 458
f 449 267 434
f 451 440 471
f 440 425 471
f 451 471 472
f 449 472 267
f 449 451 472
f 267 472 473
f 474 476 475
f 472 471 474
f 472 475 473
f 472 474 475
f 474 477 476
f 474 478 477
f 471 478 474
f 471 425 478
f 425 452 435
f 432 435 452
f 478 479 477
f 425 479 478
f 425 435 479
f 435 458 480
f 475 482 481
f 475 476 482
f 475 481 473
f 476 483 482
f 476 477 483
f 435 480 479
f 479 480 484
f 477 484 483
f 477 479 484
f 469 485 463
f 463 485 458
f 485 486 458
f 458 486 470
f 260 267 487
f 267 488 489
f 470 490 458
f 481 482 491
f 482 483 491
f 491 483 492
f 481 491 493
f 481 493 473
f 493 494 473
f 494 488 473
f 484 480 496
f 483 496 492
f 483 484 496
f 496 480 495
f 493 498 497
f 491 492 493
f 493 496 498
f 492 496 493
f 267 473 488
f 480 458 490
f 494 493 488
f 495 490 496
f 495 480 490
f 377 379 386
f 379 383 386
f 386 387 499
f 377 386 27
f 388 501 500
f 27 386 503
f 386 499 503
f 387 388 504
f 388 500 504
f 27 503 311
f 503 499 505
f 500 502 506
f 460 507 459
f 460 508 507
f 460 461 508
f 508 509 507
f 509 508 510
f 507 511 459
f 507 509 511
f 509 512 511
f 509 510 512
f 273 272 461
f 461 512 508
f 461 272 512
f 508 512 510
f 466 467 513
f 466 513 468
f 468 513 465
f 459 511 467
f 513 515 514
f 467 515 513
f 467 516 515
f 467 511 516
f 513 517 465
f 513 514 517
f 515 518 514
f 514 518 517
f 465 517 519
f 512 521 520
f 512 520 511
f 511 522 516
f 520 521 523
f 520 523 511
f 515 516 518
f 518 524 517
f 516 524 518
f 516 522 524
f 511 523 522
f 523 525 522
f 523 526 525
f 523 521 526
f 522 527 524
f 522 528 527
f 522 525 528
f 521 512 526
f 526 529 530
f 526 530 525
f 524 531 517
f 524 527 531
f 525 530 528
f 531 533 532
f 527 533 531
f 527 528 533
f 528 534 533
f 530 535 528
f 530 536 535
f 530 529 536
f 536 537 535
f 528 538 534
f 528 535 538
f 533 539 532
f 533 534 539
f 539 541 540
f 534 541 539
f 534 538 541
f 539 540 532
f 537 536 542
f 536 529 542
f 535 537 538
f 537 543 538
f 537 544 543
f 537 542 544
f 538 545 541
f 538 543 545
f 544 546 547
f 544 547 543
f 544 542 546
f 541 545 548
f 541 548 540
f 543 549 545
f 543 550 549
f 543 547 550
f 548 552 551
f 545 552 548
f 545 549 552
f 552 549 553
f 552 553 551
f 540 548 532
f 532 548 519
f 551 553 548
f 272 300 512
f 512 300 526
f 526 300 529
f 300 554 529
f 519 517 532
f 517 531 532
f 529 554 542
f 542 554 546
f 548 553 519
f 554 555 546
f 547 556 550
f 547 557 556
f 547 546 557
f 556 557 558
f 556 558 559
f 549 560 553
f 549 550 560
f 553 560 561
f 561 563 562
f 561 564 563
f 560 564 561
f 556 566 550
f 556 559 566
f 566 559 569
f 559 568 569
f 564 567 563
f 564 571 567
f 560 571 564
f 550 570 560
f 557 572 558
f 558 572 559
f 561 562 573
f 562 563 573
f 573 563 574
f 563 565 575
f 559 576 568
f 577 579 578
f 577 580 579
f 568 577 578
f 580 581 579
f 580 582 581
f 577 583 580
f 577 584 583
f 568 584 577
f 580 585 582
f 580 583 585
f 582 587 581
f 582 586 587
f 565 587 586
f 582 585 586
f 583 588 585
f 584 589 583
f 568 576 584
f 583 589 588
f 565 586 575
f 565 563 567
f 568 590 569
f 567 591 565
f 578 579 592
f 568 578 592
f 579 581 593
f 592 579 594
f 579 593 594
f 581 587 593
f 565 591 587
f 593 587 595
f 591 595 587
f 503 505 311
f 504 500 596
f 499 387 597
f 387 504 597
f 500 506 598
f 566 570 550
f 570 599 560
f 560 599 571
f 505 499 601
f 567 600 591
f 568 592 590
f 592 603 602
f 592 594 603
f 590 592 602
f 594 604 603
f 594 593 604
f 593 605 604
f 593 595 605
f 591 605 595
f 600 606 591
f 602 608 590
f 602 609 608
f 602 603 609
f 603 610 609
f 603 604 610
f 605 606 611
f 605 591 606
f 604 611 610
f 604 605 611
f 606 613 612
f 567 614 600
f 571 615 567
f 599 615 571
f 615 616 567
f 567 616 614
f 500 598 607
f 600 613 606
f 600 614 613
f 614 617 613
f 36 316 619
f 316 319 619
f 36 619 389
f 619 620 389
f 389 620 621
f 385 622 388
f 385 621 622
f 385 389 621
f 619 319 620
f 620 623 621
f 620 319 623
f 621 623 622
f 323 624 319
f 323 327 624
f 327 331 624
f 624 331 625
f 331 627 626
f 331 332 627
f 331 628 625
f 625 628 629
f 331 626 628
f 628 630 629
f 628 626 630
f 319 632 631
f 319 631 623
f 319 624 633
f 633 624 634
f 319 633 635
f 633 634 636
f 635 633 637
f 625 639 624
f 624 640 634
f 624 641 640
f 624 642 641
f 624 362 642
f 624 639 362
f 625 643 639
f 625 629 643
f 629 630 360
f 643 629 360
f 643 360 639
f 360 362 639
f 640 641 644
f 634 640 636
f 640 645 636
f 642 362 646
f 642 646 644
f 641 642 644
f 640 644 645
f 646 645 644
f 636 645 647
f 647 645 638
f 636 648 633
f 636 647 648
f 633 648 638
f 647 638 648
f 319 635 632
f 632 649 631
f 632 650 649
f 635 637 651
f 637 653 652
f 637 633 653
f 633 638 653
f 637 652 651
f 638 652 653
f 651 652 654
f 638 654 652
f 632 635 655
f 651 654 655
f 635 651 655
f 632 656 650
f 632 655 656
f 654 656 655
f 631 649 657
f 650 658 649
f 649 658 657
f 631 657 659
f 657 660 659
f 657 658 660
f 656 660 658
f 659 660 661
f 650 656 658
f 646 638 645
f 623 662 622
f 631 662 623
f 659 661 662
f 631 659 662
f 358 359 627
f 332 358 627
f 359 626 627
f 359 630 626
f 359 360 630
f 360 361 362
f 388 622 501
f 500 501 502
f 502 501 506
f 622 664 501
f 501 664 663
f 660 654 661
f 660 656 654
f 646 362 365
f 622 669 664
f 622 662 669
f 662 667 669
f 661 667 662
f 667 661 654
f 638 668 654
f 646 365 668
f 646 668 638
f 664 666 663
f 664 665 666
f 665 664 670
f 654 671 667
f 365 366 668
f 664 669 670
f 668 671 654
f 506 501 672
f 501 663 672
f 663 673 672
f 673 663 666
f 599 674 615
f 506 675 598
f 598 675 676
f 675 677 676
f 506 678 675
f 506 672 678
f 675 679 677
f 675 678 679
f 680 682 681
f 680 683 682
f 680 681 684
f 598 676 685
f 676 687 686
f 676 677 687
f 676 688 685
f 676 686 688
f 677 689 687
f 677 679 689
f 690 691 683
f 690 686 691
f 690 688 686
f 686 692 691
f 686 687 692
f 683 691 682
f 691 692 682
f 687 693 692
f 687 694 693
f 687 689 694
f 693 694 695
f 685 688 696
f 690 696 688
f 690 697 696
f 690 683 697
f 566 681 570
f 566 698 681
f 566 569 698
f 570 699 599
f 681 698 684
f 681 700 570
f 681 682 700
f 570 701 699
f 570 700 701
f 599 699 674
f 674 702 615
f 699 703 674
f 699 701 703
f 702 704 615
f 703 705 702
f 674 703 702
f 682 706 700
f 682 692 706
f 700 707 701
f 700 706 707
f 692 708 706
f 692 693 708
f 708 710 709
f 695 709 710
f 693 710 708
f 693 695 710
f 707 712 711
f 708 709 712
f 706 712 707
f 706 708 712
f 703 713 705
f 703 714 713
f 701 714 703
f 707 711 714
f 701 707 714
f 614 616 716
f 598 715 607
f 598 685 715
f 715 685 717
f 685 696 717
f 680 718 683
f 680 684 718
f 569 719 698
f 569 618 719
f 698 719 684
f 711 712 720
f 709 720 712
f 711 720 721
f 711 721 714
f 678 723 679
f 672 724 678
f 678 725 723
f 678 724 725
f 672 673 722
f 672 722 724
f 679 726 689
f 679 727 726
f 679 723 727
f 725 724 728
f 727 730 729
f 727 725 730
f 725 728 730
f 723 725 727
f 689 731 694
f 689 726 731
f 731 726 729
f 727 729 726
f 695 732 709
f 731 729 732
f 694 732 695
f 694 731 732
f 709 732 729
f 673 665 722
f 709 729 730
f 709 730 720
f 728 724 733
f 724 722 733
f 673 666 665
f 668 366 734
f 668 734 671
f 734 366 369
f 294 735 295
f 295 735 297
f 297 735 737
f 290 291 276
f 290 276 736
f 294 738 735
f 294 736 738
f 294 290 736
f 735 738 739
f 735 739 737
f 293 740 298
f 293 737 740
f 297 737 293
f 737 739 740
f 738 736 742
f 736 743 742
f 742 743 744
f 738 745 739
f 743 736 746
f 742 744 738
f 744 748 745
f 744 747 748
f 738 744 745
f 743 746 744
f 744 749 747
f 744 746 749
f 740 739 741
f 739 745 741
f 745 748 750
f 745 750 741
f 750 751 741
f 748 751 750
f 736 276 260
f 736 260 746
f 746 260 752
f 260 487 752
f 298 740 299
f 749 746 753
f 753 755 754
f 753 746 755
f 749 753 751
f 747 751 748
f 747 749 751
f 751 753 756
f 753 757 756
f 753 754 757
f 758 760 759
f 758 762 761
f 758 759 762
f 758 763 760
f 758 765 763
f 758 764 765
f 751 756 741
f 756 757 766
f 756 766 741
f 765 768 767
f 765 767 763
f 746 752 755
f 755 760 754
f 755 759 760
f 755 752 759
f 754 760 763
f 754 763 757
f 741 766 769
f 741 769 740
f 766 767 769
f 757 767 766
f 757 763 767
f 767 768 769
f 769 768 770
f 762 759 771
f 761 772 758
f 772 761 762
f 772 762 773
f 762 771 773
f 758 772 764
f 774 764 772
f 774 775 764
f 776 772 777
f 776 774 772
f 774 778 779
f 772 773 777
f 765 780 768
f 764 780 765
f 775 781 780
f 775 780 764
f 780 781 768
f 779 782 774
f 779 784 783
f 779 783 782
f 775 774 782
f 775 783 781
f 775 782 783
f 783 784 781
f 759 752 771
f 771 752 773
f 773 752 785
f 768 781 786
f 740 770 299
f 769 770 740
f 770 768 786
f 299 770 301
f 752 487 785
f 487 788 785
f 770 789 301
f 301 790 302
f 301 789 790
f 790 792 791
f 790 789 792
f 790 793 300
f 790 791 793
f 300 793 787
f 302 790 300
f 789 794 792
f 789 770 794
f 778 797 796
f 778 795 797
f 796 799 798
f 797 800 796
f 797 801 800
f 797 795 801
f 798 799 802
f 796 803 799
f 796 800 803
f 803 804 799
f 803 805 804
f 803 800 805
f 800 801 805
f 799 808 807
f 802 809 798
f 809 811 810
f 809 810 798
f 809 812 811
f 802 812 809
f 807 802 799
f 807 813 812
f 807 812 802
f 812 813 811
f 807 814 813
f 807 815 814
f 807 808 815
f 799 816 806
f 799 804 816
f 816 804 817
f 806 808 799
f 806 818 808
f 804 805 817
f 805 801 817
f 819 806 816
f 819 816 817
f 806 819 820
f 819 822 821
f 819 817 822
f 819 821 820
f 820 824 806
f 818 814 815
f 818 815 808
f 818 806 823
f 818 825 814
f 818 823 825
f 826 827 825
f 826 825 823
f 825 827 814
f 806 824 823
f 826 828 827
f 823 828 826
f 823 824 828
f 821 830 820
f 821 829 830
f 831 824 820
f 831 832 824
f 830 833 820
f 830 834 833
f 830 829 834
f 820 835 831
f 820 833 835
f 831 836 832
f 836 838 837
f 836 831 838
f 832 828 824
f 832 839 828
f 832 840 839
f 832 836 840
f 837 840 836
f 822 829 821
f 822 841 829
f 822 817 841
f 829 841 834
f 841 817 834
f 828 842 827
f 828 839 842
f 839 840 842
f 776 843 774
f 776 844 843
f 776 785 844
f 776 777 785
f 774 843 778
f 779 778 845
f 777 773 785
f 843 846 778
f 843 844 846
f 846 795 778
f 846 847 795
f 846 844 847
f 844 785 847
f 778 798 845
f 796 798 778
f 779 848 784
f 779 845 848
f 848 849 784
f 798 850 845
f 850 848 845
f 848 850 849
f 798 810 850
f 784 849 781
f 781 849 786
f 795 847 801
f 785 817 847
f 847 817 801
f 810 811 850
f 850 811 849
f 849 811 813
f 770 786 794
f 786 851 794
f 785 788 817
f 849 852 786
f 814 827 813
f 849 813 852
f 813 827 852
f 852 851 786
f 817 788 853
f 851 854 794
f 851 855 854
f 857 860 859
f 857 858 860
f 859 861 857
f 859 862 861
f 860 863 859
f 860 864 863
f 860 858 864
f 862 865 861
f 862 866 865
f 862 867 866
f 866 868 865
f 868 870 869
f 868 869 865
f 868 871 870
f 866 871 868
f 831 874 873
f 831 872 874
f 873 838 831
f 873 875 838
f 835 872 831
f 835 876 872
f 835 833 876
f 833 834 876
f 874 872 877
f 873 878 861
f 873 877 878
f 873 874 877
f 873 879 875
f 861 879 873
f 872 876 877
f 875 881 880
f 875 880 838
f 837 880 840
f 838 880 837
f 880 881 840
f 875 882 881
f 875 879 882
f 883 884 882
f 883 882 879
f 882 884 881
f 840 881 842
f 842 881 884
f 842 884 827
f 878 857 861
f 878 858 857
f 878 885 858
f 878 877 885
f 861 865 879
f 858 885 864
f 883 869 884
f 879 869 883
f 879 865 869
f 869 870 884
f 859 886 862
f 859 863 886
f 886 887 862
f 886 863 887
f 863 864 887
f 867 862 889
f 862 890 888
f 862 887 890
f 890 891 888
f 890 892 891
f 890 887 892
f 888 889 862
f 887 864 892
f 867 889 894
f 867 895 871
f 867 871 866
f 871 895 870
f 867 896 895
f 894 896 867
f 889 897 894
f 897 898 896
f 897 896 894
f 897 899 898
f 889 899 897
f 896 898 895
f 895 898 900
f 901 893 902
f 901 903 893
f 901 902 904
f 901 905 903
f 901 904 905
f 903 906 907
f 907 909 908
f 907 910 909
f 906 910 907
f 888 902 893
f 888 891 902
f 902 891 904
f 891 892 904
f 893 889 888
f 893 907 889
f 889 907 911
f 893 903 907
f 904 892 864
f 904 864 912
f 911 899 889
f 911 913 899
f 911 914 913
f 911 907 914
f 898 899 915
f 916 915 899
f 914 908 913
f 907 908 914
f 899 913 916
f 913 908 917
f 913 918 916
f 913 917 918
f 885 877 864
f 877 876 864
f 870 895 900
f 870 900 884
f 884 900 919
f 898 915 920
f 898 920 900
f 864 876 922
f 921 915 916
f 920 915 921
f 920 921 900
f 900 923 919
f 900 921 923
f 827 884 852
f 834 817 876
f 876 817 922
f 817 924 922
f 852 919 851
f 817 853 924
f 853 925 924
f 855 926 854
f 854 926 927
f 884 919 852
f 851 919 855
f 924 925 929
f 924 929 930
f 855 931 926
f 926 932 927
f 922 924 933
f 924 934 933
f 924 930 935
f 924 935 934
f 935 939 938
f 935 936 939
f 934 935 938
f 934 940 933
f 940 938 939
f 934 938 940
f 936 937 939
f 937 926 941
f 926 931 941
f 942 941 931
f 942 937 941
f 905 904 912
f 903 943 906
f 944 903 905
f 944 943 903
f 944 905 912
f 944 945 943
f 906 943 946
f 906 946 910
f 946 945 910
f 943 945 946
f 944 948 947
f 912 948 944
f 910 945 949
f 912 864 950
f 908 909 917
f 909 910 917
f 917 910 951
f 947 945 944
f 912 950 948
f 947 949 945
f 948 950 947
f 947 953 952
f 950 953 947
f 947 952 949
f 910 949 951
f 954 951 949
f 917 951 956
f 956 951 957
f 916 918 921
f 864 922 950
f 950 922 955
f 918 917 956
f 918 956 959
f 918 959 921
f 921 959 958
f 953 960 952
f 950 960 953
f 949 952 954
f 950 961 960
f 960 954 952
f 950 955 961
f 960 961 962
f 954 960 962
f 951 954 957
f 956 957 964
f 961 966 965
f 955 966 961
f 961 965 962
f 965 954 962
f 955 963 966
f 966 967 965
f 966 963 967
f 967 968 965
f 967 963 968
f 965 969 954
f 957 954 969
f 922 970 955
f 921 958 923
f 922 972 970
f 919 923 973
f 923 971 973
f 923 958 971
f 919 973 928
f 955 970 963
f 964 957 974
f 968 969 965
f 957 969 974
f 964 974 975
f 964 959 956
f 958 976 971
f 958 959 976
f 959 964 975
f 959 975 976
f 970 972 977
f 970 977 978
f 919 928 855
f 928 973 980
f 928 980 855
f 933 981 922
f 940 939 982
f 933 940 982
f 939 983 982
f 981 982 983
f 933 982 981
f 939 937 942
f 939 942 983
f 981 983 984
f 922 981 984
f 922 985 972
f 985 984 986
f 922 984 985
f 984 983 986
f 983 942 987
f 983 987 986
f 986 987 988
f 931 855 942
f 987 942 855
f 987 855 989
f 855 980 990
f 988 989 990
f 988 987 989
f 855 990 989
f 977 972 991
f 972 992 991
f 992 994 993
f 991 992 993
f 977 991 996
f 996 993 995
f 991 993 996
f 994 995 993
f 995 999 998
f 997 995 998
f 973 971 980
f 980 971 1001
f 971 1002 1001
f 971 976 1002
f 979 1002 975
f 976 975 1002
f 999 1000 998
f 999 1001 1000
f 999 980 1001
f 1001 1002 979
f 1001 979 1000
f 985 986 1003
f 972 985 1003
f 992 1003 994
f 972 1003 992
f 1003 986 994
f 986 995 994
f 986 999 995
f 986 988 999
f 988 990 999
f 980 999 990
f 963 970 968
f 970 1004 968
f 968 1004 969
f 970 1005 1004
f 969 1004 1006
f 969 1006 974
f 970 1007 1005
f 1005 1006 1004
f 970 978 1007
f 975 1008 979
f 975 974 1008
f 1006 1008 974
f 1006 1009 1008
f 1007 1006 1005
f 1007 1010 1006
f 1007 1011 1010
f 978 1011 1007
f 978 977 1012
f 977 996 1012
f 996 995 1013
f 1012 996 1013
f 995 997 1013
f 998 1000 1014
f 979 1008 1014
f 978 1012 1011
f 1012 1015 1011
f 1006 1010 1009
f 1015 997 1016
f 1011 1015 1016
f 1010 1016 997
f 1009 1010 997
f 1015 1013 997
f 1012 1013 1015
f 997 1008 1009
f 997 998 1008
f 998 1014 1008
f 1000 979 1014
f 1011 1016 1010
f 312 1017 1018
f 304 1019 303
f 304 313 1019
f 303 1020 309
f 309 1020 305
f 305 1020 1025
f 305 1022 307
f 305 1025 1022
f 1018 1023 312
f 1018 1024 1023
f 307 1022 314
f 303 1026 1020
f 1019 313 1027
f 313 306 1027
f 1024 1028 1023
f 1019 1026 303
f 308 312 1030
f 312 1023 1030
f 1023 1032 1031
f 1023 1033 1032
f 1023 1029 1033
f 1023 1034 1029
f 1020 1035 1025
f 1026 1036 1020
f 1020 1037 1035
f 1020 1036 1037
f 1025 1038 1022
f 1025 1035 1038
f 1035 1039 1038
f 1037 1039 1035
f 1037 1040 1039
f 1037 1036 1040
f 1030 1023 1031
f 1033 1041 1032
f 1030 1031 1042
f 1030 1042 1043
f 1031 1032 1045
f 1045 1041 1046
f 1045 1032 1041
f 1031 1045 1044
f 1042 1047 1043
f 1031 1044 1047
f 1031 1047 1042
f 1044 1045 1048
f 1045 1046 1048
f 1044 1048 1047
f 1029 1049 1033
f 1033 1050 1041
f 1033 1049 1050
f 1049 1051 1050
f 1046 1041 1050
f 1051 1052 1050
f 1046 1050 1048
f 1019 1054 1053
f 1027 1054 1019
f 1027 306 1054
f 1054 1055 1053
f 306 310 1054
f 1043 1058 1057
f 1030 1043 1057
f 1030 1059 308
f 1059 1057 1060
f 1030 1057 1059
f 308 1061 1054
f 310 308 1054
f 308 1059 1061
f 1055 1054 1061
f 1059 1060 1061
f 1043 1047 1058
f 1047 1048 1058
f 1060 1057 1058
f 1060 1058 1048
f 1038 1039 1062
f 1040 1062 1039
f 1050 1063 1048
f 1052 1063 1050
f 1019 1053 1056
f 1019 1056 1064
f 1048 1063 1060
f 1060 1063 1061
f 1056 1053 1065
f 1053 1055 1065
f 1055 1061 1066
f 1022 1038 1067
f 1038 1062 1067
f 1064 1056 1065
f 1019 1064 1068
f 1026 1019 1068
f 1066 1061 1069
f 1063 1069 1061
f 1065 1055 1066
f 314 1070 333
f 314 1022 1070
f 1070 1071 333
f 333 1072 330
f 333 1071 1072
f 368 372 371
f 367 1073 372
f 348 1074 346
f 346 1074 364
f 371 1075 369
f 1073 1076 372
f 372 1076 371
f 363 1073 367
f 1076 1077 371
f 371 1077 1075
f 363 1080 1073
f 1073 1080 1076
f 330 1072 370
f 369 1079 1078
f 369 1075 1079
f 1074 1081 364
f 348 1082 1074
f 348 370 1082
f 1022 1071 1070
f 1040 1083 1062
f 1040 1036 1083
f 1083 1036 1084
f 1036 1026 1084
f 1085 1069 1063
f 1085 1086 1069
f 1064 1065 1066
f 1064 1066 1087
f 1022 1067 1071
f 1067 1062 1088
f 1083 1088 1062
f 1083 1089 1088
f 1083 1084 1089
f 1085 1090 1086
f 1026 1068 1081
f 1087 1066 1091
f 1066 1069 1092
f 1066 1092 1091
f 1071 1067 1093
f 1067 1088 1093
f 1068 1064 1094
f 1064 1087 1094
f 1069 1086 1096
f 1069 1096 1092
f 1089 1084 1074
f 1089 1097 1088
f 1089 1074 1097
f 1071 1093 1072
f 1093 1088 1098
f 1097 1098 1088
f 1093 1098 1072
f 1099 1101 1100
f 1096 1099 1100
f 1084 1026 1074
f 1074 1026 1081
f 1087 1095 1094
f 1068 1094 1102
f 1081 1068 1102
f 1087 1091 1095
f 1091 1092 1095
f 1086 1099 1096
f 363 1102 1080
f 364 1102 363
f 364 1081 1102
f 1103 1104 1079
f 1082 370 1098
f 1072 1098 370
f 1097 1082 1098
f 1097 1074 1082
f 1104 1103 1105
f 1079 1075 1103
f 1105 1103 1101
f 1101 1106 1100
f 1101 1103 1106
f 1094 1095 1102
f 1080 1102 1076
f 1095 1107 1102
f 1076 1102 1107
f 1076 1107 1077
f 1100 1106 1096
f 1103 1075 1106
f 1075 1096 1106
f 1096 1075 1092
f 1095 1092 1107
f 1077 1092 1075
f 1077 1107 1092
f 469 465 1108
f 465 519 1108
f 485 1109 486
f 267 489 487
f 300 787 1110
f 1109 1112 486
f 791 792 1113
f 791 1114 793
f 791 1113 1114
f 793 1114 1115
f 787 793 1115
f 1113 1116 1114
f 469 1117 485
f 1113 1118 1117
f 1113 792 1118
f 1117 1118 485
f 1113 1119 1116
f 1113 1117 1119
f 469 1119 1117
f 469 1108 1119
f 1116 1120 1114
f 1116 1119 1120
f 1119 1121 1120
f 1108 1121 1119
f 792 794 1122
f 792 1122 1118
f 485 1118 1109
f 1109 1123 1112
f 1118 1122 1109
f 1109 1122 1123
f 486 1112 470
f 470 1112 1124
f 487 1127 1126
f 487 489 1128
f 487 1128 1129
f 489 1130 1128
f 1130 1132 1131
f 1130 1133 1132
f 489 1133 1130
f 1131 1132 1134
f 1129 1136 1135
f 1129 1130 1136
f 1130 1131 1136
f 1128 1130 1129
f 1131 1134 1136
f 1134 1132 1137
f 1135 1139 1138
f 1135 1136 1139
f 1134 1139 1136
f 487 1129 1127
f 1129 1141 1140
f 1129 1135 1141
f 1127 1129 1140
f 1112 1143 1125
f 1134 1137 1143
f 1138 1139 1142
f 1134 1143 1139
f 1112 1139 1143
f 1112 1142 1139
f 1112 1123 1142
f 1138 1142 1144
f 1123 1144 1142
f 470 1124 490
f 493 497 1145
f 488 493 1145
f 1145 497 1146
f 497 1147 1146
f 497 498 1147
f 498 496 1148
f 490 1148 496
f 498 1148 1147
f 1124 1112 1125
f 1133 1149 1132
f 1132 1149 1137
f 1137 1150 1143
f 1149 1150 1137
f 489 488 1133
f 490 1124 1148
f 1133 1145 1149
f 488 1145 1133
f 1150 1151 1143
f 1125 1143 1151
f 1125 1151 1124
f 1149 1145 1148
f 1146 1148 1145
f 1146 1147 1148
f 1149 1148 1150
f 1150 1148 1151
f 1124 1151 1148
f 487 1152 788
f 487 1126 1152
f 1122 1153 1123
f 1122 794 1154
f 788 1152 1155
f 1122 1154 1153
f 1152 1126 1156
f 1126 1157 1156
f 1157 1159 1158
f 1156 1157 1158
f 1159 1161 1160
f 1123 1162 1163
f 1123 1153 1162
f 1160 1163 1164
f 1163 1162 1164
f 1127 1165 1126
f 1165 1140 1141
f 1127 1140 1165
f 1165 1141 1166
f 1126 1165 1166
f 1135 1138 1141
f 1138 1161 1141
f 1157 1166 1159
f 1126 1166 1157
f 1166 1141 1159
f 1141 1161 1159
f 1161 1144 1123
f 1161 1138 1144
f 1123 1163 1161
f 1160 1161 1163
f 1156 1167 1152
f 1167 1158 1168
f 1156 1158 1167
f 1168 1158 1159
f 1167 1168 1169
f 1152 1167 1169
f 1168 1159 1170
f 1159 1160 1171
f 1155 1152 1172
f 1152 1173 1172
f 1173 1170 1174
f 1172 1173 1174
f 1173 1169 1170
f 1152 1169 1173
f 1168 1170 1169
f 1170 1159 1171
f 1153 1175 1162
f 1171 1164 1162
f 1171 1160 1164
f 1171 1162 1176
f 1162 1175 1176
f 1177 1175 1178
f 1175 1153 1178
f 1177 1176 1175
f 1177 1171 1176
f 788 1179 853
f 794 854 1154
f 788 1180 1179
f 788 1181 1180
f 1154 1182 1153
f 1154 1183 1182
f 854 856 1154
f 1181 1185 1184
f 1180 1181 1184
f 1180 1186 1179
f 1186 1184 1187
f 1180 1184 1186
f 1187 1184 1188
f 1189 1190 1185
f 1188 1185 1191
f 1188 1184 1185
f 1179 1192 853
f 1179 1193 1192
f 1186 1187 1194
f 1179 1186 1194
f 1187 1188 1194
f 1193 1194 1188
f 1179 1194 1193
f 1188 1191 1195
f 1190 1182 1196
f 1182 1183 1196
f 1191 1185 1190
f 1191 1196 1183
f 1191 1190 1196
f 1191 1183 1197
f 1183 1154 1197
f 1195 1197 1154
f 1195 1191 1197
f 1155 1172 1198
f 1198 1174 1199
f 1172 1174 1198
f 1199 1174 1170
f 1155 1198 788
f 1199 1170 1177
f 1170 1171 1177
f 1199 1177 1189
f 1198 1185 1200
f 1198 1199 1185
f 788 1198 1200
f 1181 1200 1185
f 788 1200 1181
f 1199 1189 1185
f 1189 1178 1153
f 1189 1177 1178
f 1189 1153 1201
f 1153 1182 1201
f 1190 1201 1182
f 1190 1189 1201
f 853 1202 925
f 856 854 1203
f 1193 1188 1204
f 1192 1193 1204
f 853 1192 1205
f 1205 1204 1206
f 1192 1204 1205
f 1204 1188 1206
f 1188 1195 1206
f 853 1205 1202
f 1205 1207 1208
f 1205 1206 1207
f 1202 1205 1208
f 1206 1195 1209
f 1207 1206 1209
f 1195 1154 1210
f 1154 856 1210
f 1209 1210 856
f 1209 1195 1210
f 1209 856 1211
f 856 1203 1211
f 1202 1212 925
f 1202 1213 1212
f 1213 1207 1214
f 1212 1213 1214
f 1207 1209 1215
f 1212 1216 925
f 1216 1214 1217
f 1212 1214 1216
f 1214 1207 1217
f 1216 1217 1219
f 925 1216 1219
f 1217 1218 1219
f 1218 1217 1215
f 1207 1215 1217
f 1215 1220 1218
f 854 1215 1203
f 854 1221 1215
f 1220 1215 1221
f 1220 1221 1222
f 854 1222 1221
f 854 927 1222
f 1213 1208 1207
f 1202 1208 1213
f 1215 1211 1203
f 1215 1209 1211
f 925 1223 929
f 1223 1218 1224
f 929 1223 1224
f 1218 1225 1224
f 1220 1226 1218
f 1223 1219 1218
f 925 1219 1223
f 929 1227 930
f 1227 1224 1225
f 929 1224 1227
f 1227 1225 1228
f 930 1227 1228
f 1225 936 1228
f 936 1225 1218
f 936 1218 1226
f 936 1226 1229
f 1226 927 1230
f 927 932 1230
f 1226 1222 927
f 1226 1220 1222
f 1229 1230 932
f 1229 1226 1230
f 1229 932 1231
f 932 926 1231
f 935 1228 936
f 930 1228 935
f 936 1229 937
f 937 1231 926
f 937 1229 1231
f 1232 1233 300
f 300 1233 554
f 1108 519 1234
f 519 553 1235
f 519 1235 1234
f 300 1110 1232
f 1232 1236 1233
f 1108 1237 1111
f 1111 1237 1238
f 1108 1234 1237
f 1237 1234 1239
f 1115 1241 1110
f 1115 1114 1241
f 787 1115 1110
f 1114 1120 1241
f 1110 1241 1242
f 1232 1110 1242
f 1241 1243 1242
f 1242 1243 1236
f 1232 1242 1236
f 1121 1111 1120
f 1108 1111 1121
f 1241 1120 1243
f 1120 1111 1238
f 1120 1244 1243
f 1120 1238 1244
f 1236 1243 1245
f 1233 1236 1245
f 1245 1243 1246
f 1233 1245 1246
f 1243 1244 1247
f 1238 1237 1244
f 1244 1239 1247
f 1244 1237 1239
f 1243 1247 1246
f 1246 1248 1240
f 1246 1247 1248
f 1233 1246 1240
f 1247 1239 1249
f 1247 1250 1248
f 1247 1249 1250
f 1233 1240 554
f 1240 1248 1251
f 554 1240 1251
f 1239 1234 1249
f 554 1254 1252
f 1253 1255 1256
f 554 1252 555
f 1252 1257 555
f 1235 1255 1253
f 553 1258 1255
f 1235 553 1255
f 1255 1258 1259
f 1248 1250 1251
f 1249 1260 1250
f 1249 1234 1260
f 1235 1260 1234
f 1250 1260 1261
f 1251 1262 1254
f 1251 1250 1262
f 554 1251 1254
f 1260 1253 1261
f 1235 1253 1260
f 1250 1263 1262
f 1250 1261 1263
f 1261 1264 1263
f 1261 1253 1264
f 1256 1264 1253
f 1254 1262 1265
f 1252 1254 1265
f 1262 1263 1265
f 1265 1266 1257
f 1265 1263 1266
f 1252 1265 1257
f 1263 1264 1267
f 1263 1267 1266
f 1257 1268 555
f 1257 1266 1268
f 1264 1255 1267
f 1256 1255 1264
f 1267 1269 1266
f 1266 1270 1268
f 1266 1269 1270
f 1267 1271 1269
f 1267 1255 1271
f 1259 1271 1255
f 1271 1272 1269
f 1259 1272 1271
f 1259 1258 1272
f 312 311 1017
f 311 601 1017
f 546 555 557
f 555 1273 557
f 557 1273 572
f 561 573 1258
f 553 561 1258
f 563 575 574
f 584 1274 589
f 576 1274 584
f 585 588 586
f 575 586 1275
f 588 1275 586
f 1274 1276 589
f 1274 1277 1276
f 576 1277 1274
f 589 1278 588
f 589 1276 1278
f 575 1275 1279
f 588 1279 1275
f 588 1278 1279
f 572 1280 559
f 559 1280 576
f 1277 1281 1276
f 1277 1282 1281
f 1277 576 1282
f 1276 1281 1283
f 1276 1283 1278
f 1279 1284 575
f 1278 1284 1279
f 1278 1283 1284
f 1281 1285 1283
f 1282 1285 1281
f 1282 576 1287
f 1282 1288 1285
f 1282 1287 1288
f 1285 1289 1283
f 1284 1286 575
f 1283 1289 1284
f 1284 1290 1286
f 1289 1290 1284
f 1286 1291 575
f 1268 1270 1273
f 555 1268 1273
f 1273 1293 1292
f 1273 1270 1293
f 1273 1292 572
f 1270 1269 1294
f 1270 1294 1293
f 572 1292 1280
f 1269 1272 1294
f 1272 1258 1294
f 1294 1258 573
f 576 1280 1287
f 575 1291 574
f 1292 1293 1295
f 1280 1292 1295
f 1294 573 1296
f 574 1296 573
f 1295 1293 1297
f 1297 1293 1298
f 1293 1294 1298
f 1294 1296 1298
f 601 1021 1017
f 1017 1021 1018
f 311 505 601
f 499 1299 601
f 1288 1300 1285
f 1288 1301 1300
f 1288 1287 1301
f 1285 1302 1289
f 1285 1300 1302
f 1290 1303 1286
f 1289 1303 1290
f 1289 1302 1303
f 500 607 596
f 608 1287 590
f 608 1301 1287
f 608 1305 1301
f 608 609 1305
f 609 610 1305
f 611 1286 1307
f 611 606 1286
f 610 1307 1306
f 610 611 1307
f 606 612 1286
f 610 1306 1305
f 1301 1305 1300
f 1305 1302 1300
f 1305 1306 1302
f 1307 1286 1303
f 1306 1303 1302
f 1306 1307 1303
f 590 1287 569
f 499 597 1299
f 1287 1304 569
f 1280 1304 1287
f 1280 1295 1304
f 574 1291 1296
f 569 1304 618
f 613 617 612
f 612 617 716
f 612 716 1286
f 1286 716 1291
f 1295 1297 1308
f 1304 1295 1308
f 1291 716 1296
f 1297 1298 1309
f 1304 1308 618
f 1298 1296 1309
f 1309 1296 1310
f 716 1310 1296
f 601 1299 1021
f 607 1311 596
f 1311 607 1312
f 1018 1021 1024
f 1021 1313 1024
f 1021 1299 1313
f 1311 1312 1314
f 1313 1299 1317
f 597 1318 1299
f 597 504 1318
f 1311 1314 596
f 1314 1319 596
f 596 1319 504
f 1024 1315 1320
f 1023 1028 1034
f 1024 1320 1028
f 1320 1321 1028
f 1029 1034 1322
f 1029 1322 1323
f 1028 1321 1324
f 1028 1324 1325
f 1034 1028 1325
f 1034 1325 1322
f 1322 1328 1327
f 1322 1327 1323
f 1322 1325 1328
f 1325 1326 1328
f 1324 1326 1325
f 1029 1323 1329
f 1029 1051 1049
f 1029 1329 1051
f 1329 1052 1051
f 1329 1327 1328
f 1323 1327 1329
f 1329 1328 1052
f 1328 1326 1052
f 1024 1313 1315
f 1313 1330 1315
f 1313 1316 1330
f 1316 1313 1331
f 1315 1330 1332
f 1315 1332 1333
f 1330 1316 1334
f 1334 1335 1330
f 1316 1336 1335
f 1316 1335 1334
f 1330 1339 1338
f 1330 1338 1332
f 1333 1338 1339
f 1332 1338 1333
f 1330 1335 1339
f 1335 1337 1339
f 1317 1340 1313
f 1317 1299 1340
f 1299 1341 1340
f 1313 1340 1342
f 1313 1342 1331
f 1331 1342 1316
f 1340 1343 1342
f 1340 1341 1343
f 1341 1318 1344
f 1316 1342 1336
f 1342 1343 1336
f 1336 1337 1335
f 1336 1343 1337
f 1343 1339 1337
f 1341 1299 1318
f 504 1344 1318
f 1320 1346 1321
f 1320 1345 1346
f 1321 1346 1347
f 1347 1346 1348
f 1345 1348 1346
f 1320 1315 1350
f 1315 1351 1350
f 1315 1333 1351
f 1345 1350 1348
f 1320 1350 1345
f 1348 1351 1349
f 1348 1350 1351
f 1333 1349 1351
f 1333 1339 1349
f 1321 1347 1324
f 1324 1347 1326
f 1348 1349 1347
f 1347 1063 1326
f 1349 1352 1347
f 1349 1339 1352
f 1341 1344 1343
f 1343 1352 1339
f 1343 1344 1352
f 1344 1353 1352
f 1347 1352 1063
f 1326 1063 1052
f 614 716 617
f 718 1354 683
f 697 683 1354
f 616 615 1310
f 615 704 1310
f 616 1310 716
f 1310 704 1355
f 704 702 1355
f 718 684 1356
f 719 1356 684
f 1355 702 1357
f 705 1357 702
f 705 1358 1357
f 721 720 1360
f 1359 1360 720
f 713 714 721
f 705 713 1358
f 1308 1297 1362
f 1297 1309 1362
f 607 715 1361
f 713 721 1358
f 718 1366 1365
f 718 1367 1366
f 718 1365 1354
f 718 1356 1367
f 715 1368 1361
f 715 717 1368
f 1368 1370 1369
f 1368 1371 1370
f 717 1371 1368
f 717 696 1371
f 1361 1368 1364
f 1368 1372 1364
f 1368 1369 1372
f 1369 1370 1373
f 1369 1373 1374
f 1369 1374 1372
f 1365 1375 1371
f 697 1371 696
f 697 1365 1371
f 697 1354 1365
f 1371 1376 1370
f 1371 1375 1376
f 1365 1366 1375
f 1375 1377 1376
f 1370 1378 1373
f 1370 1376 1378
f 1373 1378 1379
f 1376 1377 1378
f 1378 1380 1379
f 1364 1372 1381
f 618 1308 719
f 1308 1362 1367
f 719 1367 1356
f 719 1308 1367
f 1367 1362 1366
f 1362 1309 1382
f 1382 1309 1383
f 1309 1310 1355
f 1309 1357 1383
f 1309 1355 1357
f 1358 1383 1357
f 1366 1384 1375
f 1366 1362 1384
f 1375 1384 1377
f 1362 1382 1384
f 1377 1385 1378
f 1378 1359 1380
f 1378 1385 1359
f 1360 1359 1385
f 1363 1380 1359
f 1377 1360 1385
f 1377 1384 1360
f 721 1360 1384
f 1382 1383 1384
f 1384 1383 721
f 1358 721 1383
f 728 733 1386
f 720 730 1359
f 728 1386 730
f 1359 730 1388
f 733 722 1387
f 1388 730 1389
f 1386 1389 730
f 1388 1363 1359
f 1374 1373 1390
f 1374 1391 1372
f 1374 1390 1391
f 1390 1389 1386
f 1388 1389 1390
f 1390 1386 1391
f 1386 733 1391
f 1373 1388 1390
f 1373 1379 1388
f 1379 1380 1363
f 1388 1379 1363
f 1372 1387 1381
f 1372 1391 1387
f 1391 733 1387
f 607 1361 1312
f 1361 1364 1312
f 1381 1387 1392
f 1392 1387 670
f 722 665 1387
f 665 670 1387
f 671 734 1393
f 671 1394 667
f 1394 671 1393
f 1394 1393 1395
f 670 669 1396
f 669 667 1396
f 1396 667 1397
f 1397 667 1394
f 734 1395 1393
f 1312 1364 1314
f 1364 1381 1392
f 1314 1364 1319
f 1364 1392 1319
f 1319 1396 504
f 1392 670 1319
f 1395 734 1398
f 1394 1395 1397
f 734 1078 1398
f 1319 670 1396
f 1395 1400 1397
f 1399 1400 1395
f 1398 1401 1395
f 734 369 1078
f 1344 1402 1353
f 1402 1403 1353
f 1352 1353 1404
f 504 1396 1344
f 1396 1402 1344
f 1085 1352 1404
f 1352 1085 1063
f 1353 1403 1404
f 1404 1403 1090
f 1090 1085 1404
f 1403 1405 1090
f 1405 1099 1090
f 1397 1400 1396
f 1396 1400 1402
f 1402 1400 1406
f 1401 1399 1395
f 1400 1399 1406
f 1402 1406 1403
f 1403 1406 1407
f 1399 1407 1406
f 1399 1401 1407
f 1403 1409 1405
f 1403 1407 1409
f 1409 1410 1405
f 1409 1401 1410
f 1398 1410 1401
f 1407 1401 1409
f 1405 1410 1408
f 1405 1408 1099
f 1408 1398 1411
f 1398 1408 1410
f 1099 1086 1090
f 1104 1411 1398
f 1099 1408 1101
f 1408 1411 1101
f 1078 1079 1398
f 1079 1104 1398
f 1411 1105 1101
f 1411 1104 1105

