# https://github.com/mikedh/trimesh
v -0.01122901 -0.41234852 -0.24695228
v -0.01193273 -0.40780576 -0.24715454
v -0.01191329 -0.40954038 -0.24543677
v -0.00985135 -0.41470719 -0.24616206
v -0.00954076 -0.41270690 -0.24713701
v -0.00811230 -0.41676815 -0.24691198
v -0.00827736 -0.41722448 -0.24449984
v -0.00647876 -0.42007155 -0.24604808
v -0.00514512 -0.41831145 -0.24692289
v -0.00412679 -0.42188151 -0.24677258
v -0.00308889 -0.42500374 -0.24466300
v -0.00229385 -0.42470507 -0.24666614
v 0.00092989 -0.42502805 -0.24665383
v 0.00376344 -0.42283997 -0.24674119
v -0.00458080 -0.42314022 -0.24206024
v -0.00309963 -0.42541183 -0.24051989
v -0.00075891 -0.42656081 -0.24205314
v 0.00006038 -0.42591003 -0.24513206
v 0.00196179 -0.42658488 -0.24206361
v 0.00339903 -0.42588490 -0.24513239
v -0.01215870 -0.40587462 -0.24526824
v -0.01197099 -0.38742834 -0.24784953
v -0.01033635 -0.39683299 -0.24785768
v 0.01099722 -0.40149548 -0.24762164
v 0.01094254 -0.38284910 -0.24864710
v -0.01024458 -0.37580615 -0.24904539
v -0.01197345 -0.36453331 -0.24871361
v -0.01215876 -0.32248168 -0.20867715
v -0.01023565 -0.35920339 -0.24998077
v -0.01018579 -0.34051931 -0.25103735
v -0.01215857 -0.33325435 -0.24687438
v -0.01196731 -0.33874994 -0.24973759
v 0.01091618 -0.36160538 -0.24984727
v -0.01215798 -0.33419675 -0.24967038
v -0.01110224 -0.33708453 -0.25122967
v -0.01037610 -0.32352515 -0.25199629
v 0.01085932 -0.34047579 -0.25104048
v 0.00979594 -0.33708456 -0.25123174
v -0.01195845 -0.33260837 -0.25144758
v -0.01197227 -0.31292967 -0.25221883
v 0.01101682 -0.31754244 -0.25233365
v -0.01215873 -0.31476581 -0.21031282
v -0.01027377 -0.30351344 -0.25312509
v -0.01197345 -0.29431838 -0.25291744
v -0.01023803 -0.28207155 -0.25433674
v 0.01092551 -0.29605940 -0.25354721
v -0.01215873 -0.32248711 -0.12098825
v -0.01195228 -0.31796564 -0.20539043
v -0.00935843 -0.31723819 -0.20406948
v -0.01023048 -0.31975167 -0.19998682
v -0.01197527 -0.32036053 -0.19998949
v -0.00536411 -0.31723654 -0.20406948
v -0.00692504 -0.31974937 -0.19998732
v -0.00264851 -0.31598018 -0.20304791
v -0.00278400 -0.31723654 -0.19998724
v -0.01197527 -0.31268892 -0.20767092
v -0.01023070 -0.31316428 -0.20659201
v -0.01197527 -0.30752785 -0.20815081
v -0.01023112 -0.30753341 -0.20755142
v -0.00692514 -0.31316345 -0.20658929
v -0.00692488 -0.30752889 -0.20754924
v -0.00278400 -0.31316345 -0.20406948
v -0.00278400 -0.30752834 -0.20502959
v -0.00071344 -0.31316345 -0.20046664
v -0.00020390 -0.30752834 -0.20094603
v -0.00020390 -0.31316345 -0.19530418
v 0.00081518 -0.30752835 -0.19530418
v -0.01023157 -0.31975137 -0.12505316
v -0.00278411 -0.31723830 -0.12505037
v -0.00692435 -0.31975160 -0.12505636
v -0.00020399 -0.31316483 -0.12505557
v 0.00081518 -0.30752855 -0.12505771
v -0.01191303 -0.40954144 0.25877260
v -0.01215873 -0.40587345 0.25880559
v -0.01215868 -0.31687897 -0.11034760
v -0.00984273 -0.41472113 0.25732157
v 0.00195081 -0.42658507 0.25811215
v -0.01197479 -0.32036180 -0.12505703
v -0.01022932 -0.31880053 -0.11964258
v -0.01197387 -0.31940861 -0.11964093
v -0.01022795 -0.31628665 -0.11578616
v -0.01202008 -0.31666726 -0.11486675
v -0.00692514 -0.31879921 -0.11964093
v -0.00692514 -0.31628500 -0.11578616
v -0.00329354 -0.31676201 -0.11964093
v -0.00458360 -0.31715333 -0.11693460
v -0.00122298 -0.31316592 -0.11964258
v -0.00329354 -0.31424928 -0.11578616
v -0.00020390 -0.30752831 -0.11964258
v -0.00278400 -0.30908944 -0.11578780
v -0.01197474 -0.31065121 -0.11266426
v -0.01023068 -0.31221251 -0.11349262
v -0.00692537 -0.31221066 -0.11349409
v -0.01215873 -0.14961529 -0.11026706
v -0.01197412 -0.27792251 -0.25353341
v 0.01091561 -0.27730617 -0.25460616
v -0.01215848 -0.24900964 -0.25157008
v -0.01196699 -0.25445670 -0.25447213
v -0.01016634 -0.25638196 -0.25578734
v -0.01215772 -0.24990128 -0.25439634
v -0.01110812 -0.25274424 -0.25599241
v -0.01193301 -0.24852075 -0.25619215
v -0.01197195 -0.23088466 -0.25686761
v -0.01029997 -0.23761510 -0.25684591
v 0.00979598 -0.25279291 -0.25599018
v 0.01184906 -0.24977315 -0.25615992
v 0.01100389 -0.23322998 -0.25709361
v -0.01025792 -0.22127570 -0.25776881
v -0.01197518 -0.10470397 -0.20815066
v -0.01023174 -0.11406280 -0.20755151
v -0.00692489 -0.06461042 -0.20754828
v -0.01197328 -0.20990405 -0.25765588
v -0.01023855 -0.20463439 -0.25870710
v 0.01092456 -0.21175011 -0.25830668
v 0.01091539 -0.19301640 -0.25936442
v -0.01197382 -0.19127134 -0.25835649
v -0.01215857 -0.16472761 -0.25630959
v -0.01023880 -0.18626256 -0.25974557
v -0.01196961 -0.17012595 -0.25919035
v -0.01023001 -0.17170184 -0.26056721
v -0.01215751 -0.16560996 -0.25911381
v -0.01110941 -0.16844093 -0.26075081
v 0.01086092 -0.17186973 -0.26055858
v 0.00979599 -0.16850202 -0.26074854
v -0.01193386 -0.16423418 -0.26093158
v -0.01197245 -0.14892267 -0.26151370
v -0.01029100 -0.15322656 -0.26161005
v -0.01026364 -0.13487811 -0.26264587
v 0.01097707 -0.15099941 -0.26173582
v -0.00020378 0.12331570 -0.20094541
v 0.00081518 0.12331543 -0.19530418
v -0.01197366 -0.13026231 -0.26221379
v 0.01092753 -0.13215709 -0.26279974
v -0.01197367 -0.11399950 -0.26282525
v -0.01215843 -0.08517187 -0.26091702
v -0.01023449 -0.11569427 -0.26372940
v 0.01091656 -0.11340183 -0.26385868
v -0.01195748 -0.08439704 -0.26547151
v -0.01214651 -0.08595009 -0.26378873
v -0.01110158 -0.08887904 -0.26524269
v -0.01038589 -0.07503250 -0.26602404
v -0.01197237 -0.06470818 -0.26624348
v 0.00979607 -0.08887900 -0.26524341
v 0.01102195 -0.06935156 -0.26634465
v -0.01196656 -0.09054762 -0.26376309
v -0.01016457 -0.09248046 -0.26503993
v -0.00278341 0.12331596 -0.20502577
v -0.01027414 -0.05541291 -0.26713158
v -0.01197364 -0.04840671 -0.26685521
v -0.01215847 0.00423990 -0.26574463
v -0.01197202 -0.02984439 -0.26755507
v -0.01024024 -0.03391421 -0.26834565
v 0.01092642 -0.04788364 -0.26755727
v 0.01092038 -0.02689986 -0.26874187
v -0.01019246 -0.01281940 -0.26953606
v -0.01197227 -0.00903719 -0.26834940
v -0.01022978 -0.00552522 -0.26978779
v -0.01022450 0.00876767 -0.26978751
v 0.01090035 -0.00992328 -0.26966835
v 0.01090710 -0.00314363 -0.26980815
v 0.01090367 0.00622503 -0.26980796
v -0.01023072 0.12330979 -0.20754894
v -0.01197515 0.12487505 -0.11266378
v -0.01023087 0.12331619 -0.11349229
v -0.01215873 0.13203435 -0.11027963
v -0.00076137 -0.42656074 0.25878896
v -0.00458115 -0.42313969 0.25880968
v -0.01122882 -0.41235019 0.26028864
v -0.00309880 -0.42541313 0.26029316
v -0.00826294 -0.41724623 0.26029912
v -0.00642244 -0.42019361 0.25732175
v -0.01136455 -0.41188878 0.26204001
v -0.00985483 -0.40989168 0.26320730
v -0.00929934 -0.41379629 0.26161233
v -0.00792936 -0.41674508 0.26214207
v -0.00603243 -0.41468135 0.26320730
v -0.00540598 -0.41897292 0.26161398
v -0.00667258 -0.41039689 0.26321026
v -0.00288436 -0.42520968 0.26214618
v -0.00345042 -0.42340941 0.26179193
v -0.00113804 -0.42343825 0.26321059
v -0.00089070 -0.42589067 0.26176063
v -0.00181081 -0.41965293 0.26321142
v 0.00161226 -0.42347763 0.26259518
v 0.00149794 -0.42578555 0.26101999
v 0.00191891 -0.41975928 0.26286128
v -0.00220238 -0.41521478 0.26321043
v 0.00218031 -0.41515786 0.26309443
v 0.00243859 -0.40968157 0.26321185
v -0.01197500 -0.40583819 0.26179126
v -0.01023035 -0.40582823 0.26320883
v -0.01022882 -0.18075962 0.26321231
v -0.01215873 -0.13683550 0.25880839
v 0.00244775 0.03367151 0.26321274
v -0.01197466 0.00221420 0.26179244
v -0.01215873 0.07904829 0.25880399
v -0.01022870 0.07081064 0.26321061
v -0.01197369 0.01352380 -0.26830595
v -0.01019298 0.01592674 -0.26953647
v -0.01197321 0.02886794 -0.26773745
v -0.01024547 0.03948212 -0.26820708
v -0.01197433 0.04524946 -0.26711996
v 0.01091454 0.03453641 -0.26848656
v -0.01215872 0.09133848 -0.26092812
v -0.01197269 0.06169373 -0.26650240
v -0.01026055 0.06046989 -0.26702244
v -0.01215866 0.08576222 -0.26398309
v -0.01198025 0.08895172 -0.26540725
v -0.01036928 0.07784083 -0.26604100
v -0.01197526 0.12331416 -0.20815107
v -0.01019679 0.09222333 -0.26523005
v -0.01202107 0.09104378 -0.26420844
v 0.01087594 0.08908429 -0.26540715
v -0.01197452 0.09675715 -0.26361980
v -0.01215873 0.16527377 -0.25927617
v -0.01197338 0.11091582 -0.26308824
v -0.01024178 0.11660471 -0.26385053
v 0.01091051 0.10941578 -0.26425907
v 0.01091721 0.12349410 -0.26346476
v -0.01215877 0.12721376 -0.21026946
v -0.01197458 0.12954316 -0.26238671
v -0.01026330 0.13797024 -0.26264699
v -0.01197447 0.14355729 -0.26185933
v -0.01197438 0.15748205 -0.26133678
v -0.01039561 0.15867138 -0.26147133
v 0.01092891 0.13759972 -0.26266833
v -0.00692522 0.12331531 -0.20754673
v 0.00081518 0.12331544 -0.12505771
v -0.01215871 0.13774728 -0.20489214
v -0.01197527 0.12854933 -0.20719086
v -0.01023070 0.12854933 -0.20658995
v -0.01202107 0.13330044 -0.20444548
v -0.01023070 0.13222203 -0.20406948
v -0.00692514 0.12854933 -0.20658789
v -0.00692514 0.13221956 -0.20406808
v -0.00329354 0.12854768 -0.20454747
v -0.00458360 0.13116668 -0.20493773
v -0.00122298 0.12854768 -0.20094603
v -0.00329354 0.13222121 -0.20202766
v -0.00020390 0.12854768 -0.19530418
v -0.00278400 0.13221956 -0.19686520
v -0.01197527 0.13534324 -0.19842953
v -0.01023102 0.13433172 -0.19998778
v -0.00692489 0.13433056 -0.19998987
v -0.00278402 0.13221969 -0.12193276
v -0.00020390 0.12854768 -0.12505771
v -0.00692546 0.13433055 -0.12037244
v -0.01215874 0.13790580 -0.11371916
v -0.01197527 0.13534438 -0.11881380
v -0.01023087 0.13433248 -0.12037453
v -0.00278400 0.12175421 -0.11578780
v -0.00020390 0.12331543 -0.11964258
v -0.00692544 0.12331477 -0.11349405
v -0.00071344 0.12854933 -0.12000836
v -0.00278400 0.12671380 -0.11615442
v -0.00407406 0.13116421 -0.11730038
v -0.01206696 0.13401307 -0.11454380
v -0.01110298 0.13222203 -0.11651855
v -0.00848617 0.13222121 -0.11652020
v -0.01197527 0.13011051 -0.11339701
v -0.01023070 0.12854768 -0.11422415
v -0.00692514 0.12854933 -0.11422662
v -0.01030271 0.17155347 -0.26075175
v -0.01215862 0.17112804 -0.25640226
v -0.01194164 0.16874126 -0.26090267
v -0.01200415 0.17114732 -0.25947720
v 0.01092585 0.16860437 -0.26091805
v -0.01197385 0.19064248 -0.25852557
v -0.01024258 0.18932794 -0.25974484
v -0.01026632 0.21546176 -0.25827237
v -0.01197410 0.20921143 -0.25782721
v 0.01092515 0.20556663 -0.25883142
v -0.01197330 0.22558744 -0.25721160
v -0.01215874 0.24968032 -0.25466020
v 0.01096104 0.22445672 -0.25776458
v -0.01034748 0.23853699 -0.25696362
v -0.01197943 0.25292118 -0.25612233
v -0.01030885 0.25581863 -0.25599510
v -0.01202107 0.25495517 -0.25491283
v -0.01215867 0.25530119 -0.25165072
v -0.01196821 0.26124411 -0.25434707
v -0.01024307 0.27363647 -0.25498446
v -0.01197404 0.28647168 -0.25335840
v -0.01023391 0.29197507 -0.25395367
v 0.01091587 0.27110267 -0.25513196
v -0.01197279 0.30751655 -0.25256811
v -0.01215873 0.33396116 -0.24991086
v -0.01027057 0.30862094 -0.25301011
v -0.01215873 0.33956284 -0.24692049
v -0.01035081 0.32625413 -0.25201828
v -0.01197962 0.33717560 -0.25138762
v 0.01101858 0.31155455 -0.25284699
v -0.01019848 0.34042370 -0.25121713
v -0.01202107 0.33924853 -0.25018264
v -0.01197096 0.34514024 -0.24961737
v -0.01197336 0.36844690 -0.24871274
v -0.01024274 0.36738546 -0.24969599
v 0.01091619 0.35540084 -0.25037325
v -0.01215871 0.40898617 -0.24535518
v 0.01092693 0.37416616 -0.24931369
v -0.01197094 0.39260623 -0.24779497
v -0.01025489 0.38823175 -0.24851922
v 0.01115276 0.39858710 -0.24793119
v -0.01026777 0.40426913 -0.24763558
v -0.01190274 0.41262952 -0.24710713
v -0.01123083 0.41545665 -0.24702770
v -0.00943916 0.41764234 -0.24707031
v 0.00655569 0.40928739 -0.24741828
v -0.01191411 0.41265148 -0.21628229
v -0.00976556 0.41795956 -0.24520803
v -0.00791158 0.42092289 -0.24689879
v -0.00570239 0.42271310 -0.24686584
v -0.00644817 0.42326051 -0.24527605
v -0.00147544 0.42783163 -0.24666356
v 0.00699066 0.42474036 -0.24679132
v -0.00395944 0.42606038 -0.24673625
v -0.00401841 0.42682656 -0.24556754
v 0.00220242 0.42595328 -0.24674119
v 0.00225461 0.42813647 -0.24665032
v -0.00461022 0.42620346 -0.24209787
v -0.00308500 0.42853080 -0.24458807
v -0.00111090 0.42877907 -0.24513997
v -0.00075916 0.42966882 -0.24205903
v 0.00196138 0.42903446 -0.24513082
v 0.00196123 0.42969354 -0.24205736
v -0.01122970 0.41546087 0.25853167
v -0.00309984 0.42851934 0.00354213
v -0.00075909 0.42966883 0.00562892
v -0.01215874 0.40898457 0.25880933
v 0.00195859 0.42969353 0.00145427
v -0.00779808 0.42110187 0.25406819
v -0.01023068 0.40884969 0.26320827
v 0.00244407 0.40306787 0.26321142
v -0.01197527 0.40897295 0.26179197
v -0.00987852 0.41777343 0.25810212
v -0.00458122 0.42624987 0.25427166
v -0.00075910 0.42966883 0.25427178
v 0.00195999 0.42969354 0.25427445
v -0.00204007 0.41288010 0.26320745
v -0.01191400 0.41265151 0.25884903
v -0.00309986 0.42852368 0.25427183
v -0.00227556 0.41837687 0.26321275
v -0.01152750 0.41467390 0.26118169
v -0.00998926 0.41346874 0.26310184
v 0.00241168 0.41120650 0.26317451
v -0.00752966 0.42105620 0.25822941
v -0.00319093 0.42800538 0.25852455
v -0.00075910 0.42933105 0.25782924
v 0.00190981 0.42946286 0.25772296
v -0.00972741 0.41701539 0.26186196
v -0.00650554 0.41800565 0.26304170
v -0.00607839 0.42182417 0.26157773
v -0.00853117 0.41937735 0.26082721
v -0.00206389 0.42250467 0.26294449
v 0.00195985 0.41819925 0.26289588
v 0.00171689 0.42261506 0.26256058
v -0.00326793 0.42741575 0.26018646
v -0.00159862 0.42576380 0.26178699
v -0.00184607 0.42811176 0.26043012
v 0.00172693 0.42624987 0.26168648
v 0.00058872 0.42841658 0.26049602
v 0.00506034 -0.42450488 -0.24553031
v 0.00732445 -0.42131994 -0.24680896
v 0.00675889 -0.41145755 -0.24720288
v 0.00712047 -0.42200187 -0.24519755
v 0.00947976 -0.41445031 -0.24531667
v 0.01013441 -0.40993515 -0.24713771
v 0.01147464 -0.40806235 -0.24528365
v 0.00522256 -0.42547800 -0.24438318
v 0.00483356 -0.42584737 -0.24205617
v 0.00627969 -0.42466819 -0.24208452
v 0.00709267 -0.42206781 -0.24210750
v 0.00886391 -0.41638574 -0.21848466
v 0.01251757 -0.40471717 -0.21953132
v 0.01206947 -0.40639559 -0.24716769
v 0.01252650 -0.40470112 -0.24547763
v 0.01338119 -0.40059573 -0.24551427
v 0.01308744 -0.39920370 -0.24738554
v 0.01379653 -0.39632534 -0.24548052
v 0.01312857 -0.38238683 -0.24801474
v 0.01102964 -0.40947022 -0.21881839
v 0.01337719 -0.40059166 -0.21951206
v 0.01379600 -0.39630880 -0.21945089
v 0.01379122 -0.37194740 -0.21912236
v 0.01379692 -0.33100058 -0.24690133
v 0.00938264 -0.41460817 -0.21398044
v 0.01063969 -0.40938732 -0.21464617
v 0.01019015 -0.41031168 -0.20935274
v 0.00628317 -0.42466035 -0.08791093
v 0.00815281 -0.41868898 -0.04347882
v 0.01055421 -0.40586751 -0.20936119
v 0.01181658 -0.40328549 -0.21487434
v 0.01054781 -0.40110667 -0.20936213
v 0.01165413 -0.39946473 -0.21332379
v 0.01143340 -0.40778631 -0.21649399
v 0.01158926 -0.37632847 -0.21284263
v 0.01057425 -0.37253424 -0.20934417
v 0.01277026 -0.37088696 -0.21584217
v 0.01055461 -0.36623269 -0.20477772
v 0.01055381 -0.35910047 -0.10555415
v 0.01055406 -0.40586548 0.02468776
v 0.01312972 -0.36137870 -0.24880453
v 0.01311750 -0.34070847 -0.24961253
v 0.01305002 -0.33555070 -0.25015117
v 0.01379115 -0.31292066 -0.23438201
v 0.01319185 -0.33288573 -0.25145438
v 0.01379471 -0.33081136 -0.24983403
v 0.01312887 -0.31907739 -0.25195898
v 0.01379531 -0.28084378 -0.25086235
v 0.01312978 -0.30043003 -0.25265985
v 0.01196904 -0.36251690 -0.21292545
v 0.01097642 -0.36372849 -0.20975662
v 0.01379506 -0.34106662 -0.21863987
v 0.01314585 -0.36519501 -0.21634041
v 0.01096900 -0.34497471 -0.20946028
v 0.01204039 -0.34345273 -0.21261877
v 0.01175155 -0.33921742 -0.21079536
v 0.01326099 -0.34107288 -0.21518243
v 0.01312637 -0.34656194 -0.21580894
v 0.01379175 -0.33550433 -0.21553987
v 0.01271068 -0.33712787 -0.21247080
v 0.01166125 -0.33392621 -0.20938249
v 0.01055485 -0.33981524 -0.20476148
v 0.01054562 -0.33307006 -0.07485434
v 0.01055398 -0.30251929 -0.20467105
v 0.01162524 -0.29579121 -0.20878711
v 0.00482343 -0.42584791 -0.06628333
v 0.01018918 -0.41031653 0.24492019
v 0.00635913 -0.42440925 -0.06487666
v 0.00628249 -0.42466176 -0.05372752
v 0.01055132 -0.29995436 0.01625669
v 0.01312891 -0.27946939 -0.25344880
v 0.01085990 -0.25617304 -0.25579964
v 0.01311767 -0.25642915 -0.25434519
v 0.01379678 -0.24867391 -0.21444619
v 0.01379650 -0.24664943 -0.25152981
v 0.01304895 -0.25125808 -0.25488185
v 0.01319519 -0.24899400 -0.25612618
v 0.01379433 -0.24654099 -0.25458242
v 0.01312918 -0.23013174 -0.25686711
v 0.01379294 -0.20961667 -0.25535104
v 0.01153954 -0.25472379 -0.20802508
v 0.01055262 -0.25123073 -0.20461800
v 0.01054518 -0.21352560 -0.19998588
v 0.01277224 -0.24912276 -0.21116214
v 0.01196709 -0.24075409 -0.20822760
v 0.01313862 -0.24346439 -0.21162859
v 0.01055240 -0.24448891 -0.20011231
v 0.01076138 -0.24664043 -0.20486638
v 0.01097640 -0.24196857 -0.20506849
v 0.01379585 -0.21901043 -0.21382054
v 0.01312075 -0.22484224 -0.21110463
v 0.01204037 -0.22169146 -0.20792770
v 0.01096897 -0.22321509 -0.20477269
v 0.01055129 -0.21852589 -0.19997480
v 0.01312948 -0.21146413 -0.25756914
v 0.01379438 -0.21324651 -0.21072194
v 0.01312975 -0.19279271 -0.25827119
v 0.01379745 -0.16239357 -0.25629642
v 0.01311786 -0.17215433 -0.25907766
v 0.01304895 -0.16696473 -0.25961196
v 0.01181055 -0.16552837 -0.26091502
v 0.01319496 -0.16470603 -0.26086110
v 0.01379420 -0.16223042 -0.25926793
v 0.01313076 -0.15050261 -0.26142436
v 0.01379719 -0.00312476 -0.21071281
v 0.01326012 -0.21931361 -0.21048767
v 0.01174869 -0.21746149 -0.20609880
v 0.01164107 -0.21108360 -0.20450886
v 0.01270927 -0.21536810 -0.20778098
v 0.01055046 -0.19467822 -0.19998151
v 0.01055377 -0.15559914 -0.10961166
v 0.01054632 0.00354970 -0.19998365
v 0.01055041 -0.19648260 0.01873998
v 0.01054543 -0.10206237 -0.01505347
v 0.01055324 -0.10096977 0.01804633
v 0.01312976 -0.13651680 -0.26195075
v 0.01379709 -0.12534072 -0.26002994
v 0.01312887 -0.11555491 -0.26273974
v 0.01379667 -0.08277851 -0.26092455
v 0.01192047 -0.08577879 -0.26541757
v 0.01319264 -0.08505696 -0.26539977
v 0.01304895 -0.08734587 -0.26417738
v 0.01379388 -0.08264262 -0.26392329
v 0.01379621 -0.05582756 -0.26446158
v 0.01085884 -0.09227657 -0.26505177
v 0.01311743 -0.09249562 -0.26363703
v 0.01163312 -0.01139216 -0.20446569
v 0.01312921 -0.06154527 -0.26633381
v 0.01312975 -0.04289656 -0.26703469
v 0.01379730 -0.02663894 -0.25141816
v 0.01379735 -0.02653847 -0.23276671
v 0.01379606 -0.02186601 -0.26513579
v 0.01313268 -0.02653804 -0.26764785
v 0.01379593 -0.01715674 -0.26519203
v 0.01309668 -0.01235390 -0.26821499
v 0.01424344 -0.00774925 -0.26494446
v 0.01314481 -0.00734918 -0.26831977
v 0.01499847 -0.00042891 -0.26399531
v 0.01313734 0.00375533 -0.26838201
v 0.01379733 -0.02654363 -0.25618427
v 0.01379593 -0.02186007 -0.26086734
v 0.01379593 -0.02186007 -0.25618427
v 0.01424476 -0.01691947 -0.26053162
v 0.01534920 -0.01593086 -0.25502067
v 0.01424616 -0.02173155 -0.25144807
v 0.01535085 -0.02054971 -0.24640492
v 0.01532597 -0.01809592 -0.25109933
v 0.01460824 -0.01932510 -0.24907951
v 0.01379733 -0.02654363 -0.22808576
v 0.01482236 -0.02215231 -0.23828714
v 0.01703013 -0.01602338 -0.24185692
v 0.01616003 -0.01633783 -0.24632853
v 0.01702546 -0.01581849 -0.23721644
v 0.01531982 -0.02012096 -0.23326991
v 0.01424616 -0.02153300 -0.22833701
v 0.01685553 -0.01424054 -0.22925097
v 0.01541701 -0.01952035 -0.23530160
v 0.01656446 -0.01635596 -0.23325690
v 0.01535966 -0.01136905 -0.25920721
v 0.01460404 -0.01444876 -0.25802219
v 0.01620790 -0.00427938 -0.25832003
v 0.01700251 -0.00705462 -0.25490083
v 0.01616011 -0.01126542 -0.25488894
v 0.01622577 -0.01387207 -0.25289606
v 0.01595827 -0.01472557 -0.25086322
v 0.01705409 -0.01063636 -0.24984915
v 0.01695977 -0.01303614 -0.24315129
v 0.01701595 -0.00725507 -0.25118860
v 0.01532523 -0.00307146 -0.26135036
v 0.01577340 0.00149924 -0.26083117
v 0.01696509 -0.00389969 -0.25552905
v 0.01693836 0.00211806 -0.25616826
v 0.01685527 0.00161045 -0.25771044
v 0.01692418 0.00431435 -0.24704804
v 0.01678287 -0.00979369 -0.23962148
v 0.01673647 -0.00917457 -0.23937289
v 0.01703907 -0.01231088 -0.23296897
v 0.01704080 -0.01195004 -0.22854101
v 0.01702365 -0.00444706 -0.22955329
v 0.01699260 -0.00702097 -0.22419590
v 0.01704667 -0.00270831 -0.23924114
v 0.01704994 0.00449314 -0.23940775
v 0.01696800 -0.00129990 -0.23380854
v 0.01690769 0.00439024 -0.22172199
v 0.01379733 -0.01249378 -0.21403652
v 0.01379733 -0.02186007 -0.22340268
v 0.01536053 -0.01530390 -0.22448481
v 0.01379733 -0.01717733 -0.21871959
v 0.01501307 -0.01110607 -0.22007855
v 0.01648125 -0.01098541 -0.22426984
v 0.01624123 -0.00527870 -0.22103553
v 0.01379733 -0.00781104 -0.21403652
v 0.01546016 0.00100000 -0.21774945
v 0.01685659 0.00003526 -0.22141125
v 0.01577480 0.00307607 -0.21828773
v 0.01424616 -0.00308711 -0.21434324
v 0.01379528 0.00155181 -0.21070550
v 0.01054902 0.00677614 -0.02768646
v 0.01054560 -0.00325654 0.01053146
v 0.00938191 -0.41461231 0.24490483
v 0.01054557 -0.38464558 0.02616527
v 0.00835563 -0.41803749 0.25399261
v 0.01054649 -0.40592228 0.13152916
v 0.01054705 -0.26290143 0.11061839
v 0.00628830 -0.42466087 0.25445657
v 0.00483384 -0.42584660 0.25428539
v 0.01055170 -0.40586989 0.24493665
v 0.00428478 -0.42575572 0.25804096
v 0.00598901 -0.42457276 0.25778640
v 0.00706867 -0.42181143 0.25767422
v 0.01020169 -0.41204309 0.25387582
v 0.01072298 -0.40976687 0.25006697
v 0.00963791 -0.41260357 0.25771888
v 0.00363771 -0.42589289 0.26051085
v 0.00501917 -0.42371473 0.26067068
v 0.00524811 -0.41933616 0.26164941
v 0.00625537 -0.42252990 0.25979479
v 0.00574210 -0.41480748 0.26211488
v 0.00616317 -0.41025598 0.26246501
v 0.00762788 -0.41598212 0.26046307
v 0.00933876 -0.41037025 0.26051991
v 0.01055304 -0.38954057 0.24035975
v 0.01178921 -0.40452247 0.25003573
v 0.01195645 -0.39920288 0.24962956
v 0.01160510 -0.39191439 0.24845209
v 0.01061485 -0.39021593 0.24492213
v 0.01245071 -0.40506944 0.25463403
v 0.01152580 -0.40783318 0.25722476
v 0.01207269 -0.40520764 0.25178880
v 0.01232437 -0.40466750 0.25767106
v 0.01337741 -0.40059420 0.25491118
v 0.01306172 -0.40054777 0.25780864
v 0.01379501 -0.39631343 0.25487926
v 0.01346510 -0.39626449 0.25781885
v 0.01055269 -0.35904607 0.24027408
v 0.01277526 -0.38381153 0.25141623
v 0.01097365 -0.38242843 0.24531525
v 0.01196931 -0.37831362 0.24849222
v 0.01379589 -0.37983341 0.25466479
v 0.01314125 -0.37769897 0.25188591
v 0.00651206 -0.40568190 0.26281350
v 0.00674293 -0.39983133 0.26300685
v 0.00981646 -0.40435054 0.26171038
v 0.01019141 -0.39466844 0.26202473
v 0.01076463 -0.40835839 0.25974017
v 0.01196304 -0.40206526 0.26027523
v 0.01241629 -0.39739231 0.26060418
v 0.01054690 -0.21242685 0.23551489
v 0.01096343 -0.35905355 0.24493797
v 0.01181528 -0.35630880 0.24750258
v 0.01181037 -0.35445095 0.24557913
v 0.01379781 -0.34968373 0.25426707
v 0.01297595 -0.35421826 0.25068248
v 0.01162992 -0.32314238 0.24451337
v 0.01280852 -0.35244651 0.24827797
v 0.01379729 -0.34961180 0.25116619
v 0.01055272 -0.31616891 0.24022747
v 0.01379709 -0.25807253 0.24998053
v 0.01055400 -0.27001802 0.24016403
v 0.01151246 -0.27085979 0.24348553
v 0.01055384 -0.22599052 0.17161389
v 0.01055046 -0.10001853 0.23553231
v 0.01055227 -0.26779365 0.23566489
v 0.01076278 -0.26537302 0.24042221
v 0.01097642 -0.26066832 0.24062769
v 0.01278386 -0.26202838 0.24674422
v 0.01196883 -0.25656186 0.24379049
v 0.01055201 -0.23727839 0.23553904
v 0.01096609 -0.23729402 0.24025017
v 0.01182143 -0.23454364 0.24282018
v 0.01314135 -0.25594195 0.24719409
v 0.01379723 -0.22792360 0.24956506
v 0.01297631 -0.23245977 0.24599063
v 0.01345949 0.00124919 0.25783148
v 0.01181261 -0.23268800 0.24089441
v 0.01280945 -0.23068841 0.24358946
v 0.01379732 -0.22785221 0.24647679
v 0.01162776 -0.20152544 0.23982403
v 0.01379615 -0.19644611 0.24608206
v 0.01162942 -0.05365626 0.23983088
v 0.01055382 -0.04509185 0.12486078
v 0.01054567 -0.06050391 0.11358686
v 0.01055409 0.09174829 0.01996443
v 0.01379526 -0.02073999 0.24608801
v 0.01019068 0.39887748 0.26202499
v 0.01055085 0.00014476 0.23553283
v 0.01379389 0.00106942 0.25427557
v 0.01241389 0.01130868 0.26060561
v 0.01085899 0.01394302 -0.26964059
v 0.01424344 0.00618279 -0.26498491
v 0.01379461 0.01092155 -0.26540598
v 0.01312541 0.01771147 -0.26821874
v 0.01379284 0.01552837 -0.26547733
v 0.01313002 0.03673710 -0.26747049
v 0.01532457 0.00592246 -0.26104908
v 0.01590100 0.00989908 -0.25864729
v 0.01704129 0.00984545 -0.25508880
v 0.01685453 0.00592246 -0.25759988
v 0.01704742 0.01490153 -0.24693932
v 0.01494272 0.01474172 -0.25915786
v 0.01379769 0.02496223 -0.25625127
v 0.01494198 0.01923660 -0.25469352
v 0.01653743 0.01424069 -0.25459048
v 0.01541495 0.01248603 -0.25825064
v 0.01703636 0.01484964 -0.25083793
v 0.01532457 0.02120808 -0.24953914
v 0.01656347 0.01877856 -0.24682638
v 0.01541495 0.02124433 -0.24741535
v 0.01698120 0.00852792 -0.24339835
v 0.01678438 0.01455925 -0.23843864
v 0.01669554 0.01322599 -0.23942082
v 0.01701469 0.00669183 -0.22482693
v 0.01705129 0.01412470 -0.22961887
v 0.01696237 0.01298274 -0.22548445
v 0.01685256 0.01486961 -0.24022324
v 0.01703636 0.01895157 -0.24210426
v 0.01703693 0.01913529 -0.23784900
v 0.01695888 0.01844614 -0.23398925
v 0.01685593 0.01751973 -0.23051156
v 0.01586444 0.02111746 -0.23123842
v 0.01532597 0.02073025 -0.22735246
v 0.01379733 0.02497058 -0.25150121
v 0.01494272 0.02374964 -0.24587657
v 0.01379733 0.02965332 -0.24681806
v 0.01487574 0.02513535 -0.24057183
v 0.01379725 0.02966635 -0.24205907
v 0.01479727 0.02522271 -0.23471500
v 0.01602528 0.02138098 -0.24506198
v 0.01588664 0.02211477 -0.23805449
v 0.01469499 0.02455619 -0.22837325
v 0.01379760 0.02962427 -0.22979564
v 0.01096311 0.05374738 -0.26740019
v 0.01312849 0.05775882 -0.26667996
v 0.01379399 0.08575806 -0.26394810
v 0.01113236 0.07332073 -0.26629018
v 0.01313087 0.07400547 -0.26606808
v 0.01379733 0.02497093 -0.21403659
v 0.01379698 0.09053583 -0.26081851
v 0.01532523 0.00754049 -0.21820229
v 0.01624517 0.00929172 -0.22143785
v 0.01469499 0.00619845 -0.21455233
v 0.01379407 0.01092368 -0.21069860
v 0.01424616 0.01088118 -0.21434316
v 0.01538831 0.01611528 -0.22229169
v 0.01478536 0.01560676 -0.21895298
v 0.01424616 0.02008683 -0.21898091
v 0.01523560 0.01983391 -0.22367637
v 0.01631401 0.01688866 -0.22677076
v 0.01379733 0.01560429 -0.21403652
v 0.01379461 0.01560430 -0.21070143
v 0.01379733 0.02028785 -0.21403652
v 0.01424616 0.02464269 -0.22365449
v 0.01379733 0.02497058 -0.21871959
v 0.01379733 0.02965332 -0.22340268
v 0.01379733 0.02965332 -0.21871959
v 0.01054992 0.22162215 -0.19999649
v 0.01379570 0.19806711 -0.21071101
v 0.01054638 0.17634270 -0.13666917
v 0.01310003 0.08758196 -0.26549371
v 0.01329668 0.09042672 -0.26424428
v 0.01379362 0.09527589 -0.26084237
v 0.01311452 0.09531253 -0.26374031
v 0.01312916 0.11877622 -0.26282273
v 0.01379375 0.14270579 -0.25985828
v 0.01313041 0.13731983 -0.26212434
v 0.01111828 0.15434774 -0.26171432
v 0.01379689 0.17095567 -0.25630863
v 0.01312893 0.15347520 -0.26151727
v 0.01054660 0.20558288 -0.19120744
v 0.01054644 0.14451253 -0.06663535
v 0.01054595 0.11000763 0.00960600
v 0.01300849 0.16739283 -0.26097680
v 0.01379374 0.16540175 -0.25940740
v 0.01329668 0.17004641 -0.25967779
v 0.01091862 0.18690908 -0.25988164
v 0.01311485 0.17491604 -0.25918325
v 0.01312923 0.19577256 -0.25836291
v 0.01379672 0.21923599 -0.21398320
v 0.01379363 0.21552891 -0.25536755
v 0.01312935 0.21455652 -0.25765829
v 0.01312905 0.23323142 -0.25695575
v 0.01162596 0.21798122 -0.20448903
v 0.01379793 0.21687626 -0.21092192
v 0.01346425 0.22084634 -0.21099431
v 0.01312128 0.22484956 -0.21104255
v 0.01238311 0.22396707 -0.20791939
v 0.01203974 0.22792759 -0.20798160
v 0.01130330 0.22240917 -0.20470318
v 0.01096735 0.22630041 -0.20469998
v 0.01055119 0.22631972 -0.19996120
v 0.01271620 0.21535697 -0.20776393
v 0.01238451 0.21928763 -0.20781221
v 0.01054610 0.35565112 -0.08242223
v 0.01106138 0.24017507 -0.25687690
v 0.01379424 0.24970557 -0.25467205
v 0.01379638 0.25524016 -0.25160027
v 0.01309628 0.25154787 -0.25622500
v 0.01379670 0.25192426 -0.21449113
v 0.01379070 0.33869765 -0.21879145
v 0.01092992 0.25290142 -0.25616027
v 0.01329668 0.25433894 -0.25494966
v 0.01311470 0.25921316 -0.25445213
v 0.01092616 0.28986223 -0.25407265
v 0.01379602 0.29058530 -0.25082271
v 0.01312963 0.28018714 -0.25362644
v 0.01312934 0.29885665 -0.25292445
v 0.01198294 0.24707051 -0.20833112
v 0.01314848 0.24809238 -0.21171248
v 0.01097632 0.24973641 -0.20507112
v 0.01055229 0.25685298 -0.20011405
v 0.01273923 0.25407554 -0.21112691
v 0.01152104 0.26130854 -0.20803119
v 0.01076138 0.25443450 -0.20486770
v 0.01055154 0.25906015 -0.20464996
v 0.01055357 0.28935497 -0.20467127
v 0.01162329 0.31113711 -0.20895678
v 0.01054559 0.19354405 0.22470999
v 0.01055327 0.20736792 -0.02408803
v 0.01054553 0.21684337 -0.03002678
v 0.01054618 0.32731143 -0.02159668
v 0.01055331 0.30202991 0.02151231
v 0.01379423 0.33398652 -0.24993660
v 0.01312900 0.31751813 -0.25222265
v 0.01309791 0.33579996 -0.25147508
v 0.01093053 0.33720668 -0.25140081
v 0.01379765 0.33949918 -0.24690661
v 0.01329668 0.33863230 -0.25021955
v 0.01311460 0.34350452 -0.24971872
v 0.01379549 0.37029189 -0.24620188
v 0.01312962 0.36448069 -0.24889312
v 0.01379109 0.37368965 -0.21918145
v 0.01313022 0.38080916 -0.24827859
v 0.01271330 0.33711831 -0.21245016
v 0.01055407 0.34343530 -0.20474558
v 0.01379220 0.33863471 -0.21560759
v 0.01164671 0.34016869 -0.20939841
v 0.01379578 0.34338961 -0.21876804
v 0.01055391 0.34807998 -0.20464429
v 0.01054714 0.37882177 -0.20468656
v 0.01238040 0.34572643 -0.21260863
v 0.01130198 0.34416936 -0.20938938
v 0.01096735 0.34805932 -0.20938695
v 0.01203617 0.34969384 -0.21266843
v 0.01198414 0.36881981 -0.21303284
v 0.01346293 0.34260652 -0.21568281
v 0.01238171 0.34104781 -0.21250063
v 0.01311924 0.34659949 -0.21573265
v 0.01097626 0.37149643 -0.20975837
v 0.01076278 0.37619469 -0.20955299
v 0.01272465 0.37585588 -0.21577839
v 0.01314567 0.36983680 -0.21640296
v 0.01054775 0.37693671 -0.12819044
v 0.01379651 0.39941889 -0.24562141
v 0.01315774 0.39895694 -0.24756243
v 0.01379656 0.39943690 -0.21951177
v 0.00979439 0.41284264 -0.24717524
v 0.01337668 0.40369886 -0.24556683
v 0.01272344 0.40367898 -0.24741963
v 0.01251624 0.40784672 -0.24551911
v 0.01170555 0.41011580 -0.24721345
v 0.01049796 0.41430130 -0.24455252
v 0.01251604 0.40783221 -0.21951100
v 0.01147929 0.41116070 -0.22069383
v 0.00876796 0.41983311 -0.24539300
v 0.00847702 0.41767858 -0.24701974
v 0.00546548 0.42761745 -0.24497339
v 0.00712822 0.42508001 -0.24599487
v 0.00628603 0.42777467 -0.24055556
v 0.00483671 0.42895876 -0.24356430
v 0.00423796 0.42863902 -0.24551622
v 0.00710141 0.42517105 -0.24365874
v 0.01055425 0.38082111 -0.20933349
v 0.01161067 0.38249935 -0.21296298
v 0.01178211 0.40001655 -0.21371762
v 0.01055399 0.40435083 -0.20937572
v 0.01055170 0.40898456 -0.20933576
v 0.01170427 0.40469953 -0.21430416
v 0.01130973 0.40884711 -0.21440614
v 0.01019081 0.41342026 -0.20935443
v 0.01079596 0.41218811 -0.21515356
v 0.01338002 0.40370874 -0.21953369
v 0.00901521 0.41899908 -0.21318687
v 0.00938242 0.41772225 -0.20935344
v 0.00628827 0.42776936 -0.11686962
v 0.00938251 0.41772078 -0.02102981
v 0.00816783 0.42175505 -0.04498209
v 0.01054559 0.39958973 0.22507313
v 0.01018899 0.41341871 0.07612898
v 0.00480576 0.42896760 -0.09116720
v 0.00636700 0.42751323 -0.09080384
v 0.00628577 0.42777312 -0.07792451
v 0.01055166 0.40897422 0.24486791
v 0.00483202 0.42895755 0.00218501
v 0.01055030 0.10282695 0.23553462
v 0.01162364 0.20015851 0.23981499
v 0.01379461 0.20372122 0.24608319
v 0.01379545 0.35803868 0.25425487
v 0.00674363 0.39892608 0.26300577
v 0.01345963 0.39946481 0.25782722
v 0.01055387 0.26165507 0.23564940
v 0.01055586 0.23075191 0.23558819
v 0.01379657 0.23616139 0.24951218
v 0.01164752 0.23091734 0.24027147
v 0.01379243 0.23115493 0.24641409
v 0.01054757 0.30877559 0.24023602
v 0.01055397 0.23568622 0.23552648
v 0.01173903 0.23528373 0.24167176
v 0.01096906 0.24037299 0.24033179
v 0.01301911 0.23665261 0.24524402
v 0.01309083 0.24088082 0.24656327
v 0.01097632 0.25913464 0.24062742
v 0.01058237 0.26769807 0.24022574
v 0.01198358 0.25941504 0.24390045
v 0.01379386 0.27049579 0.25004425
v 0.01314623 0.26373658 0.24727375
v 0.01241449 0.40039618 0.26060211
v 0.01268873 0.26905637 0.24654184
v 0.01158127 0.27320670 0.24375361
v 0.01161457 0.31136072 0.24433324
v 0.01379582 0.35268477 0.25110152
v 0.00807960 0.42204652 0.25725442
v 0.00483358 0.42895909 0.25630185
v 0.00938341 0.41772779 0.25372236
v 0.01055095 0.35745637 0.24020745
v 0.01055150 0.35284367 0.24027743
v 0.01166805 0.35237106 0.24502517
v 0.01173504 0.35706352 0.24635422
v 0.01301924 0.35841408 0.24993274
v 0.01055506 0.38337913 0.24033016
v 0.01096607 0.36211383 0.24500258
v 0.01309159 0.36265639 0.25125915
v 0.01198401 0.38115701 0.24858861
v 0.01097392 0.38089373 0.24529791
v 0.01314917 0.38547669 0.25197044
v 0.00628887 0.42776714 0.25642529
v 0.01061993 0.38859690 0.24492587
v 0.01268734 0.39081090 0.25122093
v 0.01055642 0.40361436 0.24499780
v 0.01182433 0.39944053 0.24929340
v 0.01379298 0.39228796 0.25472920
v 0.01019083 0.41342025 0.24490820
v 0.01182688 0.40383813 0.25024435
v 0.01099395 0.40850260 0.24866478
v 0.01047550 0.41303127 0.25041298
v 0.01379593 0.39941229 0.25482797
v 0.01337774 0.40369464 0.25488481
v 0.01316313 0.40366333 0.25770236
v 0.01251715 0.40783858 0.25491035
v 0.01157110 0.41074246 0.25312725
v 0.01245932 0.40782045 0.25752606
v 0.01065476 0.41378158 0.25618308
v 0.01003186 0.41418466 0.25879973
v 0.00637326 0.40693454 0.26274228
v 0.00978591 0.40654295 0.26158871
v 0.00592870 0.41329326 0.26228459
v 0.00903764 0.41226427 0.26111555
v 0.01180197 0.40656821 0.26025299
v 0.01095671 0.41032741 0.25987732
v 0.00920694 0.41753688 0.25775427
v 0.00593406 0.42760921 0.25869592
v 0.00522861 0.42014358 0.26176536
v 0.00832329 0.41618742 0.26074977
v 0.00656984 0.42391137 0.26007999
v 0.00478903 0.42582971 0.26090795
v 0.00399444 0.42817767 0.26015660
f 1 3 2
f 1 5 4
f 1 2 5
f 6 4 5
f 6 7 4
f 6 8 7
f 6 9 8
f 6 5 9
f 10 8 9
f 10 11 8
f 10 12 11
f 10 13 12
f 10 9 13
f 7 15 4
f 7 8 15
f 11 16 15
f 11 17 16
f 11 18 17
f 11 12 18
f 11 15 8
f 18 19 17
f 18 20 19
f 18 13 20
f 18 12 13
f 2 3 21
f 2 21 22
f 2 23 5
f 2 22 23
f 5 23 24
f 24 23 25
f 22 26 23
f 22 21 27
f 22 27 26
f 23 26 25
f 27 29 26
f 26 29 30
f 27 21 31
f 27 31 32
f 27 32 29
f 26 33 25
f 26 30 33
f 21 28 31
f 32 30 29
f 32 31 34
f 32 35 30
f 32 34 35
f 30 35 36
f 30 37 33
f 30 38 37
f 30 36 38
f 39 35 34
f 39 36 35
f 39 34 40
f 39 40 36
f 31 28 42
f 34 31 42
f 40 43 36
f 40 34 44
f 40 44 43
f 36 43 41
f 43 45 46
f 21 47 28
f 28 48 42
f 48 50 49
f 48 51 50
f 28 51 48
f 49 53 52
f 49 50 53
f 52 55 54
f 52 53 55
f 48 57 56
f 48 49 57
f 42 48 56
f 56 59 58
f 56 57 59
f 42 56 58
f 49 60 57
f 49 52 60
f 57 61 59
f 57 60 61
f 52 62 60
f 52 54 62
f 60 63 61
f 60 62 63
f 54 64 62
f 54 55 64
f 62 65 63
f 62 64 65
f 55 66 64
f 64 67 65
f 64 66 67
f 51 68 50
f 50 68 53
f 53 69 55
f 68 70 53
f 28 47 51
f 53 70 69
f 55 69 66
f 69 71 66
f 66 71 67
f 71 72 67
f 1 73 3
f 3 74 21
f 3 73 74
f 21 74 47
f 74 75 47
f 1 4 76
f 15 76 4
f 17 19 77
f 51 78 68
f 47 78 51
f 78 79 68
f 78 80 79
f 47 80 78
f 80 81 79
f 80 82 81
f 47 82 80
f 47 75 82
f 68 83 70
f 68 79 83
f 79 84 83
f 79 81 84
f 70 85 69
f 70 83 85
f 83 86 85
f 83 84 86
f 69 87 71
f 69 85 87
f 85 88 87
f 85 86 88
f 71 89 72
f 71 87 89
f 87 90 89
f 87 88 90
f 82 75 91
f 82 92 81
f 82 91 92
f 81 93 84
f 81 92 93
f 84 88 86
f 84 93 88
f 93 90 88
f 44 45 43
f 44 34 95
f 44 95 45
f 95 34 97
f 95 97 98
f 95 99 45
f 95 98 99
f 45 99 96
f 98 97 100
f 98 101 99
f 98 100 101
f 102 101 100
f 102 100 103
f 102 104 101
f 102 103 104
f 99 101 105
f 101 106 105
f 101 107 106
f 101 104 107
f 103 108 104
f 104 108 107
f 97 42 100
f 34 42 97
f 58 110 109
f 58 59 110
f 42 58 109
f 59 111 110
f 59 61 111
f 61 63 111
f 103 100 112
f 103 112 108
f 112 113 108
f 108 114 107
f 108 115 114
f 112 117 116
f 112 100 117
f 112 116 113
f 116 118 113
f 113 118 108
f 108 118 115
f 116 117 119
f 116 119 118
f 119 120 118
f 119 117 121
f 119 122 120
f 119 121 122
f 118 120 122
f 118 122 123
f 122 124 123
f 125 122 121
f 125 121 126
f 125 127 122
f 125 126 127
f 122 127 129
f 127 128 129
f 63 65 130
f 65 67 130
f 100 42 117
f 130 67 131
f 67 72 131
f 91 75 94
f 126 128 127
f 126 121 132
f 126 132 128
f 128 133 129
f 117 42 121
f 132 135 134
f 132 121 135
f 132 136 128
f 132 134 136
f 128 137 133
f 128 136 137
f 121 42 135
f 138 140 139
f 138 141 140
f 138 139 142
f 138 142 141
f 134 135 145
f 134 146 136
f 134 145 146
f 136 146 137
f 145 135 139
f 145 140 146
f 145 139 140
f 146 140 141
f 146 141 143
f 111 63 147
f 63 130 147
f 142 148 141
f 142 150 149
f 142 139 150
f 142 149 148
f 141 148 144
f 149 150 151
f 149 152 148
f 149 151 152
f 148 152 153
f 152 154 153
f 139 135 150
f 135 42 150
f 151 155 152
f 151 150 156
f 151 156 155
f 152 155 154
f 156 157 155
f 155 157 159
f 157 161 160
f 157 158 161
f 157 160 159
f 109 110 162
f 110 111 162
f 91 94 163
f 91 164 92
f 91 163 164
f 92 164 93
f 163 94 165
f 16 17 166
f 17 77 166
f 16 167 15
f 15 167 76
f 1 168 73
f 1 76 168
f 75 74 94
f 16 169 167
f 16 166 169
f 76 171 170
f 167 171 76
f 172 174 173
f 168 172 73
f 168 174 172
f 168 76 174
f 175 176 174
f 175 177 176
f 170 174 76
f 170 175 174
f 170 177 175
f 170 171 177
f 174 178 173
f 174 176 178
f 179 181 180
f 179 182 181
f 169 180 167
f 169 179 180
f 169 182 179
f 169 166 182
f 180 183 177
f 180 181 183
f 167 177 171
f 167 180 177
f 182 184 181
f 182 185 184
f 166 185 182
f 166 77 185
f 181 186 183
f 181 184 186
f 177 187 176
f 177 183 187
f 176 187 178
f 183 188 187
f 183 186 188
f 187 188 189
f 172 191 190
f 172 173 191
f 73 190 74
f 73 172 190
f 173 178 191
f 178 187 191
f 191 187 189
f 190 191 192
f 191 189 192
f 94 74 193
f 192 189 194
f 74 190 193
f 190 192 195
f 193 190 195
f 193 196 94
f 193 195 196
f 192 194 197
f 195 192 197
f 156 150 198
f 156 158 157
f 156 198 158
f 198 199 158
f 198 150 200
f 198 200 199
f 200 201 199
f 200 150 202
f 200 202 201
f 199 201 203
f 150 42 204
f 202 150 205
f 202 206 201
f 202 205 206
f 205 150 207
f 205 207 208
f 205 209 206
f 205 208 209
f 150 204 207
f 109 162 210
f 42 109 210
f 208 212 211
f 208 207 212
f 208 211 209
f 209 211 213
f 207 204 212
f 212 204 214
f 212 214 211
f 214 204 216
f 214 216 211
f 216 204 215
f 216 217 211
f 211 218 213
f 218 211 219
f 215 204 220
f 216 215 221
f 216 221 217
f 217 222 211
f 221 222 217
f 211 222 219
f 221 215 223
f 221 223 222
f 223 215 224
f 223 225 222
f 223 224 225
f 204 42 220
f 42 210 220
f 162 111 227
f 111 147 227
f 210 231 230
f 210 162 231
f 220 210 230
f 230 233 232
f 230 231 233
f 220 232 229
f 220 230 232
f 162 234 231
f 162 227 234
f 231 235 233
f 231 234 235
f 227 236 234
f 227 147 236
f 234 237 235
f 234 236 237
f 147 238 236
f 147 130 238
f 236 239 237
f 236 238 239
f 130 240 238
f 130 131 240
f 238 241 239
f 238 240 241
f 220 229 215
f 232 242 229
f 232 243 242
f 232 233 243
f 233 244 243
f 233 235 244
f 235 239 244
f 235 237 239
f 244 239 241
f 240 245 241
f 131 246 240
f 240 246 245
f 243 244 247
f 242 248 229
f 242 249 248
f 242 243 249
f 244 245 247
f 244 241 245
f 249 243 250
f 243 247 250
f 131 72 228
f 89 90 251
f 72 89 228
f 93 251 90
f 228 89 252
f 89 251 252
f 164 253 93
f 93 253 251
f 94 248 165
f 131 228 246
f 228 254 246
f 228 252 254
f 252 255 254
f 252 251 255
f 246 254 245
f 254 256 245
f 254 255 256
f 249 257 248
f 249 258 257
f 249 250 258
f 250 259 258
f 250 247 259
f 247 256 259
f 247 245 256
f 163 165 260
f 163 261 164
f 163 260 261
f 260 165 257
f 260 258 261
f 260 257 258
f 164 262 253
f 164 261 262
f 261 259 262
f 261 258 259
f 253 255 251
f 253 262 255
f 262 256 255
f 262 259 256
f 257 165 248
f 225 263 222
f 224 215 265
f 224 265 225
f 265 266 263
f 265 215 266
f 215 264 266
f 225 265 263
f 222 267 226
f 222 263 267
f 266 264 268
f 266 269 263
f 266 268 269
f 269 270 263
f 268 264 271
f 268 270 269
f 268 271 270
f 263 270 272
f 271 264 273
f 271 273 270
f 215 229 264
f 273 264 274
f 273 276 270
f 273 274 277
f 273 277 276
f 276 278 270
f 274 264 229
f 277 278 276
f 277 279 278
f 277 274 279
f 274 280 279
f 279 280 281
f 279 281 278
f 281 282 278
f 274 229 280
f 281 280 283
f 281 283 282
f 282 284 278
f 278 284 285
f 283 284 282
f 283 280 286
f 283 286 284
f 286 280 287
f 286 288 284
f 229 248 289
f 229 289 280
f 280 289 287
f 288 290 284
f 286 287 291
f 286 290 288
f 286 291 290
f 284 290 292
f 291 294 293
f 291 287 294
f 287 289 294
f 291 293 290
f 294 289 295
f 294 295 293
f 295 289 296
f 295 297 293
f 295 296 297
f 293 297 290
f 290 297 298
f 296 289 299
f 289 248 299
f 296 299 301
f 296 302 297
f 296 301 302
f 297 302 300
f 301 304 302
f 301 299 305
f 301 305 304
f 305 307 304
f 305 306 307
f 302 304 303
f 304 308 303
f 304 307 308
f 299 309 305
f 306 310 307
f 311 313 312
f 311 310 313
f 307 310 311
f 307 311 312
f 307 312 314
f 307 315 308
f 307 314 315
f 316 317 314
f 312 317 316
f 312 313 317
f 312 316 314
f 314 319 318
f 314 318 315
f 305 309 306
f 313 320 317
f 321 323 322
f 317 320 321
f 317 322 314
f 317 321 322
f 322 325 324
f 322 323 325
f 314 324 319
f 314 322 324
f 306 326 310
f 309 326 306
f 321 327 323
f 320 327 321
f 327 328 323
f 323 328 325
f 248 329 299
f 328 330 325
f 299 329 309
f 310 331 313
f 313 331 320
f 94 196 248
f 197 194 332
f 332 194 333
f 195 197 334
f 196 195 334
f 334 197 332
f 248 196 329
f 326 335 310
f 331 336 320
f 320 336 327
f 327 337 328
f 328 337 330
f 337 338 330
f 196 334 329
f 332 333 339
f 329 340 309
f 309 340 326
f 327 341 337
f 336 341 327
f 335 331 310
f 332 339 342
f 334 344 343
f 334 332 344
f 329 343 340
f 329 334 343
f 332 342 344
f 339 333 345
f 335 346 331
f 331 347 336
f 331 346 347
f 341 348 337
f 341 347 348
f 336 347 341
f 337 349 338
f 337 348 349
f 326 350 335
f 326 343 350
f 343 344 350
f 340 343 326
f 344 351 350
f 344 342 351
f 346 353 352
f 350 352 353
f 350 351 352
f 335 353 346
f 335 350 353
f 351 354 352
f 351 342 354
f 339 355 342
f 339 345 355
f 342 356 354
f 342 355 356
f 352 358 357
f 352 354 358
f 346 357 347
f 346 352 357
f 347 359 348
f 347 357 359
f 357 358 359
f 354 360 358
f 354 356 360
f 348 361 349
f 348 359 361
f 358 361 359
f 358 360 361
f 14 362 13
f 14 363 362
f 14 364 363
f 14 13 364
f 363 365 362
f 13 9 364
f 363 367 366
f 364 367 363
f 367 368 366
f 369 371 370
f 369 362 371
f 20 370 19
f 20 369 370
f 20 362 369
f 20 13 362
f 365 363 372
f 362 372 371
f 362 365 372
f 371 372 373
f 363 374 372
f 363 366 374
f 9 24 364
f 9 5 24
f 364 24 367
f 375 376 368
f 367 375 368
f 367 24 375
f 375 377 376
f 375 378 377
f 24 378 375
f 378 379 377
f 378 380 379
f 24 380 378
f 24 25 380
f 368 376 366
f 366 376 374
f 376 377 374
f 372 374 381
f 374 377 382
f 377 383 382
f 377 379 383
f 379 385 384
f 372 381 373
f 373 387 386
f 373 381 387
f 386 387 388
f 370 371 389
f 371 373 390
f 371 390 389
f 387 391 388
f 387 392 391
f 392 393 391
f 392 394 393
f 381 374 395
f 387 395 392
f 381 395 387
f 374 392 395
f 374 382 392
f 382 394 392
f 382 383 394
f 394 396 393
f 396 397 393
f 396 398 397
f 379 384 383
f 394 383 396
f 383 384 396
f 396 384 398
f 397 399 393
f 391 393 400
f 388 391 401
f 391 400 401
f 380 402 379
f 25 402 380
f 25 33 402
f 402 385 379
f 402 403 385
f 33 403 402
f 33 37 403
f 403 404 385
f 37 404 403
f 37 38 404
f 385 405 384
f 36 406 38
f 36 41 406
f 406 407 404
f 406 404 38
f 404 407 385
f 406 408 407
f 406 41 408
f 43 46 41
f 407 409 385
f 408 410 407
f 41 410 408
f 41 46 410
f 410 409 407
f 385 409 405
f 398 411 397
f 411 412 397
f 384 414 398
f 411 398 414
f 384 413 414
f 397 412 399
f 411 415 412
f 411 416 415
f 416 417 415
f 416 418 417
f 384 405 413
f 413 419 414
f 411 419 416
f 411 414 419
f 413 418 419
f 416 419 418
f 413 420 418
f 418 421 417
f 418 420 421
f 417 421 422
f 412 415 399
f 415 423 399
f 399 423 393
f 415 417 423
f 417 422 423
f 405 420 413
f 420 422 421
f 423 425 393
f 422 425 423
f 420 426 422
f 422 426 425
f 370 389 427
f 19 370 427
f 373 386 390
f 386 388 428
f 388 401 428
f 427 389 429
f 427 429 430
f 389 390 430
f 429 389 430
f 19 427 77
f 393 424 400
f 400 424 431
f 45 96 46
f 410 432 409
f 46 432 410
f 46 96 432
f 96 99 433
f 432 434 409
f 96 434 432
f 96 433 434
f 99 105 433
f 434 436 409
f 434 437 436
f 433 437 434
f 433 105 437
f 438 439 437
f 106 437 105
f 106 438 437
f 106 107 438
f 437 439 436
f 409 436 405
f 438 440 439
f 107 440 438
f 439 441 436
f 440 441 439
f 436 441 405
f 405 435 420
f 426 443 425
f 426 442 443
f 442 426 420
f 420 435 442
f 425 443 393
f 443 444 393
f 393 444 424
f 435 445 442
f 435 447 445
f 446 445 447
f 442 445 443
f 443 448 444
f 445 449 443
f 445 446 449
f 443 449 448
f 446 450 449
f 449 450 448
f 405 451 435
f 435 452 447
f 446 447 452
f 446 452 453
f 435 451 452
f 446 454 450
f 446 453 454
f 450 455 448
f 450 454 455
f 448 455 444
f 440 456 441
f 107 456 440
f 107 114 456
f 405 441 457
f 456 458 441
f 114 458 456
f 114 115 458
f 458 459 441
f 441 459 457
f 115 118 123
f 458 460 459
f 115 460 458
f 115 123 460
f 460 461 459
f 123 461 460
f 123 124 461
f 124 122 462
f 122 129 462
f 463 464 461
f 462 461 124
f 462 463 461
f 461 464 459
f 462 129 463
f 463 465 464
f 129 465 463
f 451 467 452
f 453 452 467
f 451 457 467
f 405 457 451
f 453 468 454
f 453 467 468
f 454 468 455
f 468 444 455
f 468 469 444
f 467 470 468
f 467 457 470
f 468 470 469
f 457 469 470
f 469 471 444
f 457 466 469
f 459 466 457
f 444 474 424
f 444 471 474
f 471 475 472
f 471 472 474
f 474 472 476
f 465 477 464
f 129 477 465
f 129 133 477
f 464 478 459
f 477 478 464
f 459 478 466
f 477 479 478
f 133 479 477
f 133 137 479
f 479 480 478
f 143 144 481
f 143 141 144
f 482 484 483
f 481 483 143
f 481 482 483
f 481 144 482
f 482 485 484
f 137 146 486
f 146 143 486
f 479 487 480
f 137 487 479
f 137 486 487
f 487 483 480
f 486 483 487
f 486 143 483
f 483 484 480
f 484 485 480
f 478 480 466
f 469 488 471
f 469 466 488
f 488 473 471
f 473 475 471
f 148 153 144
f 482 489 485
f 144 489 482
f 144 153 489
f 489 490 485
f 153 490 489
f 153 154 490
f 480 485 466
f 485 491 466
f 491 492 466
f 490 493 485
f 490 494 493
f 154 494 490
f 494 495 493
f 494 496 495
f 154 496 494
f 155 159 154
f 154 159 496
f 496 498 497
f 159 498 496
f 498 499 497
f 159 160 498
f 498 500 499
f 160 500 498
f 160 161 500
f 493 501 485
f 485 501 491
f 493 503 501
f 493 502 503
f 493 504 502
f 493 495 504
f 502 505 503
f 502 504 505
f 501 506 491
f 501 503 506
f 491 506 507
f 503 508 506
f 503 505 508
f 506 509 507
f 506 508 509
f 492 510 466
f 491 511 492
f 491 507 511
f 507 513 512
f 507 509 513
f 507 512 514
f 511 507 514
f 492 511 515
f 492 516 510
f 492 515 516
f 514 519 518
f 515 519 517
f 515 518 519
f 511 518 515
f 511 514 518
f 495 520 504
f 495 496 520
f 504 521 505
f 504 520 521
f 496 522 520
f 496 497 522
f 520 524 521
f 520 523 524
f 525 527 526
f 525 524 527
f 505 526 508
f 505 525 526
f 505 524 525
f 505 521 524
f 526 528 513
f 526 527 528
f 508 513 509
f 508 526 513
f 524 529 527
f 524 523 529
f 497 530 522
f 497 499 530
f 499 531 530
f 520 532 523
f 520 522 532
f 522 533 532
f 522 534 533
f 530 534 522
f 530 531 534
f 523 532 529
f 532 535 529
f 513 528 512
f 512 536 514
f 512 528 536
f 528 527 536
f 514 538 519
f 514 536 538
f 519 539 517
f 519 538 539
f 536 540 538
f 536 537 540
f 538 541 539
f 538 540 541
f 527 542 536
f 527 529 542
f 536 542 537
f 529 543 542
f 529 535 543
f 537 544 540
f 537 542 544
f 544 545 540
f 466 510 546
f 510 516 547
f 510 547 546
f 516 548 547
f 516 515 548
f 547 548 549
f 547 549 546
f 548 550 549
f 517 551 548
f 517 539 551
f 548 551 550
f 515 517 548
f 539 541 551
f 550 551 552
f 549 550 546
f 550 553 546
f 550 552 553
f 546 553 466
f 541 552 551
f 540 545 541
f 541 555 552
f 541 545 555
f 554 555 556
f 554 552 555
f 552 557 553
f 552 554 557
f 553 557 466
f 557 558 466
f 557 554 558
f 466 558 488
f 472 475 476
f 473 559 560
f 473 560 475
f 390 386 561
f 386 428 561
f 430 390 563
f 390 561 563
f 428 401 564
f 401 562 564
f 400 431 401
f 401 431 562
f 431 565 562
f 562 565 564
f 430 563 566
f 427 566 567
f 427 430 566
f 77 427 567
f 428 564 568
f 567 570 569
f 567 566 570
f 77 567 569
f 566 563 571
f 566 571 570
f 563 561 572
f 561 573 572
f 561 428 573
f 563 574 571
f 563 572 574
f 569 576 575
f 569 570 576
f 185 576 184
f 185 575 576
f 77 575 185
f 77 569 575
f 184 577 186
f 184 576 577
f 576 578 577
f 570 578 576
f 570 571 578
f 186 579 188
f 186 577 579
f 188 580 189
f 188 579 580
f 571 581 578
f 571 574 581
f 577 581 579
f 577 578 581
f 574 582 581
f 579 582 580
f 579 581 582
f 428 584 573
f 428 568 584
f 568 585 584
f 568 586 585
f 583 587 568
f 568 587 586
f 573 589 572
f 573 588 589
f 573 590 588
f 573 584 590
f 589 588 591
f 572 589 574
f 590 592 588
f 590 584 592
f 588 593 591
f 588 592 593
f 584 594 592
f 584 585 594
f 592 595 593
f 592 594 595
f 586 594 585
f 568 596 583
f 587 597 586
f 583 598 587
f 587 599 597
f 587 598 599
f 583 596 598
f 586 600 594
f 586 597 600
f 594 600 595
f 597 601 600
f 599 601 597
f 189 580 602
f 189 602 603
f 580 604 602
f 580 582 604
f 602 604 603
f 603 604 605
f 589 591 606
f 582 606 604
f 574 606 582
f 574 589 606
f 591 607 606
f 591 593 607
f 604 606 607
f 593 608 607
f 593 595 608
f 604 608 605
f 604 607 608
f 596 610 598
f 598 610 599
f 610 611 599
f 596 612 610
f 610 612 611
f 601 613 600
f 601 614 613
f 599 614 601
f 600 613 595
f 599 611 614
f 564 609 568
f 596 615 612
f 616 617 614
f 612 614 611
f 612 616 614
f 614 617 613
f 616 615 617
f 612 615 616
f 568 618 596
f 568 609 618
f 596 618 615
f 615 619 617
f 617 619 613
f 618 609 620
f 618 621 615
f 618 620 621
f 621 619 615
f 424 474 431
f 474 622 431
f 431 622 565
f 474 476 622
f 622 476 623
f 564 565 609
f 609 624 620
f 624 625 620
f 624 626 625
f 620 627 621
f 620 625 627
f 625 628 627
f 625 626 628
f 621 627 619
f 189 603 194
f 624 629 626
f 624 609 629
f 629 630 626
f 626 630 628
f 630 631 628
f 627 632 619
f 628 632 627
f 632 633 619
f 632 634 633
f 628 634 632
f 628 631 634
f 619 633 613
f 613 635 595
f 629 636 630
f 629 609 636
f 630 636 631
f 637 638 634
f 636 634 631
f 636 637 634
f 634 638 633
f 633 638 613
f 595 635 608
f 565 622 609
f 609 639 636
f 637 639 638
f 636 639 637
f 639 640 638
f 638 640 613
f 623 609 622
f 609 641 639
f 639 641 640
f 476 642 643
f 476 643 623
f 475 560 476
f 642 476 644
f 476 560 644
f 609 623 641
f 641 645 640
f 640 645 613
f 603 605 646
f 605 608 646
f 623 647 641
f 645 648 613
f 613 648 635
f 635 649 608
f 646 608 649
f 643 647 623
f 643 642 647
f 161 158 650
f 158 199 650
f 500 651 499
f 500 652 651
f 500 653 652
f 161 653 500
f 161 650 653
f 653 654 652
f 199 203 650
f 653 655 654
f 650 655 653
f 650 203 655
f 499 656 531
f 499 651 656
f 651 657 656
f 651 652 657
f 534 658 533
f 534 659 658
f 531 659 534
f 531 656 659
f 659 657 658
f 656 657 659
f 532 533 535
f 533 660 535
f 533 658 660
f 652 661 657
f 652 654 661
f 654 662 661
f 661 662 663
f 657 664 658
f 657 665 664
f 661 664 665
f 661 663 664
f 657 661 665
f 658 664 666
f 658 666 660
f 663 667 664
f 666 668 660
f 666 664 668
f 667 668 664
f 667 669 668
f 535 670 543
f 535 660 670
f 670 671 543
f 672 671 670
f 542 543 544
f 544 673 545
f 543 674 544
f 543 671 674
f 544 675 673
f 544 674 675
f 660 676 670
f 672 670 676
f 660 677 676
f 660 668 677
f 676 678 671
f 676 677 678
f 676 671 672
f 671 679 674
f 671 678 679
f 679 680 674
f 681 680 679
f 681 682 680
f 663 683 667
f 663 662 683
f 667 684 669
f 667 683 684
f 683 685 684
f 683 662 685
f 684 687 686
f 684 685 687
f 686 687 688
f 668 689 677
f 684 686 689
f 669 689 668
f 669 684 689
f 677 690 678
f 677 689 690
f 686 690 689
f 686 688 690
f 681 691 682
f 681 688 691
f 688 687 692
f 688 692 691
f 678 690 679
f 681 690 688
f 681 679 690
f 687 685 692
f 203 201 693
f 201 206 693
f 203 693 655
f 655 694 654
f 693 694 655
f 694 695 654
f 206 213 693
f 206 209 213
f 693 213 696
f 693 696 694
f 694 697 695
f 696 697 694
f 654 695 662
f 685 662 692
f 692 662 698
f 695 699 662
f 662 699 698
f 556 545 700
f 556 555 545
f 673 701 545
f 673 675 701
f 700 545 701
f 556 702 554
f 556 700 702
f 554 703 558
f 554 702 703
f 700 704 702
f 700 701 704
f 702 704 703
f 705 707 706
f 705 708 707
f 675 705 701
f 701 705 706
f 674 709 675
f 674 680 709
f 682 709 680
f 682 708 709
f 705 709 708
f 705 675 709
f 701 710 704
f 701 706 710
f 704 711 703
f 704 710 711
f 706 712 710
f 706 707 712
f 710 712 711
f 488 558 703
f 488 703 711
f 682 713 708
f 682 691 713
f 708 714 707
f 708 713 714
f 691 715 713
f 691 692 715
f 713 716 714
f 713 715 716
f 707 698 712
f 707 714 698
f 712 698 711
f 714 716 698
f 716 715 698
f 488 717 473
f 692 698 715
f 698 718 711
f 488 711 718
f 213 720 696
f 697 720 695
f 696 720 697
f 720 721 695
f 213 721 720
f 695 721 699
f 721 722 699
f 721 723 722
f 213 723 721
f 213 218 723
f 723 724 722
f 218 724 723
f 222 226 219
f 218 219 724
f 724 725 722
f 722 725 699
f 724 726 725
f 219 726 724
f 219 226 726
f 725 728 699
f 726 729 725
f 226 729 726
f 226 727 729
f 699 728 698
f 728 718 698
f 717 730 473
f 473 730 719
f 473 731 559
f 473 719 731
f 559 731 732
f 559 732 644
f 226 267 727
f 267 733 727
f 729 734 725
f 725 734 728
f 729 733 734
f 727 733 729
f 733 735 734
f 267 735 733
f 734 735 728
f 263 272 267
f 267 272 736
f 735 737 728
f 267 737 735
f 267 736 737
f 737 738 728
f 736 738 737
f 728 739 718
f 738 740 728
f 736 272 738
f 738 741 740
f 272 741 738
f 270 275 272
f 272 275 741
f 741 742 740
f 275 742 741
f 488 743 717
f 488 718 743
f 739 744 718
f 739 745 744
f 739 746 745
f 747 746 748
f 747 745 746
f 743 749 717
f 747 750 749
f 747 748 750
f 749 751 717
f 749 750 751
f 717 751 730
f 744 752 718
f 743 718 752
f 744 753 752
f 744 745 753
f 747 753 745
f 747 749 753
f 743 753 749
f 743 752 753
f 270 278 275
f 278 755 275
f 742 756 740
f 275 755 742
f 740 757 728
f 740 756 757
f 742 758 756
f 755 758 742
f 728 759 739
f 728 757 760
f 278 761 755
f 278 285 761
f 755 761 758
f 758 762 756
f 761 762 758
f 756 762 757
f 762 763 757
f 761 763 762
f 761 285 763
f 728 760 759
f 284 764 285
f 763 765 757
f 763 766 765
f 285 766 763
f 285 764 766
f 757 765 760
f 284 292 764
f 766 767 765
f 764 767 766
f 764 292 767
f 739 759 746
f 748 746 768
f 759 769 746
f 768 746 769
f 748 768 750
f 768 770 750
f 750 770 751
f 770 771 751
f 751 771 730
f 759 772 769
f 768 769 772
f 759 773 772
f 768 774 770
f 768 772 774
f 770 774 771
f 772 775 774
f 772 773 775
f 774 775 771
f 775 776 771
f 773 776 775
f 771 776 730
f 759 777 773
f 773 777 776
f 719 778 731
f 719 730 779
f 719 779 778
f 731 778 732
f 730 780 779
f 730 754 780
f 780 754 781
f 780 782 779
f 780 781 782
f 767 783 765
f 767 784 783
f 292 784 767
f 290 785 292
f 290 786 785
f 292 785 784
f 784 785 783
f 783 787 765
f 785 788 783
f 786 788 785
f 783 788 787
f 765 787 760
f 290 298 786
f 788 789 787
f 786 789 788
f 786 298 789
f 789 790 787
f 789 791 790
f 298 791 789
f 787 792 760
f 787 790 792
f 297 300 298
f 298 300 791
f 791 793 790
f 300 793 791
f 759 794 777
f 777 795 776
f 776 795 730
f 760 796 759
f 759 796 794
f 777 794 797
f 777 797 795
f 795 800 730
f 795 799 800
f 730 800 754
f 801 803 802
f 801 804 803
f 804 805 803
f 760 792 798
f 760 806 796
f 760 798 806
f 796 807 794
f 796 806 807
f 801 807 806
f 801 802 807
f 797 807 802
f 797 794 807
f 798 808 806
f 801 808 804
f 801 806 808
f 798 792 808
f 804 808 805
f 797 802 795
f 802 799 795
f 802 803 799
f 805 809 803
f 805 810 809
f 805 811 810
f 792 812 808
f 805 808 812
f 792 811 812
f 805 812 811
f 803 809 799
f 809 800 799
f 809 810 800
f 300 302 303
f 300 303 793
f 793 814 790
f 793 815 814
f 303 815 793
f 790 816 792
f 303 308 817
f 815 818 814
f 815 819 818
f 303 819 815
f 819 820 818
f 819 821 820
f 303 821 819
f 303 817 821
f 817 822 821
f 790 814 816
f 814 818 816
f 818 820 823
f 822 820 821
f 820 822 823
f 817 825 822
f 817 826 825
f 308 826 817
f 826 315 825
f 308 315 826
f 318 827 315
f 318 319 827
f 315 828 825
f 315 827 828
f 822 829 823
f 822 825 829
f 823 829 824
f 827 830 829
f 827 831 830
f 324 830 831
f 324 325 830
f 319 831 827
f 319 324 831
f 825 828 832
f 827 832 828
f 827 829 832
f 825 832 829
f 811 833 810
f 811 834 833
f 834 835 833
f 835 836 833
f 792 834 811
f 792 816 834
f 835 834 816
f 810 833 800
f 833 837 800
f 833 836 837
f 835 838 836
f 838 837 836
f 838 839 837
f 839 840 837
f 839 841 840
f 816 818 842
f 816 838 835
f 816 842 838
f 818 823 842
f 842 839 838
f 842 823 839
f 823 841 839
f 823 824 841
f 843 841 824
f 813 800 837
f 841 844 840
f 841 843 844
f 824 829 843
f 843 829 845
f 829 830 845
f 840 844 846
f 844 843 846
f 846 843 847
f 843 845 847
f 800 813 754
f 754 848 781
f 813 848 754
f 813 837 848
f 837 840 849
f 845 830 850
f 325 850 830
f 840 846 849
f 845 850 851
f 325 330 850
f 847 845 851
f 851 850 852
f 848 837 853
f 837 849 853
f 852 850 854
f 330 854 850
f 847 851 852
f 559 644 560
f 644 855 642
f 642 855 647
f 647 855 641
f 644 732 855
f 855 856 641
f 641 857 645
f 856 857 641
f 645 858 648
f 648 858 635
f 194 603 859
f 603 646 859
f 858 860 635
f 635 860 649
f 782 861 779
f 732 778 855
f 778 779 862
f 779 861 862
f 855 778 862
f 855 862 856
f 857 863 645
f 645 863 858
f 194 859 333
f 862 864 856
f 856 865 857
f 857 865 863
f 856 864 865
f 782 866 861
f 862 868 864
f 862 867 868
f 861 867 862
f 867 869 868
f 868 871 870
f 868 869 871
f 865 868 870
f 864 868 865
f 865 870 863
f 870 871 863
f 867 872 869
f 867 861 872
f 861 873 872
f 869 874 871
f 869 872 874
f 872 873 874
f 871 875 863
f 871 876 875
f 874 876 871
f 863 875 858
f 860 877 649
f 646 649 877
f 861 866 873
f 873 878 874
f 873 879 878
f 873 866 879
f 876 878 875
f 874 878 876
f 878 879 875
f 866 880 879
f 879 880 875
f 880 881 875
f 875 881 858
f 782 781 866
f 781 848 866
f 852 882 847
f 852 854 883
f 330 883 854
f 849 846 884
f 846 847 884
f 884 847 882
f 330 338 883
f 885 886 866
f 866 886 880
f 886 887 880
f 866 848 885
f 886 888 887
f 886 885 888
f 880 887 881
f 887 889 881
f 887 888 889
f 881 889 858
f 885 848 890
f 885 891 888
f 888 892 889
f 888 891 892
f 885 890 891
f 891 893 892
f 890 894 891
f 891 894 893
f 889 892 858
f 892 895 858
f 893 895 892
f 852 896 882
f 852 883 896
f 890 897 894
f 894 897 893
f 890 853 897
f 897 898 893
f 853 899 897
f 897 900 898
f 897 899 900
f 895 901 858
f 858 901 860
f 895 898 901
f 893 898 895
f 898 900 901
f 848 853 890
f 853 849 902
f 899 903 900
f 899 904 903
f 899 853 904
f 853 905 904
f 853 902 905
f 900 906 901
f 901 906 860
f 900 907 906
f 900 903 907
f 906 908 860
f 906 907 908
f 903 909 907
f 903 910 909
f 903 904 910
f 907 911 908
f 907 909 911
f 905 912 910
f 904 905 910
f 909 912 911
f 909 910 912
f 333 859 914
f 859 915 914
f 859 646 915
f 333 914 345
f 345 914 916
f 914 917 916
f 914 915 917
f 860 908 877
f 646 877 915
f 908 918 877
f 908 911 918
f 915 877 918
f 911 919 918
f 911 912 919
f 913 919 912
f 913 917 919
f 915 919 917
f 915 918 919
f 849 884 902
f 902 884 905
f 905 884 912
f 912 920 913
f 912 884 920
f 884 882 920
f 896 883 921
f 338 349 883
f 345 922 355
f 345 916 922
f 355 922 356
f 913 923 917
f 913 920 923
f 916 923 922
f 916 917 923
f 920 924 923
f 920 882 924
f 922 923 924
f 356 925 360
f 356 922 925
f 921 926 925
f 921 883 926
f 349 926 883
f 349 361 926
f 360 926 361
f 360 925 926
f 882 896 924
f 921 924 896
f 921 925 924
f 922 924 925

